M48
INCH
T67C0.120
T66C0.020
T65C0.043
T64C0.022
T63C0.043
T62C0.053
T61C0.035
T60C0.039
T59C0.032
T58C0.038
T57C0.028
%
T66
X015900Y035400
X015900Y034500
X015900Y033500
X016900Y034100
X024700Y033400
X023100Y033500
X023100Y031700
X024500Y036800
X016300Y029900
X017200Y030000
X017510Y031590
X021100Y035000
X018900Y039100
X021100Y039400
X020100Y041400
X017100Y038700
X031000Y038100
X031100Y037200
X031000Y036500
X025600Y033900
X028100Y033600
X030700Y030000
X029600Y031200
X027700Y031700
X031000Y035160
X031030Y034670
X031030Y034230
X029900Y034000
X026300Y043000
X025300Y042550
X027100Y037100
T64
X028230Y041800
X027915Y042272
X027600Y041800
X027285Y042272
X026970Y041800
T57
X018600Y035500
X018600Y032500
X017600Y035500
X017600Y032500
X016600Y035500
X016600Y032500
X019600Y032500
X020600Y032500
X021600Y032500
X029600Y035500
X028600Y035500
X027600Y035500
X026600Y035500
X025600Y035500
X024600Y035500
X023600Y035500
X022600Y035500
X021600Y035500
X020600Y035500
X019600Y035500
X022600Y032500
X023600Y032500
X024600Y032500
X025600Y032500
X026600Y032500
X027600Y032500
X028600Y032500
X029600Y032500
T59
X019800Y038900
X021720Y038900
T61
X016798Y042475
X020798Y042475
X025952Y040375
X023700Y040900
X023700Y038900
X024900Y039200
X024900Y041200
X030600Y035700
X030600Y033700
X029952Y040375
T58
X017100Y037300
X018100Y037300
X019100Y037300
X020100Y037300
X021100Y037300
X022100Y037300
X023100Y037300
X024100Y037300
X025450Y038000
X026450Y038000
X018700Y043600
X018700Y044600
X017400Y041400
X017400Y040300
X016700Y043600
X016700Y044600
X017700Y043600
X017700Y044600
X019700Y043600
X019700Y044600
X020700Y044600
X022100Y044600
X020700Y043600
X023600Y042500
X024600Y042500
X022100Y040600
X021400Y041400
X021400Y040300
X026000Y039300
X028500Y038000
X027500Y038000
X029500Y036600
X025500Y036600
X030100Y030700
X029100Y030700
X028100Y030700
X027100Y030700
X026100Y030700
X025100Y030700
X024100Y030700
X023100Y030700
X022100Y030700
X021100Y030700
X020100Y030700
X019100Y030700
X018100Y030700
X017100Y030700
X030000Y039300
T60
X013600Y041400
X016159Y041400
X016159Y039628
X013600Y039628
X030800Y039628
X030800Y041400
X033359Y041400
X033359Y039628
T63
X030300Y037400
X030300Y038400
T65
X026163Y042154
X029037Y042154
T62
X026163Y043985
X029037Y043985
T67
X023532Y044013
M30
