G04 start of page 3 for group 5 idx 5 *
G04 Title: (unknown), bottom *
G04 Creator: pcb 20110918 *
G04 CreationDate: mer. 09 avril 2014 15:18:50 GMT UTC *
G04 For: virtualabs *
G04 Format: Gerber/RS-274X *
G04 PCB-Dimensions: 600000 500000 *
G04 PCB-Coordinate-Origin: lower left *
%MOIN*%
%FSLAX25Y25*%
%LNBOTTOM*%
%ADD55C,0.0216*%
%ADD54C,0.0430*%
%ADD53C,0.0532*%
%ADD52C,0.0350*%
%ADD51C,0.0394*%
%ADD50C,0.0320*%
%ADD49C,0.0380*%
%ADD48C,0.0280*%
%ADD47C,0.1200*%
%ADD46C,0.0200*%
%ADD45C,0.1560*%
%ADD44C,0.0360*%
%ADD43C,0.0669*%
%ADD42C,0.0433*%
%ADD41C,0.0650*%
%ADD40C,0.0748*%
%ADD39C,0.0680*%
%ADD38C,0.0800*%
%ADD37C,0.0872*%
%ADD36C,0.0600*%
%ADD35C,0.0100*%
%ADD34C,0.0001*%
G54D34*G36*
X280000Y300000D02*X304191D01*
X304226Y299561D01*
X304329Y299132D01*
X304497Y298725D01*
X304728Y298349D01*
X305014Y298014D01*
X305349Y297728D01*
X305725Y297497D01*
X306132Y297329D01*
X306561Y297226D01*
X307000Y297191D01*
X307439Y297226D01*
X307868Y297329D01*
X308275Y297497D01*
X308651Y297728D01*
X308986Y298014D01*
X309272Y298349D01*
X309503Y298725D01*
X309671Y299132D01*
X309774Y299561D01*
X309800Y300000D01*
X310000D01*
Y270000D01*
X280000D01*
Y300000D01*
G37*
G36*
X338705Y420000D02*X340000D01*
Y330000D01*
X338705D01*
Y392523D01*
X338728Y392551D01*
X339249Y393400D01*
X339630Y394321D01*
X339863Y395290D01*
X339922Y396283D01*
X339863Y397276D01*
X339630Y398245D01*
X339249Y399166D01*
X338728Y400015D01*
X338705Y400043D01*
Y410874D01*
X338834Y410913D01*
X338974Y410980D01*
X339101Y411067D01*
X339213Y411174D01*
X339308Y411297D01*
X339379Y411435D01*
X339598Y411980D01*
X339759Y412544D01*
X339867Y413122D01*
X339921Y413706D01*
Y414294D01*
X339867Y414878D01*
X339759Y415456D01*
X339598Y416020D01*
X339385Y416568D01*
X339312Y416705D01*
X339217Y416829D01*
X339104Y416936D01*
X338976Y417025D01*
X338836Y417092D01*
X338705Y417131D01*
Y420000D01*
G37*
G36*
Y330000D02*X333593D01*
Y389933D01*
X334584Y390011D01*
X335553Y390244D01*
X336474Y390625D01*
X337323Y391146D01*
X338081Y391793D01*
X338705Y392523D01*
Y330000D01*
G37*
G36*
X333593Y418357D02*X333793D01*
X334196Y418320D01*
X334593Y418245D01*
X334982Y418134D01*
X335358Y417988D01*
X335503Y417934D01*
X335656Y417906D01*
X335811Y417902D01*
X335964Y417922D01*
X336113Y417967D01*
X336252Y418034D01*
X336380Y418121D01*
X336492Y418228D01*
X336586Y418351D01*
X336660Y418488D01*
X336711Y418634D01*
X336739Y418786D01*
X336743Y418941D01*
X336723Y419095D01*
X336678Y419243D01*
X336611Y419383D01*
X336524Y419510D01*
X336417Y419622D01*
X336294Y419717D01*
X336156Y419788D01*
X335628Y420000D01*
X338705D01*
Y417131D01*
X338687Y417136D01*
X338532Y417157D01*
X338377Y417153D01*
X338224Y417125D01*
X338077Y417073D01*
X337940Y416999D01*
X337816Y416905D01*
X337709Y416792D01*
X337620Y416664D01*
X337553Y416523D01*
X337509Y416374D01*
X337488Y416220D01*
X337492Y416064D01*
X337520Y415911D01*
X337575Y415766D01*
X337725Y415391D01*
X337836Y415002D01*
X337911Y414605D01*
X337948Y414202D01*
Y413798D01*
X337911Y413395D01*
X337836Y412998D01*
X337725Y412609D01*
X337579Y412233D01*
X337525Y412088D01*
X337497Y411935D01*
X337493Y411780D01*
X337513Y411627D01*
X337558Y411478D01*
X337625Y411339D01*
X337712Y411211D01*
X337819Y411099D01*
X337942Y411005D01*
X338079Y410931D01*
X338225Y410880D01*
X338377Y410852D01*
X338532Y410848D01*
X338686Y410868D01*
X338705Y410874D01*
Y400043D01*
X338081Y400773D01*
X337323Y401420D01*
X336474Y401941D01*
X335553Y402322D01*
X334584Y402555D01*
X333593Y402633D01*
Y407670D01*
X333885D01*
X334469Y407724D01*
X335047Y407832D01*
X335611Y407993D01*
X336159Y408206D01*
X336296Y408279D01*
X336420Y408374D01*
X336527Y408487D01*
X336616Y408615D01*
X336683Y408755D01*
X336727Y408904D01*
X336748Y409059D01*
X336744Y409214D01*
X336716Y409367D01*
X336664Y409514D01*
X336590Y409651D01*
X336496Y409775D01*
X336383Y409882D01*
X336255Y409971D01*
X336114Y410038D01*
X335965Y410082D01*
X335811Y410103D01*
X335655Y410099D01*
X335502Y410071D01*
X335357Y410016D01*
X334982Y409866D01*
X334593Y409755D01*
X334196Y409680D01*
X333793Y409643D01*
X333593D01*
Y418357D01*
G37*
G36*
X328477Y392523D02*X329101Y391793D01*
X329859Y391146D01*
X330708Y390625D01*
X331629Y390244D01*
X332598Y390011D01*
X333591Y389933D01*
X333593Y389933D01*
Y330000D01*
X328477D01*
Y392523D01*
G37*
G36*
Y420000D02*X331554D01*
X331023Y419794D01*
X330886Y419721D01*
X330762Y419626D01*
X330655Y419513D01*
X330566Y419385D01*
X330499Y419245D01*
X330455Y419096D01*
X330434Y418941D01*
X330438Y418786D01*
X330466Y418633D01*
X330518Y418486D01*
X330592Y418349D01*
X330686Y418225D01*
X330799Y418118D01*
X330927Y418029D01*
X331068Y417962D01*
X331217Y417918D01*
X331371Y417897D01*
X331527Y417901D01*
X331680Y417929D01*
X331825Y417984D01*
X332200Y418134D01*
X332589Y418245D01*
X332986Y418320D01*
X333389Y418357D01*
X333593D01*
Y409643D01*
X333389D01*
X332986Y409680D01*
X332589Y409755D01*
X332200Y409866D01*
X331824Y410012D01*
X331679Y410066D01*
X331526Y410094D01*
X331371Y410098D01*
X331218Y410078D01*
X331069Y410033D01*
X330930Y409966D01*
X330802Y409879D01*
X330690Y409772D01*
X330596Y409649D01*
X330522Y409512D01*
X330471Y409366D01*
X330443Y409214D01*
X330439Y409059D01*
X330459Y408905D01*
X330504Y408757D01*
X330571Y408617D01*
X330658Y408490D01*
X330765Y408378D01*
X330888Y408283D01*
X331026Y408212D01*
X331571Y407993D01*
X332135Y407832D01*
X332713Y407724D01*
X333297Y407670D01*
X333593D01*
Y402633D01*
X333591Y402633D01*
X332598Y402555D01*
X331629Y402322D01*
X330708Y401941D01*
X329859Y401420D01*
X329101Y400773D01*
X328477Y400043D01*
Y410869D01*
X328495Y410864D01*
X328650Y410843D01*
X328805Y410847D01*
X328958Y410875D01*
X329105Y410927D01*
X329242Y411001D01*
X329366Y411095D01*
X329473Y411208D01*
X329562Y411336D01*
X329629Y411477D01*
X329673Y411626D01*
X329694Y411780D01*
X329690Y411936D01*
X329662Y412089D01*
X329607Y412234D01*
X329457Y412609D01*
X329346Y412998D01*
X329271Y413395D01*
X329234Y413798D01*
Y414202D01*
X329271Y414605D01*
X329346Y415002D01*
X329457Y415391D01*
X329603Y415767D01*
X329657Y415912D01*
X329685Y416065D01*
X329689Y416220D01*
X329669Y416373D01*
X329624Y416522D01*
X329557Y416661D01*
X329470Y416789D01*
X329363Y416901D01*
X329240Y416995D01*
X329103Y417069D01*
X328957Y417120D01*
X328805Y417148D01*
X328650Y417152D01*
X328496Y417132D01*
X328477Y417126D01*
Y420000D01*
G37*
G36*
X313114D02*X328477D01*
Y417126D01*
X328348Y417087D01*
X328208Y417020D01*
X328081Y416933D01*
X327969Y416826D01*
X327874Y416703D01*
X327803Y416565D01*
X327584Y416020D01*
X327423Y415456D01*
X327315Y414878D01*
X327261Y414294D01*
Y413706D01*
X327315Y413122D01*
X327423Y412544D01*
X327584Y411980D01*
X327797Y411432D01*
X327870Y411295D01*
X327965Y411171D01*
X328078Y411064D01*
X328206Y410975D01*
X328346Y410908D01*
X328477Y410869D01*
Y400043D01*
X328454Y400015D01*
X327933Y399166D01*
X327552Y398245D01*
X327319Y397276D01*
X327241Y396283D01*
X327319Y395290D01*
X327552Y394321D01*
X327933Y393400D01*
X328454Y392551D01*
X328477Y392523D01*
Y330000D01*
X313114D01*
Y331993D01*
X316019Y334898D01*
X316064Y334936D01*
X316217Y335115D01*
X316217Y335116D01*
X316341Y335317D01*
X316431Y335535D01*
X316486Y335765D01*
X316505Y336000D01*
X316500Y336059D01*
Y359941D01*
X316505Y360000D01*
X316486Y360235D01*
X316486Y360235D01*
X316431Y360465D01*
X316341Y360683D01*
X316217Y360884D01*
X316064Y361064D01*
X316019Y361102D01*
X313114Y364007D01*
Y370164D01*
X313272Y370349D01*
X313503Y370725D01*
X313671Y371132D01*
X313774Y371561D01*
X313800Y372000D01*
X313774Y372439D01*
X313671Y372868D01*
X313503Y373275D01*
X313272Y373651D01*
X313114Y373836D01*
Y374500D01*
X316941D01*
X317000Y374495D01*
X317059Y374500D01*
X317100D01*
X317335Y374514D01*
X317565Y374569D01*
X317783Y374659D01*
X317984Y374783D01*
X318164Y374936D01*
X318317Y375116D01*
X318441Y375317D01*
X318442Y375321D01*
X323019Y379898D01*
X323064Y379936D01*
X323217Y380115D01*
X323217Y380116D01*
X323341Y380317D01*
X323431Y380535D01*
X323486Y380765D01*
X323505Y381000D01*
X323500Y381059D01*
Y404883D01*
X323500Y404885D01*
X323500Y404994D01*
Y405000D01*
X323500Y405000D01*
Y405000D01*
X323500Y405121D01*
X323489Y405189D01*
X323486Y405235D01*
X323472Y405294D01*
X323462Y405354D01*
X323444Y405409D01*
X323431Y405465D01*
X323408Y405521D01*
X323389Y405578D01*
X323363Y405630D01*
X323341Y405683D01*
X323309Y405735D01*
X323282Y405788D01*
X323253Y405825D01*
X323217Y405884D01*
X323139Y405976D01*
X323139Y405976D01*
X323136Y405979D01*
X323064Y406064D01*
X323063Y406065D01*
X320505Y409049D01*
X320139Y409476D01*
X320139Y409476D01*
X320064Y409564D01*
X320009Y409611D01*
X319975Y409646D01*
X319928Y409680D01*
X319884Y409717D01*
X319833Y409749D01*
X319784Y409784D01*
X319732Y409810D01*
X319683Y409841D01*
X319627Y409864D01*
X319573Y409891D01*
X319518Y409909D01*
X319465Y409931D01*
X319406Y409945D01*
X319349Y409964D01*
X319292Y409973D01*
X319235Y409986D01*
X319187Y409989D01*
X319115Y410000D01*
X319000Y410000D01*
X319000Y410000D01*
X313114D01*
Y410874D01*
X313243Y410913D01*
X313383Y410980D01*
X313510Y411067D01*
X313622Y411174D01*
X313717Y411297D01*
X313788Y411435D01*
X314007Y411980D01*
X314168Y412544D01*
X314276Y413122D01*
X314330Y413706D01*
Y414294D01*
X314276Y414878D01*
X314168Y415456D01*
X314007Y416020D01*
X313794Y416568D01*
X313721Y416705D01*
X313626Y416829D01*
X313513Y416936D01*
X313385Y417025D01*
X313245Y417092D01*
X313114Y417131D01*
Y420000D01*
G37*
G36*
Y373836D02*X312986Y373986D01*
X312651Y374272D01*
X312279Y374500D01*
X313114D01*
Y373836D01*
G37*
G36*
Y364007D02*X312733Y364389D01*
X312774Y364561D01*
X312800Y365000D01*
X312774Y365439D01*
X312671Y365868D01*
X312503Y366275D01*
X312272Y366651D01*
X311986Y366986D01*
X311651Y367272D01*
X311275Y367503D01*
X310868Y367671D01*
X310439Y367774D01*
X310000Y367809D01*
X309561Y367774D01*
X309132Y367671D01*
X308725Y367503D01*
X308464Y367343D01*
X310389Y369267D01*
X310561Y369226D01*
X311000Y369191D01*
X311439Y369226D01*
X311868Y369329D01*
X312275Y369497D01*
X312651Y369728D01*
X312986Y370014D01*
X313114Y370164D01*
Y364007D01*
G37*
G36*
Y330000D02*X311121D01*
X313114Y331993D01*
Y330000D01*
G37*
G36*
X310523Y410038D02*X310374Y410082D01*
X310220Y410103D01*
X310064Y410099D01*
X309911Y410071D01*
X309766Y410016D01*
X309725Y410000D01*
X308000D01*
Y418357D01*
X308202D01*
X308605Y418320D01*
X309002Y418245D01*
X309391Y418134D01*
X309767Y417988D01*
X309912Y417934D01*
X310065Y417906D01*
X310220Y417902D01*
X310373Y417922D01*
X310522Y417967D01*
X310661Y418034D01*
X310789Y418121D01*
X310901Y418228D01*
X310995Y418351D01*
X311069Y418488D01*
X311120Y418634D01*
X311148Y418786D01*
X311152Y418941D01*
X311132Y419095D01*
X311087Y419243D01*
X311020Y419383D01*
X310933Y419510D01*
X310826Y419622D01*
X310703Y419717D01*
X310565Y419788D01*
X310037Y420000D01*
X313114D01*
Y417131D01*
X313096Y417136D01*
X312941Y417157D01*
X312786Y417153D01*
X312633Y417125D01*
X312486Y417073D01*
X312349Y416999D01*
X312225Y416905D01*
X312118Y416792D01*
X312029Y416664D01*
X311962Y416523D01*
X311918Y416374D01*
X311897Y416220D01*
X311901Y416064D01*
X311929Y415911D01*
X311984Y415766D01*
X312134Y415391D01*
X312245Y415002D01*
X312320Y414605D01*
X312357Y414202D01*
Y413798D01*
X312320Y413395D01*
X312245Y412998D01*
X312134Y412609D01*
X311988Y412233D01*
X311934Y412088D01*
X311906Y411935D01*
X311902Y411780D01*
X311922Y411627D01*
X311967Y411478D01*
X312034Y411339D01*
X312121Y411211D01*
X312228Y411099D01*
X312351Y411005D01*
X312488Y410931D01*
X312634Y410880D01*
X312786Y410852D01*
X312941Y410848D01*
X313095Y410868D01*
X313114Y410874D01*
Y410000D01*
X310602D01*
X310523Y410038D01*
G37*
G36*
X160000Y300000D02*X160384D01*
X160329Y299868D01*
X160226Y299439D01*
X160191Y299000D01*
X160226Y298561D01*
X160329Y298132D01*
X160497Y297725D01*
X160728Y297349D01*
X161014Y297014D01*
X161349Y296728D01*
X161725Y296497D01*
X162132Y296329D01*
X162561Y296226D01*
X163000Y296191D01*
X163439Y296226D01*
X163868Y296329D01*
X164275Y296497D01*
X164651Y296728D01*
X164986Y297014D01*
X165272Y297349D01*
X165503Y297725D01*
X165671Y298132D01*
X165774Y298561D01*
X165800Y299000D01*
X165774Y299439D01*
X165671Y299868D01*
X165616Y300000D01*
X169191D01*
X169226Y299561D01*
X169329Y299132D01*
X169497Y298725D01*
X169728Y298349D01*
X170014Y298014D01*
X170349Y297728D01*
X170725Y297497D01*
X171132Y297329D01*
X171561Y297226D01*
X172000Y297191D01*
X172439Y297226D01*
X172868Y297329D01*
X173275Y297497D01*
X173651Y297728D01*
X173986Y298014D01*
X174272Y298349D01*
X174503Y298725D01*
X174671Y299132D01*
X174774Y299561D01*
X174800Y300000D01*
X190000D01*
Y270000D01*
X160000D01*
Y300000D01*
G37*
G36*
X220000Y301000D02*X250000D01*
Y270000D01*
X220000D01*
Y301000D01*
G37*
G36*
X226002Y320486D02*X226706Y320542D01*
X227395Y320707D01*
X228049Y320978D01*
X228653Y321348D01*
X229192Y321808D01*
X229500Y322169D01*
Y319365D01*
X229349Y319272D01*
X229014Y318986D01*
X228728Y318651D01*
X228497Y318275D01*
X228329Y317868D01*
X228226Y317439D01*
X228191Y317000D01*
X228226Y316561D01*
X228329Y316132D01*
X228497Y315725D01*
X228635Y315500D01*
X226002D01*
Y320486D01*
G37*
G36*
X239613Y338266D02*X241500Y336379D01*
Y333059D01*
X241495Y333000D01*
X241514Y332765D01*
X241569Y332535D01*
X241659Y332317D01*
X241783Y332116D01*
X241783Y332115D01*
X241936Y331936D01*
X241981Y331898D01*
X244500Y329379D01*
Y329249D01*
X243951Y329022D01*
X243347Y328652D01*
X242808Y328192D01*
X242348Y327653D01*
X241978Y327049D01*
X241707Y326395D01*
X241542Y325706D01*
X241486Y325000D01*
X241542Y324294D01*
X241707Y323605D01*
X241978Y322951D01*
X242348Y322347D01*
X242808Y321808D01*
X243347Y321348D01*
X243951Y320978D01*
X244605Y320707D01*
X245294Y320542D01*
X246000Y320486D01*
X246706Y320542D01*
X247395Y320707D01*
X248049Y320978D01*
X248653Y321348D01*
X249192Y321808D01*
X249500Y322169D01*
Y321621D01*
X243379Y315500D01*
X239613D01*
Y322853D01*
X239656Y322860D01*
X239768Y322897D01*
X239873Y322952D01*
X239968Y323022D01*
X240051Y323106D01*
X240119Y323202D01*
X240170Y323308D01*
X240318Y323716D01*
X240422Y324137D01*
X240484Y324567D01*
X240505Y325000D01*
X240484Y325433D01*
X240422Y325863D01*
X240318Y326284D01*
X240175Y326694D01*
X240122Y326800D01*
X240053Y326896D01*
X239970Y326981D01*
X239875Y327051D01*
X239769Y327106D01*
X239657Y327143D01*
X239613Y327151D01*
Y338266D01*
G37*
G36*
X236002Y341877D02*X239613Y338266D01*
Y327151D01*
X239540Y327163D01*
X239421Y327164D01*
X239304Y327146D01*
X239191Y327110D01*
X239085Y327057D01*
X238988Y326988D01*
X238904Y326905D01*
X238833Y326809D01*
X238779Y326704D01*
X238741Y326592D01*
X238722Y326475D01*
X238721Y326356D01*
X238739Y326239D01*
X238777Y326126D01*
X238876Y325855D01*
X238944Y325575D01*
X238986Y325289D01*
X239000Y325000D01*
X238986Y324711D01*
X238944Y324425D01*
X238876Y324145D01*
X238780Y323872D01*
X238742Y323761D01*
X238725Y323644D01*
X238725Y323526D01*
X238745Y323409D01*
X238782Y323297D01*
X238836Y323193D01*
X238906Y323098D01*
X238991Y323015D01*
X239087Y322946D01*
X239192Y322893D01*
X239305Y322857D01*
X239421Y322840D01*
X239539Y322841D01*
X239613Y322853D01*
Y315500D01*
X236002D01*
Y320495D01*
X236433Y320516D01*
X236863Y320578D01*
X237284Y320682D01*
X237694Y320825D01*
X237800Y320878D01*
X237896Y320947D01*
X237981Y321030D01*
X238051Y321125D01*
X238106Y321231D01*
X238143Y321343D01*
X238163Y321460D01*
X238164Y321579D01*
X238146Y321696D01*
X238110Y321809D01*
X238057Y321915D01*
X237988Y322012D01*
X237905Y322096D01*
X237809Y322167D01*
X237704Y322221D01*
X237592Y322259D01*
X237475Y322278D01*
X237356Y322279D01*
X237239Y322261D01*
X237126Y322223D01*
X236855Y322124D01*
X236575Y322056D01*
X236289Y322014D01*
X236002Y322000D01*
Y328000D01*
X236289Y327986D01*
X236575Y327944D01*
X236855Y327876D01*
X237128Y327780D01*
X237239Y327742D01*
X237356Y327725D01*
X237474Y327725D01*
X237591Y327745D01*
X237703Y327782D01*
X237807Y327836D01*
X237902Y327906D01*
X237985Y327991D01*
X238054Y328087D01*
X238107Y328192D01*
X238143Y328305D01*
X238160Y328421D01*
X238159Y328539D01*
X238140Y328656D01*
X238103Y328768D01*
X238048Y328873D01*
X237978Y328968D01*
X237894Y329051D01*
X237798Y329119D01*
X237692Y329170D01*
X237284Y329318D01*
X236863Y329422D01*
X236433Y329484D01*
X236002Y329505D01*
Y341877D01*
G37*
G36*
X226002Y364877D02*X229500Y361379D01*
Y357163D01*
X229421Y357164D01*
X229304Y357146D01*
X229191Y357110D01*
X229085Y357057D01*
X228988Y356988D01*
X228904Y356905D01*
X228833Y356809D01*
X228779Y356704D01*
X228741Y356592D01*
X228722Y356475D01*
X228721Y356356D01*
X228739Y356239D01*
X228777Y356126D01*
X228876Y355855D01*
X228944Y355575D01*
X228986Y355289D01*
X229000Y355000D01*
X228986Y354711D01*
X228944Y354425D01*
X228876Y354145D01*
X228780Y353872D01*
X228742Y353761D01*
X228725Y353644D01*
X228725Y353526D01*
X228745Y353409D01*
X228782Y353297D01*
X228836Y353193D01*
X228906Y353098D01*
X228991Y353015D01*
X229087Y352946D01*
X229192Y352893D01*
X229305Y352857D01*
X229421Y352840D01*
X229500Y352840D01*
Y349059D01*
X229495Y349000D01*
X229514Y348765D01*
X229569Y348535D01*
X229659Y348317D01*
X229783Y348116D01*
X229783Y348115D01*
X229936Y347936D01*
X229981Y347898D01*
X236002Y341877D01*
Y329505D01*
X236000Y329505D01*
X235567Y329484D01*
X235137Y329422D01*
X234716Y329318D01*
X234306Y329175D01*
X234200Y329122D01*
X234104Y329053D01*
X234019Y328970D01*
X233949Y328875D01*
X233894Y328769D01*
X233857Y328657D01*
X233837Y328540D01*
X233836Y328421D01*
X233854Y328304D01*
X233890Y328191D01*
X233943Y328085D01*
X234012Y327988D01*
X234095Y327904D01*
X234191Y327833D01*
X234296Y327779D01*
X234408Y327741D01*
X234525Y327722D01*
X234644Y327721D01*
X234761Y327739D01*
X234874Y327777D01*
X235145Y327876D01*
X235425Y327944D01*
X235711Y327986D01*
X236000Y328000D01*
X236002Y328000D01*
Y322000D01*
X236000Y322000D01*
X235711Y322014D01*
X235425Y322056D01*
X235145Y322124D01*
X234872Y322220D01*
X234761Y322258D01*
X234644Y322275D01*
X234526Y322275D01*
X234409Y322255D01*
X234297Y322218D01*
X234193Y322164D01*
X234098Y322094D01*
X234015Y322009D01*
X233946Y321913D01*
X233893Y321808D01*
X233857Y321695D01*
X233840Y321579D01*
X233841Y321461D01*
X233860Y321344D01*
X233897Y321232D01*
X233952Y321127D01*
X234022Y321032D01*
X234106Y320949D01*
X234202Y320881D01*
X234308Y320830D01*
X234716Y320682D01*
X235137Y320578D01*
X235567Y320516D01*
X236000Y320495D01*
X236002Y320495D01*
Y315500D01*
X233365D01*
X233503Y315725D01*
X233671Y316132D01*
X233774Y316561D01*
X233800Y317000D01*
X233774Y317439D01*
X233671Y317868D01*
X233503Y318275D01*
X233272Y318651D01*
X232986Y318986D01*
X232651Y319272D01*
X232500Y319365D01*
Y322837D01*
X232579Y322836D01*
X232696Y322854D01*
X232809Y322890D01*
X232915Y322943D01*
X233012Y323012D01*
X233096Y323095D01*
X233167Y323191D01*
X233221Y323296D01*
X233259Y323408D01*
X233278Y323525D01*
X233279Y323644D01*
X233261Y323761D01*
X233223Y323874D01*
X233124Y324145D01*
X233056Y324425D01*
X233014Y324711D01*
X233000Y325000D01*
X233014Y325289D01*
X233056Y325575D01*
X233124Y325855D01*
X233220Y326128D01*
X233258Y326239D01*
X233275Y326356D01*
X233275Y326474D01*
X233255Y326591D01*
X233218Y326703D01*
X233164Y326807D01*
X233094Y326902D01*
X233009Y326985D01*
X232913Y327054D01*
X232808Y327107D01*
X232695Y327143D01*
X232579Y327160D01*
X232500Y327160D01*
Y332635D01*
X232651Y332728D01*
X232986Y333014D01*
X233272Y333349D01*
X233503Y333725D01*
X233671Y334132D01*
X233774Y334561D01*
X233800Y335000D01*
X233774Y335439D01*
X233671Y335868D01*
X233503Y336275D01*
X233272Y336651D01*
X232986Y336986D01*
X232651Y337272D01*
X232275Y337503D01*
X231868Y337671D01*
X231439Y337774D01*
X231000Y337809D01*
X230561Y337774D01*
X230132Y337671D01*
X229725Y337503D01*
X229349Y337272D01*
X229014Y336986D01*
X228728Y336651D01*
X228497Y336275D01*
X228329Y335868D01*
X228226Y335439D01*
X228191Y335000D01*
X228226Y334561D01*
X228329Y334132D01*
X228497Y333725D01*
X228728Y333349D01*
X229014Y333014D01*
X229349Y332728D01*
X229500Y332635D01*
Y327831D01*
X229192Y328192D01*
X228653Y328652D01*
X228049Y329022D01*
X227395Y329293D01*
X226706Y329458D01*
X226002Y329514D01*
Y350495D01*
X226433Y350516D01*
X226863Y350578D01*
X227284Y350682D01*
X227694Y350825D01*
X227800Y350878D01*
X227896Y350947D01*
X227981Y351030D01*
X228051Y351125D01*
X228106Y351231D01*
X228143Y351343D01*
X228163Y351460D01*
X228164Y351579D01*
X228146Y351696D01*
X228110Y351809D01*
X228057Y351915D01*
X227988Y352012D01*
X227905Y352096D01*
X227809Y352167D01*
X227704Y352221D01*
X227592Y352259D01*
X227475Y352278D01*
X227356Y352279D01*
X227239Y352261D01*
X227126Y352223D01*
X226855Y352124D01*
X226575Y352056D01*
X226289Y352014D01*
X226002Y352000D01*
Y358000D01*
X226289Y357986D01*
X226575Y357944D01*
X226855Y357876D01*
X227128Y357780D01*
X227239Y357742D01*
X227356Y357725D01*
X227474Y357725D01*
X227591Y357745D01*
X227703Y357782D01*
X227807Y357836D01*
X227902Y357906D01*
X227985Y357991D01*
X228054Y358087D01*
X228107Y358192D01*
X228143Y358305D01*
X228160Y358421D01*
X228159Y358539D01*
X228140Y358656D01*
X228103Y358768D01*
X228048Y358873D01*
X227978Y358968D01*
X227894Y359051D01*
X227798Y359119D01*
X227692Y359170D01*
X227284Y359318D01*
X226863Y359422D01*
X226433Y359484D01*
X226002Y359505D01*
Y364877D01*
G37*
G36*
X222387Y322302D02*X222808Y321808D01*
X223347Y321348D01*
X223951Y320978D01*
X224605Y320707D01*
X225294Y320542D01*
X226000Y320486D01*
X226002Y320486D01*
Y315500D01*
X222387D01*
Y322302D01*
G37*
G36*
Y368705D02*X222395Y368707D01*
X223049Y368978D01*
X223653Y369348D01*
X224192Y369808D01*
X224652Y370347D01*
X225022Y370951D01*
X225293Y371605D01*
X225458Y372294D01*
X225498Y372966D01*
X225500Y372941D01*
Y366059D01*
X225495Y366000D01*
X225514Y365765D01*
X225569Y365535D01*
X225659Y365317D01*
X225783Y365116D01*
X225936Y364936D01*
X225981Y364898D01*
X226002Y364877D01*
Y359505D01*
X226000Y359505D01*
X225567Y359484D01*
X225137Y359422D01*
X224716Y359318D01*
X224306Y359175D01*
X224200Y359122D01*
X224104Y359053D01*
X224019Y358970D01*
X223949Y358875D01*
X223894Y358769D01*
X223857Y358657D01*
X223837Y358540D01*
X223836Y358421D01*
X223854Y358304D01*
X223890Y358191D01*
X223943Y358085D01*
X224012Y357988D01*
X224095Y357904D01*
X224191Y357833D01*
X224296Y357779D01*
X224408Y357741D01*
X224525Y357722D01*
X224644Y357721D01*
X224761Y357739D01*
X224874Y357777D01*
X225145Y357876D01*
X225425Y357944D01*
X225711Y357986D01*
X226000Y358000D01*
X226002Y358000D01*
Y352000D01*
X226000Y352000D01*
X225711Y352014D01*
X225425Y352056D01*
X225145Y352124D01*
X224872Y352220D01*
X224761Y352258D01*
X224644Y352275D01*
X224526Y352275D01*
X224409Y352255D01*
X224297Y352218D01*
X224193Y352164D01*
X224098Y352094D01*
X224015Y352009D01*
X223946Y351913D01*
X223893Y351808D01*
X223857Y351695D01*
X223840Y351579D01*
X223841Y351461D01*
X223860Y351344D01*
X223897Y351232D01*
X223952Y351127D01*
X224022Y351032D01*
X224106Y350949D01*
X224202Y350881D01*
X224308Y350830D01*
X224716Y350682D01*
X225137Y350578D01*
X225567Y350516D01*
X226000Y350495D01*
X226002Y350495D01*
Y329514D01*
X226000Y329514D01*
X225294Y329458D01*
X224605Y329293D01*
X223951Y329022D01*
X223347Y328652D01*
X222808Y328192D01*
X222387Y327698D01*
Y352849D01*
X222460Y352837D01*
X222579Y352836D01*
X222696Y352854D01*
X222809Y352890D01*
X222915Y352943D01*
X223012Y353012D01*
X223096Y353095D01*
X223167Y353191D01*
X223221Y353296D01*
X223259Y353408D01*
X223278Y353525D01*
X223279Y353644D01*
X223261Y353761D01*
X223223Y353874D01*
X223124Y354145D01*
X223056Y354425D01*
X223014Y354711D01*
X223000Y355000D01*
X223014Y355289D01*
X223056Y355575D01*
X223124Y355855D01*
X223220Y356128D01*
X223258Y356239D01*
X223275Y356356D01*
X223275Y356474D01*
X223255Y356591D01*
X223218Y356703D01*
X223164Y356807D01*
X223094Y356902D01*
X223009Y356985D01*
X222913Y357054D01*
X222808Y357107D01*
X222695Y357143D01*
X222579Y357160D01*
X222461Y357159D01*
X222387Y357147D01*
Y368705D01*
G37*
G36*
X215993Y350487D02*X216000Y350486D01*
X216706Y350542D01*
X217395Y350707D01*
X218049Y350978D01*
X218653Y351348D01*
X219192Y351808D01*
X219652Y352347D01*
X220022Y352951D01*
X220293Y353605D01*
X220458Y354294D01*
X220500Y355000D01*
X220458Y355706D01*
X220293Y356395D01*
X220022Y357049D01*
X219652Y357653D01*
X219192Y358192D01*
X218653Y358652D01*
X218049Y359022D01*
X217500Y359249D01*
Y370169D01*
X217808Y369808D01*
X218347Y369348D01*
X218951Y368978D01*
X219605Y368707D01*
X220294Y368542D01*
X221000Y368486D01*
X221706Y368542D01*
X222387Y368705D01*
Y357147D01*
X222344Y357140D01*
X222232Y357103D01*
X222127Y357048D01*
X222032Y356978D01*
X221949Y356894D01*
X221881Y356798D01*
X221830Y356692D01*
X221682Y356284D01*
X221578Y355863D01*
X221516Y355433D01*
X221495Y355000D01*
X221516Y354567D01*
X221578Y354137D01*
X221682Y353716D01*
X221825Y353306D01*
X221878Y353200D01*
X221947Y353104D01*
X222030Y353019D01*
X222125Y352949D01*
X222231Y352894D01*
X222343Y352857D01*
X222387Y352849D01*
Y327698D01*
X222348Y327653D01*
X221978Y327049D01*
X221707Y326395D01*
X221542Y325706D01*
X221486Y325000D01*
X221542Y324294D01*
X221707Y323605D01*
X221978Y322951D01*
X222348Y322347D01*
X222387Y322302D01*
Y315500D01*
X215993D01*
Y320487D01*
X216000Y320486D01*
X216706Y320542D01*
X217395Y320707D01*
X218049Y320978D01*
X218653Y321348D01*
X219192Y321808D01*
X219652Y322347D01*
X220022Y322951D01*
X220293Y323605D01*
X220458Y324294D01*
X220500Y325000D01*
X220458Y325706D01*
X220293Y326395D01*
X220022Y327049D01*
X219652Y327653D01*
X219192Y328192D01*
X218653Y328652D01*
X218049Y329022D01*
X217395Y329293D01*
X216706Y329458D01*
X216000Y329514D01*
X215993Y329513D01*
Y350487D01*
G37*
G36*
X178169Y303500D02*X174613D01*
Y304853D01*
X174656Y304860D01*
X174768Y304897D01*
X174873Y304952D01*
X174968Y305022D01*
X175051Y305106D01*
X175119Y305202D01*
X175170Y305308D01*
X175318Y305716D01*
X175422Y306137D01*
X175484Y306567D01*
X175505Y307000D01*
X175484Y307433D01*
X175422Y307863D01*
X175318Y308284D01*
X175175Y308694D01*
X175122Y308800D01*
X175053Y308896D01*
X174970Y308981D01*
X174875Y309051D01*
X174769Y309106D01*
X174657Y309143D01*
X174613Y309151D01*
Y313137D01*
X174661Y313126D01*
X175100Y313091D01*
X175539Y313126D01*
X175968Y313229D01*
X176375Y313397D01*
X176751Y313628D01*
X177086Y313914D01*
X177372Y314249D01*
X177603Y314625D01*
X177771Y315032D01*
X177874Y315461D01*
X177900Y315900D01*
X177874Y316339D01*
X177771Y316768D01*
X177603Y317175D01*
X177372Y317551D01*
X177086Y317886D01*
X176751Y318172D01*
X176375Y318403D01*
X175968Y318571D01*
X175539Y318674D01*
X175100Y318709D01*
X174661Y318674D01*
X174613Y318663D01*
Y320705D01*
X175294Y320542D01*
X176000Y320486D01*
X176706Y320542D01*
X177395Y320707D01*
X178049Y320978D01*
X178653Y321348D01*
X179192Y321808D01*
X179652Y322347D01*
X180022Y322951D01*
X180200Y323381D01*
Y322006D01*
X180198Y321993D01*
X180202Y321757D01*
X180212Y321703D01*
X180214Y321665D01*
X180231Y321595D01*
X180243Y321525D01*
X180258Y321481D01*
X180269Y321435D01*
X180296Y321369D01*
X180320Y321301D01*
X180341Y321260D01*
X180359Y321217D01*
X180397Y321156D01*
X180430Y321093D01*
X180458Y321056D01*
X180483Y321016D01*
X180529Y320961D01*
X180572Y320904D01*
X180600Y320878D01*
X180636Y320836D01*
X180816Y320683D01*
X180826Y320676D01*
X183036Y318851D01*
X183116Y318783D01*
X183191Y318736D01*
X183235Y318704D01*
X183277Y318684D01*
X183317Y318659D01*
X183383Y318632D01*
X183447Y318601D01*
X183492Y318587D01*
X183535Y318569D01*
X183605Y318552D01*
X183673Y318531D01*
X183719Y318525D01*
X183765Y318514D01*
X183819Y318511D01*
X183907Y318498D01*
X184012Y318500D01*
X202941D01*
X203000Y318495D01*
X203235Y318514D01*
X203235Y318514D01*
X203465Y318569D01*
X203683Y318659D01*
X203884Y318783D01*
X204064Y318936D01*
X204102Y318981D01*
X205636Y320515D01*
X206000Y320486D01*
X206706Y320542D01*
X207395Y320707D01*
X208049Y320978D01*
X208653Y321348D01*
X209192Y321808D01*
X209652Y322347D01*
X210022Y322951D01*
X210293Y323605D01*
X210458Y324294D01*
X210500Y325000D01*
X210458Y325706D01*
X210293Y326395D01*
X210022Y327049D01*
X209652Y327653D01*
X209192Y328192D01*
X208653Y328652D01*
X208049Y329022D01*
X207395Y329293D01*
X206706Y329458D01*
X206000Y329514D01*
X205294Y329458D01*
X204605Y329293D01*
X203951Y329022D01*
X203347Y328652D01*
X202808Y328192D01*
X202348Y327653D01*
X201978Y327049D01*
X201707Y326395D01*
X201542Y325706D01*
X201486Y325000D01*
X201542Y324294D01*
X201707Y323605D01*
X201978Y322951D01*
X202348Y322347D01*
X202752Y321874D01*
X202379Y321500D01*
X198831D01*
X199192Y321808D01*
X199652Y322347D01*
X200022Y322951D01*
X200293Y323605D01*
X200458Y324294D01*
X200500Y325000D01*
X200458Y325706D01*
X200293Y326395D01*
X200022Y327049D01*
X199652Y327653D01*
X199192Y328192D01*
X198653Y328652D01*
X198049Y329022D01*
X197395Y329293D01*
X196706Y329458D01*
X196000Y329514D01*
X195294Y329458D01*
X194605Y329293D01*
X193951Y329022D01*
X193347Y328652D01*
X192808Y328192D01*
X192348Y327653D01*
X191978Y327049D01*
X191707Y326395D01*
X191542Y325706D01*
X191486Y325000D01*
X191542Y324294D01*
X191707Y323605D01*
X191978Y322951D01*
X192348Y322347D01*
X192808Y321808D01*
X193169Y321500D01*
X188831D01*
X189192Y321808D01*
X189652Y322347D01*
X190022Y322951D01*
X190293Y323605D01*
X190458Y324294D01*
X190500Y325000D01*
X190458Y325706D01*
X190293Y326395D01*
X190022Y327049D01*
X189652Y327653D01*
X189192Y328192D01*
X188653Y328652D01*
X188049Y329022D01*
X187395Y329293D01*
X186706Y329458D01*
X186000Y329514D01*
X185294Y329458D01*
X184605Y329293D01*
X183951Y329022D01*
X183347Y328652D01*
X183200Y328526D01*
Y342258D01*
X186601Y345500D01*
X207941D01*
X208000Y345495D01*
X208235Y345514D01*
X208235Y345514D01*
X208465Y345569D01*
X208683Y345659D01*
X208884Y345783D01*
X209064Y345936D01*
X209102Y345981D01*
X210389Y347267D01*
X210561Y347226D01*
X211000Y347191D01*
X211439Y347226D01*
X211868Y347329D01*
X212275Y347497D01*
X212651Y347728D01*
X212986Y348014D01*
X213272Y348349D01*
X213503Y348725D01*
X213671Y349132D01*
X213774Y349561D01*
X213800Y350000D01*
X213774Y350439D01*
X213671Y350868D01*
X213515Y351245D01*
X213951Y350978D01*
X214605Y350707D01*
X215294Y350542D01*
X215993Y350487D01*
Y329513D01*
X215294Y329458D01*
X214605Y329293D01*
X213951Y329022D01*
X213347Y328652D01*
X212808Y328192D01*
X212348Y327653D01*
X211978Y327049D01*
X211707Y326395D01*
X211542Y325706D01*
X211486Y325000D01*
X211542Y324294D01*
X211707Y323605D01*
X211978Y322951D01*
X212348Y322347D01*
X212808Y321808D01*
X213347Y321348D01*
X213951Y320978D01*
X214605Y320707D01*
X215294Y320542D01*
X215993Y320487D01*
Y315500D01*
X184059D01*
X184000Y315505D01*
X183765Y315486D01*
X183535Y315431D01*
X183317Y315341D01*
X183116Y315217D01*
X183115Y315217D01*
X182936Y315064D01*
X182898Y315019D01*
X180981Y313102D01*
X180936Y313064D01*
X180783Y312884D01*
X180659Y312683D01*
X180569Y312465D01*
X180514Y312235D01*
X180514Y312235D01*
X180495Y312000D01*
X180500Y311941D01*
Y311475D01*
X180294Y311458D01*
X179605Y311293D01*
X178951Y311022D01*
X178347Y310652D01*
X177808Y310192D01*
X177348Y309653D01*
X176978Y309049D01*
X176707Y308395D01*
X176542Y307706D01*
X176486Y307000D01*
X176542Y306294D01*
X176707Y305605D01*
X176978Y304951D01*
X177348Y304347D01*
X177808Y303808D01*
X178169Y303500D01*
G37*
G36*
X174613Y318663D02*X174232Y318571D01*
X173825Y318403D01*
X173488Y318196D01*
X173486Y318235D01*
X173431Y318465D01*
X173400Y318540D01*
Y321316D01*
X173951Y320978D01*
X174605Y320707D01*
X174613Y320705D01*
Y318663D01*
G37*
G36*
Y303500D02*X174059D01*
X174000Y303505D01*
X173765Y303486D01*
X173535Y303431D01*
X173317Y303341D01*
X173116Y303217D01*
X173115Y303217D01*
X173086Y303192D01*
X173106Y303231D01*
X173143Y303343D01*
X173163Y303460D01*
X173164Y303579D01*
X173146Y303696D01*
X173110Y303809D01*
X173057Y303915D01*
X172988Y304012D01*
X172905Y304096D01*
X172809Y304167D01*
X172704Y304221D01*
X172592Y304259D01*
X172475Y304278D01*
X172356Y304279D01*
X172239Y304261D01*
X172126Y304223D01*
X171855Y304124D01*
X171575Y304056D01*
X171289Y304014D01*
X171000Y304000D01*
X170998Y304000D01*
Y310000D01*
X171000Y310000D01*
X171289Y309986D01*
X171575Y309944D01*
X171855Y309876D01*
X172128Y309780D01*
X172239Y309742D01*
X172356Y309725D01*
X172474Y309725D01*
X172591Y309745D01*
X172703Y309782D01*
X172807Y309836D01*
X172902Y309906D01*
X172985Y309991D01*
X173054Y310087D01*
X173107Y310192D01*
X173143Y310305D01*
X173160Y310421D01*
X173159Y310539D01*
X173140Y310656D01*
X173103Y310768D01*
X173048Y310873D01*
X172978Y310968D01*
X172894Y311051D01*
X172798Y311119D01*
X172692Y311170D01*
X172284Y311318D01*
X171863Y311422D01*
X171433Y311484D01*
X171000Y311505D01*
X170998Y311505D01*
Y315880D01*
X171898Y314981D01*
X171936Y314936D01*
X172115Y314783D01*
X172116Y314783D01*
X172317Y314659D01*
X172535Y314569D01*
X172648Y314542D01*
X172828Y314249D01*
X173114Y313914D01*
X173449Y313628D01*
X173825Y313397D01*
X174232Y313229D01*
X174613Y313137D01*
Y309151D01*
X174540Y309163D01*
X174421Y309164D01*
X174304Y309146D01*
X174191Y309110D01*
X174085Y309057D01*
X173988Y308988D01*
X173904Y308905D01*
X173833Y308809D01*
X173779Y308704D01*
X173741Y308592D01*
X173722Y308475D01*
X173721Y308356D01*
X173739Y308239D01*
X173777Y308126D01*
X173876Y307855D01*
X173944Y307575D01*
X173986Y307289D01*
X174000Y307000D01*
X173986Y306711D01*
X173944Y306425D01*
X173876Y306145D01*
X173780Y305872D01*
X173742Y305761D01*
X173725Y305644D01*
X173725Y305526D01*
X173745Y305409D01*
X173782Y305297D01*
X173836Y305193D01*
X173906Y305098D01*
X173991Y305015D01*
X174087Y304946D01*
X174192Y304893D01*
X174305Y304857D01*
X174421Y304840D01*
X174539Y304841D01*
X174613Y304853D01*
Y303500D01*
G37*
G36*
X170998Y304000D02*X170711Y304014D01*
X170425Y304056D01*
X170145Y304124D01*
X169872Y304220D01*
X169761Y304258D01*
X169644Y304275D01*
X169526Y304275D01*
X169409Y304255D01*
X169297Y304218D01*
X169193Y304164D01*
X169098Y304094D01*
X169015Y304009D01*
X168946Y303913D01*
X168893Y303808D01*
X168857Y303695D01*
X168840Y303579D01*
X168841Y303461D01*
X168860Y303344D01*
X168897Y303232D01*
X168952Y303127D01*
X169022Y303032D01*
X169106Y302949D01*
X169202Y302881D01*
X169308Y302830D01*
X169716Y302682D01*
X170137Y302578D01*
X170567Y302516D01*
X170737Y302507D01*
X170725Y302503D01*
X170349Y302272D01*
X170014Y301986D01*
X169728Y301651D01*
X169497Y301275D01*
X169329Y300868D01*
X169226Y300439D01*
X169191Y300000D01*
X169226Y299561D01*
X169329Y299132D01*
X169384Y299000D01*
X167387D01*
Y304849D01*
X167460Y304837D01*
X167579Y304836D01*
X167696Y304854D01*
X167809Y304890D01*
X167915Y304943D01*
X168012Y305012D01*
X168096Y305095D01*
X168167Y305191D01*
X168221Y305296D01*
X168259Y305408D01*
X168278Y305525D01*
X168279Y305644D01*
X168261Y305761D01*
X168223Y305874D01*
X168124Y306145D01*
X168056Y306425D01*
X168014Y306711D01*
X168000Y307000D01*
X168014Y307289D01*
X168056Y307575D01*
X168124Y307855D01*
X168220Y308128D01*
X168258Y308239D01*
X168275Y308356D01*
X168275Y308474D01*
X168255Y308591D01*
X168218Y308703D01*
X168164Y308807D01*
X168094Y308902D01*
X168009Y308985D01*
X167913Y309054D01*
X167808Y309107D01*
X167695Y309143D01*
X167579Y309160D01*
X167461Y309159D01*
X167387Y309147D01*
Y316266D01*
X170400Y319279D01*
Y317900D01*
X170414Y317665D01*
X170469Y317435D01*
X170500Y317360D01*
Y317059D01*
X170495Y317000D01*
X170514Y316765D01*
X170569Y316535D01*
X170659Y316317D01*
X170783Y316116D01*
X170783Y316115D01*
X170936Y315936D01*
X170981Y315898D01*
X170998Y315880D01*
Y311505D01*
X170567Y311484D01*
X170137Y311422D01*
X169716Y311318D01*
X169306Y311175D01*
X169200Y311122D01*
X169104Y311053D01*
X169019Y310970D01*
X168949Y310875D01*
X168894Y310769D01*
X168857Y310657D01*
X168837Y310540D01*
X168836Y310421D01*
X168854Y310304D01*
X168890Y310191D01*
X168943Y310085D01*
X169012Y309988D01*
X169095Y309904D01*
X169191Y309833D01*
X169296Y309779D01*
X169408Y309741D01*
X169525Y309722D01*
X169644Y309721D01*
X169761Y309739D01*
X169874Y309777D01*
X170145Y309876D01*
X170425Y309944D01*
X170711Y309986D01*
X170998Y310000D01*
Y304000D01*
G37*
G36*
X167387Y299000D02*X165800D01*
X165774Y299439D01*
X165671Y299868D01*
X165503Y300275D01*
X165272Y300651D01*
X164986Y300986D01*
X164651Y301272D01*
X164500Y301365D01*
Y313379D01*
X167387Y316266D01*
Y309147D01*
X167344Y309140D01*
X167232Y309103D01*
X167127Y309048D01*
X167032Y308978D01*
X166949Y308894D01*
X166881Y308798D01*
X166830Y308692D01*
X166682Y308284D01*
X166578Y307863D01*
X166516Y307433D01*
X166495Y307000D01*
X166516Y306567D01*
X166578Y306137D01*
X166682Y305716D01*
X166825Y305306D01*
X166878Y305200D01*
X166947Y305104D01*
X167030Y305019D01*
X167125Y304949D01*
X167231Y304894D01*
X167343Y304857D01*
X167387Y304849D01*
Y299000D01*
G37*
G36*
X148500Y337621D02*Y361379D01*
X163621Y376500D01*
X166584D01*
X166569Y376465D01*
X166514Y376235D01*
X166500Y376000D01*
X166503Y374500D01*
X166059D01*
X166000Y374505D01*
X165765Y374486D01*
X165535Y374431D01*
X165317Y374341D01*
X165116Y374217D01*
X164936Y374064D01*
X164783Y373884D01*
X164659Y373683D01*
X164569Y373465D01*
X164514Y373235D01*
X164514Y373235D01*
X164495Y373000D01*
X164500Y372941D01*
Y366621D01*
X159379Y361500D01*
X157059D01*
X157000Y361505D01*
X156765Y361486D01*
X156535Y361431D01*
X156317Y361341D01*
X156116Y361217D01*
X156115Y361217D01*
X155936Y361064D01*
X155898Y361019D01*
X152981Y358102D01*
X152936Y358064D01*
X152783Y357884D01*
X152659Y357683D01*
X152569Y357465D01*
X152514Y357235D01*
X152514Y357235D01*
X152495Y357000D01*
X152500Y356941D01*
Y345059D01*
X152495Y345000D01*
X152514Y344765D01*
X152569Y344535D01*
X152659Y344317D01*
X152783Y344116D01*
X152936Y343936D01*
X152981Y343898D01*
X156898Y339981D01*
X156936Y339936D01*
X157116Y339783D01*
X157317Y339659D01*
X157535Y339569D01*
X157765Y339514D01*
X158000Y339495D01*
X158059Y339500D01*
X166635D01*
X166728Y339349D01*
X167014Y339014D01*
X167349Y338728D01*
X167725Y338497D01*
X168132Y338329D01*
X168561Y338226D01*
X168600Y338223D01*
Y330000D01*
X130000D01*
Y394226D01*
X130342Y393400D01*
X130863Y392551D01*
X131510Y391793D01*
X132268Y391146D01*
X133117Y390625D01*
X134038Y390244D01*
X135007Y390011D01*
X136000Y389933D01*
X136993Y390011D01*
X137962Y390244D01*
X138883Y390625D01*
X139732Y391146D01*
X140490Y391793D01*
X141137Y392551D01*
X141658Y393400D01*
X142039Y394321D01*
X142082Y394500D01*
X155509D01*
X155552Y394321D01*
X155933Y393400D01*
X156454Y392551D01*
X157101Y391793D01*
X157859Y391146D01*
X158708Y390625D01*
X159629Y390244D01*
X160598Y390011D01*
X161591Y389933D01*
X162584Y390011D01*
X163553Y390244D01*
X164474Y390625D01*
X165323Y391146D01*
X166081Y391793D01*
X166728Y392551D01*
X167249Y393400D01*
X167630Y394321D01*
X167863Y395290D01*
X167903Y395975D01*
X169500Y394379D01*
Y389365D01*
X169349Y389272D01*
X169014Y388986D01*
X168728Y388651D01*
X168497Y388275D01*
X168329Y387868D01*
X168226Y387439D01*
X168191Y387000D01*
X168226Y386561D01*
X168329Y386132D01*
X168497Y385725D01*
X168728Y385349D01*
X169014Y385014D01*
X169349Y384728D01*
X169725Y384497D01*
X170132Y384329D01*
X170561Y384226D01*
X171000Y384191D01*
X171439Y384226D01*
X171868Y384329D01*
X172275Y384497D01*
X172651Y384728D01*
X172986Y385014D01*
X173272Y385349D01*
X173503Y385725D01*
X173671Y386132D01*
X173774Y386561D01*
X173800Y387000D01*
X173774Y387439D01*
X173671Y387868D01*
X173503Y388275D01*
X173272Y388651D01*
X172986Y388986D01*
X172651Y389272D01*
X172500Y389365D01*
Y394941D01*
X172505Y395000D01*
X172486Y395235D01*
X172431Y395465D01*
X172341Y395683D01*
X172217Y395884D01*
X172064Y396064D01*
X172019Y396102D01*
X169775Y398346D01*
X169917Y398259D01*
X170135Y398169D01*
X170365Y398114D01*
X170600Y398100D01*
X177635Y398114D01*
X177865Y398169D01*
X178083Y398259D01*
X178284Y398383D01*
X178464Y398536D01*
X178500Y398578D01*
Y387059D01*
X178495Y387000D01*
X178514Y386765D01*
X178569Y386535D01*
X178659Y386317D01*
X178783Y386116D01*
X178783Y386115D01*
X178936Y385936D01*
X178981Y385898D01*
X185898Y378981D01*
X185936Y378936D01*
X186116Y378783D01*
X186317Y378659D01*
X186535Y378569D01*
X186765Y378514D01*
X187000Y378495D01*
X187059Y378500D01*
X193379D01*
X196935Y374944D01*
X196707Y374395D01*
X196542Y373706D01*
X196538Y373659D01*
X195476Y372598D01*
X195500Y373000D01*
X195458Y373706D01*
X195293Y374395D01*
X195022Y375049D01*
X194652Y375653D01*
X194192Y376192D01*
X193653Y376652D01*
X193049Y377022D01*
X192395Y377293D01*
X191706Y377458D01*
X191000Y377514D01*
X190294Y377458D01*
X189605Y377293D01*
X188951Y377022D01*
X188347Y376652D01*
X187808Y376192D01*
X187348Y375653D01*
X186978Y375049D01*
X186707Y374395D01*
X186542Y373706D01*
X186486Y373000D01*
X186542Y372294D01*
X186707Y371605D01*
X186935Y371056D01*
X184981Y369102D01*
X184936Y369064D01*
X184783Y368884D01*
X184659Y368683D01*
X184569Y368465D01*
X184514Y368235D01*
X184514Y368235D01*
X184495Y368000D01*
X184500Y367941D01*
Y365621D01*
X182379Y363500D01*
X166059D01*
X166000Y363505D01*
X165765Y363486D01*
X165558Y363436D01*
X167019Y364898D01*
X167064Y364936D01*
X167217Y365115D01*
X167217Y365116D01*
X167341Y365317D01*
X167431Y365535D01*
X167486Y365765D01*
X167505Y366000D01*
X167500Y366059D01*
Y368584D01*
X167535Y368569D01*
X167765Y368514D01*
X168000Y368500D01*
X174235Y368514D01*
X174465Y368569D01*
X174683Y368659D01*
X174884Y368783D01*
X175064Y368936D01*
X175217Y369116D01*
X175341Y369317D01*
X175431Y369535D01*
X175486Y369765D01*
X175500Y370000D01*
X175486Y376235D01*
X175436Y376442D01*
X176935Y374944D01*
X176707Y374395D01*
X176542Y373706D01*
X176486Y373000D01*
X176542Y372294D01*
X176707Y371605D01*
X176978Y370951D01*
X177348Y370347D01*
X177808Y369808D01*
X178347Y369348D01*
X178951Y368978D01*
X179605Y368707D01*
X180294Y368542D01*
X181000Y368486D01*
X181706Y368542D01*
X182395Y368707D01*
X183049Y368978D01*
X183653Y369348D01*
X184192Y369808D01*
X184652Y370347D01*
X185022Y370951D01*
X185293Y371605D01*
X185458Y372294D01*
X185500Y373000D01*
X185458Y373706D01*
X185293Y374395D01*
X185022Y375049D01*
X184652Y375653D01*
X184192Y376192D01*
X183653Y376652D01*
X183049Y377022D01*
X182395Y377293D01*
X181706Y377458D01*
X181000Y377514D01*
X180294Y377458D01*
X179605Y377293D01*
X179056Y377065D01*
X177102Y379019D01*
X177064Y379064D01*
X176884Y379217D01*
X176683Y379341D01*
X176465Y379431D01*
X176235Y379486D01*
X176000Y379505D01*
X175941Y379500D01*
X163059D01*
X163000Y379505D01*
X162765Y379486D01*
X162535Y379431D01*
X162317Y379341D01*
X162116Y379217D01*
X162115Y379217D01*
X161936Y379064D01*
X161898Y379019D01*
X145981Y363102D01*
X145936Y363064D01*
X145783Y362884D01*
X145659Y362683D01*
X145569Y362465D01*
X145514Y362235D01*
X145514Y362235D01*
X145495Y362000D01*
X145500Y361941D01*
Y337059D01*
X145495Y337000D01*
X145514Y336765D01*
X145569Y336535D01*
X145659Y336317D01*
X145783Y336116D01*
X145936Y335936D01*
X145981Y335898D01*
X147898Y333981D01*
X147936Y333936D01*
X148116Y333783D01*
X148317Y333659D01*
X148535Y333569D01*
X148765Y333514D01*
X149000Y333495D01*
X149059Y333500D01*
X156635D01*
X156728Y333349D01*
X157014Y333014D01*
X157349Y332728D01*
X157725Y332497D01*
X158132Y332329D01*
X158561Y332226D01*
X159000Y332191D01*
X159439Y332226D01*
X159868Y332329D01*
X160275Y332497D01*
X160651Y332728D01*
X160986Y333014D01*
X161272Y333349D01*
X161503Y333725D01*
X161671Y334132D01*
X161774Y334561D01*
X161800Y335000D01*
X161774Y335439D01*
X161671Y335868D01*
X161503Y336275D01*
X161272Y336651D01*
X160986Y336986D01*
X160651Y337272D01*
X160275Y337503D01*
X159868Y337671D01*
X159439Y337774D01*
X159000Y337809D01*
X158561Y337774D01*
X158132Y337671D01*
X157725Y337503D01*
X157349Y337272D01*
X157014Y336986D01*
X156728Y336651D01*
X156635Y336500D01*
X149621D01*
X148500Y337621D01*
G37*
G36*
X167977Y431509D02*X169367Y431512D01*
X173500Y427379D01*
Y424059D01*
X173495Y424000D01*
X173514Y423765D01*
X173569Y423535D01*
X173659Y423317D01*
X173783Y423116D01*
X173783Y423115D01*
X173936Y422936D01*
X173981Y422898D01*
X178225Y418654D01*
X178083Y418741D01*
X177865Y418831D01*
X177635Y418886D01*
X177400Y418900D01*
X170365Y418886D01*
X170135Y418831D01*
X169917Y418741D01*
X169716Y418617D01*
X169536Y418464D01*
X169383Y418284D01*
X169259Y418083D01*
X169169Y417865D01*
X169114Y417635D01*
X169100Y417400D01*
X169110Y412232D01*
X167977Y411099D01*
Y419735D01*
X167985Y419735D01*
X168770Y419796D01*
X169535Y419980D01*
X170262Y420281D01*
X170933Y420692D01*
X171531Y421204D01*
X172043Y421802D01*
X172454Y422473D01*
X172755Y423200D01*
X172939Y423965D01*
X172985Y424750D01*
X172939Y425535D01*
X172755Y426300D01*
X172454Y427027D01*
X172043Y427698D01*
X171531Y428296D01*
X170933Y428808D01*
X170262Y429219D01*
X169535Y429520D01*
X168770Y429704D01*
X167985Y429765D01*
X167977Y429765D01*
Y431509D01*
G37*
G36*
Y441607D02*X168395Y441707D01*
X169049Y441978D01*
X169577Y442302D01*
X171898Y439981D01*
X171936Y439936D01*
X172116Y439783D01*
X172317Y439659D01*
X172535Y439569D01*
X172765Y439514D01*
X173000Y439495D01*
X173059Y439500D01*
X174169D01*
X173808Y439192D01*
X173348Y438653D01*
X172978Y438049D01*
X172707Y437395D01*
X172542Y436706D01*
X172486Y436000D01*
X172542Y435294D01*
X172707Y434605D01*
X172978Y433951D01*
X173348Y433347D01*
X173808Y432808D01*
X174347Y432348D01*
X174951Y431978D01*
X175605Y431707D01*
X176294Y431542D01*
X177000Y431486D01*
X177706Y431542D01*
X178395Y431707D01*
X179049Y431978D01*
X179653Y432348D01*
X180192Y432808D01*
X180652Y433347D01*
X181022Y433951D01*
X181293Y434605D01*
X181458Y435294D01*
X181500Y436000D01*
X181458Y436706D01*
X181293Y437395D01*
X181022Y438049D01*
X180652Y438653D01*
X180192Y439192D01*
X179831Y439500D01*
X184169D01*
X183808Y439192D01*
X183348Y438653D01*
X182978Y438049D01*
X182707Y437395D01*
X182542Y436706D01*
X182486Y436000D01*
X182542Y435294D01*
X182707Y434605D01*
X182978Y433951D01*
X183348Y433347D01*
X183808Y432808D01*
X184347Y432348D01*
X184951Y431978D01*
X185605Y431707D01*
X186294Y431542D01*
X187000Y431486D01*
X187706Y431542D01*
X188395Y431707D01*
X189049Y431978D01*
X189653Y432348D01*
X190192Y432808D01*
X190652Y433347D01*
X191022Y433951D01*
X191293Y434605D01*
X191458Y435294D01*
X191500Y436000D01*
X191458Y436706D01*
X191293Y437395D01*
X191022Y438049D01*
X190652Y438653D01*
X190192Y439192D01*
X189831Y439500D01*
X194169D01*
X193808Y439192D01*
X193348Y438653D01*
X192978Y438049D01*
X192707Y437395D01*
X192542Y436706D01*
X192486Y436000D01*
X192542Y435294D01*
X192707Y434605D01*
X192935Y434056D01*
X187981Y429102D01*
X187936Y429064D01*
X187783Y428884D01*
X187659Y428683D01*
X187569Y428465D01*
X187514Y428235D01*
X187514Y428235D01*
X187495Y428000D01*
X187500Y427941D01*
Y393365D01*
X187349Y393272D01*
X187014Y392986D01*
X186728Y392651D01*
X186497Y392275D01*
X186329Y391868D01*
X186226Y391439D01*
X186191Y391000D01*
X186226Y390561D01*
X186329Y390132D01*
X186497Y389725D01*
X186728Y389349D01*
X187014Y389014D01*
X187349Y388728D01*
X187725Y388497D01*
X188132Y388329D01*
X188561Y388226D01*
X189000Y388191D01*
X189439Y388226D01*
X189868Y388329D01*
X190275Y388497D01*
X190651Y388728D01*
X190986Y389014D01*
X191272Y389349D01*
X191503Y389725D01*
X191671Y390132D01*
X191774Y390561D01*
X191800Y391000D01*
X191774Y391439D01*
X191671Y391868D01*
X191503Y392275D01*
X191272Y392651D01*
X190986Y392986D01*
X190651Y393272D01*
X190500Y393365D01*
Y427379D01*
X195056Y431935D01*
X195605Y431707D01*
X196294Y431542D01*
X197000Y431486D01*
X197706Y431542D01*
X198395Y431707D01*
X198721Y431842D01*
X193981Y427102D01*
X193936Y427064D01*
X193783Y426884D01*
X193659Y426683D01*
X193569Y426465D01*
X193514Y426235D01*
X193514Y426235D01*
X193514Y426235D01*
Y426235D01*
X193514Y426235D01*
X193495Y426000D01*
X193500Y425941D01*
Y403059D01*
X193495Y403000D01*
X193514Y402765D01*
X193569Y402535D01*
X193659Y402317D01*
X193783Y402116D01*
X193936Y401936D01*
X193981Y401898D01*
X209500Y386379D01*
Y377249D01*
X208951Y377022D01*
X208347Y376652D01*
X207808Y376192D01*
X207500Y375831D01*
Y385941D01*
X207505Y386000D01*
X207486Y386235D01*
X207486Y386235D01*
X207431Y386465D01*
X207341Y386683D01*
X207217Y386884D01*
X207064Y387064D01*
X207019Y387102D01*
X204102Y390019D01*
X204064Y390064D01*
X203884Y390217D01*
X203683Y390341D01*
X203465Y390431D01*
X203235Y390486D01*
X203235Y390486D01*
X203000Y390505D01*
X202941Y390500D01*
X202490D01*
X202486Y392235D01*
X202431Y392465D01*
X202341Y392683D01*
X202217Y392884D01*
X202064Y393064D01*
X201884Y393217D01*
X201683Y393341D01*
X201465Y393431D01*
X201235Y393486D01*
X201000Y393500D01*
X198140Y393494D01*
X198000Y393505D01*
X197852Y393493D01*
X194765Y393486D01*
X194535Y393431D01*
X194317Y393341D01*
X194116Y393217D01*
X193936Y393064D01*
X193783Y392884D01*
X193659Y392683D01*
X193569Y392465D01*
X193514Y392235D01*
X193500Y392000D01*
X193514Y385765D01*
X193569Y385535D01*
X193659Y385317D01*
X193783Y385116D01*
X193936Y384936D01*
X194116Y384783D01*
X194317Y384659D01*
X194535Y384569D01*
X194765Y384514D01*
X195000Y384500D01*
X201235Y384514D01*
X201465Y384569D01*
X201683Y384659D01*
X201884Y384783D01*
X202064Y384936D01*
X202217Y385116D01*
X202341Y385317D01*
X202431Y385535D01*
X202486Y385765D01*
X202500Y386000D01*
X202497Y387382D01*
X204500Y385379D01*
Y375831D01*
X204192Y376192D01*
X203653Y376652D01*
X203049Y377022D01*
X202395Y377293D01*
X201706Y377458D01*
X201000Y377514D01*
X200294Y377458D01*
X199605Y377293D01*
X199056Y377065D01*
X195102Y381019D01*
X195064Y381064D01*
X194884Y381217D01*
X194683Y381341D01*
X194465Y381431D01*
X194235Y381486D01*
X194235Y381486D01*
X194000Y381505D01*
X193941Y381500D01*
X187621D01*
X181500Y387621D01*
Y418941D01*
X181505Y419000D01*
X181486Y419235D01*
X181431Y419465D01*
X181341Y419683D01*
X181217Y419884D01*
X181064Y420064D01*
X181019Y420102D01*
X176500Y424621D01*
Y427941D01*
X176505Y428000D01*
X176486Y428235D01*
X176431Y428465D01*
X176341Y428683D01*
X176217Y428884D01*
X176064Y429064D01*
X176019Y429102D01*
X171499Y433623D01*
X171486Y439235D01*
X171431Y439465D01*
X171341Y439683D01*
X171217Y439884D01*
X171064Y440064D01*
X170884Y440217D01*
X170683Y440341D01*
X170465Y440431D01*
X170235Y440486D01*
X170000Y440500D01*
X167977Y440495D01*
Y441607D01*
G37*
G36*
X302886Y454000D02*X310000D01*
Y420012D01*
X309456Y420168D01*
X308878Y420276D01*
X308294Y420330D01*
X307706D01*
X307122Y420276D01*
X306544Y420168D01*
X305980Y420007D01*
X305432Y419794D01*
X305295Y419721D01*
X305171Y419626D01*
X305064Y419513D01*
X304975Y419385D01*
X304908Y419245D01*
X304864Y419096D01*
X304843Y418941D01*
X304847Y418786D01*
X304875Y418633D01*
X304927Y418486D01*
X305001Y418349D01*
X305095Y418225D01*
X305208Y418118D01*
X305336Y418029D01*
X305477Y417962D01*
X305626Y417918D01*
X305780Y417897D01*
X305936Y417901D01*
X306089Y417929D01*
X306234Y417984D01*
X306609Y418134D01*
X306998Y418245D01*
X307395Y418320D01*
X307798Y418357D01*
X308202D01*
X308605Y418320D01*
X309002Y418245D01*
X309391Y418134D01*
X309767Y417988D01*
X309912Y417934D01*
X310000Y417918D01*
Y410087D01*
X309911Y410071D01*
X309766Y410016D01*
X309725Y410000D01*
X306264D01*
X306252Y410005D01*
X306233Y410012D01*
X306088Y410066D01*
X305935Y410094D01*
X305780Y410098D01*
X305627Y410078D01*
X305478Y410033D01*
X305409Y410000D01*
X302886D01*
Y410869D01*
X302904Y410864D01*
X303059Y410843D01*
X303214Y410847D01*
X303367Y410875D01*
X303514Y410927D01*
X303651Y411001D01*
X303775Y411095D01*
X303882Y411208D01*
X303971Y411336D01*
X304038Y411477D01*
X304082Y411626D01*
X304103Y411780D01*
X304099Y411936D01*
X304071Y412089D01*
X304016Y412234D01*
X303866Y412609D01*
X303755Y412998D01*
X303680Y413395D01*
X303643Y413798D01*
Y414202D01*
X303680Y414605D01*
X303755Y415002D01*
X303866Y415391D01*
X304012Y415767D01*
X304066Y415912D01*
X304094Y416065D01*
X304098Y416220D01*
X304078Y416373D01*
X304033Y416522D01*
X303966Y416661D01*
X303879Y416789D01*
X303772Y416901D01*
X303649Y416995D01*
X303512Y417069D01*
X303366Y417120D01*
X303214Y417148D01*
X303059Y417152D01*
X302905Y417132D01*
X302886Y417126D01*
Y454000D01*
G37*
G36*
X290362D02*X302886D01*
Y417126D01*
X302757Y417087D01*
X302617Y417020D01*
X302490Y416933D01*
X302378Y416826D01*
X302283Y416703D01*
X302212Y416565D01*
X301993Y416020D01*
X301832Y415456D01*
X301724Y414878D01*
X301670Y414294D01*
Y413706D01*
X301724Y413122D01*
X301832Y412544D01*
X301993Y411980D01*
X302206Y411432D01*
X302279Y411295D01*
X302374Y411171D01*
X302487Y411064D01*
X302615Y410975D01*
X302755Y410908D01*
X302886Y410869D01*
Y410000D01*
X302621D01*
X298500Y414121D01*
Y425441D01*
X298505Y425500D01*
X298486Y425735D01*
X298486Y425735D01*
X298431Y425965D01*
X298341Y426183D01*
X298217Y426384D01*
X298064Y426564D01*
X298019Y426602D01*
X293602Y431019D01*
X293564Y431064D01*
X293384Y431217D01*
X293183Y431341D01*
X292965Y431431D01*
X292735Y431486D01*
X292500Y431505D01*
X292441Y431500D01*
X290362D01*
Y434914D01*
X290370Y434914D01*
X291142Y434975D01*
X291895Y435155D01*
X292611Y435452D01*
X293271Y435857D01*
X293860Y436360D01*
X294363Y436949D01*
X294768Y437609D01*
X295065Y438325D01*
X295245Y439078D01*
X295291Y439850D01*
X295245Y440622D01*
X295065Y441375D01*
X294768Y442091D01*
X294363Y442751D01*
X293860Y443340D01*
X293271Y443843D01*
X292611Y444248D01*
X291895Y444545D01*
X291142Y444725D01*
X290370Y444786D01*
X290362Y444786D01*
Y454000D01*
G37*
G36*
X261622D02*X290362D01*
Y444786D01*
X289598Y444725D01*
X288845Y444545D01*
X288129Y444248D01*
X287469Y443843D01*
X286880Y443340D01*
X286377Y442751D01*
X285972Y442091D01*
X285675Y441375D01*
X285495Y440622D01*
X285434Y439850D01*
X285495Y439078D01*
X285675Y438325D01*
X285972Y437609D01*
X286377Y436949D01*
X286880Y436360D01*
X287469Y435857D01*
X288129Y435452D01*
X288845Y435155D01*
X289598Y434975D01*
X290362Y434914D01*
Y431500D01*
X265365D01*
X265272Y431651D01*
X264986Y431986D01*
X264651Y432272D01*
X264275Y432503D01*
X263868Y432671D01*
X263439Y432774D01*
X263000Y432809D01*
X262561Y432774D01*
X262132Y432671D01*
X261725Y432503D01*
X261622Y432440D01*
Y434914D01*
X261630Y434914D01*
X262402Y434975D01*
X263155Y435155D01*
X263871Y435452D01*
X264531Y435857D01*
X265120Y436360D01*
X265623Y436949D01*
X266028Y437609D01*
X266325Y438325D01*
X266505Y439078D01*
X266551Y439850D01*
X266505Y440622D01*
X266325Y441375D01*
X266028Y442091D01*
X265623Y442751D01*
X265120Y443340D01*
X264531Y443843D01*
X263871Y444248D01*
X263155Y444545D01*
X262402Y444725D01*
X261630Y444786D01*
X261622Y444786D01*
Y454000D01*
G37*
G36*
X269702Y420165D02*X269894Y420157D01*
X270085Y420131D01*
X270274Y420088D01*
X270458Y420029D01*
X270546Y420002D01*
X270639Y419991D01*
X270731Y419994D01*
X270823Y420012D01*
X270858Y420025D01*
X270877Y420008D01*
X271326Y419733D01*
X271813Y419531D01*
X272003Y419486D01*
X271991Y419480D01*
X271914Y419428D01*
X271845Y419365D01*
X271788Y419291D01*
X271743Y419210D01*
X271711Y419122D01*
X271693Y419031D01*
X271689Y418937D01*
X271701Y418845D01*
X271728Y418756D01*
X271789Y418573D01*
X271832Y418384D01*
X271858Y418193D01*
X271866Y418000D01*
X271858Y417807D01*
X271832Y417616D01*
X271789Y417427D01*
X271730Y417243D01*
X271703Y417155D01*
X271692Y417062D01*
X271695Y416970D01*
X271713Y416878D01*
X271745Y416791D01*
X271790Y416710D01*
X271847Y416637D01*
X271915Y416573D01*
X271992Y416521D01*
X272076Y416482D01*
X272166Y416457D01*
X272258Y416445D01*
X272351Y416449D01*
X272442Y416467D01*
X272529Y416498D01*
X272611Y416544D01*
X272684Y416601D01*
X272747Y416669D01*
X272799Y416746D01*
X272837Y416831D01*
X272848Y416865D01*
X273009Y416476D01*
X273284Y416027D01*
X273626Y415626D01*
X274027Y415284D01*
X274476Y415009D01*
X274601Y414957D01*
X274659Y414817D01*
X274783Y414616D01*
X274936Y414436D01*
X274981Y414398D01*
X276898Y412481D01*
X276936Y412436D01*
X277116Y412283D01*
X277317Y412159D01*
X277535Y412069D01*
X277765Y412014D01*
X278000Y411995D01*
X278059Y412000D01*
X289879D01*
X295352Y406526D01*
X295067Y406061D01*
X295064Y406064D01*
X295019Y406102D01*
X290102Y411019D01*
X290064Y411064D01*
X289884Y411217D01*
X289683Y411341D01*
X289465Y411431D01*
X289235Y411486D01*
X289235Y411486D01*
X289000Y411505D01*
X288941Y411500D01*
X269702D01*
Y414650D01*
X269999Y414663D01*
X270296Y414703D01*
X270587Y414769D01*
X270871Y414861D01*
X270956Y414900D01*
X271033Y414952D01*
X271102Y415016D01*
X271159Y415089D01*
X271205Y415171D01*
X271237Y415258D01*
X271254Y415350D01*
X271258Y415443D01*
X271246Y415536D01*
X271221Y415625D01*
X271181Y415710D01*
X271129Y415787D01*
X271066Y415856D01*
X270992Y415913D01*
X270911Y415958D01*
X270823Y415990D01*
X270732Y416008D01*
X270638Y416012D01*
X270546Y416000D01*
X270457Y415973D01*
X270274Y415912D01*
X270085Y415869D01*
X269894Y415843D01*
X269702Y415835D01*
Y420165D01*
G37*
G36*
Y421579D02*X269799Y421345D01*
X269702Y421350D01*
Y421579D01*
G37*
G36*
X297356Y408765D02*X291602Y414519D01*
X291564Y414564D01*
X291384Y414717D01*
X291183Y414841D01*
X290965Y414931D01*
X290735Y414986D01*
X290735Y414986D01*
X290500Y415005D01*
X290441Y415000D01*
X290363D01*
Y417002D01*
X290370Y417002D01*
X291080Y417057D01*
X291773Y417224D01*
X292432Y417497D01*
X293039Y417869D01*
X293581Y418332D01*
X294044Y418874D01*
X294416Y419481D01*
X294689Y420140D01*
X294856Y420833D01*
X294898Y421543D01*
X294856Y422253D01*
X294689Y422946D01*
X294416Y423605D01*
X294044Y424212D01*
X293581Y424754D01*
X293039Y425217D01*
X292432Y425589D01*
X291773Y425862D01*
X291080Y426029D01*
X290370Y426084D01*
X290363Y426084D01*
Y428500D01*
X291879D01*
X295500Y424879D01*
Y413559D01*
X295495Y413500D01*
X295514Y413265D01*
X295569Y413035D01*
X295659Y412817D01*
X295783Y412616D01*
X295936Y412436D01*
X295981Y412398D01*
X299622Y408757D01*
X299515Y408765D01*
X298730Y408704D01*
X297965Y408520D01*
X297708Y408413D01*
X297356Y408765D01*
G37*
G36*
X290363Y415000D02*X283801D01*
X283823Y415009D01*
X284272Y415284D01*
X284673Y415626D01*
X285015Y416027D01*
X285290Y416476D01*
X285492Y416963D01*
X285614Y417475D01*
X285646Y418000D01*
X285614Y418525D01*
X285492Y419037D01*
X285290Y419524D01*
X285015Y419973D01*
X284673Y420374D01*
X284272Y420716D01*
X283823Y420991D01*
X283336Y421193D01*
X282824Y421315D01*
X282299Y421357D01*
X282203Y421349D01*
X282343Y421687D01*
X282465Y422199D01*
X282496Y422724D01*
X282465Y423249D01*
X282343Y423761D01*
X282141Y424248D01*
X281866Y424697D01*
X281524Y425098D01*
X281123Y425440D01*
X280674Y425715D01*
X280187Y425917D01*
X279675Y426039D01*
X279150Y426081D01*
X278625Y426039D01*
X278113Y425917D01*
X277626Y425715D01*
X277177Y425440D01*
X276776Y425098D01*
X276434Y424697D01*
X276159Y424248D01*
X276000Y423864D01*
X275841Y424248D01*
X275566Y424697D01*
X275224Y425098D01*
X274823Y425440D01*
X274374Y425715D01*
X273887Y425917D01*
X273375Y426039D01*
X272850Y426081D01*
X272325Y426039D01*
X271813Y425917D01*
X271326Y425715D01*
X270877Y425440D01*
X270476Y425098D01*
X270134Y424697D01*
X269859Y424248D01*
X269702Y423869D01*
Y428500D01*
X290363D01*
Y426084D01*
X289660Y426029D01*
X288967Y425862D01*
X288308Y425589D01*
X287701Y425217D01*
X287159Y424754D01*
X286696Y424212D01*
X286324Y423605D01*
X286051Y422946D01*
X285884Y422253D01*
X285829Y421543D01*
X285884Y420833D01*
X286051Y420140D01*
X286324Y419481D01*
X286696Y418874D01*
X287159Y418332D01*
X287701Y417869D01*
X288308Y417497D01*
X288967Y417224D01*
X289660Y417057D01*
X290363Y417002D01*
Y415000D01*
G37*
G36*
X269702Y423869D02*X269657Y423761D01*
X269535Y423249D01*
X269493Y422724D01*
X269535Y422199D01*
X269657Y421687D01*
X269702Y421579D01*
Y421350D01*
X269701Y421350D01*
X269403Y421337D01*
X269106Y421297D01*
X268815Y421231D01*
X268531Y421139D01*
X268446Y421100D01*
X268369Y421048D01*
X268300Y420984D01*
X268243Y420911D01*
X268197Y420829D01*
X268165Y420742D01*
X268148Y420650D01*
X268144Y420557D01*
X268156Y420464D01*
X268181Y420375D01*
X268221Y420290D01*
X268273Y420213D01*
X268336Y420144D01*
X268410Y420087D01*
X268491Y420042D01*
X268579Y420010D01*
X268670Y419992D01*
X268764Y419988D01*
X268856Y420000D01*
X268945Y420027D01*
X269128Y420088D01*
X269317Y420131D01*
X269508Y420157D01*
X269701Y420166D01*
X269702Y420165D01*
Y415835D01*
X269701Y415834D01*
X269508Y415843D01*
X269317Y415869D01*
X269128Y415912D01*
X268944Y415971D01*
X268856Y415998D01*
X268763Y416009D01*
X268671Y416006D01*
X268579Y415988D01*
X268492Y415956D01*
X268411Y415911D01*
X268338Y415854D01*
X268274Y415786D01*
X268222Y415709D01*
X268183Y415625D01*
X268158Y415535D01*
X268146Y415443D01*
X268150Y415350D01*
X268168Y415259D01*
X268199Y415172D01*
X268245Y415090D01*
X268302Y415017D01*
X268370Y414954D01*
X268447Y414902D01*
X268532Y414864D01*
X268815Y414769D01*
X269106Y414703D01*
X269403Y414663D01*
X269701Y414650D01*
X269702Y414650D01*
Y411500D01*
X267032D01*
Y416450D01*
X267051Y416447D01*
X267144Y416443D01*
X267237Y416455D01*
X267326Y416480D01*
X267411Y416520D01*
X267488Y416572D01*
X267557Y416635D01*
X267614Y416709D01*
X267659Y416790D01*
X267691Y416878D01*
X267709Y416969D01*
X267713Y417063D01*
X267701Y417155D01*
X267674Y417244D01*
X267613Y417427D01*
X267570Y417616D01*
X267544Y417807D01*
X267536Y418000D01*
X267544Y418193D01*
X267570Y418384D01*
X267613Y418573D01*
X267672Y418757D01*
X267699Y418845D01*
X267710Y418938D01*
X267707Y419030D01*
X267689Y419122D01*
X267657Y419209D01*
X267612Y419290D01*
X267555Y419363D01*
X267487Y419427D01*
X267410Y419479D01*
X267326Y419518D01*
X267236Y419543D01*
X267144Y419555D01*
X267051Y419551D01*
X267032Y419548D01*
Y428500D01*
X269702D01*
Y423869D01*
G37*
G36*
X267032Y411500D02*X261622D01*
Y417002D01*
X261630Y417002D01*
X262340Y417057D01*
X263033Y417224D01*
X263692Y417497D01*
X264299Y417869D01*
X264841Y418332D01*
X265304Y418874D01*
X265676Y419481D01*
X265949Y420140D01*
X266116Y420833D01*
X266158Y421543D01*
X266116Y422253D01*
X265949Y422946D01*
X265676Y423605D01*
X265304Y424212D01*
X264841Y424754D01*
X264299Y425217D01*
X263692Y425589D01*
X263033Y425862D01*
X262340Y426029D01*
X261630Y426084D01*
X261622Y426084D01*
Y427560D01*
X261725Y427497D01*
X262132Y427329D01*
X262561Y427226D01*
X263000Y427191D01*
X263439Y427226D01*
X263868Y427329D01*
X264275Y427497D01*
X264651Y427728D01*
X264986Y428014D01*
X265272Y428349D01*
X265365Y428500D01*
X267032D01*
Y419548D01*
X266960Y419533D01*
X266873Y419502D01*
X266791Y419456D01*
X266718Y419399D01*
X266655Y419331D01*
X266603Y419254D01*
X266565Y419169D01*
X266470Y418886D01*
X266404Y418595D01*
X266364Y418298D01*
X266351Y418000D01*
X266364Y417702D01*
X266404Y417405D01*
X266470Y417114D01*
X266562Y416830D01*
X266601Y416745D01*
X266653Y416668D01*
X266717Y416599D01*
X266790Y416542D01*
X266872Y416496D01*
X266959Y416464D01*
X267032Y416450D01*
Y411500D01*
G37*
G36*
X261622D02*X261621D01*
X254102Y419019D01*
X254064Y419064D01*
X253884Y419217D01*
X253683Y419341D01*
X253465Y419431D01*
X253235Y419486D01*
X253235Y419486D01*
X253000Y419505D01*
X252941Y419500D01*
X233621D01*
X232558Y420564D01*
X232765Y420514D01*
X233000Y420500D01*
X238505Y420512D01*
X239235Y420514D01*
X239465Y420569D01*
X239683Y420659D01*
X239884Y420783D01*
X240064Y420936D01*
X240217Y421116D01*
X240341Y421317D01*
X240431Y421535D01*
X240486Y421765D01*
X240500Y422000D01*
X240486Y428235D01*
X240431Y428465D01*
X240341Y428683D01*
X240217Y428884D01*
X240064Y429064D01*
X239884Y429217D01*
X239683Y429341D01*
X239465Y429431D01*
X239235Y429486D01*
X239000Y429500D01*
X234631Y429490D01*
X232235Y431887D01*
X232596Y431737D01*
X233943Y431414D01*
X235324Y431305D01*
X236705Y431414D01*
X238052Y431737D01*
X239331Y432267D01*
X240512Y432991D01*
X241566Y433890D01*
X242465Y434944D01*
X243189Y436125D01*
X243500Y436875D01*
Y434059D01*
X243495Y434000D01*
X243514Y433765D01*
X243569Y433535D01*
X243659Y433317D01*
X243783Y433116D01*
X243936Y432936D01*
X243981Y432898D01*
X247721Y429158D01*
X247395Y429293D01*
X246706Y429458D01*
X246000Y429514D01*
X245294Y429458D01*
X244605Y429293D01*
X243951Y429022D01*
X243347Y428652D01*
X242808Y428192D01*
X242348Y427653D01*
X241978Y427049D01*
X241707Y426395D01*
X241542Y425706D01*
X241486Y425000D01*
X241542Y424294D01*
X241707Y423605D01*
X241978Y422951D01*
X242348Y422347D01*
X242808Y421808D01*
X243347Y421348D01*
X243951Y420978D01*
X244605Y420707D01*
X245294Y420542D01*
X246000Y420486D01*
X246706Y420542D01*
X247395Y420707D01*
X248049Y420978D01*
X248653Y421348D01*
X249192Y421808D01*
X249652Y422347D01*
X250022Y422951D01*
X250293Y423605D01*
X250458Y424294D01*
X250460Y424316D01*
X250497Y424225D01*
X250728Y423849D01*
X251014Y423514D01*
X251349Y423228D01*
X251725Y422997D01*
X252132Y422829D01*
X252561Y422726D01*
X253000Y422691D01*
X253439Y422726D01*
X253868Y422829D01*
X254275Y422997D01*
X254651Y423228D01*
X254986Y423514D01*
X255272Y423849D01*
X255503Y424225D01*
X255671Y424632D01*
X255774Y425061D01*
X255800Y425500D01*
X255774Y425939D01*
X255671Y426368D01*
X255503Y426775D01*
X255272Y427151D01*
X254986Y427486D01*
X254651Y427772D01*
X254275Y428003D01*
X253868Y428171D01*
X253439Y428274D01*
X253000Y428309D01*
X252826Y428295D01*
X246500Y434621D01*
Y447941D01*
X246505Y448000D01*
X246486Y448235D01*
X246486Y448235D01*
X246431Y448465D01*
X246341Y448683D01*
X246217Y448884D01*
X246064Y449064D01*
X246019Y449102D01*
X244102Y451019D01*
X244064Y451064D01*
X243884Y451217D01*
X243683Y451341D01*
X243465Y451431D01*
X243235Y451486D01*
X243235Y451486D01*
X243000Y451505D01*
X242941Y451500D01*
X231059D01*
X231000Y451505D01*
X230765Y451486D01*
X230535Y451431D01*
X230317Y451341D01*
X230116Y451217D01*
X230115Y451217D01*
X229936Y451064D01*
X229898Y451019D01*
X226379Y447500D01*
X225890D01*
X225886Y449635D01*
X225831Y449865D01*
X225741Y450083D01*
X225617Y450284D01*
X225464Y450464D01*
X225284Y450617D01*
X225083Y450741D01*
X224865Y450831D01*
X224635Y450886D01*
X224400Y450900D01*
X217365Y450886D01*
X217135Y450831D01*
X216917Y450741D01*
X216716Y450617D01*
X216536Y450464D01*
X216383Y450284D01*
X216259Y450083D01*
X216169Y449865D01*
X216114Y449635D01*
X216100Y449400D01*
X216114Y442500D01*
X210613D01*
Y443853D01*
X210656Y443860D01*
X210768Y443897D01*
X210873Y443952D01*
X210968Y444022D01*
X211051Y444106D01*
X211119Y444202D01*
X211170Y444308D01*
X211318Y444716D01*
X211422Y445137D01*
X211484Y445567D01*
X211505Y446000D01*
X211484Y446433D01*
X211422Y446863D01*
X211318Y447284D01*
X211175Y447694D01*
X211122Y447800D01*
X211053Y447896D01*
X210970Y447981D01*
X210875Y448051D01*
X210769Y448106D01*
X210657Y448143D01*
X210613Y448151D01*
Y454000D01*
X261622D01*
Y444786D01*
X260858Y444725D01*
X260105Y444545D01*
X259389Y444248D01*
X258729Y443843D01*
X258140Y443340D01*
X257637Y442751D01*
X257232Y442091D01*
X256935Y441375D01*
X256755Y440622D01*
X256694Y439850D01*
X256755Y439078D01*
X256935Y438325D01*
X257232Y437609D01*
X257637Y436949D01*
X258140Y436360D01*
X258729Y435857D01*
X259389Y435452D01*
X260105Y435155D01*
X260858Y434975D01*
X261622Y434914D01*
Y432440D01*
X261349Y432272D01*
X261014Y431986D01*
X260728Y431651D01*
X260497Y431275D01*
X260329Y430868D01*
X260226Y430439D01*
X260191Y430000D01*
X260226Y429561D01*
X260329Y429132D01*
X260497Y428725D01*
X260728Y428349D01*
X261014Y428014D01*
X261349Y427728D01*
X261622Y427560D01*
Y426084D01*
X260920Y426029D01*
X260227Y425862D01*
X259568Y425589D01*
X258961Y425217D01*
X258419Y424754D01*
X257956Y424212D01*
X257584Y423605D01*
X257311Y422946D01*
X257144Y422253D01*
X257089Y421543D01*
X257144Y420833D01*
X257311Y420140D01*
X257584Y419481D01*
X257956Y418874D01*
X258419Y418332D01*
X258961Y417869D01*
X259568Y417497D01*
X260227Y417224D01*
X260920Y417057D01*
X261622Y417002D01*
Y411500D01*
G37*
G36*
X210613Y442500D02*X209163D01*
X209164Y442579D01*
X209146Y442696D01*
X209110Y442809D01*
X209057Y442915D01*
X208988Y443012D01*
X208905Y443096D01*
X208809Y443167D01*
X208704Y443221D01*
X208592Y443259D01*
X208475Y443278D01*
X208356Y443279D01*
X208239Y443261D01*
X208126Y443223D01*
X207855Y443124D01*
X207575Y443056D01*
X207289Y443014D01*
X207000Y443000D01*
X206998Y443000D01*
Y449000D01*
X207000Y449000D01*
X207289Y448986D01*
X207575Y448944D01*
X207855Y448876D01*
X208128Y448780D01*
X208239Y448742D01*
X208356Y448725D01*
X208474Y448725D01*
X208591Y448745D01*
X208703Y448782D01*
X208807Y448836D01*
X208902Y448906D01*
X208985Y448991D01*
X209054Y449087D01*
X209107Y449192D01*
X209143Y449305D01*
X209160Y449421D01*
X209159Y449539D01*
X209140Y449656D01*
X209103Y449768D01*
X209048Y449873D01*
X208978Y449968D01*
X208894Y450051D01*
X208798Y450119D01*
X208692Y450170D01*
X208284Y450318D01*
X207863Y450422D01*
X207433Y450484D01*
X207000Y450505D01*
X206998Y450505D01*
Y454000D01*
X210613D01*
Y448151D01*
X210540Y448163D01*
X210421Y448164D01*
X210304Y448146D01*
X210191Y448110D01*
X210085Y448057D01*
X209988Y447988D01*
X209904Y447905D01*
X209833Y447809D01*
X209779Y447704D01*
X209741Y447592D01*
X209722Y447475D01*
X209721Y447356D01*
X209739Y447239D01*
X209777Y447126D01*
X209876Y446855D01*
X209944Y446575D01*
X209986Y446289D01*
X210000Y446000D01*
X209986Y445711D01*
X209944Y445425D01*
X209876Y445145D01*
X209780Y444872D01*
X209742Y444761D01*
X209725Y444644D01*
X209725Y444526D01*
X209745Y444409D01*
X209782Y444297D01*
X209836Y444193D01*
X209906Y444098D01*
X209991Y444015D01*
X210087Y443946D01*
X210192Y443893D01*
X210305Y443857D01*
X210421Y443840D01*
X210539Y443841D01*
X210613Y443853D01*
Y442500D01*
G37*
G36*
X206998Y443000D02*X206711Y443014D01*
X206425Y443056D01*
X206145Y443124D01*
X205872Y443220D01*
X205761Y443258D01*
X205644Y443275D01*
X205526Y443275D01*
X205409Y443255D01*
X205297Y443218D01*
X205193Y443164D01*
X205098Y443094D01*
X205015Y443009D01*
X204946Y442913D01*
X204893Y442808D01*
X204857Y442695D01*
X204840Y442579D01*
X204840Y442500D01*
X203387D01*
Y443849D01*
X203460Y443837D01*
X203579Y443836D01*
X203696Y443854D01*
X203809Y443890D01*
X203915Y443943D01*
X204012Y444012D01*
X204096Y444095D01*
X204167Y444191D01*
X204221Y444296D01*
X204259Y444408D01*
X204278Y444525D01*
X204279Y444644D01*
X204261Y444761D01*
X204223Y444874D01*
X204124Y445145D01*
X204056Y445425D01*
X204014Y445711D01*
X204000Y446000D01*
X204014Y446289D01*
X204056Y446575D01*
X204124Y446855D01*
X204220Y447128D01*
X204258Y447239D01*
X204275Y447356D01*
X204275Y447474D01*
X204255Y447591D01*
X204218Y447703D01*
X204164Y447807D01*
X204094Y447902D01*
X204009Y447985D01*
X203913Y448054D01*
X203808Y448107D01*
X203695Y448143D01*
X203579Y448160D01*
X203461Y448159D01*
X203387Y448147D01*
Y454000D01*
X206998D01*
Y450505D01*
X206567Y450484D01*
X206137Y450422D01*
X205716Y450318D01*
X205306Y450175D01*
X205200Y450122D01*
X205104Y450053D01*
X205019Y449970D01*
X204949Y449875D01*
X204894Y449769D01*
X204857Y449657D01*
X204837Y449540D01*
X204836Y449421D01*
X204854Y449304D01*
X204890Y449191D01*
X204943Y449085D01*
X205012Y448988D01*
X205095Y448904D01*
X205191Y448833D01*
X205296Y448779D01*
X205408Y448741D01*
X205525Y448722D01*
X205644Y448721D01*
X205761Y448739D01*
X205874Y448777D01*
X206145Y448876D01*
X206425Y448944D01*
X206711Y448986D01*
X206998Y449000D01*
Y443000D01*
G37*
G36*
X203387Y442500D02*X200613D01*
Y443853D01*
X200656Y443860D01*
X200768Y443897D01*
X200873Y443952D01*
X200968Y444022D01*
X201051Y444106D01*
X201119Y444202D01*
X201170Y444308D01*
X201318Y444716D01*
X201422Y445137D01*
X201484Y445567D01*
X201505Y446000D01*
X201484Y446433D01*
X201422Y446863D01*
X201318Y447284D01*
X201175Y447694D01*
X201122Y447800D01*
X201053Y447896D01*
X200970Y447981D01*
X200875Y448051D01*
X200769Y448106D01*
X200657Y448143D01*
X200613Y448151D01*
Y454000D01*
X203387D01*
Y448147D01*
X203344Y448140D01*
X203232Y448103D01*
X203127Y448048D01*
X203032Y447978D01*
X202949Y447894D01*
X202881Y447798D01*
X202830Y447692D01*
X202682Y447284D01*
X202578Y446863D01*
X202516Y446433D01*
X202495Y446000D01*
X202516Y445567D01*
X202578Y445137D01*
X202682Y444716D01*
X202825Y444306D01*
X202878Y444200D01*
X202947Y444104D01*
X203030Y444019D01*
X203125Y443949D01*
X203231Y443894D01*
X203343Y443857D01*
X203387Y443849D01*
Y442500D01*
G37*
G36*
X200613D02*X199163D01*
X199164Y442579D01*
X199146Y442696D01*
X199110Y442809D01*
X199057Y442915D01*
X198988Y443012D01*
X198905Y443096D01*
X198809Y443167D01*
X198704Y443221D01*
X198592Y443259D01*
X198475Y443278D01*
X198356Y443279D01*
X198239Y443261D01*
X198126Y443223D01*
X197855Y443124D01*
X197575Y443056D01*
X197289Y443014D01*
X197000Y443000D01*
X196998Y443000D01*
Y449000D01*
X197000Y449000D01*
X197289Y448986D01*
X197575Y448944D01*
X197855Y448876D01*
X198128Y448780D01*
X198239Y448742D01*
X198356Y448725D01*
X198474Y448725D01*
X198591Y448745D01*
X198703Y448782D01*
X198807Y448836D01*
X198902Y448906D01*
X198985Y448991D01*
X199054Y449087D01*
X199107Y449192D01*
X199143Y449305D01*
X199160Y449421D01*
X199159Y449539D01*
X199140Y449656D01*
X199103Y449768D01*
X199048Y449873D01*
X198978Y449968D01*
X198894Y450051D01*
X198798Y450119D01*
X198692Y450170D01*
X198284Y450318D01*
X197863Y450422D01*
X197433Y450484D01*
X197000Y450505D01*
X196998Y450505D01*
Y454000D01*
X200613D01*
Y448151D01*
X200540Y448163D01*
X200421Y448164D01*
X200304Y448146D01*
X200191Y448110D01*
X200085Y448057D01*
X199988Y447988D01*
X199904Y447905D01*
X199833Y447809D01*
X199779Y447704D01*
X199741Y447592D01*
X199722Y447475D01*
X199721Y447356D01*
X199739Y447239D01*
X199777Y447126D01*
X199876Y446855D01*
X199944Y446575D01*
X199986Y446289D01*
X200000Y446000D01*
X199986Y445711D01*
X199944Y445425D01*
X199876Y445145D01*
X199780Y444872D01*
X199742Y444761D01*
X199725Y444644D01*
X199725Y444526D01*
X199745Y444409D01*
X199782Y444297D01*
X199836Y444193D01*
X199906Y444098D01*
X199991Y444015D01*
X200087Y443946D01*
X200192Y443893D01*
X200305Y443857D01*
X200421Y443840D01*
X200539Y443841D01*
X200613Y443853D01*
Y442500D01*
G37*
G36*
X196998Y443000D02*X196711Y443014D01*
X196425Y443056D01*
X196145Y443124D01*
X195872Y443220D01*
X195761Y443258D01*
X195644Y443275D01*
X195526Y443275D01*
X195409Y443255D01*
X195297Y443218D01*
X195193Y443164D01*
X195098Y443094D01*
X195015Y443009D01*
X194946Y442913D01*
X194893Y442808D01*
X194857Y442695D01*
X194840Y442579D01*
X194840Y442500D01*
X193387D01*
Y443849D01*
X193460Y443837D01*
X193579Y443836D01*
X193696Y443854D01*
X193809Y443890D01*
X193915Y443943D01*
X194012Y444012D01*
X194096Y444095D01*
X194167Y444191D01*
X194221Y444296D01*
X194259Y444408D01*
X194278Y444525D01*
X194279Y444644D01*
X194261Y444761D01*
X194223Y444874D01*
X194124Y445145D01*
X194056Y445425D01*
X194014Y445711D01*
X194000Y446000D01*
X194014Y446289D01*
X194056Y446575D01*
X194124Y446855D01*
X194220Y447128D01*
X194258Y447239D01*
X194275Y447356D01*
X194275Y447474D01*
X194255Y447591D01*
X194218Y447703D01*
X194164Y447807D01*
X194094Y447902D01*
X194009Y447985D01*
X193913Y448054D01*
X193808Y448107D01*
X193695Y448143D01*
X193579Y448160D01*
X193461Y448159D01*
X193387Y448147D01*
Y454000D01*
X196998D01*
Y450505D01*
X196567Y450484D01*
X196137Y450422D01*
X195716Y450318D01*
X195306Y450175D01*
X195200Y450122D01*
X195104Y450053D01*
X195019Y449970D01*
X194949Y449875D01*
X194894Y449769D01*
X194857Y449657D01*
X194837Y449540D01*
X194836Y449421D01*
X194854Y449304D01*
X194890Y449191D01*
X194943Y449085D01*
X195012Y448988D01*
X195095Y448904D01*
X195191Y448833D01*
X195296Y448779D01*
X195408Y448741D01*
X195525Y448722D01*
X195644Y448721D01*
X195761Y448739D01*
X195874Y448777D01*
X196145Y448876D01*
X196425Y448944D01*
X196711Y448986D01*
X196998Y449000D01*
Y443000D01*
G37*
G36*
X193387Y442500D02*X190613D01*
Y443853D01*
X190656Y443860D01*
X190768Y443897D01*
X190873Y443952D01*
X190968Y444022D01*
X191051Y444106D01*
X191119Y444202D01*
X191170Y444308D01*
X191318Y444716D01*
X191422Y445137D01*
X191484Y445567D01*
X191505Y446000D01*
X191484Y446433D01*
X191422Y446863D01*
X191318Y447284D01*
X191175Y447694D01*
X191122Y447800D01*
X191053Y447896D01*
X190970Y447981D01*
X190875Y448051D01*
X190769Y448106D01*
X190657Y448143D01*
X190613Y448151D01*
Y454000D01*
X193387D01*
Y448147D01*
X193344Y448140D01*
X193232Y448103D01*
X193127Y448048D01*
X193032Y447978D01*
X192949Y447894D01*
X192881Y447798D01*
X192830Y447692D01*
X192682Y447284D01*
X192578Y446863D01*
X192516Y446433D01*
X192495Y446000D01*
X192516Y445567D01*
X192578Y445137D01*
X192682Y444716D01*
X192825Y444306D01*
X192878Y444200D01*
X192947Y444104D01*
X193030Y444019D01*
X193125Y443949D01*
X193231Y443894D01*
X193343Y443857D01*
X193387Y443849D01*
Y442500D01*
G37*
G36*
X190613D02*X189163D01*
X189164Y442579D01*
X189146Y442696D01*
X189110Y442809D01*
X189057Y442915D01*
X188988Y443012D01*
X188905Y443096D01*
X188809Y443167D01*
X188704Y443221D01*
X188592Y443259D01*
X188475Y443278D01*
X188356Y443279D01*
X188239Y443261D01*
X188126Y443223D01*
X187855Y443124D01*
X187575Y443056D01*
X187289Y443014D01*
X187000Y443000D01*
X186998Y443000D01*
Y449000D01*
X187000Y449000D01*
X187289Y448986D01*
X187575Y448944D01*
X187855Y448876D01*
X188128Y448780D01*
X188239Y448742D01*
X188356Y448725D01*
X188474Y448725D01*
X188591Y448745D01*
X188703Y448782D01*
X188807Y448836D01*
X188902Y448906D01*
X188985Y448991D01*
X189054Y449087D01*
X189107Y449192D01*
X189143Y449305D01*
X189160Y449421D01*
X189159Y449539D01*
X189140Y449656D01*
X189103Y449768D01*
X189048Y449873D01*
X188978Y449968D01*
X188894Y450051D01*
X188798Y450119D01*
X188692Y450170D01*
X188284Y450318D01*
X187863Y450422D01*
X187433Y450484D01*
X187000Y450505D01*
X186998Y450505D01*
Y454000D01*
X190613D01*
Y448151D01*
X190540Y448163D01*
X190421Y448164D01*
X190304Y448146D01*
X190191Y448110D01*
X190085Y448057D01*
X189988Y447988D01*
X189904Y447905D01*
X189833Y447809D01*
X189779Y447704D01*
X189741Y447592D01*
X189722Y447475D01*
X189721Y447356D01*
X189739Y447239D01*
X189777Y447126D01*
X189876Y446855D01*
X189944Y446575D01*
X189986Y446289D01*
X190000Y446000D01*
X189986Y445711D01*
X189944Y445425D01*
X189876Y445145D01*
X189780Y444872D01*
X189742Y444761D01*
X189725Y444644D01*
X189725Y444526D01*
X189745Y444409D01*
X189782Y444297D01*
X189836Y444193D01*
X189906Y444098D01*
X189991Y444015D01*
X190087Y443946D01*
X190192Y443893D01*
X190305Y443857D01*
X190421Y443840D01*
X190539Y443841D01*
X190613Y443853D01*
Y442500D01*
G37*
G36*
X186998Y443000D02*X186711Y443014D01*
X186425Y443056D01*
X186145Y443124D01*
X185872Y443220D01*
X185761Y443258D01*
X185644Y443275D01*
X185526Y443275D01*
X185409Y443255D01*
X185297Y443218D01*
X185193Y443164D01*
X185098Y443094D01*
X185015Y443009D01*
X184946Y442913D01*
X184893Y442808D01*
X184857Y442695D01*
X184840Y442579D01*
X184840Y442500D01*
X183387D01*
Y443849D01*
X183460Y443837D01*
X183579Y443836D01*
X183696Y443854D01*
X183809Y443890D01*
X183915Y443943D01*
X184012Y444012D01*
X184096Y444095D01*
X184167Y444191D01*
X184221Y444296D01*
X184259Y444408D01*
X184278Y444525D01*
X184279Y444644D01*
X184261Y444761D01*
X184223Y444874D01*
X184124Y445145D01*
X184056Y445425D01*
X184014Y445711D01*
X184000Y446000D01*
X184014Y446289D01*
X184056Y446575D01*
X184124Y446855D01*
X184220Y447128D01*
X184258Y447239D01*
X184275Y447356D01*
X184275Y447474D01*
X184255Y447591D01*
X184218Y447703D01*
X184164Y447807D01*
X184094Y447902D01*
X184009Y447985D01*
X183913Y448054D01*
X183808Y448107D01*
X183695Y448143D01*
X183579Y448160D01*
X183461Y448159D01*
X183387Y448147D01*
Y454000D01*
X186998D01*
Y450505D01*
X186567Y450484D01*
X186137Y450422D01*
X185716Y450318D01*
X185306Y450175D01*
X185200Y450122D01*
X185104Y450053D01*
X185019Y449970D01*
X184949Y449875D01*
X184894Y449769D01*
X184857Y449657D01*
X184837Y449540D01*
X184836Y449421D01*
X184854Y449304D01*
X184890Y449191D01*
X184943Y449085D01*
X185012Y448988D01*
X185095Y448904D01*
X185191Y448833D01*
X185296Y448779D01*
X185408Y448741D01*
X185525Y448722D01*
X185644Y448721D01*
X185761Y448739D01*
X185874Y448777D01*
X186145Y448876D01*
X186425Y448944D01*
X186711Y448986D01*
X186998Y449000D01*
Y443000D01*
G37*
G36*
X183387Y442500D02*X180613D01*
Y443853D01*
X180656Y443860D01*
X180768Y443897D01*
X180873Y443952D01*
X180968Y444022D01*
X181051Y444106D01*
X181119Y444202D01*
X181170Y444308D01*
X181318Y444716D01*
X181422Y445137D01*
X181484Y445567D01*
X181505Y446000D01*
X181484Y446433D01*
X181422Y446863D01*
X181318Y447284D01*
X181175Y447694D01*
X181122Y447800D01*
X181053Y447896D01*
X180970Y447981D01*
X180875Y448051D01*
X180769Y448106D01*
X180657Y448143D01*
X180613Y448151D01*
Y454000D01*
X183387D01*
Y448147D01*
X183344Y448140D01*
X183232Y448103D01*
X183127Y448048D01*
X183032Y447978D01*
X182949Y447894D01*
X182881Y447798D01*
X182830Y447692D01*
X182682Y447284D01*
X182578Y446863D01*
X182516Y446433D01*
X182495Y446000D01*
X182516Y445567D01*
X182578Y445137D01*
X182682Y444716D01*
X182825Y444306D01*
X182878Y444200D01*
X182947Y444104D01*
X183030Y444019D01*
X183125Y443949D01*
X183231Y443894D01*
X183343Y443857D01*
X183387Y443849D01*
Y442500D01*
G37*
G36*
X180613D02*X179163D01*
X179164Y442579D01*
X179146Y442696D01*
X179110Y442809D01*
X179057Y442915D01*
X178988Y443012D01*
X178905Y443096D01*
X178809Y443167D01*
X178704Y443221D01*
X178592Y443259D01*
X178475Y443278D01*
X178356Y443279D01*
X178239Y443261D01*
X178126Y443223D01*
X177855Y443124D01*
X177575Y443056D01*
X177289Y443014D01*
X177000Y443000D01*
X176998Y443000D01*
Y449000D01*
X177000Y449000D01*
X177289Y448986D01*
X177575Y448944D01*
X177855Y448876D01*
X178128Y448780D01*
X178239Y448742D01*
X178356Y448725D01*
X178474Y448725D01*
X178591Y448745D01*
X178703Y448782D01*
X178807Y448836D01*
X178902Y448906D01*
X178985Y448991D01*
X179054Y449087D01*
X179107Y449192D01*
X179143Y449305D01*
X179160Y449421D01*
X179159Y449539D01*
X179140Y449656D01*
X179103Y449768D01*
X179048Y449873D01*
X178978Y449968D01*
X178894Y450051D01*
X178798Y450119D01*
X178692Y450170D01*
X178284Y450318D01*
X177863Y450422D01*
X177433Y450484D01*
X177000Y450505D01*
X176998Y450505D01*
Y454000D01*
X180613D01*
Y448151D01*
X180540Y448163D01*
X180421Y448164D01*
X180304Y448146D01*
X180191Y448110D01*
X180085Y448057D01*
X179988Y447988D01*
X179904Y447905D01*
X179833Y447809D01*
X179779Y447704D01*
X179741Y447592D01*
X179722Y447475D01*
X179721Y447356D01*
X179739Y447239D01*
X179777Y447126D01*
X179876Y446855D01*
X179944Y446575D01*
X179986Y446289D01*
X180000Y446000D01*
X179986Y445711D01*
X179944Y445425D01*
X179876Y445145D01*
X179780Y444872D01*
X179742Y444761D01*
X179725Y444644D01*
X179725Y444526D01*
X179745Y444409D01*
X179782Y444297D01*
X179836Y444193D01*
X179906Y444098D01*
X179991Y444015D01*
X180087Y443946D01*
X180192Y443893D01*
X180305Y443857D01*
X180421Y443840D01*
X180539Y443841D01*
X180613Y443853D01*
Y442500D01*
G37*
G36*
X176998Y443000D02*X176711Y443014D01*
X176425Y443056D01*
X176145Y443124D01*
X175872Y443220D01*
X175761Y443258D01*
X175644Y443275D01*
X175526Y443275D01*
X175409Y443255D01*
X175297Y443218D01*
X175193Y443164D01*
X175098Y443094D01*
X175015Y443009D01*
X174946Y442913D01*
X174893Y442808D01*
X174857Y442695D01*
X174840Y442579D01*
X174840Y442500D01*
X173621D01*
X173387Y442734D01*
Y443849D01*
X173460Y443837D01*
X173579Y443836D01*
X173696Y443854D01*
X173809Y443890D01*
X173915Y443943D01*
X174012Y444012D01*
X174096Y444095D01*
X174167Y444191D01*
X174221Y444296D01*
X174259Y444408D01*
X174278Y444525D01*
X174279Y444644D01*
X174261Y444761D01*
X174223Y444874D01*
X174124Y445145D01*
X174056Y445425D01*
X174014Y445711D01*
X174000Y446000D01*
X174014Y446289D01*
X174056Y446575D01*
X174124Y446855D01*
X174220Y447128D01*
X174258Y447239D01*
X174275Y447356D01*
X174275Y447474D01*
X174255Y447591D01*
X174218Y447703D01*
X174164Y447807D01*
X174094Y447902D01*
X174009Y447985D01*
X173913Y448054D01*
X173808Y448107D01*
X173695Y448143D01*
X173579Y448160D01*
X173461Y448159D01*
X173387Y448147D01*
Y454000D01*
X176998D01*
Y450505D01*
X176567Y450484D01*
X176137Y450422D01*
X175716Y450318D01*
X175306Y450175D01*
X175200Y450122D01*
X175104Y450053D01*
X175019Y449970D01*
X174949Y449875D01*
X174894Y449769D01*
X174857Y449657D01*
X174837Y449540D01*
X174836Y449421D01*
X174854Y449304D01*
X174890Y449191D01*
X174943Y449085D01*
X175012Y448988D01*
X175095Y448904D01*
X175191Y448833D01*
X175296Y448779D01*
X175408Y448741D01*
X175525Y448722D01*
X175644Y448721D01*
X175761Y448739D01*
X175874Y448777D01*
X176145Y448876D01*
X176425Y448944D01*
X176711Y448986D01*
X176998Y449000D01*
Y443000D01*
G37*
G36*
X173387Y442734D02*X171336Y444785D01*
X171458Y445294D01*
X171500Y446000D01*
X171458Y446706D01*
X171293Y447395D01*
X171022Y448049D01*
X170652Y448653D01*
X170192Y449192D01*
X169653Y449652D01*
X169049Y450022D01*
X168395Y450293D01*
X167977Y450393D01*
Y454000D01*
X173387D01*
Y448147D01*
X173344Y448140D01*
X173232Y448103D01*
X173127Y448048D01*
X173032Y447978D01*
X172949Y447894D01*
X172881Y447798D01*
X172830Y447692D01*
X172682Y447284D01*
X172578Y446863D01*
X172516Y446433D01*
X172495Y446000D01*
X172516Y445567D01*
X172578Y445137D01*
X172682Y444716D01*
X172825Y444306D01*
X172878Y444200D01*
X172947Y444104D01*
X173030Y444019D01*
X173125Y443949D01*
X173231Y443894D01*
X173343Y443857D01*
X173387Y443849D01*
Y442734D01*
G37*
G36*
X166705Y419915D02*X167200Y419796D01*
X167977Y419735D01*
Y411099D01*
X166981Y410102D01*
X166936Y410064D01*
X166783Y409884D01*
X166705Y409757D01*
Y410874D01*
X166834Y410913D01*
X166974Y410980D01*
X167101Y411067D01*
X167213Y411174D01*
X167308Y411297D01*
X167379Y411435D01*
X167598Y411980D01*
X167759Y412544D01*
X167867Y413122D01*
X167921Y413706D01*
Y414294D01*
X167867Y414878D01*
X167759Y415456D01*
X167598Y416020D01*
X167385Y416568D01*
X167312Y416705D01*
X167217Y416829D01*
X167104Y416936D01*
X166976Y417025D01*
X166836Y417092D01*
X166705Y417131D01*
Y419915D01*
G37*
G36*
Y431506D02*X167977Y431509D01*
Y429765D01*
X167200Y429704D01*
X166705Y429585D01*
Y431506D01*
G37*
G36*
Y441509D02*X167000Y441486D01*
X167706Y441542D01*
X167977Y441607D01*
Y440495D01*
X166705Y440493D01*
Y441509D01*
G37*
G36*
X167977Y450393D02*X167706Y450458D01*
X167000Y450514D01*
X166705Y450491D01*
Y454000D01*
X167977D01*
Y450393D01*
G37*
G36*
X166705Y450491D02*X166294Y450458D01*
X165605Y450293D01*
X164951Y450022D01*
X164347Y449652D01*
X163808Y449192D01*
X163348Y448653D01*
X162978Y448049D01*
X162707Y447395D01*
X162542Y446706D01*
X162486Y446000D01*
X162542Y445294D01*
X162707Y444605D01*
X162978Y443951D01*
X163348Y443347D01*
X163808Y442808D01*
X164347Y442348D01*
X164951Y441978D01*
X165605Y441707D01*
X166294Y441542D01*
X166705Y441509D01*
Y440493D01*
X163765Y440486D01*
X163535Y440431D01*
X163317Y440341D01*
X163116Y440217D01*
X162936Y440064D01*
X162783Y439884D01*
X162659Y439683D01*
X162569Y439465D01*
X162514Y439235D01*
X162500Y439000D01*
X162514Y432765D01*
X162569Y432535D01*
X162659Y432317D01*
X162783Y432116D01*
X162936Y431936D01*
X163116Y431783D01*
X163317Y431659D01*
X163535Y431569D01*
X163765Y431514D01*
X164000Y431500D01*
X166705Y431506D01*
Y429585D01*
X166435Y429520D01*
X165708Y429219D01*
X165037Y428808D01*
X164439Y428296D01*
X163927Y427698D01*
X163516Y427027D01*
X163215Y426300D01*
X163031Y425535D01*
X162970Y424750D01*
X163031Y423965D01*
X163215Y423200D01*
X163516Y422473D01*
X163927Y421802D01*
X164439Y421204D01*
X165037Y420692D01*
X165708Y420281D01*
X166435Y419980D01*
X166705Y419915D01*
Y417131D01*
X166687Y417136D01*
X166532Y417157D01*
X166377Y417153D01*
X166224Y417125D01*
X166077Y417073D01*
X165940Y416999D01*
X165816Y416905D01*
X165709Y416792D01*
X165620Y416664D01*
X165553Y416523D01*
X165509Y416374D01*
X165488Y416220D01*
X165492Y416064D01*
X165520Y415911D01*
X165575Y415766D01*
X165725Y415391D01*
X165836Y415002D01*
X165911Y414605D01*
X165948Y414202D01*
Y413798D01*
X165911Y413395D01*
X165836Y412998D01*
X165725Y412609D01*
X165579Y412233D01*
X165525Y412088D01*
X165497Y411935D01*
X165493Y411780D01*
X165513Y411627D01*
X165558Y411478D01*
X165625Y411339D01*
X165712Y411211D01*
X165819Y411099D01*
X165942Y411005D01*
X166079Y410931D01*
X166225Y410880D01*
X166377Y410852D01*
X166532Y410848D01*
X166686Y410868D01*
X166705Y410874D01*
Y409757D01*
X166659Y409683D01*
X166569Y409465D01*
X166514Y409235D01*
X166514Y409235D01*
X166495Y409000D01*
X166500Y408941D01*
Y400283D01*
X166081Y400773D01*
X165323Y401420D01*
X164474Y401941D01*
X163553Y402322D01*
X162584Y402555D01*
X161591Y402633D01*
X160598Y402555D01*
X160000Y402411D01*
Y407871D01*
X160135Y407832D01*
X160713Y407724D01*
X161297Y407670D01*
X161885D01*
X162469Y407724D01*
X163047Y407832D01*
X163611Y407993D01*
X164159Y408206D01*
X164296Y408279D01*
X164420Y408374D01*
X164527Y408487D01*
X164616Y408615D01*
X164683Y408755D01*
X164727Y408904D01*
X164748Y409059D01*
X164744Y409214D01*
X164716Y409367D01*
X164664Y409514D01*
X164590Y409651D01*
X164496Y409775D01*
X164383Y409882D01*
X164255Y409971D01*
X164114Y410038D01*
X163965Y410082D01*
X163811Y410103D01*
X163655Y410099D01*
X163502Y410071D01*
X163357Y410016D01*
X162982Y409866D01*
X162593Y409755D01*
X162196Y409680D01*
X161793Y409643D01*
X161389D01*
X160986Y409680D01*
X160589Y409755D01*
X160200Y409866D01*
X160000Y409944D01*
Y418054D01*
X160200Y418134D01*
X160589Y418245D01*
X160986Y418320D01*
X161389Y418357D01*
X161793D01*
X162196Y418320D01*
X162593Y418245D01*
X162982Y418134D01*
X163358Y417988D01*
X163503Y417934D01*
X163656Y417906D01*
X163811Y417902D01*
X163964Y417922D01*
X164113Y417967D01*
X164252Y418034D01*
X164380Y418121D01*
X164492Y418228D01*
X164586Y418351D01*
X164660Y418488D01*
X164711Y418634D01*
X164739Y418786D01*
X164743Y418941D01*
X164723Y419095D01*
X164681Y419235D01*
X164678Y419243D01*
X164611Y419383D01*
X164524Y419510D01*
X164417Y419622D01*
X164294Y419717D01*
X164156Y419788D01*
X163611Y420007D01*
X163047Y420168D01*
X162970Y420182D01*
X162469Y420276D01*
X161885Y420330D01*
X161297D01*
X160713Y420276D01*
X160135Y420168D01*
X160000Y420129D01*
Y454000D01*
X166705D01*
Y450491D01*
G37*
G36*
X338705Y420000D02*X340000D01*
Y330000D01*
X338705D01*
Y392523D01*
X338728Y392551D01*
X339249Y393400D01*
X339630Y394321D01*
X339863Y395290D01*
X339922Y396283D01*
X339863Y397276D01*
X339630Y398245D01*
X339249Y399166D01*
X338728Y400015D01*
X338705Y400043D01*
Y410874D01*
X338834Y410913D01*
X338974Y410980D01*
X339101Y411067D01*
X339213Y411174D01*
X339308Y411297D01*
X339379Y411435D01*
X339598Y411980D01*
X339759Y412544D01*
X339867Y413122D01*
X339921Y413706D01*
Y414294D01*
X339867Y414878D01*
X339759Y415456D01*
X339598Y416020D01*
X339385Y416568D01*
X339312Y416705D01*
X339217Y416829D01*
X339104Y416936D01*
X338976Y417025D01*
X338836Y417092D01*
X338705Y417131D01*
Y420000D01*
G37*
G36*
Y330000D02*X333593D01*
Y389933D01*
X334584Y390011D01*
X335553Y390244D01*
X336474Y390625D01*
X337323Y391146D01*
X338081Y391793D01*
X338705Y392523D01*
Y330000D01*
G37*
G36*
X333593Y418357D02*X333793D01*
X334196Y418320D01*
X334593Y418245D01*
X334982Y418134D01*
X335358Y417988D01*
X335503Y417934D01*
X335656Y417906D01*
X335811Y417902D01*
X335964Y417922D01*
X336113Y417967D01*
X336252Y418034D01*
X336380Y418121D01*
X336492Y418228D01*
X336586Y418351D01*
X336660Y418488D01*
X336711Y418634D01*
X336739Y418786D01*
X336743Y418941D01*
X336723Y419095D01*
X336678Y419243D01*
X336611Y419383D01*
X336524Y419510D01*
X336417Y419622D01*
X336294Y419717D01*
X336156Y419788D01*
X335628Y420000D01*
X338705D01*
Y417131D01*
X338687Y417136D01*
X338532Y417157D01*
X338377Y417153D01*
X338224Y417125D01*
X338077Y417073D01*
X337940Y416999D01*
X337816Y416905D01*
X337709Y416792D01*
X337620Y416664D01*
X337553Y416523D01*
X337509Y416374D01*
X337488Y416220D01*
X337492Y416064D01*
X337520Y415911D01*
X337575Y415766D01*
X337725Y415391D01*
X337836Y415002D01*
X337911Y414605D01*
X337948Y414202D01*
Y413798D01*
X337911Y413395D01*
X337836Y412998D01*
X337725Y412609D01*
X337579Y412233D01*
X337525Y412088D01*
X337497Y411935D01*
X337493Y411780D01*
X337513Y411627D01*
X337558Y411478D01*
X337625Y411339D01*
X337712Y411211D01*
X337819Y411099D01*
X337942Y411005D01*
X338079Y410931D01*
X338225Y410880D01*
X338377Y410852D01*
X338532Y410848D01*
X338686Y410868D01*
X338705Y410874D01*
Y400043D01*
X338081Y400773D01*
X337323Y401420D01*
X336474Y401941D01*
X335553Y402322D01*
X334584Y402555D01*
X333593Y402633D01*
Y407670D01*
X333885D01*
X334469Y407724D01*
X335047Y407832D01*
X335611Y407993D01*
X336159Y408206D01*
X336296Y408279D01*
X336420Y408374D01*
X336527Y408487D01*
X336616Y408615D01*
X336683Y408755D01*
X336727Y408904D01*
X336748Y409059D01*
X336744Y409214D01*
X336716Y409367D01*
X336664Y409514D01*
X336590Y409651D01*
X336496Y409775D01*
X336383Y409882D01*
X336255Y409971D01*
X336114Y410038D01*
X335965Y410082D01*
X335811Y410103D01*
X335655Y410099D01*
X335502Y410071D01*
X335357Y410016D01*
X334982Y409866D01*
X334593Y409755D01*
X334196Y409680D01*
X333793Y409643D01*
X333593D01*
Y418357D01*
G37*
G36*
X328477Y392523D02*X329101Y391793D01*
X329859Y391146D01*
X330708Y390625D01*
X331629Y390244D01*
X332598Y390011D01*
X333591Y389933D01*
X333593Y389933D01*
Y330000D01*
X328477D01*
Y392523D01*
G37*
G36*
Y420000D02*X331554D01*
X331023Y419794D01*
X330886Y419721D01*
X330762Y419626D01*
X330655Y419513D01*
X330566Y419385D01*
X330499Y419245D01*
X330455Y419096D01*
X330434Y418941D01*
X330438Y418786D01*
X330466Y418633D01*
X330518Y418486D01*
X330592Y418349D01*
X330686Y418225D01*
X330799Y418118D01*
X330927Y418029D01*
X331068Y417962D01*
X331217Y417918D01*
X331371Y417897D01*
X331527Y417901D01*
X331680Y417929D01*
X331825Y417984D01*
X332200Y418134D01*
X332589Y418245D01*
X332986Y418320D01*
X333389Y418357D01*
X333593D01*
Y409643D01*
X333389D01*
X332986Y409680D01*
X332589Y409755D01*
X332200Y409866D01*
X331824Y410012D01*
X331679Y410066D01*
X331526Y410094D01*
X331371Y410098D01*
X331218Y410078D01*
X331069Y410033D01*
X330930Y409966D01*
X330802Y409879D01*
X330690Y409772D01*
X330596Y409649D01*
X330522Y409512D01*
X330471Y409366D01*
X330443Y409214D01*
X330439Y409059D01*
X330459Y408905D01*
X330504Y408757D01*
X330571Y408617D01*
X330658Y408490D01*
X330765Y408378D01*
X330888Y408283D01*
X331026Y408212D01*
X331571Y407993D01*
X332135Y407832D01*
X332713Y407724D01*
X333297Y407670D01*
X333593D01*
Y402633D01*
X333591Y402633D01*
X332598Y402555D01*
X331629Y402322D01*
X330708Y401941D01*
X329859Y401420D01*
X329101Y400773D01*
X328477Y400043D01*
Y410869D01*
X328495Y410864D01*
X328650Y410843D01*
X328805Y410847D01*
X328958Y410875D01*
X329105Y410927D01*
X329242Y411001D01*
X329366Y411095D01*
X329473Y411208D01*
X329562Y411336D01*
X329629Y411477D01*
X329673Y411626D01*
X329694Y411780D01*
X329690Y411936D01*
X329662Y412089D01*
X329607Y412234D01*
X329457Y412609D01*
X329346Y412998D01*
X329271Y413395D01*
X329234Y413798D01*
Y414202D01*
X329271Y414605D01*
X329346Y415002D01*
X329457Y415391D01*
X329603Y415767D01*
X329657Y415912D01*
X329685Y416065D01*
X329689Y416220D01*
X329669Y416373D01*
X329624Y416522D01*
X329557Y416661D01*
X329470Y416789D01*
X329363Y416901D01*
X329240Y416995D01*
X329103Y417069D01*
X328957Y417120D01*
X328805Y417148D01*
X328650Y417152D01*
X328496Y417132D01*
X328477Y417126D01*
Y420000D01*
G37*
G36*
X313114D02*X328477D01*
Y417126D01*
X328348Y417087D01*
X328208Y417020D01*
X328081Y416933D01*
X327969Y416826D01*
X327874Y416703D01*
X327803Y416565D01*
X327584Y416020D01*
X327423Y415456D01*
X327315Y414878D01*
X327261Y414294D01*
Y413706D01*
X327315Y413122D01*
X327423Y412544D01*
X327584Y411980D01*
X327797Y411432D01*
X327870Y411295D01*
X327965Y411171D01*
X328078Y411064D01*
X328206Y410975D01*
X328346Y410908D01*
X328477Y410869D01*
Y400043D01*
X328454Y400015D01*
X327933Y399166D01*
X327552Y398245D01*
X327319Y397276D01*
X327241Y396283D01*
X327319Y395290D01*
X327552Y394321D01*
X327933Y393400D01*
X328454Y392551D01*
X328477Y392523D01*
Y330000D01*
X313114D01*
Y331993D01*
X316019Y334898D01*
X316064Y334936D01*
X316217Y335115D01*
X316217Y335116D01*
X316341Y335317D01*
X316431Y335535D01*
X316486Y335765D01*
X316505Y336000D01*
X316500Y336059D01*
Y359941D01*
X316505Y360000D01*
X316486Y360235D01*
X316486Y360235D01*
X316431Y360465D01*
X316341Y360683D01*
X316217Y360884D01*
X316064Y361064D01*
X316019Y361102D01*
X313114Y364007D01*
Y370164D01*
X313272Y370349D01*
X313503Y370725D01*
X313671Y371132D01*
X313774Y371561D01*
X313800Y372000D01*
X313774Y372439D01*
X313671Y372868D01*
X313503Y373275D01*
X313272Y373651D01*
X313114Y373836D01*
Y374500D01*
X316941D01*
X317000Y374495D01*
X317059Y374500D01*
X317100D01*
X317335Y374514D01*
X317565Y374569D01*
X317783Y374659D01*
X317984Y374783D01*
X318164Y374936D01*
X318317Y375116D01*
X318441Y375317D01*
X318442Y375321D01*
X323019Y379898D01*
X323064Y379936D01*
X323217Y380115D01*
X323217Y380116D01*
X323341Y380317D01*
X323431Y380535D01*
X323486Y380765D01*
X323505Y381000D01*
X323500Y381059D01*
Y404883D01*
X323500Y404885D01*
X323500Y404994D01*
Y405000D01*
X323500Y405000D01*
Y405000D01*
X323500Y405121D01*
X323489Y405189D01*
X323486Y405235D01*
X323472Y405294D01*
X323462Y405354D01*
X323444Y405409D01*
X323444Y405409D01*
X323431Y405465D01*
X323408Y405521D01*
X323389Y405578D01*
X323363Y405630D01*
X323341Y405683D01*
X323309Y405735D01*
Y405735D01*
X323282Y405788D01*
X323253Y405825D01*
X323217Y405884D01*
X323139Y405976D01*
X323139Y405976D01*
X323137Y405979D01*
X323064Y406064D01*
X323063Y406065D01*
X320139Y409476D01*
X320139Y409476D01*
X320064Y409564D01*
X320009Y409611D01*
X319975Y409646D01*
X319928Y409680D01*
X319884Y409717D01*
X319833Y409749D01*
X319784Y409784D01*
X319732Y409810D01*
X319732Y409810D01*
X319683Y409841D01*
X319627Y409864D01*
X319573Y409891D01*
X319518Y409909D01*
X319465Y409931D01*
X319406Y409945D01*
X319406D01*
X319349Y409964D01*
X319292Y409973D01*
X319235Y409986D01*
X319187Y409989D01*
X319115Y410000D01*
X319000Y410000D01*
X319000Y410000D01*
X313114D01*
Y410874D01*
X313243Y410913D01*
X313383Y410980D01*
X313510Y411067D01*
X313622Y411174D01*
X313717Y411297D01*
X313788Y411435D01*
X314007Y411980D01*
X314168Y412544D01*
X314276Y413122D01*
X314330Y413706D01*
Y414294D01*
X314276Y414878D01*
X314168Y415456D01*
X314007Y416020D01*
X313794Y416568D01*
X313721Y416705D01*
X313626Y416829D01*
X313513Y416936D01*
X313385Y417025D01*
X313245Y417092D01*
X313114Y417131D01*
Y420000D01*
G37*
G36*
Y373836D02*X312986Y373986D01*
X312651Y374272D01*
X312279Y374500D01*
X313114D01*
Y373836D01*
G37*
G36*
Y364007D02*X312733Y364389D01*
X312774Y364561D01*
X312800Y365000D01*
X312774Y365439D01*
X312671Y365868D01*
X312503Y366275D01*
X312272Y366651D01*
X311986Y366986D01*
X311651Y367272D01*
X311275Y367503D01*
X310868Y367671D01*
X310439Y367774D01*
X310000Y367809D01*
X309561Y367774D01*
X309132Y367671D01*
X308725Y367503D01*
X308464Y367343D01*
X310389Y369267D01*
X310561Y369226D01*
X311000Y369191D01*
X311439Y369226D01*
X311868Y369329D01*
X312275Y369497D01*
X312651Y369728D01*
X312986Y370014D01*
X313114Y370164D01*
Y364007D01*
G37*
G36*
Y330000D02*X311121D01*
X313114Y331993D01*
Y330000D01*
G37*
G36*
X302886Y420000D02*X305963D01*
X305432Y419794D01*
X305295Y419721D01*
X305171Y419626D01*
X305064Y419513D01*
X304975Y419385D01*
X304908Y419245D01*
X304864Y419096D01*
X304843Y418941D01*
X304847Y418786D01*
X304875Y418633D01*
X304927Y418486D01*
X305001Y418349D01*
X305095Y418225D01*
X305208Y418118D01*
X305336Y418029D01*
X305477Y417962D01*
X305626Y417918D01*
X305780Y417897D01*
X305936Y417901D01*
X306089Y417929D01*
X306234Y417984D01*
X306609Y418134D01*
X306998Y418245D01*
X307395Y418320D01*
X307798Y418357D01*
X308202D01*
X308605Y418320D01*
X309002Y418245D01*
X309391Y418134D01*
X309767Y417988D01*
X309912Y417934D01*
X310065Y417906D01*
X310220Y417902D01*
X310373Y417922D01*
X310522Y417967D01*
X310661Y418034D01*
X310789Y418121D01*
X310901Y418228D01*
X310995Y418351D01*
X311069Y418488D01*
X311120Y418634D01*
X311148Y418786D01*
X311152Y418941D01*
X311132Y419095D01*
X311087Y419243D01*
X311020Y419383D01*
X310933Y419510D01*
X310826Y419622D01*
X310703Y419717D01*
X310565Y419788D01*
X310037Y420000D01*
X313114D01*
Y417131D01*
X313096Y417136D01*
X312941Y417157D01*
X312786Y417153D01*
X312633Y417125D01*
X312486Y417073D01*
X312349Y416999D01*
X312225Y416905D01*
X312118Y416792D01*
X312029Y416664D01*
X311962Y416523D01*
X311918Y416374D01*
X311897Y416220D01*
X311901Y416064D01*
X311929Y415911D01*
X311984Y415766D01*
X312134Y415391D01*
X312245Y415002D01*
X312320Y414605D01*
X312357Y414202D01*
Y413798D01*
X312320Y413395D01*
X312245Y412998D01*
X312134Y412609D01*
X311988Y412233D01*
X311934Y412088D01*
X311906Y411935D01*
X311902Y411780D01*
X311922Y411627D01*
X311967Y411478D01*
X312034Y411339D01*
X312121Y411211D01*
X312228Y411099D01*
X312351Y411005D01*
X312488Y410931D01*
X312634Y410880D01*
X312786Y410852D01*
X312941Y410848D01*
X313095Y410868D01*
X313114Y410874D01*
Y410000D01*
X310602D01*
X310523Y410038D01*
X310374Y410082D01*
X310220Y410103D01*
X310064Y410099D01*
X309911Y410071D01*
X309766Y410016D01*
X309725Y410000D01*
X306264D01*
X306252Y410005D01*
X306233Y410012D01*
X306088Y410066D01*
X305935Y410094D01*
X305780Y410098D01*
X305627Y410078D01*
X305478Y410033D01*
X305409Y410000D01*
X302886D01*
Y410869D01*
X302904Y410864D01*
X303059Y410843D01*
X303214Y410847D01*
X303367Y410875D01*
X303514Y410927D01*
X303651Y411001D01*
X303775Y411095D01*
X303882Y411208D01*
X303971Y411336D01*
X304038Y411477D01*
X304082Y411626D01*
X304103Y411780D01*
X304099Y411936D01*
X304071Y412089D01*
X304016Y412234D01*
X303866Y412609D01*
X303755Y412998D01*
X303680Y413395D01*
X303643Y413798D01*
Y414202D01*
X303680Y414605D01*
X303755Y415002D01*
X303866Y415391D01*
X304012Y415767D01*
X304066Y415912D01*
X304094Y416065D01*
X304098Y416220D01*
X304078Y416373D01*
X304033Y416522D01*
X303966Y416661D01*
X303879Y416789D01*
X303772Y416901D01*
X303649Y416995D01*
X303512Y417069D01*
X303366Y417120D01*
X303214Y417148D01*
X303059Y417152D01*
X302905Y417132D01*
X302886Y417126D01*
Y420000D01*
G37*
G36*
X298500D02*X302886D01*
Y417126D01*
X302757Y417087D01*
X302617Y417020D01*
X302490Y416933D01*
X302378Y416826D01*
X302283Y416703D01*
X302212Y416565D01*
X301993Y416020D01*
X301832Y415456D01*
X301724Y414878D01*
X301670Y414294D01*
Y413706D01*
X301724Y413122D01*
X301832Y412544D01*
X301993Y411980D01*
X302206Y411432D01*
X302279Y411295D01*
X302374Y411171D01*
X302487Y411064D01*
X302615Y410975D01*
X302755Y410908D01*
X302886Y410869D01*
Y410000D01*
X302621D01*
X298500Y414121D01*
Y420000D01*
G37*
G36*
X166705Y419915D02*X167200Y419796D01*
X167985Y419735D01*
X168770Y419796D01*
X169000Y419852D01*
Y412121D01*
X166981Y410102D01*
X166936Y410064D01*
X166783Y409884D01*
X166705Y409757D01*
Y410874D01*
X166834Y410913D01*
X166974Y410980D01*
X167101Y411067D01*
X167213Y411174D01*
X167308Y411297D01*
X167379Y411435D01*
X167598Y411980D01*
X167759Y412544D01*
X167867Y413122D01*
X167921Y413706D01*
Y414294D01*
X167867Y414878D01*
X167759Y415456D01*
X167598Y416020D01*
X167385Y416568D01*
X167312Y416705D01*
X167217Y416829D01*
X167104Y416936D01*
X166976Y417025D01*
X166836Y417092D01*
X166705Y417131D01*
Y419915D01*
G37*
G36*
X161593Y418357D02*X161793D01*
X162196Y418320D01*
X162593Y418245D01*
X162982Y418134D01*
X163358Y417988D01*
X163503Y417934D01*
X163656Y417906D01*
X163811Y417902D01*
X163964Y417922D01*
X164113Y417967D01*
X164252Y418034D01*
X164380Y418121D01*
X164492Y418228D01*
X164586Y418351D01*
X164660Y418488D01*
X164711Y418634D01*
X164739Y418786D01*
X164743Y418941D01*
X164723Y419095D01*
X164681Y419235D01*
X164678Y419243D01*
X164611Y419383D01*
X164524Y419510D01*
X164417Y419622D01*
X164294Y419717D01*
X164156Y419788D01*
X163628Y420000D01*
X166387D01*
X166435Y419980D01*
X166705Y419915D01*
Y417131D01*
X166687Y417136D01*
X166532Y417157D01*
X166377Y417153D01*
X166224Y417125D01*
X166077Y417073D01*
X165940Y416999D01*
X165816Y416905D01*
X165709Y416792D01*
X165620Y416664D01*
X165553Y416523D01*
X165509Y416374D01*
X165488Y416220D01*
X165492Y416064D01*
X165520Y415911D01*
X165575Y415766D01*
X165725Y415391D01*
X165836Y415002D01*
X165911Y414605D01*
X165948Y414202D01*
Y413798D01*
X165911Y413395D01*
X165836Y412998D01*
X165725Y412609D01*
X165579Y412233D01*
X165525Y412088D01*
X165497Y411935D01*
X165493Y411780D01*
X165513Y411627D01*
X165558Y411478D01*
X165625Y411339D01*
X165712Y411211D01*
X165819Y411099D01*
X165942Y411005D01*
X166079Y410931D01*
X166225Y410880D01*
X166377Y410852D01*
X166532Y410848D01*
X166686Y410868D01*
X166705Y410874D01*
Y409757D01*
X166659Y409683D01*
X166569Y409465D01*
X166514Y409235D01*
X166514Y409235D01*
X166495Y409000D01*
X166500Y408941D01*
Y400283D01*
X166081Y400773D01*
X165323Y401420D01*
X164474Y401941D01*
X163553Y402322D01*
X162584Y402555D01*
X161593Y402633D01*
Y407670D01*
X161885D01*
X162469Y407724D01*
X163047Y407832D01*
X163611Y407993D01*
X164159Y408206D01*
X164296Y408279D01*
X164420Y408374D01*
X164527Y408487D01*
X164616Y408615D01*
X164683Y408755D01*
X164727Y408904D01*
X164748Y409059D01*
X164744Y409214D01*
X164716Y409367D01*
X164664Y409514D01*
X164590Y409651D01*
X164496Y409775D01*
X164383Y409882D01*
X164255Y409971D01*
X164114Y410038D01*
X163965Y410082D01*
X163811Y410103D01*
X163655Y410099D01*
X163502Y410071D01*
X163357Y410016D01*
X162982Y409866D01*
X162593Y409755D01*
X162196Y409680D01*
X161793Y409643D01*
X161593D01*
Y418357D01*
G37*
G36*
X156477Y420000D02*X159554D01*
X159023Y419794D01*
X158886Y419721D01*
X158762Y419626D01*
X158655Y419513D01*
X158566Y419385D01*
X158499Y419245D01*
X158455Y419096D01*
X158434Y418941D01*
X158438Y418786D01*
X158466Y418633D01*
X158518Y418486D01*
X158592Y418349D01*
X158686Y418225D01*
X158799Y418118D01*
X158927Y418029D01*
X159068Y417962D01*
X159217Y417918D01*
X159371Y417897D01*
X159527Y417901D01*
X159680Y417929D01*
X159825Y417984D01*
X160200Y418134D01*
X160589Y418245D01*
X160986Y418320D01*
X161389Y418357D01*
X161593D01*
Y409643D01*
X161389D01*
X160986Y409680D01*
X160589Y409755D01*
X160200Y409866D01*
X159824Y410012D01*
X159679Y410066D01*
X159526Y410094D01*
X159371Y410098D01*
X159218Y410078D01*
X159069Y410033D01*
X158930Y409966D01*
X158802Y409879D01*
X158690Y409772D01*
X158596Y409649D01*
X158522Y409512D01*
X158471Y409366D01*
X158443Y409214D01*
X158439Y409059D01*
X158459Y408905D01*
X158504Y408757D01*
X158571Y408617D01*
X158658Y408490D01*
X158765Y408378D01*
X158888Y408283D01*
X159026Y408212D01*
X159571Y407993D01*
X160135Y407832D01*
X160713Y407724D01*
X161297Y407670D01*
X161593D01*
Y402633D01*
X161591Y402633D01*
X160598Y402555D01*
X159629Y402322D01*
X158708Y401941D01*
X157859Y401420D01*
X157101Y400773D01*
X156477Y400043D01*
Y410869D01*
X156495Y410864D01*
X156650Y410843D01*
X156805Y410847D01*
X156958Y410875D01*
X157105Y410927D01*
X157242Y411001D01*
X157366Y411095D01*
X157473Y411208D01*
X157562Y411336D01*
X157629Y411477D01*
X157673Y411626D01*
X157694Y411780D01*
X157690Y411936D01*
X157662Y412089D01*
X157607Y412234D01*
X157457Y412609D01*
X157346Y412998D01*
X157271Y413395D01*
X157234Y413798D01*
Y414202D01*
X157271Y414605D01*
X157346Y415002D01*
X157457Y415391D01*
X157603Y415767D01*
X157657Y415912D01*
X157685Y416065D01*
X157689Y416220D01*
X157669Y416373D01*
X157624Y416522D01*
X157557Y416661D01*
X157470Y416789D01*
X157363Y416901D01*
X157240Y416995D01*
X157103Y417069D01*
X156957Y417120D01*
X156805Y417148D01*
X156650Y417152D01*
X156496Y417132D01*
X156477Y417126D01*
Y420000D01*
G37*
G36*
X155373Y397500D02*X142218D01*
X142039Y398245D01*
X141658Y399166D01*
X141137Y400015D01*
X141114Y400043D01*
Y410874D01*
X141243Y410913D01*
X141383Y410980D01*
X141510Y411067D01*
X141622Y411174D01*
X141717Y411297D01*
X141788Y411435D01*
X142007Y411980D01*
X142168Y412544D01*
X142276Y413122D01*
X142330Y413706D01*
Y414294D01*
X142276Y414878D01*
X142168Y415456D01*
X142007Y416020D01*
X141794Y416568D01*
X141721Y416705D01*
X141626Y416829D01*
X141513Y416936D01*
X141385Y417025D01*
X141245Y417092D01*
X141114Y417131D01*
Y420000D01*
X156477D01*
Y417126D01*
X156348Y417087D01*
X156208Y417020D01*
X156081Y416933D01*
X155969Y416826D01*
X155874Y416703D01*
X155803Y416565D01*
X155584Y416020D01*
X155423Y415456D01*
X155315Y414878D01*
X155261Y414294D01*
Y413706D01*
X155315Y413122D01*
X155423Y412544D01*
X155584Y411980D01*
X155797Y411432D01*
X155870Y411295D01*
X155965Y411171D01*
X156078Y411064D01*
X156206Y410975D01*
X156346Y410908D01*
X156477Y410869D01*
Y400043D01*
X156454Y400015D01*
X155933Y399166D01*
X155552Y398245D01*
X155373Y397500D01*
G37*
G36*
X141114Y400043D02*X140490Y400773D01*
X139732Y401420D01*
X138883Y401941D01*
X137962Y402322D01*
X136993Y402555D01*
X136002Y402633D01*
Y407670D01*
X136294D01*
X136878Y407724D01*
X137456Y407832D01*
X138020Y407993D01*
X138568Y408206D01*
X138705Y408279D01*
X138829Y408374D01*
X138936Y408487D01*
X139025Y408615D01*
X139092Y408755D01*
X139136Y408904D01*
X139157Y409059D01*
X139153Y409214D01*
X139125Y409367D01*
X139073Y409514D01*
X138999Y409651D01*
X138905Y409775D01*
X138792Y409882D01*
X138664Y409971D01*
X138523Y410038D01*
X138374Y410082D01*
X138220Y410103D01*
X138064Y410099D01*
X137911Y410071D01*
X137766Y410016D01*
X137391Y409866D01*
X137002Y409755D01*
X136605Y409680D01*
X136202Y409643D01*
X136002D01*
Y418357D01*
X136202D01*
X136605Y418320D01*
X137002Y418245D01*
X137391Y418134D01*
X137767Y417988D01*
X137912Y417934D01*
X138065Y417906D01*
X138220Y417902D01*
X138373Y417922D01*
X138522Y417967D01*
X138661Y418034D01*
X138789Y418121D01*
X138901Y418228D01*
X138995Y418351D01*
X139069Y418488D01*
X139120Y418634D01*
X139148Y418786D01*
X139152Y418941D01*
X139132Y419095D01*
X139087Y419243D01*
X139020Y419383D01*
X138933Y419510D01*
X138826Y419622D01*
X138703Y419717D01*
X138565Y419788D01*
X138037Y420000D01*
X141114D01*
Y417131D01*
X141096Y417136D01*
X140941Y417157D01*
X140786Y417153D01*
X140633Y417125D01*
X140486Y417073D01*
X140349Y416999D01*
X140225Y416905D01*
X140118Y416792D01*
X140029Y416664D01*
X139962Y416523D01*
X139918Y416374D01*
X139897Y416220D01*
X139901Y416064D01*
X139929Y415911D01*
X139984Y415766D01*
X140134Y415391D01*
X140245Y415002D01*
X140320Y414605D01*
X140357Y414202D01*
Y413798D01*
X140320Y413395D01*
X140245Y412998D01*
X140134Y412609D01*
X139988Y412233D01*
X139934Y412088D01*
X139906Y411935D01*
X139902Y411780D01*
X139922Y411627D01*
X139967Y411478D01*
X140034Y411339D01*
X140121Y411211D01*
X140228Y411099D01*
X140351Y411005D01*
X140488Y410931D01*
X140634Y410880D01*
X140786Y410852D01*
X140941Y410848D01*
X141095Y410868D01*
X141114Y410874D01*
Y400043D01*
G37*
G36*
X136002Y402633D02*X136000Y402633D01*
X135007Y402555D01*
X134038Y402322D01*
X133117Y401941D01*
X132268Y401420D01*
X131510Y400773D01*
X130863Y400015D01*
X130342Y399166D01*
X130000Y398340D01*
Y411963D01*
X130206Y411432D01*
X130279Y411295D01*
X130374Y411171D01*
X130487Y411064D01*
X130615Y410975D01*
X130755Y410908D01*
X130904Y410864D01*
X131059Y410843D01*
X131214Y410847D01*
X131367Y410875D01*
X131514Y410927D01*
X131651Y411001D01*
X131775Y411095D01*
X131882Y411208D01*
X131971Y411336D01*
X132038Y411477D01*
X132082Y411626D01*
X132103Y411780D01*
X132099Y411936D01*
X132071Y412089D01*
X132016Y412234D01*
X131866Y412609D01*
X131755Y412998D01*
X131680Y413395D01*
X131643Y413798D01*
Y414202D01*
X131680Y414605D01*
X131755Y415002D01*
X131866Y415391D01*
X132012Y415767D01*
X132066Y415912D01*
X132094Y416065D01*
X132098Y416220D01*
X132078Y416373D01*
X132033Y416522D01*
X131966Y416661D01*
X131879Y416789D01*
X131772Y416901D01*
X131649Y416995D01*
X131512Y417069D01*
X131366Y417120D01*
X131214Y417148D01*
X131059Y417152D01*
X130905Y417132D01*
X130757Y417087D01*
X130617Y417020D01*
X130490Y416933D01*
X130378Y416826D01*
X130283Y416703D01*
X130212Y416565D01*
X130000Y416037D01*
Y420000D01*
X133963D01*
X133432Y419794D01*
X133295Y419721D01*
X133171Y419626D01*
X133064Y419513D01*
X132975Y419385D01*
X132908Y419245D01*
X132864Y419096D01*
X132843Y418941D01*
X132847Y418786D01*
X132875Y418633D01*
X132927Y418486D01*
X133001Y418349D01*
X133095Y418225D01*
X133208Y418118D01*
X133336Y418029D01*
X133477Y417962D01*
X133626Y417918D01*
X133780Y417897D01*
X133936Y417901D01*
X134089Y417929D01*
X134234Y417984D01*
X134609Y418134D01*
X134998Y418245D01*
X135395Y418320D01*
X135798Y418357D01*
X136002D01*
Y409643D01*
X135798D01*
X135395Y409680D01*
X134998Y409755D01*
X134609Y409866D01*
X134233Y410012D01*
X134088Y410066D01*
X133935Y410094D01*
X133780Y410098D01*
X133627Y410078D01*
X133478Y410033D01*
X133339Y409966D01*
X133211Y409879D01*
X133099Y409772D01*
X133005Y409649D01*
X132931Y409512D01*
X132880Y409366D01*
X132852Y409214D01*
X132848Y409059D01*
X132868Y408905D01*
X132913Y408757D01*
X132980Y408617D01*
X133067Y408490D01*
X133174Y408378D01*
X133297Y408283D01*
X133435Y408212D01*
X133980Y407993D01*
X134544Y407832D01*
X135122Y407724D01*
X135706Y407670D01*
X136002D01*
Y402633D01*
G37*
G54D35*X251000Y359000D02*Y321000D01*
X256000Y325000D02*Y339000D01*
X267000Y350000D01*
X251000Y321000D02*X253000Y319000D01*
X251000Y321000D02*X249000Y319000D01*
X251000Y309000D02*Y307000D01*
Y309000D01*
X246000Y335000D02*X247000Y334000D01*
X246000Y325000D02*Y330000D01*
X243000Y333000D01*
X231000Y317000D02*Y335000D01*
X249000Y319000D02*X244000Y314000D01*
X241000Y383000D02*X243000Y385000D01*
X245000Y380000D02*X250000Y385000D01*
X243000Y378000D02*X246000Y374000D01*
X231000Y349000D02*X243000Y337000D01*
X246000Y347000D02*Y335000D01*
X243000Y337000D02*Y333000D01*
X251000Y359000D02*X246000Y364000D01*
X241000Y358000D02*Y352000D01*
X246000Y347000D01*
Y364000D02*Y367000D01*
X237000Y368000D02*Y362000D01*
X241000Y358000D01*
X231000Y362000D02*Y349000D01*
X246000Y367000D02*X245000Y368000D01*
X147000Y337000D02*X149000Y335000D01*
X159000D01*
X156000Y352000D02*Y356000D01*
X157000Y357000D01*
X162000Y350000D02*X159000Y353000D01*
Y345000D02*Y349000D01*
X156000Y352000D01*
X160000Y360000D02*X157000D01*
X170000Y340000D02*X169000Y341000D01*
X147000Y337000D02*Y362000D01*
X157000Y360000D02*X154000Y357000D01*
Y345000D01*
X158000Y341000D01*
X171000Y352000D02*X169000Y350000D01*
X162000D01*
X158000Y341000D02*X169000D01*
X196000Y355000D02*X194000D01*
X188000Y349000D01*
X184000D01*
X186000Y347000D02*X181700Y342900D01*
X184000Y349000D02*X180100Y344900D01*
X180000Y345000D02*Y338000D01*
X171900Y329100D01*
X163000Y299000D02*Y314000D01*
X170000Y321000D01*
X171900Y328900D02*Y317900D01*
X170100Y321000D02*Y340000D01*
X174000Y302000D02*X172000Y300000D01*
Y318000D02*Y317000D01*
X173000Y316000D01*
X175000D01*
X193000Y360000D02*X173000D01*
X171000Y358000D01*
Y352000D01*
X166000Y362000D02*X183000D01*
X186000Y365000D01*
X193000Y360000D02*Y367000D01*
X157000Y357000D02*X161000D01*
X166000Y362000D01*
Y366000D02*X160000Y360000D01*
X163000Y378000D02*X147000Y362000D01*
X166000Y373000D02*Y366000D01*
X171000Y373000D02*X166000D01*
X163000Y378000D02*X176000D01*
X136000Y396000D02*X161000D01*
X171000Y395000D02*Y387000D01*
X186000Y365000D02*Y368000D01*
X191000Y373000D01*
X193000Y367000D02*X196000Y370000D01*
Y371000D01*
X198000Y373000D01*
X201000D01*
X253000Y319000D02*X259000D01*
X261000Y307000D02*Y305000D01*
X264000Y302000D01*
X306000D01*
X308000Y300000D01*
X251000Y309000D02*X255000Y313000D01*
X294000D02*X255000D01*
X281000Y320000D02*X278000Y317000D01*
X259000Y319000D02*X261000Y321000D01*
Y340000D01*
X268000Y347000D01*
X276000Y325000D02*Y343000D01*
X286000Y341000D02*Y325000D01*
X281000Y336000D02*Y320000D01*
X267000Y350000D02*X299000D01*
X276000Y343000D02*X278000Y345000D01*
X268000Y347000D02*X303000D01*
X278000Y345000D02*X304000D01*
X305000Y343000D02*X288000D01*
X286000Y341000D01*
X299000Y339000D02*Y335000D01*
X266000Y355000D02*X268000D01*
X271000Y358000D01*
X289000Y362000D02*X296000Y355000D01*
X294000Y374000D02*X246000D01*
X250000Y385000D02*X301000D01*
X271000Y358000D02*Y371000D01*
X315000Y336000D02*Y360000D01*
X310000Y347000D02*X309000D01*
X310000Y343000D02*Y341000D01*
X310100Y340900D02*X311800Y339200D01*
X315000Y360000D02*X310000Y365000D01*
X303000Y347000D02*X306000Y350000D01*
Y356000D01*
X299000Y350000D02*X300700Y351900D01*
X304000Y345000D02*X310000Y351000D01*
X300800Y352000D02*Y362000D01*
X309000Y347000D02*X305000Y343000D01*
X311800Y339200D02*Y335200D01*
X301000Y307000D02*Y322000D01*
X299100Y320400D02*X301000Y319000D01*
X294000Y313000D02*X296000Y311000D01*
X301000Y322000D02*X315000Y336000D01*
X299000Y335000D02*X290900Y327900D01*
X311700Y335100D02*X301600Y324900D01*
X290900Y328000D02*Y323000D01*
X301700Y325000D02*X295900D01*
X294200Y320400D02*X299200D01*
X291000Y323000D02*X294100Y320500D01*
X176000Y378000D02*X181000Y373000D01*
X175000Y424000D02*X180000Y419000D01*
Y387000D01*
X189000Y391000D02*Y428000D01*
X167000Y447000D02*X173000Y441000D01*
X168000Y424000D02*X167000Y425000D01*
Y436000D02*X175000Y428000D01*
Y424000D01*
X174000Y414000D02*X173000D01*
X168000Y409000D01*
Y398000D01*
X171000Y395000D01*
X173000Y441000D02*X221000D01*
X207000Y436000D02*Y435000D01*
X189000Y428000D02*X197000Y436000D01*
X207000D02*X205000D01*
X195000Y426000D01*
X203000Y430000D02*X221000D01*
X231000Y450000D02*X243000D01*
X245000Y448000D01*
X221000Y441000D02*X237000Y425000D01*
X221000Y446000D02*X227000D01*
X231000Y450000D01*
X199000Y425000D02*X203000Y430000D01*
X245000Y448000D02*Y434000D01*
X237000Y389000D02*X230000Y396000D01*
X213000D01*
X211000Y394000D01*
Y387000D02*X195000Y403000D01*
Y426000D02*Y403000D01*
X221000Y430000D02*X233000Y418000D01*
X199000Y416000D02*Y425000D01*
Y416000D02*X201000Y414000D01*
X233000Y418000D02*X253000D01*
X245000Y434000D02*X253000Y426000D01*
X308000Y379000D02*X310000Y381000D01*
X322000D02*X317000Y376000D01*
X317100D02*X308300D01*
X294000Y374000D02*X299000Y379000D01*
X298000Y372000D02*X291000D01*
X289000Y370000D01*
Y362000D01*
X299000Y379000D02*X308000D01*
X300700Y369000D02*X298000Y372000D01*
X307900D02*X305100Y369100D01*
X305000Y369000D02*X300700D01*
X307900Y371900D02*Y375600D01*
X301000Y362000D02*X311000Y372000D01*
X307900Y375600D02*X308300Y376000D01*
X243000Y385000D02*Y404000D01*
X289000Y410000D02*X294000Y405000D01*
Y400500D01*
X301000Y385000D02*X303000Y383000D01*
X294000Y400500D02*X296500Y398000D01*
X306000D01*
X322000Y405000D02*Y381000D01*
X319000Y408500D02*X322000Y405000D01*
X298500Y405500D02*X301000D01*
X302500Y404000D01*
X302000Y408500D02*X319000D01*
X306000Y398000D02*X308000Y396000D01*
X261000Y410000D02*X289000D01*
X290500Y413500D02*X298500Y405500D01*
X302000Y408500D02*X297000Y413500D01*
Y425500D02*X292500Y430000D01*
X297000Y413500D02*Y425500D01*
X292500Y430000D02*X262500D01*
X243000Y404000D02*X249000Y410000D01*
X263000Y430000D02*X264000D01*
X253000Y418000D02*X261000Y410000D01*
X276000Y418000D02*Y415500D01*
X278000Y413500D01*
X290500D01*
X207000Y302000D02*X211000Y306000D01*
X203000Y320000D02*X206000Y323000D01*
X181700Y321900D02*X184000Y320000D01*
X203000D01*
X181700Y342900D02*Y321900D01*
X244000Y314000D02*X184000D01*
X182000Y312000D02*Y308000D01*
X181000Y307000D01*
X184000Y314000D02*X182000Y312000D01*
X207000Y302000D02*X174000D01*
X186000Y347000D02*X208000D01*
X211000Y350000D01*
X216000Y355000D02*Y389000D01*
X217000Y390000D01*
X206000Y355000D02*Y386000D01*
X203000Y389000D01*
X198000D01*
X211000Y387000D02*Y373000D01*
X198000Y389000D02*Y392000D01*
X180000Y387000D02*X187000Y380000D01*
X194000D01*
X201000Y373000D01*
X234000Y383000D02*X241000D01*
X243000Y378000D02*X228000D01*
X226000Y380000D02*X245000D01*
X217000Y389000D02*X228000D01*
X234000Y383000D01*
X228000Y378000D02*X227000Y376000D01*
X221000Y373000D02*Y375000D01*
X226000Y380000D01*
X227000Y373000D02*X231000D01*
X241000D02*Y372000D01*
X237000Y368000D01*
X227000Y376000D02*Y366000D01*
X231000Y362000D01*
G54D36*X186000Y355000D03*
Y325000D03*
X176000Y355000D03*
Y325000D03*
X166000Y355000D03*
Y325000D03*
X196000D03*
X206000D03*
X216000D03*
G54D34*G36*
X168000Y376000D02*Y370000D01*
X174000D01*
Y376000D01*
X168000D01*
G37*
G54D36*X181000Y373000D03*
X191000D03*
X201000D03*
X211000D03*
X221000D03*
X231000D03*
X241000D03*
G54D34*G36*
X195000Y392000D02*Y386000D01*
X201000D01*
Y392000D01*
X195000D01*
G37*
G54D36*X217200Y389000D03*
G54D34*G36*
X251500Y383000D02*Y377000D01*
X257500D01*
Y383000D01*
X251500D01*
G37*
G54D36*X264500Y380000D03*
G54D37*X136000Y414000D03*
G54D36*X187000Y436000D03*
Y446000D03*
G54D37*X161591Y414000D03*
G54D34*G36*
X170600Y417400D02*Y410600D01*
X177400D01*
Y417400D01*
X170600D01*
G37*
G54D38*X167985Y424750D03*
G54D34*G36*
X170600Y406400D02*Y399600D01*
X177400D01*
Y406400D01*
X170600D01*
G37*
G36*
X164000Y439000D02*Y433000D01*
X170000D01*
Y439000D01*
X164000D01*
G37*
G54D36*X167000Y446000D03*
X177000Y436000D03*
Y446000D03*
X197000Y436000D03*
Y446000D03*
X207000D03*
G54D34*G36*
X217600Y449400D02*Y442600D01*
X224400D01*
Y449400D01*
X217600D01*
G37*
G54D36*X207000Y436000D03*
G54D34*G36*
X233000Y428000D02*Y422000D01*
X239000D01*
Y428000D01*
X233000D01*
G37*
G54D36*X246000Y425000D03*
G54D39*X221000Y406000D03*
X214000Y414000D03*
G54D38*X207985Y424750D03*
G54D39*X214000Y403000D03*
G54D40*X261630Y439850D03*
G54D38*X259515Y403750D03*
G54D40*X290370Y439850D03*
G54D38*X237000Y409000D03*
Y389000D03*
X249000Y392000D03*
Y412000D03*
G54D34*G36*
X256600Y396400D02*Y389600D01*
X263400D01*
Y396400D01*
X256600D01*
G37*
G54D37*X161591Y396283D03*
X136000D03*
G54D38*X306000Y357000D03*
Y337000D03*
G54D34*G36*
X293000Y358000D02*Y352000D01*
X299000D01*
Y358000D01*
X293000D01*
G37*
G54D36*X286000Y355000D03*
X285000Y380000D03*
X276000Y355000D03*
G54D34*G36*
X272000Y383000D02*Y377000D01*
X278000D01*
Y383000D01*
X272000D01*
G37*
G54D36*X266000Y355000D03*
G54D34*G36*
X291600Y369400D02*Y362600D01*
X298400D01*
Y369400D01*
X291600D01*
G37*
G54D41*X303000Y374000D03*
G54D39*X255000Y366000D03*
G54D36*X256000Y355000D03*
X246000D03*
X236000D03*
X226000D03*
X216000D03*
X206000D03*
X196000D03*
X226000Y325000D03*
X236000D03*
X246000D03*
X256000D03*
X266000D03*
X276000D03*
X286000D03*
X296000D03*
G54D34*G36*
X298000Y310000D02*Y304000D01*
X304000D01*
Y310000D01*
X298000D01*
G37*
G54D36*X291000Y307000D03*
X281000D03*
X271000D03*
X261000D03*
X251000D03*
X241000D03*
X231000D03*
G54D34*G36*
X218000Y310000D02*Y304000D01*
X224000D01*
Y310000D01*
X218000D01*
G37*
G54D36*X211000Y307000D03*
X201000D03*
X191000D03*
X181000D03*
X171000D03*
G54D39*X300000Y393000D03*
G54D37*X308000Y396283D03*
G54D38*X299515Y403750D03*
G54D34*G36*
X299750Y387250D02*Y380750D01*
X306250D01*
Y387250D01*
X299750D01*
G37*
G54D37*X308000Y414000D03*
X333591D03*
Y396283D03*
G54D42*X282299Y418000D03*
X279150Y422724D03*
X276000Y418000D03*
X272850Y422724D03*
X269701Y418000D03*
G54D43*X261630Y421543D03*
X290370D03*
G54D44*X159000Y354000D03*
Y345000D03*
Y335000D03*
X169000Y341000D03*
X247000Y334000D03*
X231000Y335000D03*
Y317000D03*
X245000Y368000D03*
X163000Y299000D03*
X172000Y300000D03*
X175100Y315900D03*
X211000Y350000D03*
X189000Y391000D03*
X211000Y394000D03*
X201000Y414000D03*
X171000Y387000D03*
X310000Y381000D03*
X311000Y372000D03*
X310000Y365000D03*
X256000Y339000D03*
X281000Y336000D03*
X307000Y300000D03*
X296000Y312000D03*
X277000Y317000D03*
X310000Y351600D03*
X310300Y346700D03*
Y342300D03*
X299000Y340000D03*
G54D45*X235324Y440132D03*
G54D44*X263000Y430000D03*
X253000Y425500D03*
X271000Y371000D03*
G54D46*G54D47*G54D46*G54D48*G54D49*G54D50*G54D49*G54D51*G54D49*G54D51*G54D49*G54D52*G54D49*G54D52*G54D49*G54D53*G54D52*G54D53*G54D52*G54D49*G54D51*G54D52*G54D48*G54D49*G54D48*G54D49*G54D48*G54D49*G54D54*G54D49*G54D48*G54D49*G54D51*G54D52*G54D54*G54D51*G54D55*G54D42*M02*
