G04 start of page 8 for group -4079 idx -4079 *
G04 Title: (unknown), topsilk *
G04 Creator: pcb 20110918 *
G04 CreationDate: mer. 09 avril 2014 15:18:50 GMT UTC *
G04 For: virtualabs *
G04 Format: Gerber/RS-274X *
G04 PCB-Dimensions: 600000 500000 *
G04 PCB-Coordinate-Origin: lower left *
%MOIN*%
%FSLAX25Y25*%
%LNTOPSILK*%
%ADD94C,0.0500*%
%ADD93C,0.0150*%
%ADD92C,0.0118*%
%ADD91C,0.0200*%
%ADD90C,0.0100*%
%ADD89C,0.0001*%
G54D89*G36*
X195067Y341582D02*X195351Y341458D01*
X195614Y341234D01*
X195842Y340924D01*
X196022Y340540D01*
X196095Y340212D01*
X196119Y339815D01*
X196092Y339394D01*
X196016Y338989D01*
X195898Y338659D01*
X195735Y338407D01*
X195517Y338220D01*
X195230Y338082D01*
X194945Y338015D01*
X194677Y338021D01*
X194429Y338102D01*
X194205Y338256D01*
X194051Y338413D01*
X193990Y338527D01*
X194021Y338606D01*
X194145Y338652D01*
X194364Y338730D01*
X194531Y338868D01*
X194658Y339081D01*
X194758Y339385D01*
X194826Y339824D01*
X194793Y340208D01*
X194667Y340516D01*
X194455Y340729D01*
X194450Y340740D01*
X194384Y340779D01*
X194280Y340817D01*
X194123Y340831D01*
X194032Y340795D01*
X193955Y340789D01*
X193946Y340870D01*
X193994Y340980D01*
X194086Y341106D01*
X194211Y341238D01*
X194357Y341365D01*
X194512Y341474D01*
X194664Y341556D01*
X194802Y341597D01*
X195067Y341582D01*
G37*
G36*
X194210Y340578D02*X194254Y340502D01*
X194210Y340453D01*
X194167Y340481D01*
X194157Y340529D01*
X194210Y340578D01*
G37*
G36*
X193992Y340367D02*X194123Y340257D01*
X194112Y339992D01*
X194039Y339814D01*
X193917Y339786D01*
X193809Y339838D01*
X193711Y339947D01*
X193646Y340079D01*
X193635Y340199D01*
X193705Y340278D01*
X193835Y340345D01*
X193992Y340367D01*
G37*
G36*
X194487Y340057D02*X194525Y339994D01*
X194552Y339775D01*
X194554Y339502D01*
X194455Y339265D01*
X194333Y339086D01*
X194216Y338972D01*
X194134Y338927D01*
X194082Y338920D01*
X194028Y338965D01*
X193944Y339075D01*
X193861Y339227D01*
X193847Y339368D01*
X193875Y339488D01*
X194009Y339346D01*
X194134Y339200D01*
X194254Y339277D01*
X194314Y339324D01*
X194354Y339397D01*
X194381Y339519D01*
X194405Y339710D01*
X194444Y339961D01*
X194487Y340057D01*
G37*
G36*
X193830Y350534D02*X194823Y350213D01*
X195760Y349801D01*
X196637Y349306D01*
X197453Y348732D01*
X198201Y348087D01*
X198880Y347376D01*
X199486Y346606D01*
X200014Y345783D01*
X200461Y344914D01*
X200824Y344004D01*
X201099Y343061D01*
X201283Y342089D01*
X201371Y341096D01*
X201361Y340088D01*
X201248Y339070D01*
X201030Y338050D01*
X200710Y337058D01*
X200300Y336120D01*
X199805Y335243D01*
X199232Y334427D01*
X198587Y333679D01*
X197878Y333000D01*
X197109Y332395D01*
X196286Y331866D01*
X195417Y331419D01*
X194508Y331056D01*
X193565Y330781D01*
X192594Y330597D01*
X191601Y330509D01*
X190593Y330519D01*
X189576Y330632D01*
X188557Y330850D01*
X187564Y331170D01*
X186628Y331581D01*
X185750Y332075D01*
X184934Y332649D01*
X184185Y333293D01*
X183505Y334003D01*
X182899Y334772D01*
X182370Y335594D01*
X181921Y336463D01*
X181557Y337372D01*
X181280Y338315D01*
X181096Y339286D01*
X182155Y339277D01*
X182184Y339127D01*
X182242Y339027D01*
X182258Y339004D01*
X182269Y338984D01*
X182525D01*
X182713Y339019D01*
X182921Y339047D01*
X183185Y339071D01*
X183539Y339097D01*
X183951Y339124D01*
X184216Y339146D01*
X184260Y339152D01*
X184787D01*
X185242Y339107D01*
X185452Y339061D01*
X185580Y338988D01*
X185635Y338884D01*
X185622Y338739D01*
X185628Y338546D01*
X185692Y338284D01*
X185759Y338024D01*
X185735Y337865D01*
X185719Y337860D01*
X185519Y337757D01*
X185508Y337763D01*
X185001Y337603D01*
X184284Y337359D01*
X183574Y337106D01*
X183089Y336915D01*
X182937Y336850D01*
X183040Y336731D01*
X183372Y336350D01*
X183632Y336102D01*
X183647Y336086D01*
X183691Y336042D01*
X183712Y336053D01*
X183745Y336042D01*
X183857Y336107D01*
X184005Y336249D01*
X184317Y336518D01*
X184837Y336918D01*
X185366Y337301D01*
X185709Y337518D01*
X185843Y337565D01*
X185956Y337555D01*
X186066Y337482D01*
X186191Y337339D01*
X186346Y337159D01*
X186484Y337003D01*
X186566Y336906D01*
X186572Y336889D01*
X186592Y336753D01*
X186587Y336736D01*
X186515Y336643D01*
X186382Y336531D01*
X186242Y336408D01*
X186180Y336335D01*
X186100Y336255D01*
X185920Y336096D01*
X185715Y335902D01*
X185655Y335853D01*
X185670Y335836D01*
X185659Y335825D01*
X185715Y335745D01*
X185872Y335635D01*
X186025Y335561D01*
X186133Y335550D01*
X186207Y335605D01*
X186257Y335728D01*
X186348Y335915D01*
X186519Y336198D01*
X186700Y336464D01*
X186816Y336602D01*
X186898Y336608D01*
X187005Y336553D01*
X187221Y336390D01*
X187467Y336243D01*
X187789Y336091D01*
X188232Y335913D01*
X188510Y335800D01*
X188750Y335700D01*
X188932Y335623D01*
X189040Y335581D01*
X189266Y335502D01*
X189544Y335408D01*
X189891Y335299D01*
X190326Y335174D01*
X190808Y335082D01*
X191752Y335006D01*
X193223Y335118D01*
X194812Y335527D01*
X194900Y335554D01*
X194980Y335586D01*
X195537Y335827D01*
X196013Y336109D01*
X196384Y336417D01*
X196630Y336736D01*
X196719Y336845D01*
X196816Y336847D01*
X196932Y336737D01*
X197080Y336509D01*
X197220Y336284D01*
X197325Y336161D01*
X197341Y336146D01*
X197373Y336156D01*
X197471Y336195D01*
X197580Y336267D01*
X197673Y336354D01*
X197726Y336439D01*
X197693Y336604D01*
X197450Y336813D01*
X197134Y337051D01*
X196994Y337203D01*
X196989Y337220D01*
X196991Y337322D01*
X197026Y337470D01*
X197075Y337649D01*
X197216Y337718D01*
X197515Y337638D01*
X197785Y337540D01*
X197948Y337470D01*
X198108Y337379D01*
X198246Y337293D01*
X198345Y337222D01*
X198392Y337177D01*
X198551Y337100D01*
X198562Y337095D01*
X198572Y337106D01*
X198708Y337154D01*
X198876Y337274D01*
X199050Y337437D01*
X199109Y337535D01*
X199020Y337570D01*
X198805Y337638D01*
X198784Y337649D01*
X198469Y337740D01*
X198139Y337828D01*
X197766Y337932D01*
X197454Y338025D01*
X197234Y338099D01*
X197140Y338142D01*
X197056Y338310D01*
X196955Y338584D01*
X196872Y338855D01*
X196847Y339010D01*
X197014Y339061D01*
X197407D01*
X197917Y339016D01*
X198442Y338929D01*
X198719Y338874D01*
X198919Y338843D01*
X199001Y338836D01*
X198995Y338870D01*
X199012D01*
X199004Y338986D01*
X198964Y339167D01*
X198904Y339390D01*
X198610Y339465D01*
X198326Y339502D01*
X197927Y339500D01*
X197464Y339463D01*
X196989Y339395D01*
X196950D01*
X196890Y339385D01*
X196858Y339374D01*
X196567Y339340D01*
X196393Y339399D01*
X196298Y339580D01*
X196240Y339915D01*
X196158Y340362D01*
X196039Y340784D01*
X195889Y341162D01*
X195714Y341474D01*
X195604Y341613D01*
X195443Y341789D01*
X195252Y341978D01*
X195051Y342157D01*
X194579Y342559D01*
X194541Y342803D01*
X194321Y343770D01*
X193905Y344767D01*
X193333Y345716D01*
X192642Y346540D01*
X192373Y346807D01*
X192180Y346987D01*
X192048Y347096D01*
X191959Y347147D01*
X191872Y347143D01*
X191617Y346976D01*
X191298Y346670D01*
X190957Y346269D01*
X190635Y345818D01*
X190321Y345235D01*
X190053Y344579D01*
X189878Y343978D01*
X189842Y343561D01*
X189817Y343477D01*
X189642Y343507D01*
X189560Y343524D01*
X189544Y343529D01*
X189355Y343627D01*
X189322Y343654D01*
X188982Y343857D01*
X188367Y344127D01*
X187620Y344406D01*
X186885Y344636D01*
X185948Y344852D01*
X185080Y344968D01*
X184404Y344976D01*
X184042Y344864D01*
X183967Y344717D01*
X183951Y344663D01*
X183945Y344647D01*
X183914Y344522D01*
X183908Y344495D01*
X183885Y344409D01*
X183832Y343932D01*
X183837Y343427D01*
X183900Y342805D01*
X184019Y342289D01*
X184219Y341788D01*
X184526Y341213D01*
X184866Y340666D01*
X185173Y340234D01*
X185441Y339924D01*
X185665Y339742D01*
X185771Y339644D01*
X185752Y339477D01*
X185719Y339352D01*
X185595Y339303D01*
X184640Y339568D01*
X184352Y339656D01*
X184287Y339672D01*
X183576Y339861D01*
X183598Y339872D01*
X183447Y339900D01*
X183408D01*
X183105Y339973D01*
X182870Y340021D01*
X182692Y340047D01*
X182557Y340052D01*
X182252Y340040D01*
X182183Y339786D01*
X182146Y339533D01*
X182155Y339277D01*
X181096Y339286D01*
X181007Y340279D01*
X181016Y341287D01*
X181128Y342304D01*
X181347Y343324D01*
X181667Y344317D01*
X182079Y345254D01*
X182575Y346133D01*
X183149Y346949D01*
X183795Y347698D01*
X184506Y348377D01*
X185276Y348984D01*
X186099Y349513D01*
X186969Y349961D01*
X187878Y350325D01*
X188822Y350601D01*
X189794Y350785D01*
X190786Y350874D01*
X191794Y350865D01*
X192811Y350752D01*
X193830Y350534D01*
G37*
G36*
X190798Y342038D02*X191450Y341763D01*
X192079Y341256D01*
X192110Y341229D01*
X192214Y341067D01*
X192134Y341008D01*
X191975Y340909D01*
X191773Y340761D01*
X191610Y340566D01*
X191477Y340308D01*
X191367Y339971D01*
X191313Y339443D01*
X191420Y338970D01*
X191667Y338602D01*
X192034Y338392D01*
X192094Y338375D01*
X192142Y338381D01*
X192448Y338474D01*
X192691Y338700D01*
X192736Y338812D01*
X192711Y338866D01*
X192636Y338855D01*
X192529Y338771D01*
X192257Y338626D01*
X191937Y338696D01*
X191825Y338813D01*
X191722Y339008D01*
X191656Y339219D01*
X191650Y339385D01*
X191719Y339438D01*
X191840Y339405D01*
X191961Y339308D01*
X192034Y339172D01*
X192131Y339002D01*
X192271Y338985D01*
X192417Y339109D01*
X192529Y339363D01*
X192586Y339521D01*
X192648Y339488D01*
X192711Y339430D01*
X192762Y339465D01*
X192820Y339447D01*
X192847Y339251D01*
X192839Y338972D01*
X192794Y338706D01*
X192678Y338408D01*
X192501Y338100D01*
X192288Y337823D01*
X192062Y337615D01*
X191803Y337488D01*
X191487Y337388D01*
X191027Y337346D01*
X190566Y337436D01*
X190039Y337678D01*
X189382Y338093D01*
X189177Y338224D01*
X188971Y338347D01*
X188786Y338448D01*
X188650Y338511D01*
X188400Y338620D01*
X188297Y339124D01*
X188221Y339591D01*
X188201Y339935D01*
X188236Y340235D01*
X188329Y340567D01*
X188412Y340798D01*
X188500Y340979D01*
X188603Y341134D01*
X188735Y341289D01*
X189016Y341540D01*
X189339Y341755D01*
X189685Y341925D01*
X190033Y342038D01*
X190411Y342084D01*
X190798Y342038D01*
G37*
G36*
X192267Y340843D02*X192396Y340754D01*
X192464Y340502D01*
X192476Y340260D01*
X192428Y340063D01*
X192313Y339898D01*
X192127Y339753D01*
X191965Y339665D01*
X191852Y339649D01*
X191763Y339706D01*
X191672Y339840D01*
X191617Y340000D01*
X191616Y340177D01*
X191659Y340358D01*
X191739Y340529D01*
X191848Y340677D01*
X191978Y340788D01*
X192121Y340848D01*
X192267Y340843D01*
G37*
G36*
X192262Y336118D02*X192387Y336027D01*
X192458Y335950D01*
X192355Y335913D01*
X192204Y335900D01*
X192197Y336021D01*
X192262Y336118D01*
G37*
G36*
X189501Y337459D02*X189885Y337356D01*
X190325Y337228D01*
X190642Y337118D01*
X190904Y336999D01*
X191183Y336840D01*
X191389Y336713D01*
X191589Y336586D01*
X191759Y336474D01*
X191877Y336389D01*
X192062Y336249D01*
X192073Y336221D01*
X191991Y335993D01*
X191905Y335745D01*
X192029Y335700D01*
X192079Y335679D01*
X192218Y335654D01*
X192322Y335689D01*
X192439Y335747D01*
X192589Y335804D01*
X192768Y335831D01*
X192973Y335739D01*
X193056Y335691D01*
X193111Y335656D01*
X193130Y335631D01*
X193105Y335611D01*
X193027Y335594D01*
X192887Y335576D01*
X192676Y335555D01*
X192387Y335527D01*
X191861Y335499D01*
X191541Y335533D01*
X191395Y335638D01*
X191394Y335825D01*
X191374Y335999D01*
X191279Y336246D01*
X191141Y336497D01*
X190992Y336682D01*
X190858Y336796D01*
X190835Y336818D01*
X190792Y336829D01*
X190386Y337006D01*
X189951Y337057D01*
X189609Y337035D01*
X189382Y337220D01*
X189193Y337355D01*
X189062Y337425D01*
X189017Y337513D01*
X189152Y337531D01*
X189501Y337459D01*
G37*
G36*
X188357Y337729D02*X188505Y337671D01*
X188579Y337588D01*
X188583Y337473D01*
X188525Y337317D01*
X188428Y337178D01*
X188323Y337128D01*
X188197Y337225D01*
X188038Y337436D01*
X187914Y337654D01*
X187895Y337772D01*
X188019Y337780D01*
X188237Y337746D01*
X188357Y337729D01*
G37*
G36*
X187466Y337664D02*X187556Y337614D01*
X187578Y337527D01*
X187523Y337410D01*
X187385Y337274D01*
X187237Y337170D01*
X187131Y337136D01*
X187050Y337172D01*
X186979Y337279D01*
X186930Y337399D01*
X186935Y337487D01*
X187003Y337558D01*
X187141Y337621D01*
X187326Y337667D01*
X187466Y337664D01*
G37*
G36*
X190342Y336764D02*X190624Y336651D01*
X190848Y336484D01*
X191008Y336267D01*
X191101Y336004D01*
X191130Y335791D01*
X191092Y335667D01*
X190966Y335609D01*
X190733Y335597D01*
X190220Y335672D01*
X189562Y335862D01*
X188828Y336144D01*
X188090Y336493D01*
X187721Y336700D01*
X187546Y336843D01*
X187544Y336951D01*
X187694Y337052D01*
X187939Y337063D01*
X188160Y336867D01*
X188266Y336774D01*
X188395Y336755D01*
X188534Y336806D01*
X188806Y337048D01*
X188904Y337084D01*
X189058Y337012D01*
X189267Y336883D01*
X189478Y336730D01*
X189642Y336585D01*
X189795Y336452D01*
X189919Y336379D01*
X190033Y336346D01*
X189951Y336531D01*
X189910Y336695D01*
X189959Y336788D01*
X190102Y336811D01*
X190342Y336764D01*
G37*
G54D90*X253500Y372000D02*X255500D01*
X179000Y315200D02*Y313200D01*
X181000D01*
X180500Y313700D01*
Y314700D02*Y313700D01*
Y314700D02*X181000Y315200D01*
X182500D01*
X183000Y314700D02*X182500Y315200D01*
X183000Y314700D02*Y313700D01*
X182500Y313200D02*X183000Y313700D01*
X179000Y316400D02*X183000Y317400D01*
X179000Y318400D01*
X164000Y317400D02*X164500Y316900D01*
X162500Y317400D02*X164000D01*
X162000Y316900D02*X162500Y317400D01*
X162000Y316900D02*Y313900D01*
X162500Y313400D01*
X164000D01*
X164500Y313900D01*
Y314900D02*Y313900D01*
X164000Y315400D02*X164500Y314900D01*
X163000Y315400D02*X164000D01*
X165700Y317400D02*Y313400D01*
Y317400D02*X168200Y313400D01*
Y317400D02*Y313400D01*
X169900Y317400D02*Y313400D01*
X171200Y317400D02*X171900Y316700D01*
Y314100D01*
X171200Y313400D02*X171900Y314100D01*
X169400Y313400D02*X171200D01*
X169400Y317400D02*X171200D01*
X232000Y409000D02*X232500D01*
X232000D02*Y389000D01*
X232500D01*
X241500D02*X242000D01*
Y409000D02*Y389000D01*
X241500Y409000D02*X242000D01*
X253500Y392000D02*X254000D01*
Y412000D02*Y392000D01*
X253500Y412000D02*X254000D01*
X244000D02*X244500D01*
X244000D02*Y392000D01*
X244500D01*
X301000Y357000D02*X301500D01*
X301000D02*Y337000D01*
X301500D01*
X310500D02*X311000D01*
Y357000D02*Y337000D01*
X310500Y357000D02*X311000D01*
G54D91*X265000Y361000D02*X285000D01*
X265000Y371000D02*Y361000D01*
Y371000D02*X285000D01*
Y361000D01*
Y366000D02*X295000D01*
X255000D02*X265000D01*
G54D90*X318827Y405142D02*X322764D01*
X320795Y407110D02*Y403173D01*
X308984Y409079D02*Y401205D01*
X312921Y393331D02*X329654D01*
X312921Y416953D02*X329654D01*
X332606Y409079D02*Y401205D01*
X313906Y405142D02*G75*G03X320796Y398252I6890J0D01*G01*
X320795Y412031D02*G75*G03X313906Y405142I0J-6889D01*G01*
X327685D02*G75*G03X320796Y412031I-6889J0D01*G01*
X320795Y398252D02*G75*G03X327685Y405142I0J6890D01*G01*
G54D91*X270000Y398000D02*X290000D01*
Y388000D01*
X270000D01*
Y398000D01*
X260000Y393000D02*X270000D01*
X290000D02*X300000D01*
G54D90*X298828Y383172D02*G75*G03X298828Y374828I4172J-4172D01*G01*
X307172Y374828D02*G75*G03X307172Y383172I-4172J4172D01*G01*
X297414Y384586D02*G75*G03X297414Y373414I5586J-5586D01*G01*
X308586Y373414D02*G75*G03X308586Y384586I-5586J5586D01*G01*
X270000Y375000D02*X290000D01*
Y385000D02*Y375000D01*
X270000Y385000D02*X290000D01*
X270000D02*Y375000D01*
X280000Y385000D02*Y375000D01*
X270000Y385000D02*X280000D01*
G54D92*X260055Y452252D02*X291945D01*
X260055D02*Y446346D01*
Y433551D02*Y426268D01*
X291945Y452252D02*Y446346D01*
Y433551D02*Y426268D01*
X258283Y446150D02*X293717D01*
G54D90*X249500Y375000D02*X269500D01*
Y385000D02*Y375000D01*
X249500Y385000D02*X269500D01*
X249500D02*Y375000D01*
X259500Y385000D02*Y375000D01*
X249500Y385000D02*X259500D01*
G54D93*X269515Y408750D02*Y398750D01*
X289515D01*
Y408750D01*
X269515D02*X289515D01*
G54D94*X287015Y406250D02*Y401250D01*
G54D93*X284515Y408750D02*Y398750D01*
X259515Y403750D02*X269515D01*
X289515D02*X299515D01*
G54D90*X161000Y360000D02*X301000D01*
X161000D02*Y320000D01*
X301000D01*
Y360000D02*Y345000D01*
Y335000D02*Y320000D01*
Y345000D02*G75*G03X301000Y335000I0J-5000D01*G01*
X226000Y312000D02*X306000D01*
X226000D02*Y302000D01*
X306000D01*
Y312000D02*Y302000D01*
X296000Y312000D02*Y302000D01*
X306000D01*
X166000Y312000D02*X226000D01*
X166000D02*Y302000D01*
X226000D01*
Y312000D02*Y302000D01*
X216000Y312000D02*Y302000D01*
X226000D01*
X166000Y368000D02*X246000D01*
Y378000D02*Y368000D01*
X166000Y378000D02*X246000D01*
X166000D02*Y368000D01*
X176000Y378000D02*Y368000D01*
X166000Y378000D02*X176000D01*
X146827Y405142D02*X150764D01*
X148795Y407110D02*Y403173D01*
X136984Y409079D02*Y401205D01*
X140921Y393331D02*X157654D01*
X140921Y416953D02*X157654D01*
X160606Y409079D02*Y401205D01*
X141906Y405142D02*G75*G03X148796Y398252I6890J0D01*G01*
X148795Y412031D02*G75*G03X141906Y405142I0J-6889D01*G01*
X155685D02*G75*G03X148796Y412031I-6889J0D01*G01*
X148795Y398252D02*G75*G03X155685Y405142I0J6890D01*G01*
X162000Y431000D02*X212000D01*
Y451000D02*Y431000D01*
X162000Y451000D02*X212000D01*
X162000D02*Y431000D01*
X172000Y441000D02*Y431000D01*
X162000Y441000D02*X172000D01*
X231000Y420000D02*X251000D01*
Y430000D02*Y420000D01*
X231000Y430000D02*X251000D01*
X231000D02*Y420000D01*
X241000Y430000D02*Y420000D01*
X231000Y430000D02*X241000D01*
G54D91*X195000Y398100D02*X220300D01*
X195000Y379800D02*X220300D01*
Y379900D02*G75*G03X220300Y398100I0J9100D01*G01*
X195000D02*G75*G03X195000Y379900I0J-9100D01*G01*
X226000Y436000D02*Y416000D01*
X216000D02*X226000D01*
X216000Y436000D02*Y416000D01*
Y436000D02*X226000D01*
X221000Y446000D02*Y436000D01*
Y416000D02*Y406000D01*
X184000Y419000D02*X204000D01*
Y409000D01*
X184000D02*X204000D01*
X184000Y419000D02*Y409000D01*
X174000Y414000D02*X184000D01*
X204000D02*X214000D01*
X184000Y408000D02*X204000D01*
Y398000D01*
X184000D02*X204000D01*
X184000Y408000D02*Y398000D01*
X174000Y403000D02*X184000D01*
X204000D02*X214000D01*
G54D93*X197985Y429750D02*Y419750D01*
X177985Y429750D02*X197985D01*
X177985D02*Y419750D01*
X197985D01*
G54D94*X180485Y427250D02*Y422250D01*
G54D93*X182985Y429750D02*Y419750D01*
X197985Y424750D02*X207985D01*
X167985D02*X177985D01*
G54D90*X189000Y313500D02*X193000D01*
X189000Y314800D02*X189700Y315500D01*
X192300D01*
X193000Y314800D02*X192300Y315500D01*
X193000Y314800D02*Y313000D01*
X189000Y314800D02*Y313000D01*
X193000Y317200D02*X189000Y319200D01*
Y316700D01*
X199000Y313500D02*X203000D01*
X199000Y314800D02*X199700Y315500D01*
X202300D01*
X203000Y314800D02*X202300Y315500D01*
X203000Y314800D02*Y313000D01*
X199000Y314800D02*Y313000D01*
Y318200D02*X199500Y318700D01*
X199000Y318200D02*Y317200D01*
X199500Y316700D02*X199000Y317200D01*
X199500Y316700D02*X202500D01*
X203000Y317200D01*
X200800Y318200D02*X201300Y318700D01*
X200800Y318200D02*Y316700D01*
X203000Y318200D02*Y317200D01*
Y318200D02*X202500Y318700D01*
X201300D02*X202500D01*
X210000Y313500D02*X214000D01*
X210000Y314800D02*X210700Y315500D01*
X213300D01*
X214000Y314800D02*X213300Y315500D01*
X214000Y314800D02*Y313000D01*
X210000Y314800D02*Y313000D01*
Y318700D02*Y316700D01*
X212000D01*
X211500Y317200D01*
Y318200D02*Y317200D01*
Y318200D02*X212000Y318700D01*
X213500D01*
X214000Y318200D02*X213500Y318700D01*
X214000Y318200D02*Y317200D01*
X213500Y316700D02*X214000Y317200D01*
X220000Y313500D02*X224000D01*
X220000Y314800D02*X220700Y315500D01*
X223300D01*
X224000Y314800D02*X223300Y315500D01*
X224000Y314800D02*Y313000D01*
X220000Y314800D02*Y313000D01*
X222500Y316700D02*X220000Y318700D01*
X222500Y319200D02*Y316700D01*
X220000Y318700D02*X224000D01*
X229000Y313500D02*X233000D01*
X229000Y314800D02*X229700Y315500D01*
X232300D01*
X233000Y314800D02*X232300Y315500D01*
X233000Y314800D02*Y313000D01*
X229000Y314800D02*Y313000D01*
X229500Y316700D02*X229000Y317200D01*
Y318200D02*Y317200D01*
Y318200D02*X229500Y318700D01*
X233000Y318200D02*X232500Y318700D01*
X233000Y318200D02*Y317200D01*
X232500Y316700D02*X233000Y317200D01*
X230800Y318200D02*Y317200D01*
X229500Y318700D02*X230300D01*
X231300D02*X232500D01*
X231300D02*X230800Y318200D01*
X230300Y318700D02*X230800Y318200D01*
X239000Y313500D02*X243000D01*
X239000Y314800D02*X239700Y315500D01*
X242300D01*
X243000Y314800D02*X242300Y315500D01*
X243000Y314800D02*Y313000D01*
X239000Y314800D02*Y313000D01*
X239500Y316700D02*X239000Y317200D01*
Y318700D02*Y317200D01*
Y318700D02*X239500Y319200D01*
X240500D01*
X243000Y316700D02*X240500Y319200D01*
X243000D02*Y316700D01*
X234500Y401950D02*Y400000D01*
X235550Y403000D02*X234500Y401950D01*
X235550Y403000D02*X239450D01*
X240500Y401950D01*
Y400000D01*
X235250Y398200D02*X234500Y397450D01*
X235250Y398200D02*X236450D01*
X237500Y397150D01*
Y396250D01*
X236450Y395200D01*
X235250D02*X236450D01*
X234500Y395950D02*X235250Y395200D01*
X234500Y397450D02*Y395950D01*
X238550Y398200D02*X237500Y397150D01*
X238550Y398200D02*X239750D01*
X240500Y397450D01*
Y395950D01*
X239750Y395200D01*
X238550D02*X239750D01*
X237500Y396250D02*X238550Y395200D01*
X246500Y404950D02*Y403000D01*
X247550Y406000D02*X246500Y404950D01*
X247550Y406000D02*X251450D01*
X252500Y404950D01*
Y403000D01*
Y398950D02*X251750Y398200D01*
X252500Y400450D02*Y398950D01*
X251750Y401200D02*X252500Y400450D01*
X247250Y401200D02*X251750D01*
X247250D02*X246500Y400450D01*
X249800Y398950D02*X249050Y398200D01*
X249800Y401200D02*Y398950D01*
X246500Y400450D02*Y398950D01*
X247250Y398200D01*
X249050D01*
X276000Y395000D02*X278000D01*
X278500Y394500D01*
Y393500D01*
X278000Y393000D02*X278500Y393500D01*
X276500Y393000D02*X278000D01*
X276500Y395000D02*Y391000D01*
X277300Y393000D02*X278500Y391000D01*
X279700Y392500D02*X281700Y395000D01*
X279700Y392500D02*X282200D01*
X281700Y395000D02*Y391000D01*
X310700Y391300D02*X311200Y390800D01*
X309200Y391300D02*X310700D01*
X308700Y390800D02*X309200Y391300D01*
X308700Y390800D02*Y389800D01*
X309200Y389300D01*
X310700D01*
X311200Y388800D01*
Y387800D01*
X310700Y387300D02*X311200Y387800D01*
X309200Y387300D02*X310700D01*
X308700Y387800D02*X309200Y387300D01*
X312400Y391300D02*Y389300D01*
X312900Y387300D01*
X313900Y389300D01*
X314900Y387300D01*
X315400Y389300D01*
Y391300D02*Y389300D01*
X316600Y390500D02*X317400Y391300D01*
Y387300D01*
X316600D02*X318100D01*
X319300Y387800D02*X322300Y390800D01*
X323500Y387300D02*X325500D01*
X326000Y387800D01*
Y389000D02*Y387800D01*
X325500Y389500D02*X326000Y389000D01*
X324000Y389500D02*X325500D01*
X324000Y391300D02*Y387300D01*
X323500Y391300D02*X325500D01*
X326000Y390800D01*
Y390000D01*
X325500Y389500D02*X326000Y390000D01*
X327200Y390800D02*Y387800D01*
Y390800D02*X327700Y391300D01*
X328700D01*
X329200Y390800D01*
Y387800D01*
X328700Y387300D02*X329200Y387800D01*
X327700Y387300D02*X328700D01*
X327200Y387800D02*X327700Y387300D01*
X330400Y390800D02*Y387800D01*
Y390800D02*X330900Y391300D01*
X331900D01*
X332400Y390800D01*
Y387800D01*
X331900Y387300D02*X332400Y387800D01*
X330900Y387300D02*X331900D01*
X330400Y387800D02*X330900Y387300D01*
X333600Y391300D02*X335600D01*
X334600D02*Y387300D01*
X288500Y374000D02*Y370000D01*
X289800Y374000D02*X290500Y373300D01*
Y370700D01*
X289800Y370000D02*X290500Y370700D01*
X288000Y370000D02*X289800D01*
X288000Y374000D02*X289800D01*
X291700Y372000D02*X293700D01*
X292700Y373000D02*Y371000D01*
X295500Y434500D02*Y431000D01*
X296000Y430500D01*
X297000D01*
X297500Y431000D01*
Y434500D02*Y431000D01*
X300700Y434500D02*X301200Y434000D01*
X299200Y434500D02*X300700D01*
X298700Y434000D02*X299200Y434500D01*
X298700Y434000D02*Y433000D01*
X299200Y432500D01*
X300700D01*
X301200Y432000D01*
Y431000D01*
X300700Y430500D02*X301200Y431000D01*
X299200Y430500D02*X300700D01*
X298700Y431000D02*X299200Y430500D01*
X302400D02*X304400D01*
X304900Y431000D01*
Y432200D02*Y431000D01*
X304400Y432700D02*X304900Y432200D01*
X302900Y432700D02*X304400D01*
X302900Y434500D02*Y430500D01*
X302400Y434500D02*X304400D01*
X304900Y434000D01*
Y433200D01*
X304400Y432700D02*X304900Y433200D01*
X250000Y374000D02*Y370000D01*
X251300Y374000D02*X252000Y373300D01*
Y370700D01*
X251300Y370000D02*X252000Y370700D01*
X249500Y370000D02*X251300D01*
X249500Y374000D02*X251300D01*
X273500Y406000D02*X276000D01*
X273500Y402000D02*X276000Y406000D01*
X273500Y402000D02*X276000D01*
X277200Y405500D02*X277700Y406000D01*
X279200D01*
X279700Y405500D01*
Y404500D01*
X277200Y402000D02*X279700Y404500D01*
X277200Y402000D02*X279700D01*
X224000Y363000D02*Y361000D01*
Y363000D02*X223500Y363500D01*
X222300D02*X223500D01*
X221800Y363000D02*X222300Y363500D01*
X221800Y363000D02*Y361500D01*
X220000D02*X224000D01*
X220000Y363000D02*Y361000D01*
Y363000D02*X220500Y363500D01*
X221300D01*
X221800Y363000D02*X221300Y363500D01*
X220000Y366700D02*Y364700D01*
X222000D01*
X221500Y365200D01*
Y366200D02*Y365200D01*
Y366200D02*X222000Y366700D01*
X223500D01*
X224000Y366200D02*X223500Y366700D01*
X224000Y366200D02*Y365200D01*
X223500Y364700D02*X224000Y365200D01*
X213000Y363000D02*Y361000D01*
Y363000D02*X212500Y363500D01*
X211300D02*X212500D01*
X210800Y363000D02*X211300Y363500D01*
X210800Y363000D02*Y361500D01*
X209000D02*X213000D01*
X209000Y363000D02*Y361000D01*
Y363000D02*X209500Y363500D01*
X210300D01*
X210800Y363000D02*X210300Y363500D01*
X211500Y364700D02*X209000Y366700D01*
X211500Y367200D02*Y364700D01*
X209000Y366700D02*X213000D01*
X203000Y363000D02*Y361000D01*
Y363000D02*X202500Y363500D01*
X201300D02*X202500D01*
X200800Y363000D02*X201300Y363500D01*
X200800Y363000D02*Y361500D01*
X199000D02*X203000D01*
X199000Y363000D02*Y361000D01*
Y363000D02*X199500Y363500D01*
X200300D01*
X200800Y363000D02*X200300Y363500D01*
X199500Y364700D02*X199000Y365200D01*
Y366200D02*Y365200D01*
Y366200D02*X199500Y366700D01*
X203000Y366200D02*X202500Y366700D01*
X203000Y366200D02*Y365200D01*
X202500Y364700D02*X203000Y365200D01*
X200800Y366200D02*Y365200D01*
X199500Y366700D02*X200300D01*
X201300D02*X202500D01*
X201300D02*X200800Y366200D01*
X200300Y366700D02*X200800Y366200D01*
X233000Y363000D02*Y361700D01*
X232300Y361000D02*X233000Y361700D01*
X229700Y361000D02*X232300D01*
X229700D02*X229000Y361700D01*
Y363000D02*Y361700D01*
X232500Y364200D02*X233000Y364700D01*
X229500Y364200D02*X232500D01*
X229500D02*X229000Y364700D01*
Y365700D02*Y364700D01*
Y365700D02*X229500Y366200D01*
X232500D01*
X233000Y365700D02*X232500Y366200D01*
X233000Y365700D02*Y364700D01*
X232000Y364200D02*X230000Y366200D01*
X243000Y363000D02*Y361700D01*
X242300Y361000D02*X243000Y361700D01*
X239700Y361000D02*X242300D01*
X239700D02*X239000Y361700D01*
Y363000D02*Y361700D01*
X239800Y364200D02*X239000Y365000D01*
X243000D01*
Y365700D02*Y364200D01*
X193000Y363000D02*Y361000D01*
Y363000D02*X192500Y363500D01*
X191300D02*X192500D01*
X190800Y363000D02*X191300Y363500D01*
X190800Y363000D02*Y361500D01*
X189000D02*X193000D01*
X189000Y363000D02*Y361000D01*
Y363000D02*X189500Y363500D01*
X190300D01*
X190800Y363000D02*X190300Y363500D01*
X189500Y364700D02*X189000Y365200D01*
Y366700D02*Y365200D01*
Y366700D02*X189500Y367200D01*
X190500D01*
X193000Y364700D02*X190500Y367200D01*
X193000D02*Y364700D01*
X183000Y363000D02*Y361000D01*
Y363000D02*X182500Y363500D01*
X181300D02*X182500D01*
X180800Y363000D02*X181300Y363500D01*
X180800Y363000D02*Y361500D01*
X179000D02*X183000D01*
X179000Y363000D02*Y361000D01*
Y363000D02*X179500Y363500D01*
X180300D01*
X180800Y363000D02*X180300Y363500D01*
X179800Y364700D02*X179000Y365500D01*
X183000D01*
Y366200D02*Y364700D01*
X173000Y363000D02*Y361000D01*
Y363000D02*X172500Y363500D01*
X171300D02*X172500D01*
X170800Y363000D02*X171300Y363500D01*
X170800Y363000D02*Y361500D01*
X169000D02*X173000D01*
X169000Y363000D02*Y361000D01*
Y363000D02*X169500Y363500D01*
X170300D01*
X170800Y363000D02*X170300Y363500D01*
X172500Y364700D02*X173000Y365200D01*
X169500Y364700D02*X172500D01*
X169500D02*X169000Y365200D01*
Y366200D02*Y365200D01*
Y366200D02*X169500Y366700D01*
X172500D01*
X173000Y366200D02*X172500Y366700D01*
X173000Y366200D02*Y365200D01*
X172000Y364700D02*X170000Y366700D01*
X141000Y391000D02*X143000D01*
X143500Y390500D01*
Y389500D01*
X143000Y389000D02*X143500Y389500D01*
X141500Y389000D02*X143000D01*
X141500Y391000D02*Y387000D01*
X142300Y389000D02*X143500Y387000D01*
X144700Y389200D02*X146200D01*
X144700Y387000D02*X146700D01*
X144700Y391000D02*Y387000D01*
Y391000D02*X146700D01*
X149900D02*X150400Y390500D01*
X148400Y391000D02*X149900D01*
X147900Y390500D02*X148400Y391000D01*
X147900Y390500D02*Y389500D01*
X148400Y389000D01*
X149900D01*
X150400Y388500D01*
Y387500D01*
X149900Y387000D02*X150400Y387500D01*
X148400Y387000D02*X149900D01*
X147900Y387500D02*X148400Y387000D01*
X151600Y389200D02*X153100D01*
X151600Y387000D02*X153600D01*
X151600Y391000D02*Y387000D01*
Y391000D02*X153600D01*
X154800D02*X156800D01*
X155800D02*Y387000D01*
X173000Y381000D02*X175500Y385000D01*
X173000D02*X175500Y381000D01*
X176700Y385000D02*X178700D01*
X177700D02*Y381000D01*
X179900Y384000D02*Y381000D01*
Y384000D02*X180600Y385000D01*
X181700D01*
X182400Y384000D01*
Y381000D01*
X179900Y383000D02*X182400D01*
X183600Y385000D02*Y381000D01*
X185600D01*
X213000Y440000D02*Y439000D01*
Y439500D02*X217000D01*
Y440000D02*Y439000D01*
X213000Y443200D02*X213500Y443700D01*
X213000Y443200D02*Y441700D01*
X213500Y441200D02*X213000Y441700D01*
X213500Y441200D02*X214500D01*
X215000Y441700D01*
Y443200D02*Y441700D01*
Y443200D02*X215500Y443700D01*
X216500D01*
X217000Y443200D02*X216500Y443700D01*
X217000Y443200D02*Y441700D01*
X216500Y441200D02*X217000Y441700D01*
X213000Y445400D02*X217000D01*
X213000Y446900D02*Y444900D01*
Y446900D02*X213500Y447400D01*
X214500D01*
X215000Y446900D02*X214500Y447400D01*
X215000Y446900D02*Y445400D01*
X223000Y428000D02*Y426000D01*
X222500Y425500D01*
X221500D02*X222500D01*
X221000Y426000D02*X221500Y425500D01*
X221000Y427500D02*Y426000D01*
X219000Y427500D02*X223000D01*
X221000Y426700D02*X219000Y425500D01*
X222500Y424300D02*X223000Y423800D01*
Y422800D01*
X222500Y422300D01*
X219000Y422800D02*X219500Y422300D01*
X219000Y423800D02*Y422800D01*
X219500Y424300D02*X219000Y423800D01*
X221200D02*Y422800D01*
X221700Y422300D02*X222500D01*
X219500D02*X220700D01*
X221200Y422800D01*
X221700Y422300D02*X221200Y422800D01*
X232000Y417200D02*X233500D01*
X232000Y415000D02*X234000D01*
X232000Y419000D02*Y415000D01*
Y419000D02*X234000D01*
X235200Y415000D02*X237700Y419000D01*
X235200D02*X237700Y415000D01*
X238900Y419000D02*X240900D01*
X239900D02*Y415000D01*
X191000Y416000D02*X193000D01*
X193500Y415500D01*
Y414500D01*
X193000Y414000D02*X193500Y414500D01*
X191500Y414000D02*X193000D01*
X191500Y416000D02*Y412000D01*
X192300Y414000D02*X193500Y412000D01*
X194700Y415200D02*X195500Y416000D01*
Y412000D01*
X194700D02*X196200D01*
X192000Y405000D02*X194000D01*
X194500Y404500D01*
Y403500D01*
X194000Y403000D02*X194500Y403500D01*
X192500Y403000D02*X194000D01*
X192500Y405000D02*Y401000D01*
X193300Y403000D02*X194500Y401000D01*
X195700Y404500D02*X196200Y405000D01*
X197700D01*
X198200Y404500D01*
Y403500D01*
X195700Y401000D02*X198200Y403500D01*
X195700Y401000D02*X198200D01*
X187000Y427000D02*X189500D01*
X187000Y423000D02*X189500Y427000D01*
X187000Y423000D02*X189500D01*
X190700Y426200D02*X191500Y427000D01*
Y423000D01*
X190700D02*X192200D01*
X308500Y346000D02*Y344050D01*
X307450Y343000D02*X308500Y344050D01*
X303550Y343000D02*X307450D01*
X303550D02*X302500Y344050D01*
Y346000D02*Y344050D01*
X308500Y348550D02*X302500Y351550D01*
Y347800D01*
X303000Y328000D02*Y324500D01*
X303500Y324000D01*
X304500D01*
X305000Y324500D01*
Y328000D02*Y324500D01*
X306200Y327200D02*X307000Y328000D01*
Y324000D01*
X306200D02*X307700D01*
X293000Y315000D02*Y313700D01*
X292300Y313000D02*X293000Y313700D01*
X289700Y313000D02*X292300D01*
X289700D02*X289000Y313700D01*
Y315000D02*Y313700D01*
X289500Y316200D02*X289000Y316700D01*
Y317700D02*Y316700D01*
Y317700D02*X289500Y318200D01*
X293000Y317700D02*X292500Y318200D01*
X293000Y317700D02*Y316700D01*
X292500Y316200D02*X293000Y316700D01*
X290800Y317700D02*Y316700D01*
X289500Y318200D02*X290300D01*
X291300D02*X292500D01*
X291300D02*X290800Y317700D01*
X290300Y318200D02*X290800Y317700D01*
X303000Y315000D02*Y313700D01*
X302300Y313000D02*X303000Y313700D01*
X299700Y313000D02*X302300D01*
X299700D02*X299000Y313700D01*
Y315000D02*Y313700D01*
X299500Y316200D02*X299000Y316700D01*
Y318200D02*Y316700D01*
Y318200D02*X299500Y318700D01*
X300500D01*
X303000Y316200D02*X300500Y318700D01*
X303000D02*Y316200D01*
X259000Y313500D02*X263000D01*
X259000Y314800D02*X259700Y315500D01*
X262300D01*
X263000Y314800D02*X262300Y315500D01*
X263000Y314800D02*Y313000D01*
X259000Y314800D02*Y313000D01*
X262500Y316700D02*X263000Y317200D01*
X259500Y316700D02*X262500D01*
X259500D02*X259000Y317200D01*
Y318200D02*Y317200D01*
Y318200D02*X259500Y318700D01*
X262500D01*
X263000Y318200D02*X262500Y318700D01*
X263000Y318200D02*Y317200D01*
X262000Y316700D02*X260000Y318700D01*
X249000Y313500D02*X253000D01*
X249000Y314800D02*X249700Y315500D01*
X252300D01*
X253000Y314800D02*X252300Y315500D01*
X253000Y314800D02*Y313000D01*
X249000Y314800D02*Y313000D01*
X249800Y316700D02*X249000Y317500D01*
X253000D01*
Y318200D02*Y316700D01*
X273000Y315000D02*Y313700D01*
X272300Y313000D02*X273000Y313700D01*
X269700Y313000D02*X272300D01*
X269700D02*X269000Y313700D01*
Y315000D02*Y313700D01*
Y318200D02*Y316200D01*
X271000D01*
X270500Y316700D01*
Y317700D02*Y316700D01*
Y317700D02*X271000Y318200D01*
X272500D01*
X273000Y317700D02*X272500Y318200D01*
X273000Y317700D02*Y316700D01*
X272500Y316200D02*X273000Y316700D01*
X272000Y368000D02*X274000D01*
X274500Y367500D01*
Y366500D01*
X274000Y366000D02*X274500Y366500D01*
X272500Y366000D02*X274000D01*
X272500Y368000D02*Y364000D01*
X273300Y366000D02*X274500Y364000D01*
X275700Y368000D02*X277700D01*
X275700D02*Y366000D01*
X276200Y366500D01*
X277200D01*
X277700Y366000D01*
Y364500D01*
X277200Y364000D02*X277700Y364500D01*
X276200Y364000D02*X277200D01*
X275700Y364500D02*X276200Y364000D01*
X284000Y315000D02*Y313700D01*
X283300Y313000D02*X284000Y313700D01*
X280700Y313000D02*X283300D01*
X280700D02*X280000Y313700D01*
Y315000D02*Y313700D01*
X282500Y316200D02*X280000Y318200D01*
X282500Y318700D02*Y316200D01*
X280000Y318200D02*X284000D01*
M02*
