G04 start of page 2 for group 0 idx 0 *
G04 Title: (unknown), top *
G04 Creator: pcb 20110918 *
G04 CreationDate: mer. 09 avril 2014 15:18:50 GMT UTC *
G04 For: virtualabs *
G04 Format: Gerber/RS-274X *
G04 PCB-Dimensions: 600000 500000 *
G04 PCB-Coordinate-Origin: lower left *
%MOIN*%
%FSLAX25Y25*%
%LNTOP*%
%ADD33C,0.0216*%
%ADD32C,0.0430*%
%ADD31C,0.0532*%
%ADD30C,0.0350*%
%ADD29C,0.0394*%
%ADD28C,0.0320*%
%ADD27C,0.0380*%
%ADD26C,0.0280*%
%ADD25C,0.1200*%
%ADD24C,0.0200*%
%ADD23C,0.1560*%
%ADD22C,0.0360*%
%ADD21R,0.0800X0.0800*%
%ADD20C,0.0669*%
%ADD19C,0.0433*%
%ADD18C,0.0650*%
%ADD17C,0.0748*%
%ADD16C,0.0680*%
%ADD15C,0.0800*%
%ADD14C,0.0872*%
%ADD13C,0.0600*%
%ADD12C,0.0100*%
%ADD11C,0.0001*%
G54D11*G36*
X338705Y392523D02*X338728Y392551D01*
X339249Y393400D01*
X339630Y394321D01*
X339863Y395290D01*
X339922Y396283D01*
X339863Y397276D01*
X339630Y398245D01*
X339249Y399166D01*
X338728Y400015D01*
X338705Y400043D01*
Y410874D01*
X338834Y410913D01*
X338974Y410980D01*
X339101Y411067D01*
X339213Y411174D01*
X339308Y411297D01*
X339379Y411435D01*
X339598Y411980D01*
X339759Y412544D01*
X339867Y413122D01*
X339921Y413706D01*
Y414294D01*
X339867Y414878D01*
X339759Y415456D01*
X339598Y416020D01*
X339385Y416568D01*
X339312Y416705D01*
X339217Y416829D01*
X339104Y416936D01*
X338976Y417025D01*
X338836Y417092D01*
X338705Y417131D01*
Y420000D01*
X340000D01*
Y330000D01*
X338705D01*
Y331287D01*
X338709Y331291D01*
X338812Y331410D01*
X338894Y331545D01*
X338954Y331690D01*
X338991Y331843D01*
X339000Y332000D01*
X338991Y340157D01*
X338954Y340310D01*
X338894Y340455D01*
X338866Y340500D01*
X338894Y340545D01*
X338954Y340690D01*
X338991Y340843D01*
X339000Y341000D01*
X338991Y349157D01*
X338954Y349310D01*
X338894Y349455D01*
X338866Y349500D01*
X338894Y349545D01*
X338954Y349690D01*
X338991Y349843D01*
X339000Y350000D01*
X338991Y358157D01*
X338954Y358310D01*
X338894Y358455D01*
X338866Y358500D01*
X338894Y358545D01*
X338954Y358690D01*
X338991Y358843D01*
X339000Y359000D01*
X338991Y367157D01*
X338954Y367310D01*
X338894Y367455D01*
X338866Y367500D01*
X338894Y367545D01*
X338954Y367690D01*
X338991Y367843D01*
X339000Y368000D01*
X338991Y376157D01*
X338954Y376310D01*
X338894Y376455D01*
X338866Y376500D01*
X338894Y376545D01*
X338954Y376690D01*
X338991Y376843D01*
X339000Y377000D01*
X338991Y385157D01*
X338954Y385310D01*
X338894Y385455D01*
X338812Y385590D01*
X338709Y385709D01*
X338705Y385713D01*
Y392523D01*
G37*
G36*
Y330000D02*X333593D01*
Y331008D01*
X338157Y331009D01*
X338310Y331046D01*
X338455Y331106D01*
X338590Y331188D01*
X338705Y331287D01*
Y330000D01*
G37*
G36*
Y400043D02*X338081Y400773D01*
X337323Y401420D01*
X336474Y401941D01*
X335553Y402322D01*
X334584Y402555D01*
X333593Y402633D01*
Y407670D01*
X333885D01*
X334469Y407724D01*
X335047Y407832D01*
X335611Y407993D01*
X336159Y408206D01*
X336296Y408279D01*
X336420Y408374D01*
X336527Y408487D01*
X336616Y408615D01*
X336683Y408755D01*
X336727Y408904D01*
X336748Y409059D01*
X336744Y409214D01*
X336716Y409367D01*
X336664Y409514D01*
X336590Y409651D01*
X336496Y409775D01*
X336383Y409882D01*
X336255Y409971D01*
X336114Y410038D01*
X335965Y410082D01*
X335811Y410103D01*
X335655Y410099D01*
X335502Y410071D01*
X335357Y410016D01*
X334982Y409866D01*
X334593Y409755D01*
X334196Y409680D01*
X333793Y409643D01*
X333593D01*
Y418357D01*
X333793D01*
X334196Y418320D01*
X334593Y418245D01*
X334982Y418134D01*
X335358Y417988D01*
X335503Y417934D01*
X335656Y417906D01*
X335811Y417902D01*
X335964Y417922D01*
X336113Y417967D01*
X336252Y418034D01*
X336380Y418121D01*
X336492Y418228D01*
X336586Y418351D01*
X336660Y418488D01*
X336711Y418634D01*
X336739Y418786D01*
X336743Y418941D01*
X336723Y419095D01*
X336678Y419243D01*
X336611Y419383D01*
X336524Y419510D01*
X336417Y419622D01*
X336294Y419717D01*
X336156Y419788D01*
X335628Y420000D01*
X338705D01*
Y417131D01*
X338687Y417136D01*
X338532Y417157D01*
X338377Y417153D01*
X338224Y417125D01*
X338077Y417073D01*
X337940Y416999D01*
X337816Y416905D01*
X337709Y416792D01*
X337620Y416664D01*
X337553Y416523D01*
X337509Y416374D01*
X337488Y416220D01*
X337492Y416064D01*
X337520Y415911D01*
X337575Y415766D01*
X337725Y415391D01*
X337836Y415002D01*
X337911Y414605D01*
X337948Y414202D01*
Y413798D01*
X337911Y413395D01*
X337836Y412998D01*
X337725Y412609D01*
X337579Y412233D01*
X337525Y412088D01*
X337497Y411935D01*
X337493Y411780D01*
X337513Y411627D01*
X337558Y411478D01*
X337625Y411339D01*
X337712Y411211D01*
X337819Y411099D01*
X337942Y411005D01*
X338079Y410931D01*
X338225Y410880D01*
X338377Y410852D01*
X338532Y410848D01*
X338686Y410868D01*
X338705Y410874D01*
Y400043D01*
G37*
G36*
X333593Y389933D02*X334584Y390011D01*
X335553Y390244D01*
X336474Y390625D01*
X337323Y391146D01*
X338081Y391793D01*
X338705Y392523D01*
Y385713D01*
X338590Y385812D01*
X338455Y385894D01*
X338310Y385954D01*
X338157Y385991D01*
X338000Y386000D01*
X333593Y385998D01*
Y389933D01*
G37*
G36*
Y330000D02*X313114D01*
Y331000D01*
X333593Y331008D01*
Y330000D01*
G37*
G36*
Y402633D02*X333591Y402633D01*
X332598Y402555D01*
X331629Y402322D01*
X330708Y401941D01*
X329859Y401420D01*
X329101Y400773D01*
X328477Y400043D01*
Y410869D01*
X328495Y410864D01*
X328650Y410843D01*
X328805Y410847D01*
X328958Y410875D01*
X329105Y410927D01*
X329242Y411001D01*
X329366Y411095D01*
X329473Y411208D01*
X329562Y411336D01*
X329629Y411477D01*
X329673Y411626D01*
X329694Y411780D01*
X329690Y411936D01*
X329662Y412089D01*
X329607Y412234D01*
X329457Y412609D01*
X329346Y412998D01*
X329271Y413395D01*
X329234Y413798D01*
Y414202D01*
X329271Y414605D01*
X329346Y415002D01*
X329457Y415391D01*
X329603Y415767D01*
X329657Y415912D01*
X329685Y416065D01*
X329689Y416220D01*
X329669Y416373D01*
X329624Y416522D01*
X329557Y416661D01*
X329470Y416789D01*
X329363Y416901D01*
X329240Y416995D01*
X329103Y417069D01*
X328957Y417120D01*
X328805Y417148D01*
X328650Y417152D01*
X328496Y417132D01*
X328477Y417126D01*
Y420000D01*
X331554D01*
X331023Y419794D01*
X330886Y419721D01*
X330762Y419626D01*
X330655Y419513D01*
X330566Y419385D01*
X330499Y419245D01*
X330455Y419096D01*
X330434Y418941D01*
X330438Y418786D01*
X330466Y418633D01*
X330518Y418486D01*
X330592Y418349D01*
X330686Y418225D01*
X330799Y418118D01*
X330927Y418029D01*
X331068Y417962D01*
X331217Y417918D01*
X331371Y417897D01*
X331527Y417901D01*
X331680Y417929D01*
X331825Y417984D01*
X332200Y418134D01*
X332589Y418245D01*
X332986Y418320D01*
X333389Y418357D01*
X333593D01*
Y409643D01*
X333389D01*
X332986Y409680D01*
X332589Y409755D01*
X332200Y409866D01*
X331824Y410012D01*
X331679Y410066D01*
X331526Y410094D01*
X331371Y410098D01*
X331218Y410078D01*
X331069Y410033D01*
X330930Y409966D01*
X330802Y409879D01*
X330690Y409772D01*
X330596Y409649D01*
X330522Y409512D01*
X330471Y409366D01*
X330443Y409214D01*
X330439Y409059D01*
X330459Y408905D01*
X330504Y408757D01*
X330571Y408617D01*
X330658Y408490D01*
X330765Y408378D01*
X330888Y408283D01*
X331026Y408212D01*
X331571Y407993D01*
X332135Y407832D01*
X332713Y407724D01*
X333297Y407670D01*
X333593D01*
Y402633D01*
G37*
G36*
X328477Y400043D02*X328454Y400015D01*
X327933Y399166D01*
X327552Y398245D01*
X327373Y397500D01*
X314218D01*
X314039Y398245D01*
X313658Y399166D01*
X313137Y400015D01*
X313114Y400043D01*
Y410874D01*
X313243Y410913D01*
X313383Y410980D01*
X313510Y411067D01*
X313622Y411174D01*
X313717Y411297D01*
X313788Y411435D01*
X314007Y411980D01*
X314168Y412544D01*
X314276Y413122D01*
X314330Y413706D01*
Y414294D01*
X314276Y414878D01*
X314168Y415456D01*
X314007Y416020D01*
X313794Y416568D01*
X313721Y416705D01*
X313626Y416829D01*
X313513Y416936D01*
X313385Y417025D01*
X313245Y417092D01*
X313114Y417131D01*
Y420000D01*
X328477D01*
Y417126D01*
X328348Y417087D01*
X328208Y417020D01*
X328081Y416933D01*
X327969Y416826D01*
X327874Y416703D01*
X327803Y416565D01*
X327584Y416020D01*
X327423Y415456D01*
X327315Y414878D01*
X327261Y414294D01*
Y413706D01*
X327315Y413122D01*
X327423Y412544D01*
X327584Y411980D01*
X327797Y411432D01*
X327870Y411295D01*
X327965Y411171D01*
X328078Y411064D01*
X328206Y410975D01*
X328346Y410908D01*
X328477Y410869D01*
Y400043D01*
G37*
G36*
X313114Y392523D02*X313137Y392551D01*
X313658Y393400D01*
X314039Y394321D01*
X314082Y394500D01*
X327509D01*
X327552Y394321D01*
X327933Y393400D01*
X328454Y392551D01*
X329101Y391793D01*
X329859Y391146D01*
X330708Y390625D01*
X331629Y390244D01*
X332598Y390011D01*
X333591Y389933D01*
X333593Y389933D01*
Y385998D01*
X313114Y385991D01*
Y392523D01*
G37*
G36*
Y330000D02*X309000D01*
Y339813D01*
X309025Y339797D01*
X309432Y339629D01*
X309618Y339584D01*
X309562Y339494D01*
X309516Y339385D01*
X309489Y339269D01*
X309479Y339151D01*
X309488Y339032D01*
X309516Y338917D01*
X309563Y338808D01*
X309721Y338468D01*
X309842Y338112D01*
X309930Y337747D01*
X309982Y337375D01*
X310000Y337000D01*
X309982Y336625D01*
X309930Y336253D01*
X309842Y335888D01*
X309721Y335532D01*
X309567Y335190D01*
X309520Y335082D01*
X309493Y334967D01*
X309483Y334849D01*
X309493Y334732D01*
X309521Y334617D01*
X309566Y334508D01*
X309628Y334407D01*
X309705Y334318D01*
X309795Y334241D01*
X309895Y334180D01*
X310004Y334135D01*
X310119Y334107D01*
X310237Y334098D01*
X310355Y334108D01*
X310469Y334135D01*
X310578Y334181D01*
X310679Y334243D01*
X310769Y334319D01*
X310845Y334409D01*
X310905Y334511D01*
X311122Y334980D01*
X311289Y335469D01*
X311409Y335972D01*
X311482Y336484D01*
X311506Y337000D01*
X311482Y337516D01*
X311409Y338028D01*
X311289Y338531D01*
X311259Y338620D01*
X312002Y337876D01*
X312009Y331843D01*
X312046Y331690D01*
X312106Y331545D01*
X312188Y331410D01*
X312291Y331291D01*
X312410Y331188D01*
X312545Y331106D01*
X312690Y331046D01*
X312843Y331009D01*
X313000Y331000D01*
X313114Y331000D01*
Y330000D01*
G37*
G36*
Y400043D02*X312490Y400773D01*
X311732Y401420D01*
X310883Y401941D01*
X309962Y402322D01*
X309000Y402553D01*
Y407747D01*
X309456Y407832D01*
X310020Y407993D01*
X310568Y408206D01*
X310705Y408279D01*
X310829Y408374D01*
X310936Y408487D01*
X311025Y408615D01*
X311092Y408755D01*
X311136Y408904D01*
X311157Y409059D01*
X311153Y409214D01*
X311125Y409367D01*
X311073Y409514D01*
X310999Y409651D01*
X310905Y409775D01*
X310792Y409882D01*
X310664Y409971D01*
X310523Y410038D01*
X310374Y410082D01*
X310220Y410103D01*
X310064Y410099D01*
X309911Y410071D01*
X309766Y410016D01*
X309391Y409866D01*
X309002Y409755D01*
X309000Y409754D01*
Y418246D01*
X309002Y418245D01*
X309391Y418134D01*
X309767Y417988D01*
X309912Y417934D01*
X310065Y417906D01*
X310220Y417902D01*
X310373Y417922D01*
X310522Y417967D01*
X310661Y418034D01*
X310789Y418121D01*
X310901Y418228D01*
X310995Y418351D01*
X311069Y418488D01*
X311120Y418634D01*
X311148Y418786D01*
X311152Y418941D01*
X311132Y419095D01*
X311087Y419243D01*
X311020Y419383D01*
X310933Y419510D01*
X310826Y419622D01*
X310703Y419717D01*
X310565Y419788D01*
X310037Y420000D01*
X313114D01*
Y417131D01*
X313096Y417136D01*
X312941Y417157D01*
X312786Y417153D01*
X312633Y417125D01*
X312486Y417073D01*
X312349Y416999D01*
X312225Y416905D01*
X312118Y416792D01*
X312029Y416664D01*
X311962Y416523D01*
X311918Y416374D01*
X311897Y416220D01*
X311901Y416064D01*
X311929Y415911D01*
X311984Y415766D01*
X312134Y415391D01*
X312245Y415002D01*
X312320Y414605D01*
X312357Y414202D01*
Y413798D01*
X312320Y413395D01*
X312245Y412998D01*
X312134Y412609D01*
X311988Y412233D01*
X311934Y412088D01*
X311906Y411935D01*
X311902Y411780D01*
X311922Y411627D01*
X311967Y411478D01*
X312034Y411339D01*
X312121Y411211D01*
X312228Y411099D01*
X312351Y411005D01*
X312488Y410931D01*
X312634Y410880D01*
X312786Y410852D01*
X312941Y410848D01*
X313095Y410868D01*
X313114Y410874D01*
Y400043D01*
G37*
G36*
X312000Y385000D02*X312002Y382967D01*
X311986Y382986D01*
X311651Y383272D01*
X311275Y383503D01*
X310868Y383671D01*
X310439Y383774D01*
X310000Y383809D01*
X309561Y383774D01*
X309132Y383671D01*
X309000Y383616D01*
Y390013D01*
X309962Y390244D01*
X310883Y390625D01*
X311732Y391146D01*
X312490Y391793D01*
X313114Y392523D01*
Y385991D01*
X312843Y385991D01*
X312690Y385954D01*
X312545Y385894D01*
X312410Y385812D01*
X312291Y385709D01*
X312188Y385590D01*
X312106Y385455D01*
X312046Y385310D01*
X312009Y385157D01*
X312000Y385000D01*
G37*
G36*
X299150Y379375D02*X299285Y379319D01*
X299515Y379264D01*
X299750Y379250D01*
X306485Y379264D01*
X306715Y379319D01*
X306933Y379409D01*
X307134Y379533D01*
X307314Y379686D01*
X307448Y379843D01*
X307497Y379725D01*
X307728Y379349D01*
X308014Y379014D01*
X308349Y378728D01*
X308725Y378497D01*
X309132Y378329D01*
X309561Y378226D01*
X310000Y378191D01*
X310439Y378226D01*
X310868Y378329D01*
X311275Y378497D01*
X311651Y378728D01*
X311986Y379014D01*
X312007Y379038D01*
X312009Y376843D01*
X312046Y376690D01*
X312106Y376545D01*
X312134Y376500D01*
X312106Y376455D01*
X312046Y376310D01*
X312009Y376157D01*
X312000Y376000D01*
X312002Y374616D01*
X311868Y374671D01*
X311439Y374774D01*
X311000Y374809D01*
X310561Y374774D01*
X310132Y374671D01*
X309725Y374503D01*
X309349Y374272D01*
X309014Y373986D01*
X308728Y373651D01*
X308497Y373275D01*
X308329Y372868D01*
X308226Y372439D01*
X308191Y372000D01*
X308226Y371561D01*
X308329Y371132D01*
X308497Y370725D01*
X308728Y370349D01*
X309014Y370014D01*
X309349Y369728D01*
X309725Y369497D01*
X310132Y369329D01*
X310561Y369226D01*
X311000Y369191D01*
X311439Y369226D01*
X311868Y369329D01*
X312008Y369387D01*
X312009Y367843D01*
X312046Y367690D01*
X312106Y367545D01*
X312134Y367500D01*
X312106Y367455D01*
X312046Y367310D01*
X312009Y367157D01*
X312000Y367000D01*
X312000Y366970D01*
X311986Y366986D01*
X311651Y367272D01*
X311275Y367503D01*
X310868Y367671D01*
X310439Y367774D01*
X310000Y367809D01*
X309561Y367774D01*
X309132Y367671D01*
X308725Y367503D01*
X308349Y367272D01*
X308014Y366986D01*
X307728Y366651D01*
X307497Y366275D01*
X307329Y365868D01*
X307226Y365439D01*
X307191Y365000D01*
X307226Y364561D01*
X307329Y364132D01*
X307497Y363725D01*
X307728Y363349D01*
X308014Y363014D01*
X308349Y362728D01*
X308725Y362497D01*
X309132Y362329D01*
X309561Y362226D01*
X310000Y362191D01*
X310439Y362226D01*
X310868Y362329D01*
X311275Y362497D01*
X311651Y362728D01*
X311986Y363014D01*
X312004Y363036D01*
X312009Y358843D01*
X312046Y358690D01*
X312106Y358545D01*
X312134Y358500D01*
X312106Y358455D01*
X312046Y358310D01*
X312009Y358157D01*
X312000Y358000D01*
X312002Y356504D01*
X312000Y356505D01*
X311765Y356486D01*
X311535Y356431D01*
X311465Y356402D01*
X311500Y357000D01*
X311449Y357863D01*
X311247Y358705D01*
X310916Y359505D01*
X310463Y360243D01*
X309901Y360901D01*
X309243Y361463D01*
X308505Y361916D01*
X307705Y362247D01*
X306863Y362449D01*
X306000Y362517D01*
X305137Y362449D01*
X304295Y362247D01*
X303495Y361916D01*
X302757Y361463D01*
X302099Y360901D01*
X301537Y360243D01*
X301084Y359505D01*
X300753Y358705D01*
X300551Y357863D01*
X300489Y357072D01*
X300486Y358235D01*
X300431Y358465D01*
X300341Y358683D01*
X300217Y358884D01*
X300064Y359064D01*
X299884Y359217D01*
X299683Y359341D01*
X299465Y359431D01*
X299235Y359486D01*
X299150Y359491D01*
Y363348D01*
X299268Y363357D01*
X299382Y363385D01*
X299492Y363430D01*
X299592Y363491D01*
X299682Y363568D01*
X299759Y363658D01*
X299820Y363758D01*
X299865Y363868D01*
X299893Y363982D01*
X299900Y364100D01*
Y367900D01*
X299893Y368018D01*
X299865Y368132D01*
X299820Y368242D01*
X299759Y368342D01*
X299682Y368432D01*
X299592Y368509D01*
X299492Y368570D01*
X299382Y368615D01*
X299268Y368643D01*
X299150Y368652D01*
Y371194D01*
X299631Y370631D01*
X300199Y370145D01*
X300837Y369755D01*
X301528Y369469D01*
X302255Y369294D01*
X303000Y369235D01*
X303745Y369294D01*
X304472Y369469D01*
X305163Y369755D01*
X305801Y370145D01*
X306369Y370631D01*
X306855Y371199D01*
X307245Y371837D01*
X307531Y372528D01*
X307706Y373255D01*
X307750Y374000D01*
X307706Y374745D01*
X307531Y375472D01*
X307245Y376163D01*
X306855Y376801D01*
X306369Y377369D01*
X305801Y377855D01*
X305163Y378245D01*
X304472Y378531D01*
X303745Y378706D01*
X303000Y378765D01*
X302255Y378706D01*
X301528Y378531D01*
X300837Y378245D01*
X300199Y377855D01*
X299631Y377369D01*
X299150Y376806D01*
Y379375D01*
G37*
G36*
Y359491D02*X299000Y359500D01*
X295000Y359491D01*
Y361100D01*
X296900D01*
X297018Y361107D01*
X297132Y361135D01*
X297242Y361180D01*
X297342Y361241D01*
X297432Y361318D01*
X297509Y361408D01*
X297570Y361508D01*
X297615Y361618D01*
X297643Y361732D01*
X297652Y361850D01*
X297643Y361968D01*
X297615Y362082D01*
X297570Y362192D01*
X297509Y362292D01*
X297432Y362382D01*
X297342Y362459D01*
X297242Y362520D01*
X297132Y362565D01*
X297018Y362593D01*
X296900Y362600D01*
X295000D01*
Y369400D01*
X296900D01*
X297018Y369407D01*
X297132Y369435D01*
X297242Y369480D01*
X297342Y369541D01*
X297432Y369618D01*
X297509Y369708D01*
X297570Y369808D01*
X297615Y369918D01*
X297643Y370032D01*
X297652Y370150D01*
X297643Y370268D01*
X297615Y370382D01*
X297570Y370492D01*
X297509Y370592D01*
X297432Y370682D01*
X297342Y370759D01*
X297242Y370820D01*
X297132Y370865D01*
X297018Y370893D01*
X296900Y370900D01*
X295000D01*
Y373500D01*
X298275D01*
X298294Y373255D01*
X298469Y372528D01*
X298755Y371837D01*
X299145Y371199D01*
X299150Y371194D01*
Y368652D01*
X299032Y368643D01*
X298918Y368615D01*
X298808Y368570D01*
X298708Y368509D01*
X298618Y368432D01*
X298541Y368342D01*
X298480Y368242D01*
X298435Y368132D01*
X298407Y368018D01*
X298400Y367900D01*
Y364100D01*
X298407Y363982D01*
X298435Y363868D01*
X298480Y363758D01*
X298541Y363658D01*
X298618Y363568D01*
X298708Y363491D01*
X298808Y363430D01*
X298918Y363385D01*
X299032Y363357D01*
X299150Y363348D01*
Y359491D01*
G37*
G36*
X295000Y401585D02*X295046Y401473D01*
X295457Y400802D01*
X295969Y400204D01*
X296567Y399692D01*
X297238Y399281D01*
X297965Y398980D01*
X298500Y398852D01*
Y397679D01*
X298481Y397675D01*
X297769Y397379D01*
X297111Y396976D01*
X296524Y396476D01*
X296024Y395889D01*
X295621Y395231D01*
X295325Y394519D01*
X295145Y393769D01*
X295085Y393000D01*
X295145Y392231D01*
X295325Y391481D01*
X295621Y390769D01*
X296024Y390111D01*
X296524Y389524D01*
X297111Y389024D01*
X297769Y388621D01*
X298481Y388325D01*
X298659Y388283D01*
X298533Y388134D01*
X298409Y387933D01*
X298319Y387715D01*
X298264Y387485D01*
X298250Y387250D01*
X298264Y380515D01*
X298319Y380285D01*
X298409Y380067D01*
X298533Y379866D01*
X298686Y379686D01*
X298866Y379533D01*
X299067Y379409D01*
X299150Y379375D01*
Y376806D01*
X299145Y376801D01*
X298961Y376500D01*
X295000D01*
Y401585D01*
G37*
G36*
Y407000D02*X295715D01*
X295457Y406698D01*
X295046Y406027D01*
X295000Y405915D01*
Y407000D01*
G37*
G36*
Y359491D02*X292765Y359486D01*
X292535Y359431D01*
X292317Y359341D01*
X292116Y359217D01*
X291936Y359064D01*
X291783Y358884D01*
X291659Y358683D01*
X291569Y358465D01*
X291514Y358235D01*
X291500Y358000D01*
X291501Y357620D01*
X290850Y358271D01*
Y363348D01*
X290968Y363357D01*
X291082Y363385D01*
X291192Y363430D01*
X291292Y363491D01*
X291382Y363568D01*
X291459Y363658D01*
X291520Y363758D01*
X291565Y363868D01*
X291593Y363982D01*
X291600Y364100D01*
Y367900D01*
X291593Y368018D01*
X291565Y368132D01*
X291520Y368242D01*
X291459Y368342D01*
X291382Y368432D01*
X291292Y368509D01*
X291192Y368570D01*
X291082Y368615D01*
X290968Y368643D01*
X290850Y368652D01*
Y370729D01*
X293621Y373500D01*
X295000D01*
Y370900D01*
X293100D01*
X292982Y370893D01*
X292868Y370865D01*
X292758Y370820D01*
X292658Y370759D01*
X292568Y370682D01*
X292491Y370592D01*
X292430Y370492D01*
X292385Y370382D01*
X292357Y370268D01*
X292348Y370150D01*
X292357Y370032D01*
X292385Y369918D01*
X292430Y369808D01*
X292491Y369708D01*
X292568Y369618D01*
X292658Y369541D01*
X292758Y369480D01*
X292868Y369435D01*
X292982Y369407D01*
X293100Y369400D01*
X295000D01*
Y362600D01*
X293100D01*
X292982Y362593D01*
X292868Y362565D01*
X292758Y362520D01*
X292658Y362459D01*
X292568Y362382D01*
X292491Y362292D01*
X292430Y362192D01*
X292385Y362082D01*
X292357Y361968D01*
X292348Y361850D01*
X292357Y361732D01*
X292385Y361618D01*
X292430Y361508D01*
X292491Y361408D01*
X292568Y361318D01*
X292658Y361241D01*
X292758Y361180D01*
X292868Y361135D01*
X292982Y361107D01*
X293100Y361100D01*
X295000D01*
Y359491D01*
G37*
G36*
X290850Y358271D02*X286102Y363019D01*
X286064Y363064D01*
X285884Y363217D01*
X285683Y363341D01*
X285465Y363431D01*
X285235Y363486D01*
X285235Y363486D01*
X285000Y363505D01*
X284941Y363500D01*
X263059D01*
X263000Y363505D01*
X262765Y363486D01*
X262535Y363431D01*
X262317Y363341D01*
X262116Y363217D01*
X262115Y363217D01*
X261936Y363064D01*
X261898Y363019D01*
X261508Y362629D01*
Y364500D01*
X283941D01*
X284000Y364495D01*
X284235Y364514D01*
X284235Y364514D01*
X284465Y364569D01*
X284683Y364659D01*
X284884Y364783D01*
X285064Y364936D01*
X285102Y364981D01*
X290850Y370729D01*
Y368652D01*
X290732Y368643D01*
X290618Y368615D01*
X290508Y368570D01*
X290408Y368509D01*
X290318Y368432D01*
X290241Y368342D01*
X290180Y368242D01*
X290135Y368132D01*
X290107Y368018D01*
X290100Y367900D01*
Y364100D01*
X290107Y363982D01*
X290135Y363868D01*
X290180Y363758D01*
X290241Y363658D01*
X290318Y363568D01*
X290408Y363491D01*
X290508Y363430D01*
X290618Y363385D01*
X290732Y363357D01*
X290850Y363348D01*
Y358271D01*
G37*
G36*
X263315Y407000D02*X295000D01*
Y405915D01*
X294745Y405300D01*
X294561Y404535D01*
X294500Y403750D01*
X294561Y402965D01*
X294745Y402200D01*
X295000Y401585D01*
Y376500D01*
X293059D01*
X293000Y376505D01*
X292765Y376486D01*
X292535Y376431D01*
X292317Y376341D01*
X292116Y376217D01*
X292115Y376217D01*
X291936Y376064D01*
X291898Y376019D01*
X283379Y367500D01*
X261508D01*
Y376638D01*
X261847Y376348D01*
X262451Y375978D01*
X263105Y375707D01*
X263794Y375542D01*
X264500Y375486D01*
X265206Y375542D01*
X265895Y375707D01*
X266549Y375978D01*
X267153Y376348D01*
X267692Y376808D01*
X268152Y377347D01*
X268522Y377951D01*
X268793Y378605D01*
X268958Y379294D01*
X269000Y380000D01*
X268958Y380706D01*
X268793Y381395D01*
X268522Y382049D01*
X268152Y382653D01*
X267692Y383192D01*
X267153Y383652D01*
X266549Y384022D01*
X265895Y384293D01*
X265206Y384458D01*
X264500Y384514D01*
X263794Y384458D01*
X263105Y384293D01*
X262451Y384022D01*
X262233Y383888D01*
X261508Y384613D01*
Y388110D01*
X263635Y388114D01*
X263740Y388139D01*
X266898Y384981D01*
X266936Y384936D01*
X267116Y384783D01*
X267317Y384659D01*
X267535Y384569D01*
X267765Y384514D01*
X268000Y384495D01*
X268059Y384500D01*
X278000D01*
X271765Y384486D01*
X271535Y384431D01*
X271317Y384341D01*
X271116Y384217D01*
X270936Y384064D01*
X270783Y383884D01*
X270659Y383683D01*
X270569Y383465D01*
X270514Y383235D01*
X270500Y383000D01*
X270514Y376765D01*
X270569Y376535D01*
X270659Y376317D01*
X270783Y376116D01*
X270936Y375936D01*
X271116Y375783D01*
X271317Y375659D01*
X271535Y375569D01*
X271765Y375514D01*
X272000Y375500D01*
X273500Y375503D01*
Y373621D01*
X272921Y373042D01*
X272651Y373272D01*
X272275Y373503D01*
X271868Y373671D01*
X271439Y373774D01*
X271000Y373809D01*
X270561Y373774D01*
X270132Y373671D01*
X269725Y373503D01*
X269349Y373272D01*
X269014Y372986D01*
X268728Y372651D01*
X268497Y372275D01*
X268329Y371868D01*
X268226Y371439D01*
X268191Y371000D01*
X268226Y370561D01*
X268329Y370132D01*
X268497Y369725D01*
X268728Y369349D01*
X269014Y369014D01*
X269349Y368728D01*
X269725Y368497D01*
X270132Y368329D01*
X270561Y368226D01*
X271000Y368191D01*
X271439Y368226D01*
X271868Y368329D01*
X272275Y368497D01*
X272651Y368728D01*
X272986Y369014D01*
X273272Y369349D01*
X273397Y369553D01*
X273465Y369569D01*
X273683Y369659D01*
X273884Y369783D01*
X274064Y369936D01*
X274102Y369981D01*
X276019Y371898D01*
X276064Y371936D01*
X276217Y372115D01*
X276217Y372116D01*
X276341Y372317D01*
X276431Y372535D01*
X276486Y372765D01*
X276505Y373000D01*
X276500Y373059D01*
Y375510D01*
X278235Y375514D01*
X278465Y375569D01*
X278683Y375659D01*
X278884Y375783D01*
X279064Y375936D01*
X279217Y376116D01*
X279341Y376317D01*
X279431Y376535D01*
X279486Y376765D01*
X279500Y377000D01*
X279486Y383235D01*
X279436Y383442D01*
X280935Y381944D01*
X280707Y381395D01*
X280542Y380706D01*
X280486Y380000D01*
X280542Y379294D01*
X280707Y378605D01*
X280978Y377951D01*
X281348Y377347D01*
X281808Y376808D01*
X282347Y376348D01*
X282951Y375978D01*
X283605Y375707D01*
X284294Y375542D01*
X285000Y375486D01*
X285706Y375542D01*
X286395Y375707D01*
X287049Y375978D01*
X287653Y376348D01*
X288192Y376808D01*
X288652Y377347D01*
X289022Y377951D01*
X289293Y378605D01*
X289458Y379294D01*
X289500Y380000D01*
X289458Y380706D01*
X289293Y381395D01*
X289022Y382049D01*
X288652Y382653D01*
X288192Y383192D01*
X287653Y383652D01*
X287049Y384022D01*
X286395Y384293D01*
X285706Y384458D01*
X285000Y384514D01*
X284294Y384458D01*
X283605Y384293D01*
X283056Y384065D01*
X280102Y387019D01*
X280064Y387064D01*
X279884Y387217D01*
X279683Y387341D01*
X279465Y387431D01*
X279235Y387486D01*
X279235Y387486D01*
X279000Y387505D01*
X278941Y387500D01*
X268621D01*
X264897Y391225D01*
X264886Y396635D01*
X264831Y396865D01*
X264741Y397083D01*
X264617Y397284D01*
X264464Y397464D01*
X264284Y397617D01*
X264083Y397741D01*
X263865Y397831D01*
X263635Y397886D01*
X263400Y397900D01*
X261508Y397896D01*
Y399164D01*
X261779Y399286D01*
X262187Y399518D01*
X262251Y399565D01*
X262307Y399622D01*
X262352Y399686D01*
X262387Y399758D01*
X262411Y399833D01*
X262422Y399912D01*
X262421Y399991D01*
X262408Y400070D01*
X262382Y400145D01*
X262345Y400215D01*
X262298Y400279D01*
X262241Y400334D01*
X262176Y400380D01*
X262105Y400415D01*
X262029Y400438D01*
X261950Y400450D01*
X261871Y400449D01*
X261793Y400435D01*
X261718Y400410D01*
X261648Y400371D01*
X261508Y400290D01*
Y402500D01*
X263000D01*
X263235Y402514D01*
X263322Y402535D01*
X263236Y402283D01*
X263083Y401941D01*
X262897Y401615D01*
X262859Y401546D01*
X262834Y401471D01*
X262821Y401394D01*
X262820Y401315D01*
X262831Y401237D01*
X262854Y401162D01*
X262889Y401091D01*
X262934Y401027D01*
X262989Y400971D01*
X263052Y400923D01*
X263122Y400887D01*
X263196Y400862D01*
X263274Y400848D01*
X263353Y400847D01*
X263431Y400858D01*
X263506Y400882D01*
X263576Y400916D01*
X263641Y400962D01*
X263697Y401017D01*
X263743Y401081D01*
X263979Y401486D01*
X264172Y401915D01*
X264323Y402359D01*
X264433Y402816D01*
X264498Y403281D01*
X264521Y403750D01*
X264498Y404219D01*
X264433Y404684D01*
X264323Y405141D01*
X264172Y405585D01*
X263979Y406014D01*
X263747Y406422D01*
X263700Y406486D01*
X263643Y406542D01*
X263579Y406587D01*
X263507Y406622D01*
X263432Y406646D01*
X263353Y406657D01*
X263274Y406656D01*
X263195Y406643D01*
X263120Y406617D01*
X263050Y406580D01*
X262986Y406533D01*
X262931Y406476D01*
X262885Y406411D01*
X262850Y406340D01*
X262827Y406264D01*
X262815Y406185D01*
X262816Y406106D01*
X262830Y406028D01*
X262855Y405953D01*
X262894Y405883D01*
X263083Y405559D01*
X263112Y405493D01*
X263000Y405500D01*
X261508D01*
Y407000D01*
X263315D01*
G37*
G36*
X255362D02*X261508D01*
Y405500D01*
X260000D01*
X259765Y405486D01*
X259535Y405431D01*
X259317Y405341D01*
X259116Y405217D01*
X258936Y405064D01*
X258783Y404884D01*
X258659Y404683D01*
X258569Y404465D01*
X258514Y404235D01*
X258495Y404000D01*
X258514Y403765D01*
X258569Y403535D01*
X258659Y403317D01*
X258783Y403116D01*
X258936Y402936D01*
X259116Y402783D01*
X259317Y402659D01*
X259535Y402569D01*
X259765Y402514D01*
X260000Y402500D01*
X261508D01*
Y400290D01*
X261324Y400182D01*
X260982Y400029D01*
X260627Y399908D01*
X260261Y399820D01*
X259890Y399768D01*
X259515Y399750D01*
X259140Y399768D01*
X258768Y399820D01*
X258403Y399908D01*
X258048Y400029D01*
X257706Y400182D01*
X257380Y400368D01*
X257311Y400406D01*
X257236Y400431D01*
X257159Y400444D01*
X257080Y400445D01*
X257002Y400434D01*
X256927Y400411D01*
X256856Y400376D01*
X256792Y400331D01*
X256736Y400276D01*
X256688Y400213D01*
X256652Y400143D01*
X256626Y400069D01*
X256613Y399991D01*
X256612Y399912D01*
X256623Y399834D01*
X256647Y399759D01*
X256681Y399689D01*
X256727Y399624D01*
X256782Y399568D01*
X256846Y399522D01*
X257251Y399286D01*
X257680Y399093D01*
X258124Y398942D01*
X258581Y398832D01*
X259046Y398767D01*
X259515Y398744D01*
X259984Y398767D01*
X260449Y398832D01*
X260906Y398942D01*
X261350Y399093D01*
X261508Y399164D01*
Y397896D01*
X256365Y397886D01*
X256135Y397831D01*
X255917Y397741D01*
X255716Y397617D01*
X255536Y397464D01*
X255383Y397284D01*
X255362Y397251D01*
Y400982D01*
X255387Y400958D01*
X255451Y400913D01*
X255523Y400878D01*
X255598Y400854D01*
X255677Y400843D01*
X255756Y400844D01*
X255835Y400857D01*
X255910Y400883D01*
X255980Y400920D01*
X256044Y400967D01*
X256099Y401024D01*
X256145Y401089D01*
X256180Y401160D01*
X256203Y401236D01*
X256215Y401315D01*
X256214Y401394D01*
X256200Y401472D01*
X256175Y401547D01*
X256136Y401617D01*
X255947Y401941D01*
X255794Y402283D01*
X255673Y402638D01*
X255585Y403004D01*
X255533Y403375D01*
X255515Y403750D01*
X255533Y404125D01*
X255585Y404496D01*
X255673Y404862D01*
X255794Y405217D01*
X255947Y405559D01*
X256133Y405886D01*
X256171Y405954D01*
X256196Y406029D01*
X256209Y406106D01*
X256210Y406185D01*
X256199Y406263D01*
X256176Y406338D01*
X256141Y406409D01*
X256096Y406473D01*
X256041Y406529D01*
X255978Y406577D01*
X255908Y406613D01*
X255834Y406638D01*
X255756Y406652D01*
X255677Y406653D01*
X255599Y406642D01*
X255524Y406618D01*
X255454Y406584D01*
X255389Y406538D01*
X255362Y406512D01*
Y407000D01*
G37*
G36*
X261508Y384613D02*X260102Y386019D01*
X260064Y386064D01*
X259884Y386217D01*
X259683Y386341D01*
X259465Y386431D01*
X259235Y386486D01*
X259235Y386486D01*
X259000Y386505D01*
X258941Y386500D01*
X255362D01*
Y388749D01*
X255383Y388716D01*
X255536Y388536D01*
X255716Y388383D01*
X255917Y388259D01*
X256135Y388169D01*
X256365Y388114D01*
X256600Y388100D01*
X261508Y388110D01*
Y384613D01*
G37*
G36*
X255362Y386500D02*X253493D01*
Y389145D01*
X253578Y389181D01*
X253679Y389243D01*
X253769Y389319D01*
X253845Y389409D01*
X253905Y389511D01*
X254122Y389980D01*
X254289Y390469D01*
X254409Y390972D01*
X254482Y391484D01*
X254506Y392000D01*
X254482Y392516D01*
X254409Y393028D01*
X254289Y393531D01*
X254122Y394020D01*
X253910Y394492D01*
X253849Y394593D01*
X253772Y394684D01*
X253682Y394761D01*
X253580Y394823D01*
X253493Y394860D01*
Y407000D01*
X255362D01*
Y406512D01*
X255333Y406483D01*
X255287Y406419D01*
X255051Y406014D01*
X254858Y405585D01*
X254707Y405141D01*
X254597Y404684D01*
X254532Y404219D01*
X254509Y403750D01*
X254532Y403281D01*
X254597Y402816D01*
X254707Y402359D01*
X254858Y401915D01*
X255051Y401486D01*
X255283Y401078D01*
X255330Y401014D01*
X255362Y400982D01*
Y397251D01*
X255259Y397083D01*
X255169Y396865D01*
X255114Y396635D01*
X255100Y396400D01*
X255114Y389365D01*
X255169Y389135D01*
X255259Y388917D01*
X255362Y388749D01*
Y386500D01*
G37*
G36*
X253493D02*X249129D01*
X249516Y386518D01*
X250028Y386591D01*
X250531Y386711D01*
X251020Y386878D01*
X251492Y387090D01*
X251593Y387151D01*
X251684Y387228D01*
X251761Y387318D01*
X251823Y387420D01*
X251869Y387529D01*
X251897Y387645D01*
X251906Y387763D01*
X251897Y387881D01*
X251870Y387997D01*
X251824Y388107D01*
X251762Y388208D01*
X251686Y388298D01*
X251595Y388376D01*
X251494Y388438D01*
X251385Y388484D01*
X251269Y388511D01*
X251151Y388521D01*
X251032Y388512D01*
X250917Y388484D01*
X250808Y388437D01*
X250468Y388279D01*
X250112Y388158D01*
X249747Y388070D01*
X249375Y388018D01*
X249000Y388000D01*
X248998Y388000D01*
Y396000D01*
X249000Y396000D01*
X249375Y395982D01*
X249747Y395930D01*
X250112Y395842D01*
X250468Y395721D01*
X250810Y395567D01*
X250918Y395520D01*
X251033Y395493D01*
X251151Y395483D01*
X251268Y395493D01*
X251383Y395521D01*
X251492Y395566D01*
X251593Y395628D01*
X251682Y395705D01*
X251759Y395795D01*
X251820Y395895D01*
X251865Y396004D01*
X251893Y396119D01*
X251902Y396237D01*
X251892Y396355D01*
X251865Y396469D01*
X251819Y396578D01*
X251757Y396679D01*
X251681Y396769D01*
X251591Y396845D01*
X251489Y396905D01*
X251020Y397122D01*
X250531Y397289D01*
X250028Y397409D01*
X249516Y397482D01*
X249000Y397506D01*
X248998Y397506D01*
Y406483D01*
X249000Y406483D01*
X249863Y406551D01*
X250705Y406753D01*
X251301Y407000D01*
X253493D01*
Y394860D01*
X253471Y394869D01*
X253355Y394897D01*
X253237Y394906D01*
X253119Y394897D01*
X253003Y394870D01*
X252893Y394824D01*
X252792Y394762D01*
X252702Y394686D01*
X252624Y394595D01*
X252562Y394494D01*
X252516Y394385D01*
X252489Y394269D01*
X252479Y394151D01*
X252488Y394032D01*
X252516Y393917D01*
X252563Y393808D01*
X252721Y393468D01*
X252842Y393112D01*
X252930Y392747D01*
X252982Y392375D01*
X253000Y392000D01*
X252982Y391625D01*
X252930Y391253D01*
X252842Y390888D01*
X252721Y390532D01*
X252567Y390190D01*
X252520Y390082D01*
X252493Y389967D01*
X252483Y389849D01*
X252493Y389732D01*
X252521Y389617D01*
X252566Y389508D01*
X252628Y389407D01*
X252705Y389318D01*
X252795Y389241D01*
X252895Y389180D01*
X253004Y389135D01*
X253119Y389107D01*
X253237Y389098D01*
X253355Y389108D01*
X253469Y389135D01*
X253493Y389145D01*
Y386500D01*
G37*
G36*
X248998Y388000D02*X248625Y388018D01*
X248253Y388070D01*
X247888Y388158D01*
X247532Y388279D01*
X247190Y388433D01*
X247082Y388480D01*
X246967Y388507D01*
X246849Y388517D01*
X246732Y388507D01*
X246617Y388479D01*
X246508Y388434D01*
X246407Y388372D01*
X246318Y388295D01*
X246241Y388205D01*
X246180Y388105D01*
X246135Y387996D01*
X246107Y387881D01*
X246098Y387763D01*
X246108Y387645D01*
X246135Y387531D01*
X246181Y387422D01*
X246243Y387321D01*
X246319Y387231D01*
X246409Y387155D01*
X246511Y387095D01*
X246980Y386878D01*
X247469Y386711D01*
X247972Y386591D01*
X248484Y386518D01*
X248915Y386498D01*
X248765Y386486D01*
X248535Y386431D01*
X248317Y386341D01*
X248116Y386217D01*
X248115Y386217D01*
X247936Y386064D01*
X247898Y386019D01*
X244507Y382629D01*
Y389140D01*
X244529Y389131D01*
X244645Y389103D01*
X244763Y389094D01*
X244881Y389103D01*
X244997Y389130D01*
X245107Y389176D01*
X245208Y389238D01*
X245298Y389314D01*
X245376Y389405D01*
X245438Y389506D01*
X245484Y389615D01*
X245511Y389731D01*
X245521Y389849D01*
X245512Y389968D01*
X245484Y390083D01*
X245437Y390192D01*
X245279Y390532D01*
X245158Y390888D01*
X245070Y391253D01*
X245018Y391625D01*
X245000Y392000D01*
X245018Y392375D01*
X245070Y392747D01*
X245158Y393112D01*
X245279Y393468D01*
X245433Y393810D01*
X245480Y393918D01*
X245507Y394033D01*
X245517Y394151D01*
X245507Y394268D01*
X245479Y394383D01*
X245434Y394492D01*
X245372Y394593D01*
X245295Y394682D01*
X245205Y394759D01*
X245105Y394820D01*
X244996Y394865D01*
X244881Y394893D01*
X244763Y394902D01*
X244645Y394892D01*
X244531Y394865D01*
X244507Y394855D01*
Y407000D01*
X246699D01*
X247295Y406753D01*
X248137Y406551D01*
X248998Y406483D01*
Y397506D01*
X248484Y397482D01*
X247972Y397409D01*
X247469Y397289D01*
X246980Y397122D01*
X246508Y396910D01*
X246407Y396849D01*
X246316Y396772D01*
X246239Y396682D01*
X246177Y396580D01*
X246131Y396471D01*
X246103Y396355D01*
X246094Y396237D01*
X246103Y396119D01*
X246130Y396003D01*
X246176Y395893D01*
X246238Y395792D01*
X246314Y395702D01*
X246405Y395624D01*
X246506Y395562D01*
X246615Y395516D01*
X246731Y395489D01*
X246849Y395479D01*
X246968Y395488D01*
X247083Y395516D01*
X247192Y395563D01*
X247532Y395721D01*
X247888Y395842D01*
X248253Y395930D01*
X248625Y395982D01*
X248998Y396000D01*
Y388000D01*
G37*
G36*
X244507Y382629D02*X244379Y382500D01*
X236992D01*
Y383484D01*
X237000Y383483D01*
X237863Y383551D01*
X238705Y383753D01*
X239505Y384084D01*
X240243Y384537D01*
X240901Y385099D01*
X241463Y385757D01*
X241916Y386495D01*
X242247Y387295D01*
X242449Y388137D01*
X242500Y389000D01*
X242449Y389863D01*
X242247Y390705D01*
X241916Y391505D01*
X241463Y392243D01*
X240901Y392901D01*
X240243Y393463D01*
X239505Y393916D01*
X238705Y394247D01*
X237863Y394449D01*
X237000Y394517D01*
X236992Y394516D01*
Y403494D01*
X237000Y403494D01*
X237516Y403518D01*
X238028Y403591D01*
X238531Y403711D01*
X239020Y403878D01*
X239492Y404090D01*
X239593Y404151D01*
X239684Y404228D01*
X239761Y404318D01*
X239823Y404420D01*
X239869Y404529D01*
X239897Y404645D01*
X239906Y404763D01*
X239897Y404881D01*
X239870Y404997D01*
X239824Y405107D01*
X239762Y405208D01*
X239686Y405298D01*
X239595Y405376D01*
X239494Y405438D01*
X239385Y405484D01*
X239269Y405511D01*
X239151Y405521D01*
X239032Y405512D01*
X238917Y405484D01*
X238808Y405437D01*
X238468Y405279D01*
X238112Y405158D01*
X237747Y405070D01*
X237375Y405018D01*
X237000Y405000D01*
X236992Y405000D01*
Y407000D01*
X240500D01*
X240493Y406967D01*
X240483Y406849D01*
X240493Y406732D01*
X240521Y406617D01*
X240566Y406508D01*
X240628Y406407D01*
X240705Y406318D01*
X240795Y406241D01*
X240895Y406180D01*
X241004Y406135D01*
X241119Y406107D01*
X241237Y406098D01*
X241355Y406108D01*
X241469Y406135D01*
X241578Y406181D01*
X241679Y406243D01*
X241769Y406319D01*
X241845Y406409D01*
X241905Y406511D01*
X242122Y406980D01*
X242129Y407000D01*
X244507D01*
Y394855D01*
X244422Y394819D01*
X244321Y394757D01*
X244231Y394681D01*
X244155Y394591D01*
X244095Y394489D01*
X243878Y394020D01*
X243711Y393531D01*
X243591Y393028D01*
X243518Y392516D01*
X243494Y392000D01*
X243518Y391484D01*
X243591Y390972D01*
X243711Y390469D01*
X243878Y389980D01*
X244090Y389508D01*
X244151Y389407D01*
X244228Y389316D01*
X244318Y389239D01*
X244420Y389177D01*
X244507Y389140D01*
Y382629D01*
G37*
G36*
X236992Y382500D02*X233621D01*
X230500Y385621D01*
Y392941D01*
X230505Y393000D01*
X230486Y393235D01*
X230431Y393465D01*
X230341Y393683D01*
X230217Y393884D01*
X230064Y394064D01*
X230019Y394102D01*
X229000Y395121D01*
Y407000D01*
X231871D01*
X231878Y406980D01*
X232090Y406508D01*
X232151Y406407D01*
X232228Y406316D01*
X232318Y406239D01*
X232420Y406177D01*
X232529Y406131D01*
X232645Y406103D01*
X232763Y406094D01*
X232881Y406103D01*
X232997Y406130D01*
X233107Y406176D01*
X233208Y406238D01*
X233298Y406314D01*
X233376Y406405D01*
X233438Y406506D01*
X233484Y406615D01*
X233511Y406731D01*
X233521Y406849D01*
X233512Y406968D01*
X233504Y407000D01*
X236992D01*
Y405000D01*
X236625Y405018D01*
X236253Y405070D01*
X235888Y405158D01*
X235532Y405279D01*
X235495Y405296D01*
X235190Y405433D01*
X235082Y405480D01*
X234967Y405507D01*
X234849Y405517D01*
X234732Y405507D01*
X234617Y405479D01*
X234508Y405434D01*
X234407Y405372D01*
X234318Y405295D01*
X234241Y405205D01*
X234180Y405105D01*
X234135Y404996D01*
X234107Y404881D01*
X234098Y404763D01*
X234108Y404645D01*
X234135Y404531D01*
X234181Y404422D01*
X234243Y404321D01*
X234319Y404231D01*
X234409Y404155D01*
X234511Y404095D01*
X234980Y403878D01*
X235469Y403711D01*
X235972Y403591D01*
X236484Y403518D01*
X236992Y403494D01*
Y394516D01*
X236137Y394449D01*
X235295Y394247D01*
X234495Y393916D01*
X233757Y393463D01*
X233099Y392901D01*
X232537Y392243D01*
X232084Y391505D01*
X231753Y390705D01*
X231551Y389863D01*
X231483Y389000D01*
X231551Y388137D01*
X231753Y387295D01*
X232084Y386495D01*
X232537Y385757D01*
X233099Y385099D01*
X233757Y384537D01*
X234495Y384084D01*
X235295Y383753D01*
X236137Y383551D01*
X236992Y383484D01*
Y382500D01*
G37*
G36*
X261508Y367500D02*X259679D01*
X259675Y367519D01*
X259379Y368231D01*
X258976Y368889D01*
X258476Y369476D01*
X257889Y369976D01*
X257231Y370379D01*
X256519Y370675D01*
X255769Y370855D01*
X255036Y370912D01*
X255064Y370936D01*
X255217Y371115D01*
X255217Y371116D01*
X255341Y371317D01*
X255431Y371535D01*
X255486Y371765D01*
X255505Y372000D01*
X255500Y372059D01*
Y375509D01*
X257735Y375514D01*
X257965Y375569D01*
X258183Y375659D01*
X258384Y375783D01*
X258564Y375936D01*
X258717Y376116D01*
X258841Y376317D01*
X258931Y376535D01*
X258986Y376765D01*
X259000Y377000D01*
X258987Y382892D01*
X260288Y381591D01*
X260207Y381395D01*
X260042Y380706D01*
X259986Y380000D01*
X260042Y379294D01*
X260207Y378605D01*
X260478Y377951D01*
X260848Y377347D01*
X261308Y376808D01*
X261508Y376638D01*
Y367500D01*
G37*
G36*
Y362629D02*X259981Y361102D01*
X259936Y361064D01*
X259783Y360884D01*
X259659Y360683D01*
X259569Y360465D01*
X259514Y360235D01*
X259514Y360235D01*
X259495Y360000D01*
X259500Y359941D01*
Y357831D01*
X259192Y358192D01*
X258653Y358652D01*
X258049Y359022D01*
X257395Y359293D01*
X256706Y359458D01*
X256000Y359514D01*
X255294Y359458D01*
X254605Y359293D01*
X253951Y359022D01*
X253347Y358652D01*
X252808Y358192D01*
X252348Y357653D01*
X251978Y357049D01*
X251707Y356395D01*
X251542Y355706D01*
X251486Y355000D01*
X251542Y354294D01*
X251707Y353605D01*
X251978Y352951D01*
X252348Y352347D01*
X252808Y351808D01*
X253347Y351348D01*
X253951Y350978D01*
X254500Y350751D01*
Y350621D01*
X239981Y336102D01*
X239936Y336064D01*
X239783Y335884D01*
X239659Y335683D01*
X239569Y335465D01*
X239514Y335235D01*
X239514Y335235D01*
X239495Y335000D01*
X239500Y334941D01*
Y330000D01*
X229000D01*
Y333030D01*
X229014Y333014D01*
X229349Y332728D01*
X229725Y332497D01*
X230132Y332329D01*
X230561Y332226D01*
X231000Y332191D01*
X231439Y332226D01*
X231868Y332329D01*
X232275Y332497D01*
X232651Y332728D01*
X232986Y333014D01*
X233272Y333349D01*
X233503Y333725D01*
X233671Y334132D01*
X233774Y334561D01*
X233800Y335000D01*
X233774Y335439D01*
X233733Y335611D01*
X247019Y348898D01*
X247064Y348936D01*
X247217Y349115D01*
X247217Y349116D01*
X247341Y349317D01*
X247431Y349535D01*
X247486Y349765D01*
X247505Y350000D01*
X247500Y350059D01*
Y350751D01*
X248049Y350978D01*
X248653Y351348D01*
X249192Y351808D01*
X249652Y352347D01*
X250022Y352951D01*
X250293Y353605D01*
X250458Y354294D01*
X250500Y355000D01*
X250458Y355706D01*
X250293Y356395D01*
X250022Y357049D01*
X249652Y357653D01*
X249192Y358192D01*
X248653Y358652D01*
X248049Y359022D01*
X247500Y359249D01*
Y361379D01*
X250407Y364285D01*
X250621Y363769D01*
X251024Y363111D01*
X251524Y362524D01*
X252111Y362024D01*
X252769Y361621D01*
X253481Y361325D01*
X254231Y361145D01*
X255000Y361085D01*
X255769Y361145D01*
X256519Y361325D01*
X257231Y361621D01*
X257889Y362024D01*
X258476Y362524D01*
X258976Y363111D01*
X259379Y363769D01*
X259675Y364481D01*
X259679Y364500D01*
X261508D01*
Y362629D01*
G37*
G36*
X302000Y342000D02*X303708D01*
X303508Y341910D01*
X303407Y341849D01*
X303316Y341772D01*
X303239Y341682D01*
X303177Y341580D01*
X303131Y341471D01*
X303103Y341355D01*
X303094Y341237D01*
X303103Y341119D01*
X303130Y341003D01*
X303176Y340893D01*
X303238Y340792D01*
X303314Y340702D01*
X303405Y340624D01*
X303506Y340562D01*
X303615Y340516D01*
X303731Y340489D01*
X303849Y340479D01*
X303968Y340488D01*
X304083Y340516D01*
X304192Y340563D01*
X304532Y340721D01*
X304888Y340842D01*
X305253Y340930D01*
X305625Y340982D01*
X306000Y341000D01*
X306375Y340982D01*
X306747Y340930D01*
X307112Y340842D01*
X307468Y340721D01*
X307810Y340567D01*
X307918Y340520D01*
X308033Y340493D01*
X308151Y340483D01*
X308168Y340485D01*
X308314Y340314D01*
X308649Y340028D01*
X309025Y339797D01*
X309432Y339629D01*
X309618Y339584D01*
X309562Y339494D01*
X309516Y339385D01*
X309489Y339269D01*
X309479Y339151D01*
X309488Y339032D01*
X309516Y338917D01*
X309563Y338808D01*
X309721Y338468D01*
X309842Y338112D01*
X309930Y337747D01*
X309982Y337375D01*
X310000Y337000D01*
X309982Y336625D01*
X309930Y336253D01*
X309842Y335888D01*
X309721Y335532D01*
X309567Y335190D01*
X309520Y335082D01*
X309493Y334967D01*
X309483Y334849D01*
X309493Y334732D01*
X309521Y334617D01*
X309566Y334508D01*
X309628Y334407D01*
X309705Y334318D01*
X309795Y334241D01*
X309895Y334180D01*
X310004Y334135D01*
X310119Y334107D01*
X310237Y334098D01*
X310355Y334108D01*
X310469Y334135D01*
X310578Y334181D01*
X310679Y334243D01*
X310769Y334319D01*
X310845Y334409D01*
X310905Y334511D01*
X311122Y334980D01*
X311289Y335469D01*
X311409Y335972D01*
X311482Y336484D01*
X311506Y337000D01*
X311482Y337516D01*
X311409Y338028D01*
X311289Y338531D01*
X311259Y338620D01*
X312002Y337876D01*
X312009Y331843D01*
X312046Y331690D01*
X312106Y331545D01*
X312188Y331410D01*
X312291Y331291D01*
X312410Y331188D01*
X312545Y331106D01*
X312690Y331046D01*
X312843Y331009D01*
X313000Y331000D01*
X329000Y331006D01*
Y330000D01*
X306121D01*
X304380Y331741D01*
X304469Y331711D01*
X304972Y331591D01*
X305484Y331518D01*
X306000Y331494D01*
X306516Y331518D01*
X307028Y331591D01*
X307531Y331711D01*
X308020Y331878D01*
X308492Y332090D01*
X308593Y332151D01*
X308684Y332228D01*
X308761Y332318D01*
X308823Y332420D01*
X308869Y332529D01*
X308897Y332645D01*
X308906Y332763D01*
X308897Y332881D01*
X308870Y332997D01*
X308824Y333107D01*
X308762Y333208D01*
X308686Y333298D01*
X308595Y333376D01*
X308494Y333438D01*
X308385Y333484D01*
X308269Y333511D01*
X308151Y333521D01*
X308032Y333512D01*
X307917Y333484D01*
X307808Y333437D01*
X307468Y333279D01*
X307112Y333158D01*
X306747Y333070D01*
X306375Y333018D01*
X306000Y333000D01*
X305625Y333018D01*
X305253Y333070D01*
X304888Y333158D01*
X304532Y333279D01*
X304190Y333433D01*
X304082Y333480D01*
X303967Y333507D01*
X303849Y333517D01*
X303732Y333507D01*
X303617Y333479D01*
X303508Y333434D01*
X303407Y333372D01*
X303318Y333295D01*
X303241Y333205D01*
X303180Y333105D01*
X303135Y332996D01*
X303133Y332988D01*
X302000Y334121D01*
Y334132D01*
X302107Y334176D01*
X302208Y334238D01*
X302298Y334314D01*
X302376Y334405D01*
X302438Y334506D01*
X302484Y334615D01*
X302511Y334731D01*
X302521Y334849D01*
X302512Y334968D01*
X302484Y335083D01*
X302437Y335192D01*
X302279Y335532D01*
X302158Y335888D01*
X302070Y336253D01*
X302018Y336625D01*
X302000Y337000D01*
X302018Y337375D01*
X302070Y337747D01*
X302158Y338112D01*
X302279Y338468D01*
X302433Y338810D01*
X302480Y338918D01*
X302507Y339033D01*
X302517Y339151D01*
X302507Y339268D01*
X302479Y339383D01*
X302434Y339492D01*
X302372Y339593D01*
X302295Y339682D01*
X302205Y339759D01*
X302105Y339820D01*
X302000Y339864D01*
Y342000D01*
G37*
G36*
X302886Y454000D02*X310000D01*
Y420012D01*
X309456Y420168D01*
X308878Y420276D01*
X308294Y420330D01*
X307706D01*
X307122Y420276D01*
X306544Y420168D01*
X305980Y420007D01*
X305432Y419794D01*
X305295Y419721D01*
X305171Y419626D01*
X305064Y419513D01*
X304975Y419385D01*
X304908Y419245D01*
X304864Y419096D01*
X304843Y418941D01*
X304847Y418786D01*
X304875Y418633D01*
X304927Y418486D01*
X305001Y418349D01*
X305095Y418225D01*
X305208Y418118D01*
X305336Y418029D01*
X305477Y417962D01*
X305626Y417918D01*
X305780Y417897D01*
X305936Y417901D01*
X306089Y417929D01*
X306234Y417984D01*
X306609Y418134D01*
X306998Y418245D01*
X307395Y418320D01*
X307798Y418357D01*
X308202D01*
X308605Y418320D01*
X309002Y418245D01*
X309391Y418134D01*
X309767Y417988D01*
X309912Y417934D01*
X310000Y417918D01*
Y410087D01*
X309911Y410071D01*
X309766Y410016D01*
X309391Y409866D01*
X309002Y409755D01*
X308605Y409680D01*
X308202Y409643D01*
X307798D01*
X307395Y409680D01*
X306998Y409755D01*
X306609Y409866D01*
X306233Y410012D01*
X306088Y410066D01*
X305935Y410094D01*
X305780Y410098D01*
X305627Y410078D01*
X305478Y410033D01*
X305339Y409966D01*
X305211Y409879D01*
X305099Y409772D01*
X305005Y409649D01*
X304931Y409512D01*
X304880Y409366D01*
X304852Y409214D01*
X304848Y409059D01*
X304868Y408905D01*
X304913Y408757D01*
X304980Y408617D01*
X305067Y408490D01*
X305174Y408378D01*
X305297Y408283D01*
X305435Y408212D01*
X305980Y407993D01*
X306030Y407979D01*
X306544Y407832D01*
X307122Y407724D01*
X307706Y407670D01*
X308294D01*
X308878Y407724D01*
X309456Y407832D01*
X310000Y407988D01*
Y402307D01*
X309962Y402322D01*
X308993Y402555D01*
X308000Y402633D01*
X307007Y402555D01*
X306038Y402322D01*
X306030Y402319D01*
X305117Y401941D01*
X304268Y401420D01*
X303604Y400854D01*
X303984Y401473D01*
X304285Y402200D01*
X304469Y402965D01*
X304515Y403750D01*
X304469Y404535D01*
X304285Y405300D01*
X303984Y406027D01*
X303573Y406698D01*
X303061Y407296D01*
X302886Y407446D01*
Y410869D01*
X302904Y410864D01*
X303059Y410843D01*
X303214Y410847D01*
X303367Y410875D01*
X303514Y410927D01*
X303651Y411001D01*
X303775Y411095D01*
X303882Y411208D01*
X303971Y411336D01*
X304038Y411477D01*
X304082Y411626D01*
X304103Y411780D01*
X304099Y411936D01*
X304071Y412089D01*
X304016Y412234D01*
X303866Y412609D01*
X303755Y412998D01*
X303680Y413395D01*
X303643Y413798D01*
Y414202D01*
X303680Y414605D01*
X303755Y415002D01*
X303866Y415391D01*
X304012Y415767D01*
X304066Y415912D01*
X304094Y416065D01*
X304098Y416220D01*
X304078Y416373D01*
X304033Y416522D01*
X303966Y416661D01*
X303879Y416789D01*
X303772Y416901D01*
X303649Y416995D01*
X303512Y417069D01*
X303366Y417120D01*
X303214Y417148D01*
X303059Y417152D01*
X302905Y417132D01*
X302886Y417126D01*
Y454000D01*
G37*
G36*
X295000Y438169D02*X295065Y438325D01*
X295245Y439078D01*
X295291Y439850D01*
X295245Y440622D01*
X295065Y441375D01*
X295000Y441531D01*
Y454000D01*
X302886D01*
Y417126D01*
X302757Y417087D01*
X302617Y417020D01*
X302490Y416933D01*
X302378Y416826D01*
X302283Y416703D01*
X302212Y416565D01*
X301993Y416020D01*
X301832Y415456D01*
X301724Y414878D01*
X301670Y414294D01*
Y413706D01*
X301724Y413122D01*
X301832Y412544D01*
X301993Y411980D01*
X302206Y411432D01*
X302279Y411295D01*
X302374Y411171D01*
X302487Y411064D01*
X302615Y410975D01*
X302755Y410908D01*
X302886Y410869D01*
Y407446D01*
X302463Y407808D01*
X301792Y408219D01*
X301065Y408520D01*
X300300Y408704D01*
X299515Y408765D01*
X298730Y408704D01*
X297965Y408520D01*
X297238Y408219D01*
X296567Y407808D01*
X295969Y407296D01*
X295457Y406698D01*
X295046Y406027D01*
X295000Y405915D01*
Y438169D01*
G37*
G36*
X299150Y379375D02*X299285Y379319D01*
X299515Y379264D01*
X299750Y379250D01*
X306485Y379264D01*
X306715Y379319D01*
X306933Y379409D01*
X307134Y379533D01*
X307314Y379686D01*
X307448Y379843D01*
X307497Y379725D01*
X307728Y379349D01*
X308014Y379014D01*
X308349Y378728D01*
X308725Y378497D01*
X309132Y378329D01*
X309561Y378226D01*
X310000Y378191D01*
Y374616D01*
X309725Y374503D01*
X309349Y374272D01*
X309014Y373986D01*
X308728Y373651D01*
X308497Y373275D01*
X308329Y372868D01*
X308226Y372439D01*
X308191Y372000D01*
X308226Y371561D01*
X308329Y371132D01*
X308497Y370725D01*
X308728Y370349D01*
X309014Y370014D01*
X309349Y369728D01*
X309725Y369497D01*
X310000Y369384D01*
Y367809D01*
X309561Y367774D01*
X309132Y367671D01*
X308725Y367503D01*
X308349Y367272D01*
X308014Y366986D01*
X307728Y366651D01*
X307497Y366275D01*
X307329Y365868D01*
X307226Y365439D01*
X307191Y365000D01*
X307226Y364561D01*
X307329Y364132D01*
X307497Y363725D01*
X307728Y363349D01*
X308014Y363014D01*
X308349Y362728D01*
X308725Y362497D01*
X309132Y362329D01*
X309561Y362226D01*
X310000Y362191D01*
Y360785D01*
X309901Y360901D01*
X309243Y361463D01*
X308505Y361916D01*
X307705Y362247D01*
X306863Y362449D01*
X306000Y362517D01*
X305137Y362449D01*
X304295Y362247D01*
X303495Y361916D01*
X302757Y361463D01*
X302099Y360901D01*
X301537Y360243D01*
X301084Y359505D01*
X300753Y358705D01*
X300551Y357863D01*
X300489Y357072D01*
X300486Y358235D01*
X300431Y358465D01*
X300341Y358683D01*
X300217Y358884D01*
X300064Y359064D01*
X299884Y359217D01*
X299683Y359341D01*
X299465Y359431D01*
X299235Y359486D01*
X299150Y359491D01*
Y363348D01*
X299268Y363357D01*
X299382Y363385D01*
X299492Y363430D01*
X299592Y363491D01*
X299682Y363568D01*
X299759Y363658D01*
X299820Y363758D01*
X299865Y363868D01*
X299893Y363982D01*
X299900Y364100D01*
Y367900D01*
X299893Y368018D01*
X299865Y368132D01*
X299820Y368242D01*
X299759Y368342D01*
X299682Y368432D01*
X299592Y368509D01*
X299492Y368570D01*
X299382Y368615D01*
X299268Y368643D01*
X299150Y368652D01*
Y371194D01*
X299631Y370631D01*
X300199Y370145D01*
X300837Y369755D01*
X301528Y369469D01*
X302255Y369294D01*
X303000Y369235D01*
X303745Y369294D01*
X304472Y369469D01*
X305163Y369755D01*
X305801Y370145D01*
X306369Y370631D01*
X306855Y371199D01*
X307245Y371837D01*
X307531Y372528D01*
X307706Y373255D01*
X307750Y374000D01*
X307706Y374745D01*
X307531Y375472D01*
X307245Y376163D01*
X306855Y376801D01*
X306369Y377369D01*
X305801Y377855D01*
X305163Y378245D01*
X304472Y378531D01*
X303745Y378706D01*
X303000Y378765D01*
X302255Y378706D01*
X301528Y378531D01*
X300837Y378245D01*
X300199Y377855D01*
X299631Y377369D01*
X299150Y376806D01*
Y379375D01*
G37*
G36*
Y359491D02*X299000Y359500D01*
X295000Y359491D01*
Y361100D01*
X296900D01*
X297018Y361107D01*
X297132Y361135D01*
X297242Y361180D01*
X297342Y361241D01*
X297432Y361318D01*
X297509Y361408D01*
X297570Y361508D01*
X297615Y361618D01*
X297643Y361732D01*
X297652Y361850D01*
X297643Y361968D01*
X297615Y362082D01*
X297570Y362192D01*
X297509Y362292D01*
X297432Y362382D01*
X297342Y362459D01*
X297242Y362520D01*
X297132Y362565D01*
X297018Y362593D01*
X296900Y362600D01*
X295000D01*
Y369400D01*
X296900D01*
X297018Y369407D01*
X297132Y369435D01*
X297242Y369480D01*
X297342Y369541D01*
X297432Y369618D01*
X297509Y369708D01*
X297570Y369808D01*
X297615Y369918D01*
X297643Y370032D01*
X297652Y370150D01*
X297643Y370268D01*
X297615Y370382D01*
X297570Y370492D01*
X297509Y370592D01*
X297432Y370682D01*
X297342Y370759D01*
X297242Y370820D01*
X297132Y370865D01*
X297018Y370893D01*
X296900Y370900D01*
X295000D01*
Y373500D01*
X298275D01*
X298294Y373255D01*
X298469Y372528D01*
X298755Y371837D01*
X299145Y371199D01*
X299150Y371194D01*
Y368652D01*
X299032Y368643D01*
X298918Y368615D01*
X298808Y368570D01*
X298708Y368509D01*
X298618Y368432D01*
X298541Y368342D01*
X298480Y368242D01*
X298435Y368132D01*
X298407Y368018D01*
X298400Y367900D01*
Y364100D01*
X298407Y363982D01*
X298435Y363868D01*
X298480Y363758D01*
X298541Y363658D01*
X298618Y363568D01*
X298708Y363491D01*
X298808Y363430D01*
X298918Y363385D01*
X299032Y363357D01*
X299150Y363348D01*
Y359491D01*
G37*
G36*
X298500Y398852D02*Y397679D01*
X298481Y397675D01*
X297769Y397379D01*
X297111Y396976D01*
X296524Y396476D01*
X296024Y395889D01*
X295621Y395231D01*
X295325Y394519D01*
X295145Y393769D01*
X295085Y393000D01*
X295145Y392231D01*
X295325Y391481D01*
X295621Y390769D01*
X296024Y390111D01*
X296524Y389524D01*
X297111Y389024D01*
X297769Y388621D01*
X298481Y388325D01*
X298659Y388283D01*
X298533Y388134D01*
X298409Y387933D01*
X298319Y387715D01*
X298264Y387485D01*
X298250Y387250D01*
X298264Y380515D01*
X298319Y380285D01*
X298409Y380067D01*
X298533Y379866D01*
X298686Y379686D01*
X298866Y379533D01*
X299067Y379409D01*
X299150Y379375D01*
Y376806D01*
X299145Y376801D01*
X298961Y376500D01*
X295000D01*
Y401585D01*
X295046Y401473D01*
X295457Y400802D01*
X295969Y400204D01*
X296567Y399692D01*
X297238Y399281D01*
X297965Y398980D01*
X298500Y398852D01*
G37*
G36*
X295000Y441531D02*X294768Y442091D01*
X294363Y442751D01*
X293860Y443340D01*
X293271Y443843D01*
X292611Y444248D01*
X291895Y444545D01*
X291142Y444725D01*
X290370Y444786D01*
X290362Y444786D01*
Y454000D01*
X295000D01*
Y441531D01*
G37*
G36*
Y376500D02*X293059D01*
X293000Y376505D01*
X292765Y376486D01*
X292535Y376431D01*
X292317Y376341D01*
X292116Y376217D01*
X292115Y376217D01*
X291936Y376064D01*
X291898Y376019D01*
X290362Y374484D01*
Y417002D01*
X290370Y417002D01*
X291080Y417057D01*
X291773Y417224D01*
X292432Y417497D01*
X293039Y417869D01*
X293581Y418332D01*
X294044Y418874D01*
X294416Y419481D01*
X294689Y420140D01*
X294856Y420833D01*
X294898Y421543D01*
X294856Y422253D01*
X294689Y422946D01*
X294416Y423605D01*
X294044Y424212D01*
X293581Y424754D01*
X293039Y425217D01*
X292432Y425589D01*
X291773Y425862D01*
X291080Y426029D01*
X290370Y426084D01*
X290362Y426084D01*
Y434914D01*
X290370Y434914D01*
X291142Y434975D01*
X291895Y435155D01*
X292611Y435452D01*
X293271Y435857D01*
X293860Y436360D01*
X294363Y436949D01*
X294768Y437609D01*
X295000Y438169D01*
Y405915D01*
X294745Y405300D01*
X294561Y404535D01*
X294500Y403750D01*
X294561Y402965D01*
X294745Y402200D01*
X295000Y401585D01*
Y376500D01*
G37*
G36*
Y359491D02*X292765Y359486D01*
X292535Y359431D01*
X292317Y359341D01*
X292116Y359217D01*
X291936Y359064D01*
X291783Y358884D01*
X291659Y358683D01*
X291569Y358465D01*
X291514Y358235D01*
X291500Y358000D01*
X291501Y357620D01*
X290362Y358759D01*
Y363530D01*
X290408Y363491D01*
X290508Y363430D01*
X290618Y363385D01*
X290732Y363357D01*
X290850Y363348D01*
X290968Y363357D01*
X291082Y363385D01*
X291192Y363430D01*
X291292Y363491D01*
X291382Y363568D01*
X291459Y363658D01*
X291520Y363758D01*
X291565Y363868D01*
X291593Y363982D01*
X291600Y364100D01*
Y367900D01*
X291593Y368018D01*
X291565Y368132D01*
X291520Y368242D01*
X291459Y368342D01*
X291382Y368432D01*
X291292Y368509D01*
X291192Y368570D01*
X291082Y368615D01*
X290968Y368643D01*
X290850Y368652D01*
X290732Y368643D01*
X290618Y368615D01*
X290508Y368570D01*
X290408Y368509D01*
X290362Y368470D01*
Y370241D01*
X293621Y373500D01*
X295000D01*
Y370900D01*
X293100D01*
X292982Y370893D01*
X292868Y370865D01*
X292758Y370820D01*
X292658Y370759D01*
X292568Y370682D01*
X292491Y370592D01*
X292430Y370492D01*
X292385Y370382D01*
X292357Y370268D01*
X292348Y370150D01*
X292357Y370032D01*
X292385Y369918D01*
X292430Y369808D01*
X292491Y369708D01*
X292568Y369618D01*
X292658Y369541D01*
X292758Y369480D01*
X292868Y369435D01*
X292982Y369407D01*
X293100Y369400D01*
X295000D01*
Y362600D01*
X293100D01*
X292982Y362593D01*
X292868Y362565D01*
X292758Y362520D01*
X292658Y362459D01*
X292568Y362382D01*
X292491Y362292D01*
X292430Y362192D01*
X292385Y362082D01*
X292357Y361968D01*
X292348Y361850D01*
X292357Y361732D01*
X292385Y361618D01*
X292430Y361508D01*
X292491Y361408D01*
X292568Y361318D01*
X292658Y361241D01*
X292758Y361180D01*
X292868Y361135D01*
X292982Y361107D01*
X293100Y361100D01*
X295000D01*
Y359491D01*
G37*
G36*
X290362Y374484D02*X283379Y367500D01*
X261508D01*
Y376638D01*
X261847Y376348D01*
X262451Y375978D01*
X263105Y375707D01*
X263794Y375542D01*
X264500Y375486D01*
X265206Y375542D01*
X265895Y375707D01*
X266549Y375978D01*
X267153Y376348D01*
X267692Y376808D01*
X268152Y377347D01*
X268522Y377951D01*
X268793Y378605D01*
X268958Y379294D01*
X269000Y380000D01*
X268958Y380706D01*
X268793Y381395D01*
X268522Y382049D01*
X268152Y382653D01*
X267692Y383192D01*
X267153Y383652D01*
X266549Y384022D01*
X265895Y384293D01*
X265206Y384458D01*
X264500Y384514D01*
X263794Y384458D01*
X263105Y384293D01*
X262451Y384022D01*
X262233Y383888D01*
X261508Y384613D01*
Y388110D01*
X263635Y388114D01*
X263740Y388139D01*
X266898Y384981D01*
X266936Y384936D01*
X267116Y384783D01*
X267317Y384659D01*
X267535Y384569D01*
X267765Y384514D01*
X268000Y384495D01*
X268059Y384500D01*
X278000D01*
X271765Y384486D01*
X271535Y384431D01*
X271317Y384341D01*
X271116Y384217D01*
X270936Y384064D01*
X270783Y383884D01*
X270659Y383683D01*
X270569Y383465D01*
X270514Y383235D01*
X270500Y383000D01*
X270514Y376765D01*
X270569Y376535D01*
X270659Y376317D01*
X270783Y376116D01*
X270936Y375936D01*
X271116Y375783D01*
X271317Y375659D01*
X271535Y375569D01*
X271765Y375514D01*
X272000Y375500D01*
X273500Y375503D01*
Y373621D01*
X272921Y373042D01*
X272651Y373272D01*
X272275Y373503D01*
X271868Y373671D01*
X271439Y373774D01*
X271000Y373809D01*
X270561Y373774D01*
X270132Y373671D01*
X269725Y373503D01*
X269349Y373272D01*
X269014Y372986D01*
X268728Y372651D01*
X268497Y372275D01*
X268329Y371868D01*
X268226Y371439D01*
X268191Y371000D01*
X268226Y370561D01*
X268329Y370132D01*
X268497Y369725D01*
X268728Y369349D01*
X269014Y369014D01*
X269349Y368728D01*
X269725Y368497D01*
X270132Y368329D01*
X270561Y368226D01*
X271000Y368191D01*
X271439Y368226D01*
X271868Y368329D01*
X272275Y368497D01*
X272651Y368728D01*
X272986Y369014D01*
X273272Y369349D01*
X273397Y369553D01*
X273465Y369569D01*
X273683Y369659D01*
X273884Y369783D01*
X274064Y369936D01*
X274102Y369981D01*
X276019Y371898D01*
X276064Y371936D01*
X276217Y372115D01*
X276217Y372116D01*
X276341Y372317D01*
X276431Y372535D01*
X276486Y372765D01*
X276505Y373000D01*
X276500Y373059D01*
Y375510D01*
X278235Y375514D01*
X278465Y375569D01*
X278683Y375659D01*
X278884Y375783D01*
X279064Y375936D01*
X279217Y376116D01*
X279341Y376317D01*
X279431Y376535D01*
X279486Y376765D01*
X279500Y377000D01*
X279486Y383235D01*
X279436Y383442D01*
X280935Y381944D01*
X280707Y381395D01*
X280542Y380706D01*
X280486Y380000D01*
X280542Y379294D01*
X280707Y378605D01*
X280978Y377951D01*
X281348Y377347D01*
X281808Y376808D01*
X282347Y376348D01*
X282951Y375978D01*
X283605Y375707D01*
X284294Y375542D01*
X285000Y375486D01*
X285706Y375542D01*
X286395Y375707D01*
X287049Y375978D01*
X287653Y376348D01*
X288192Y376808D01*
X288652Y377347D01*
X289022Y377951D01*
X289293Y378605D01*
X289458Y379294D01*
X289500Y380000D01*
X289458Y380706D01*
X289293Y381395D01*
X289022Y382049D01*
X288652Y382653D01*
X288192Y383192D01*
X287653Y383652D01*
X287049Y384022D01*
X286395Y384293D01*
X285706Y384458D01*
X285000Y384514D01*
X284294Y384458D01*
X283605Y384293D01*
X283056Y384065D01*
X280102Y387019D01*
X280064Y387064D01*
X279884Y387217D01*
X279683Y387341D01*
X279465Y387431D01*
X279235Y387486D01*
X279235Y387486D01*
X279000Y387505D01*
X278941Y387500D01*
X268621D01*
X264897Y391225D01*
X264886Y396635D01*
X264831Y396865D01*
X264741Y397083D01*
X264617Y397284D01*
X264464Y397464D01*
X264284Y397617D01*
X264083Y397741D01*
X263865Y397831D01*
X263635Y397886D01*
X263400Y397900D01*
X261508Y397896D01*
Y399164D01*
X261779Y399286D01*
X262187Y399518D01*
X262251Y399565D01*
X262307Y399622D01*
X262352Y399686D01*
X262387Y399758D01*
X262411Y399833D01*
X262422Y399912D01*
X262421Y399991D01*
X262408Y400070D01*
X262382Y400145D01*
X262345Y400215D01*
X262298Y400279D01*
X262241Y400334D01*
X262176Y400380D01*
X262105Y400415D01*
X262029Y400438D01*
X261950Y400450D01*
X261871Y400449D01*
X261793Y400435D01*
X261718Y400410D01*
X261648Y400371D01*
X261508Y400290D01*
Y402500D01*
X263000D01*
X263235Y402514D01*
X263322Y402535D01*
X263236Y402283D01*
X263083Y401941D01*
X262897Y401615D01*
X262859Y401546D01*
X262834Y401471D01*
X262821Y401394D01*
X262820Y401315D01*
X262831Y401237D01*
X262854Y401162D01*
X262889Y401091D01*
X262934Y401027D01*
X262989Y400971D01*
X263052Y400923D01*
X263122Y400887D01*
X263196Y400862D01*
X263274Y400848D01*
X263353Y400847D01*
X263431Y400858D01*
X263506Y400882D01*
X263576Y400916D01*
X263641Y400962D01*
X263697Y401017D01*
X263743Y401081D01*
X263979Y401486D01*
X264172Y401915D01*
X264323Y402359D01*
X264433Y402816D01*
X264498Y403281D01*
X264521Y403750D01*
X264498Y404219D01*
X264433Y404684D01*
X264323Y405141D01*
X264172Y405585D01*
X263979Y406014D01*
X263747Y406422D01*
X263700Y406486D01*
X263643Y406542D01*
X263579Y406587D01*
X263507Y406622D01*
X263432Y406646D01*
X263353Y406657D01*
X263274Y406656D01*
X263195Y406643D01*
X263120Y406617D01*
X263050Y406580D01*
X262986Y406533D01*
X262931Y406476D01*
X262885Y406411D01*
X262850Y406340D01*
X262827Y406264D01*
X262815Y406185D01*
X262816Y406106D01*
X262830Y406028D01*
X262855Y405953D01*
X262894Y405883D01*
X263083Y405559D01*
X263112Y405493D01*
X263000Y405500D01*
X261508D01*
Y407213D01*
X261650Y407132D01*
X261719Y407094D01*
X261794Y407069D01*
X261871Y407056D01*
X261950Y407055D01*
X262028Y407066D01*
X262103Y407089D01*
X262174Y407124D01*
X262238Y407169D01*
X262294Y407224D01*
X262342Y407287D01*
X262378Y407357D01*
X262403Y407431D01*
X262417Y407509D01*
X262418Y407588D01*
X262407Y407666D01*
X262383Y407741D01*
X262349Y407811D01*
X262303Y407876D01*
X262248Y407932D01*
X262184Y407978D01*
X261779Y408214D01*
X261508Y408336D01*
Y409000D01*
X281441D01*
X281500Y408995D01*
X281735Y409014D01*
X281735Y409014D01*
X281965Y409069D01*
X282183Y409159D01*
X282384Y409283D01*
X282564Y409436D01*
X282602Y409481D01*
X284019Y410898D01*
X284064Y410936D01*
X284217Y411115D01*
X284217Y411116D01*
X284341Y411317D01*
X284431Y411535D01*
X284486Y411765D01*
X284505Y412000D01*
X284500Y412059D01*
Y415479D01*
X284673Y415626D01*
X285015Y416027D01*
X285290Y416476D01*
X285492Y416963D01*
X285614Y417475D01*
X285646Y418000D01*
X285614Y418525D01*
X285492Y419037D01*
X285290Y419524D01*
X285015Y419973D01*
X284673Y420374D01*
X284272Y420716D01*
X283823Y420991D01*
X283336Y421193D01*
X282824Y421315D01*
X282299Y421357D01*
X282203Y421349D01*
X282343Y421687D01*
X282465Y422199D01*
X282496Y422724D01*
X282465Y423249D01*
X282343Y423761D01*
X282141Y424248D01*
X281866Y424697D01*
X281524Y425098D01*
X281123Y425440D01*
X280674Y425715D01*
X280471Y425799D01*
X280431Y425965D01*
X280341Y426183D01*
X280217Y426384D01*
X280064Y426564D01*
X280019Y426602D01*
X279102Y427519D01*
X279064Y427564D01*
X278884Y427717D01*
X278683Y427841D01*
X278465Y427931D01*
X278235Y427986D01*
X278235Y427986D01*
X278000Y428005D01*
X277941Y428000D01*
X264970D01*
X264986Y428014D01*
X265272Y428349D01*
X265503Y428725D01*
X265671Y429132D01*
X265774Y429561D01*
X265800Y430000D01*
X265774Y430439D01*
X265671Y430868D01*
X265503Y431275D01*
X265272Y431651D01*
X264986Y431986D01*
X264651Y432272D01*
X264275Y432503D01*
X263868Y432671D01*
X263439Y432774D01*
X263000Y432809D01*
X262561Y432774D01*
X262132Y432671D01*
X261725Y432503D01*
X261508Y432370D01*
Y434923D01*
X261630Y434914D01*
X262402Y434975D01*
X263155Y435155D01*
X263871Y435452D01*
X264531Y435857D01*
X265120Y436360D01*
X265623Y436949D01*
X266028Y437609D01*
X266325Y438325D01*
X266505Y439078D01*
X266551Y439850D01*
X266505Y440622D01*
X266325Y441375D01*
X266028Y442091D01*
X265623Y442751D01*
X265120Y443340D01*
X264531Y443843D01*
X263871Y444248D01*
X263155Y444545D01*
X262402Y444725D01*
X261630Y444786D01*
X261508Y444777D01*
Y454000D01*
X290362D01*
Y444786D01*
X289598Y444725D01*
X288845Y444545D01*
X288129Y444248D01*
X287469Y443843D01*
X286880Y443340D01*
X286377Y442751D01*
X285972Y442091D01*
X285675Y441375D01*
X285495Y440622D01*
X285434Y439850D01*
X285495Y439078D01*
X285675Y438325D01*
X285972Y437609D01*
X286377Y436949D01*
X286880Y436360D01*
X287469Y435857D01*
X288129Y435452D01*
X288845Y435155D01*
X289598Y434975D01*
X290362Y434914D01*
Y426084D01*
X289660Y426029D01*
X288967Y425862D01*
X288308Y425589D01*
X287701Y425217D01*
X287159Y424754D01*
X286696Y424212D01*
X286324Y423605D01*
X286051Y422946D01*
X285884Y422253D01*
X285829Y421543D01*
X285884Y420833D01*
X286051Y420140D01*
X286324Y419481D01*
X286696Y418874D01*
X287159Y418332D01*
X287701Y417869D01*
X288308Y417497D01*
X288967Y417224D01*
X289660Y417057D01*
X290362Y417002D01*
Y374484D01*
G37*
G36*
Y358759D02*X286102Y363019D01*
X286064Y363064D01*
X285884Y363217D01*
X285683Y363341D01*
X285465Y363431D01*
X285235Y363486D01*
X285235Y363486D01*
X285000Y363505D01*
X284941Y363500D01*
X263059D01*
X263000Y363505D01*
X262765Y363486D01*
X262535Y363431D01*
X262317Y363341D01*
X262116Y363217D01*
X262115Y363217D01*
X261936Y363064D01*
X261898Y363019D01*
X261508Y362629D01*
Y364500D01*
X283941D01*
X284000Y364495D01*
X284235Y364514D01*
X284235Y364514D01*
X284465Y364569D01*
X284683Y364659D01*
X284884Y364783D01*
X285064Y364936D01*
X285102Y364981D01*
X290362Y370241D01*
Y368470D01*
X290318Y368432D01*
X290241Y368342D01*
X290180Y368242D01*
X290135Y368132D01*
X290107Y368018D01*
X290100Y367900D01*
Y364100D01*
X290107Y363982D01*
X290135Y363868D01*
X290180Y363758D01*
X290241Y363658D01*
X290318Y363568D01*
X290362Y363530D01*
Y358759D01*
G37*
G36*
X261508Y432370D02*X261349Y432272D01*
X261014Y431986D01*
X260728Y431651D01*
X260635Y431500D01*
X237065D01*
X238052Y431737D01*
X239331Y432267D01*
X240512Y432991D01*
X241566Y433890D01*
X242465Y434944D01*
X243189Y436125D01*
X243719Y437404D01*
X244042Y438751D01*
X244124Y440132D01*
X244042Y441513D01*
X243719Y442860D01*
X243189Y444139D01*
X242465Y445320D01*
X241566Y446374D01*
X240512Y447273D01*
X239331Y447997D01*
X238052Y448527D01*
X236705Y448850D01*
X235324Y448959D01*
X233943Y448850D01*
X232596Y448527D01*
X231317Y447997D01*
X230136Y447273D01*
X229082Y446374D01*
X228183Y445320D01*
X227459Y444139D01*
X226929Y442860D01*
X226606Y441513D01*
X226497Y440132D01*
X226606Y438751D01*
X226929Y437404D01*
X227459Y436125D01*
X228183Y434944D01*
X229082Y433890D01*
X230136Y432991D01*
X231317Y432267D01*
X232596Y431737D01*
X233583Y431500D01*
X222059D01*
X222000Y431505D01*
X221765Y431486D01*
X221535Y431431D01*
X221317Y431341D01*
X221116Y431217D01*
X221115Y431217D01*
X220936Y431064D01*
X220898Y431019D01*
X216500Y426621D01*
Y436941D01*
X216505Y437000D01*
X216486Y437235D01*
X216486Y437235D01*
X216431Y437465D01*
X216341Y437683D01*
X216217Y437884D01*
X216064Y438064D01*
X216019Y438102D01*
X212102Y442019D01*
X212064Y442064D01*
X211884Y442217D01*
X211683Y442341D01*
X211465Y442431D01*
X211235Y442486D01*
X211235Y442486D01*
X211000Y442505D01*
X210941Y442500D01*
X210613D01*
Y443853D01*
X210656Y443860D01*
X210768Y443897D01*
X210873Y443952D01*
X210968Y444022D01*
X211051Y444106D01*
X211119Y444202D01*
X211170Y444308D01*
X211318Y444716D01*
X211422Y445137D01*
X211484Y445567D01*
X211505Y446000D01*
X211484Y446433D01*
X211422Y446863D01*
X211318Y447284D01*
X211175Y447694D01*
X211122Y447800D01*
X211053Y447896D01*
X210970Y447981D01*
X210875Y448051D01*
X210769Y448106D01*
X210657Y448143D01*
X210613Y448151D01*
Y449500D01*
X215379D01*
X216101Y448777D01*
X216114Y442365D01*
X216169Y442135D01*
X216259Y441917D01*
X216383Y441716D01*
X216536Y441536D01*
X216716Y441383D01*
X216917Y441259D01*
X217135Y441169D01*
X217365Y441114D01*
X217600Y441100D01*
X224635Y441114D01*
X224865Y441169D01*
X225083Y441259D01*
X225284Y441383D01*
X225464Y441536D01*
X225617Y441716D01*
X225741Y441917D01*
X225831Y442135D01*
X225886Y442365D01*
X225900Y442600D01*
X225886Y449635D01*
X225831Y449865D01*
X225741Y450083D01*
X225617Y450284D01*
X225464Y450464D01*
X225284Y450617D01*
X225083Y450741D01*
X224865Y450831D01*
X224635Y450886D01*
X224400Y450900D01*
X218234Y450888D01*
X217102Y452019D01*
X217064Y452064D01*
X216884Y452217D01*
X216683Y452341D01*
X216465Y452431D01*
X216235Y452486D01*
X216235Y452486D01*
X216000Y452505D01*
X215941Y452500D01*
X210613D01*
Y454000D01*
X261508D01*
Y444777D01*
X260858Y444725D01*
X260105Y444545D01*
X259389Y444248D01*
X258729Y443843D01*
X258140Y443340D01*
X257637Y442751D01*
X257232Y442091D01*
X256935Y441375D01*
X256755Y440622D01*
X256694Y439850D01*
X256755Y439078D01*
X256935Y438325D01*
X257232Y437609D01*
X257637Y436949D01*
X258140Y436360D01*
X258729Y435857D01*
X259389Y435452D01*
X260105Y435155D01*
X260858Y434975D01*
X261508Y434923D01*
Y432370D01*
G37*
G36*
X210613Y452500D02*X200613D01*
Y454000D01*
X210613D01*
Y452500D01*
G37*
G36*
Y442500D02*X209163D01*
X209164Y442579D01*
X209146Y442696D01*
X209110Y442809D01*
X209057Y442915D01*
X208988Y443012D01*
X208905Y443096D01*
X208809Y443167D01*
X208704Y443221D01*
X208592Y443259D01*
X208475Y443278D01*
X208356Y443279D01*
X208239Y443261D01*
X208126Y443223D01*
X207855Y443124D01*
X207575Y443056D01*
X207289Y443014D01*
X207000Y443000D01*
X206711Y443014D01*
X206425Y443056D01*
X206145Y443124D01*
X205872Y443220D01*
X205761Y443258D01*
X205644Y443275D01*
X205526Y443275D01*
X205409Y443255D01*
X205297Y443218D01*
X205193Y443164D01*
X205098Y443094D01*
X205015Y443009D01*
X204946Y442913D01*
X204893Y442808D01*
X204857Y442695D01*
X204840Y442579D01*
X204840Y442500D01*
X203387D01*
Y443849D01*
X203460Y443837D01*
X203579Y443836D01*
X203696Y443854D01*
X203809Y443890D01*
X203915Y443943D01*
X204012Y444012D01*
X204096Y444095D01*
X204167Y444191D01*
X204221Y444296D01*
X204259Y444408D01*
X204278Y444525D01*
X204279Y444644D01*
X204261Y444761D01*
X204223Y444874D01*
X204124Y445145D01*
X204056Y445425D01*
X204014Y445711D01*
X204000Y446000D01*
X204014Y446289D01*
X204056Y446575D01*
X204124Y446855D01*
X204220Y447128D01*
X204258Y447239D01*
X204275Y447356D01*
X204275Y447474D01*
X204255Y447591D01*
X204218Y447703D01*
X204164Y447807D01*
X204094Y447902D01*
X204009Y447985D01*
X203913Y448054D01*
X203808Y448107D01*
X203695Y448143D01*
X203579Y448160D01*
X203461Y448159D01*
X203387Y448147D01*
Y449500D01*
X204837D01*
X204836Y449421D01*
X204854Y449304D01*
X204890Y449191D01*
X204943Y449085D01*
X205012Y448988D01*
X205095Y448904D01*
X205191Y448833D01*
X205296Y448779D01*
X205408Y448741D01*
X205525Y448722D01*
X205644Y448721D01*
X205761Y448739D01*
X205874Y448777D01*
X206145Y448876D01*
X206425Y448944D01*
X206711Y448986D01*
X207000Y449000D01*
X207289Y448986D01*
X207575Y448944D01*
X207855Y448876D01*
X208128Y448780D01*
X208239Y448742D01*
X208356Y448725D01*
X208474Y448725D01*
X208591Y448745D01*
X208703Y448782D01*
X208807Y448836D01*
X208902Y448906D01*
X208985Y448991D01*
X209054Y449087D01*
X209107Y449192D01*
X209143Y449305D01*
X209160Y449421D01*
X209160Y449500D01*
X210613D01*
Y448151D01*
X210540Y448163D01*
X210421Y448164D01*
X210304Y448146D01*
X210191Y448110D01*
X210085Y448057D01*
X209988Y447988D01*
X209904Y447905D01*
X209833Y447809D01*
X209779Y447704D01*
X209741Y447592D01*
X209722Y447475D01*
X209721Y447356D01*
X209739Y447239D01*
X209777Y447126D01*
X209876Y446855D01*
X209944Y446575D01*
X209986Y446289D01*
X210000Y446000D01*
X209986Y445711D01*
X209944Y445425D01*
X209876Y445145D01*
X209780Y444872D01*
X209742Y444761D01*
X209725Y444644D01*
X209725Y444526D01*
X209745Y444409D01*
X209782Y444297D01*
X209836Y444193D01*
X209906Y444098D01*
X209991Y444015D01*
X210087Y443946D01*
X210192Y443893D01*
X210305Y443857D01*
X210421Y443840D01*
X210539Y443841D01*
X210613Y443853D01*
Y442500D01*
G37*
G36*
X203387D02*X200613D01*
Y443853D01*
X200656Y443860D01*
X200768Y443897D01*
X200873Y443952D01*
X200968Y444022D01*
X201051Y444106D01*
X201119Y444202D01*
X201170Y444308D01*
X201318Y444716D01*
X201422Y445137D01*
X201484Y445567D01*
X201505Y446000D01*
X201484Y446433D01*
X201422Y446863D01*
X201318Y447284D01*
X201175Y447694D01*
X201122Y447800D01*
X201053Y447896D01*
X200970Y447981D01*
X200875Y448051D01*
X200769Y448106D01*
X200657Y448143D01*
X200613Y448151D01*
Y449500D01*
X203387D01*
Y448147D01*
X203344Y448140D01*
X203232Y448103D01*
X203127Y448048D01*
X203032Y447978D01*
X202949Y447894D01*
X202881Y447798D01*
X202830Y447692D01*
X202682Y447284D01*
X202578Y446863D01*
X202516Y446433D01*
X202495Y446000D01*
X202516Y445567D01*
X202578Y445137D01*
X202682Y444716D01*
X202825Y444306D01*
X202878Y444200D01*
X202947Y444104D01*
X203030Y444019D01*
X203125Y443949D01*
X203231Y443894D01*
X203343Y443857D01*
X203387Y443849D01*
Y442500D01*
G37*
G36*
X200613Y452500D02*X190613D01*
Y454000D01*
X200613D01*
Y452500D01*
G37*
G36*
Y442500D02*X199163D01*
X199164Y442579D01*
X199146Y442696D01*
X199110Y442809D01*
X199057Y442915D01*
X198988Y443012D01*
X198905Y443096D01*
X198809Y443167D01*
X198704Y443221D01*
X198592Y443259D01*
X198475Y443278D01*
X198356Y443279D01*
X198239Y443261D01*
X198126Y443223D01*
X197855Y443124D01*
X197575Y443056D01*
X197289Y443014D01*
X197000Y443000D01*
X196711Y443014D01*
X196425Y443056D01*
X196145Y443124D01*
X195872Y443220D01*
X195761Y443258D01*
X195644Y443275D01*
X195526Y443275D01*
X195409Y443255D01*
X195297Y443218D01*
X195193Y443164D01*
X195098Y443094D01*
X195015Y443009D01*
X194946Y442913D01*
X194893Y442808D01*
X194857Y442695D01*
X194840Y442579D01*
X194840Y442500D01*
X193387D01*
Y443849D01*
X193460Y443837D01*
X193579Y443836D01*
X193696Y443854D01*
X193809Y443890D01*
X193915Y443943D01*
X194012Y444012D01*
X194096Y444095D01*
X194167Y444191D01*
X194221Y444296D01*
X194259Y444408D01*
X194278Y444525D01*
X194279Y444644D01*
X194261Y444761D01*
X194223Y444874D01*
X194124Y445145D01*
X194056Y445425D01*
X194014Y445711D01*
X194000Y446000D01*
X194014Y446289D01*
X194056Y446575D01*
X194124Y446855D01*
X194220Y447128D01*
X194258Y447239D01*
X194275Y447356D01*
X194275Y447474D01*
X194255Y447591D01*
X194218Y447703D01*
X194164Y447807D01*
X194094Y447902D01*
X194009Y447985D01*
X193913Y448054D01*
X193808Y448107D01*
X193695Y448143D01*
X193579Y448160D01*
X193461Y448159D01*
X193387Y448147D01*
Y449500D01*
X194837D01*
X194836Y449421D01*
X194854Y449304D01*
X194890Y449191D01*
X194943Y449085D01*
X195012Y448988D01*
X195095Y448904D01*
X195191Y448833D01*
X195296Y448779D01*
X195408Y448741D01*
X195525Y448722D01*
X195644Y448721D01*
X195761Y448739D01*
X195874Y448777D01*
X196145Y448876D01*
X196425Y448944D01*
X196711Y448986D01*
X197000Y449000D01*
X197289Y448986D01*
X197575Y448944D01*
X197855Y448876D01*
X198128Y448780D01*
X198239Y448742D01*
X198356Y448725D01*
X198474Y448725D01*
X198591Y448745D01*
X198703Y448782D01*
X198807Y448836D01*
X198902Y448906D01*
X198985Y448991D01*
X199054Y449087D01*
X199107Y449192D01*
X199143Y449305D01*
X199160Y449421D01*
X199160Y449500D01*
X200613D01*
Y448151D01*
X200540Y448163D01*
X200421Y448164D01*
X200304Y448146D01*
X200191Y448110D01*
X200085Y448057D01*
X199988Y447988D01*
X199904Y447905D01*
X199833Y447809D01*
X199779Y447704D01*
X199741Y447592D01*
X199722Y447475D01*
X199721Y447356D01*
X199739Y447239D01*
X199777Y447126D01*
X199876Y446855D01*
X199944Y446575D01*
X199986Y446289D01*
X200000Y446000D01*
X199986Y445711D01*
X199944Y445425D01*
X199876Y445145D01*
X199780Y444872D01*
X199742Y444761D01*
X199725Y444644D01*
X199725Y444526D01*
X199745Y444409D01*
X199782Y444297D01*
X199836Y444193D01*
X199906Y444098D01*
X199991Y444015D01*
X200087Y443946D01*
X200192Y443893D01*
X200305Y443857D01*
X200421Y443840D01*
X200539Y443841D01*
X200613Y443853D01*
Y442500D01*
G37*
G36*
X193387D02*X190613D01*
Y443853D01*
X190656Y443860D01*
X190768Y443897D01*
X190873Y443952D01*
X190968Y444022D01*
X191051Y444106D01*
X191119Y444202D01*
X191170Y444308D01*
X191318Y444716D01*
X191422Y445137D01*
X191484Y445567D01*
X191505Y446000D01*
X191484Y446433D01*
X191422Y446863D01*
X191318Y447284D01*
X191175Y447694D01*
X191122Y447800D01*
X191053Y447896D01*
X190970Y447981D01*
X190875Y448051D01*
X190769Y448106D01*
X190657Y448143D01*
X190613Y448151D01*
Y449500D01*
X193387D01*
Y448147D01*
X193344Y448140D01*
X193232Y448103D01*
X193127Y448048D01*
X193032Y447978D01*
X192949Y447894D01*
X192881Y447798D01*
X192830Y447692D01*
X192682Y447284D01*
X192578Y446863D01*
X192516Y446433D01*
X192495Y446000D01*
X192516Y445567D01*
X192578Y445137D01*
X192682Y444716D01*
X192825Y444306D01*
X192878Y444200D01*
X192947Y444104D01*
X193030Y444019D01*
X193125Y443949D01*
X193231Y443894D01*
X193343Y443857D01*
X193387Y443849D01*
Y442500D01*
G37*
G36*
X190613Y452500D02*X174059D01*
X174000Y452505D01*
X173765Y452486D01*
X173535Y452431D01*
X173317Y452341D01*
X173116Y452217D01*
X173115Y452217D01*
X172936Y452064D01*
X172898Y452019D01*
X170981Y450102D01*
X170936Y450064D01*
X170783Y449884D01*
X170659Y449683D01*
X170569Y449465D01*
X170514Y449235D01*
X170514Y449235D01*
X170495Y449000D01*
X170500Y448941D01*
Y448831D01*
X170192Y449192D01*
X169653Y449652D01*
X169049Y450022D01*
X168395Y450293D01*
X167706Y450458D01*
X167000Y450514D01*
X166294Y450458D01*
X165605Y450293D01*
X164951Y450022D01*
X164347Y449652D01*
X163808Y449192D01*
X163348Y448653D01*
X162978Y448049D01*
X162707Y447395D01*
X162542Y446706D01*
X162486Y446000D01*
X162542Y445294D01*
X162707Y444605D01*
X162978Y443951D01*
X163348Y443347D01*
X163808Y442808D01*
X164347Y442348D01*
X164951Y441978D01*
X165605Y441707D01*
X166294Y441542D01*
X167000Y441486D01*
X167706Y441542D01*
X168395Y441707D01*
X169049Y441978D01*
X169653Y442348D01*
X170192Y442808D01*
X170500Y443169D01*
Y440416D01*
X170465Y440431D01*
X170235Y440486D01*
X170000Y440500D01*
X163765Y440486D01*
X163535Y440431D01*
X163317Y440341D01*
X163116Y440217D01*
X162936Y440064D01*
X162783Y439884D01*
X162659Y439683D01*
X162569Y439465D01*
X162514Y439235D01*
X162500Y439000D01*
X162514Y432765D01*
X162569Y432535D01*
X162659Y432317D01*
X162783Y432116D01*
X162936Y431936D01*
X163116Y431783D01*
X163317Y431659D01*
X163535Y431569D01*
X163765Y431514D01*
X164000Y431500D01*
X170235Y431514D01*
X170442Y431564D01*
X168596Y429717D01*
X167985Y429765D01*
X167200Y429704D01*
X166435Y429520D01*
X165708Y429219D01*
X165037Y428808D01*
X164439Y428296D01*
X163927Y427698D01*
X163516Y427027D01*
X163215Y426300D01*
X163031Y425535D01*
X162970Y424750D01*
X163031Y423965D01*
X163215Y423200D01*
X163516Y422473D01*
X163927Y421802D01*
X164439Y421204D01*
X165037Y420692D01*
X165500Y420409D01*
Y419059D01*
X165495Y419000D01*
X165514Y418765D01*
X165569Y418535D01*
X165659Y418317D01*
X165783Y418116D01*
X165936Y417936D01*
X165981Y417898D01*
X166500Y417379D01*
Y417156D01*
X166377Y417153D01*
X166224Y417125D01*
X166077Y417073D01*
X165940Y416999D01*
X165816Y416905D01*
X165709Y416792D01*
X165620Y416664D01*
X165553Y416523D01*
X165509Y416374D01*
X165488Y416220D01*
X165492Y416064D01*
X165520Y415911D01*
X165575Y415766D01*
X165725Y415391D01*
X165836Y415002D01*
X165911Y414605D01*
X165948Y414202D01*
Y413798D01*
X165911Y413395D01*
X165836Y412998D01*
X165725Y412609D01*
X165579Y412233D01*
X165525Y412088D01*
X165497Y411935D01*
X165493Y411780D01*
X165513Y411627D01*
X165558Y411478D01*
X165625Y411339D01*
X165712Y411211D01*
X165819Y411099D01*
X165942Y411005D01*
X166079Y410931D01*
X166225Y410880D01*
X166377Y410852D01*
X166500Y410849D01*
Y404059D01*
X166495Y404000D01*
X166514Y403765D01*
X166569Y403535D01*
X166659Y403317D01*
X166783Y403116D01*
X166936Y402936D01*
X166981Y402898D01*
X167898Y401981D01*
X167936Y401936D01*
X168116Y401783D01*
X168317Y401659D01*
X168535Y401569D01*
X168765Y401514D01*
X169000Y401495D01*
X169059Y401500D01*
X169110D01*
X169114Y399365D01*
X169169Y399135D01*
X169259Y398917D01*
X169383Y398716D01*
X169536Y398536D01*
X169716Y398383D01*
X169917Y398259D01*
X170135Y398169D01*
X170365Y398114D01*
X170600Y398100D01*
X177635Y398114D01*
X177865Y398169D01*
X178083Y398259D01*
X178225Y398346D01*
X177379Y397500D01*
X167809D01*
X167630Y398245D01*
X167249Y399166D01*
X166728Y400015D01*
X166081Y400773D01*
X165323Y401420D01*
X164474Y401941D01*
X163553Y402322D01*
X162584Y402555D01*
X161591Y402633D01*
X160598Y402555D01*
X160000Y402411D01*
Y407871D01*
X160135Y407832D01*
X160713Y407724D01*
X161297Y407670D01*
X161885D01*
X162469Y407724D01*
X163047Y407832D01*
X163611Y407993D01*
X164159Y408206D01*
X164296Y408279D01*
X164420Y408374D01*
X164527Y408487D01*
X164616Y408615D01*
X164683Y408755D01*
X164727Y408904D01*
X164748Y409059D01*
X164744Y409214D01*
X164716Y409367D01*
X164664Y409514D01*
X164590Y409651D01*
X164496Y409775D01*
X164383Y409882D01*
X164255Y409971D01*
X164114Y410038D01*
X163965Y410082D01*
X163811Y410103D01*
X163655Y410099D01*
X163502Y410071D01*
X163357Y410016D01*
X162982Y409866D01*
X162593Y409755D01*
X162196Y409680D01*
X161793Y409643D01*
X161389D01*
X160986Y409680D01*
X160589Y409755D01*
X160200Y409866D01*
X160000Y409944D01*
Y418054D01*
X160200Y418134D01*
X160589Y418245D01*
X160986Y418320D01*
X161389Y418357D01*
X161793D01*
X162196Y418320D01*
X162593Y418245D01*
X162982Y418134D01*
X163358Y417988D01*
X163503Y417934D01*
X163656Y417906D01*
X163811Y417902D01*
X163964Y417922D01*
X164113Y417967D01*
X164252Y418034D01*
X164380Y418121D01*
X164492Y418228D01*
X164586Y418351D01*
X164660Y418488D01*
X164711Y418634D01*
X164739Y418786D01*
X164743Y418941D01*
X164723Y419095D01*
X164681Y419235D01*
X164678Y419243D01*
X164611Y419383D01*
X164524Y419510D01*
X164417Y419622D01*
X164294Y419717D01*
X164156Y419788D01*
X163611Y420007D01*
X163047Y420168D01*
X162970Y420182D01*
X162469Y420276D01*
X161885Y420330D01*
X161297D01*
X160713Y420276D01*
X160135Y420168D01*
X160000Y420129D01*
Y454000D01*
X190613D01*
Y452500D01*
G37*
G36*
X183387Y433302D02*X183808Y432808D01*
X184347Y432348D01*
X184951Y431978D01*
X185500Y431751D01*
Y429621D01*
X183387Y427508D01*
Y433302D01*
G37*
G36*
X190613Y442500D02*X190059D01*
X190000Y442505D01*
X189765Y442486D01*
X189535Y442431D01*
X189317Y442341D01*
X189116Y442217D01*
X189115Y442217D01*
X189086Y442192D01*
X189106Y442231D01*
X189143Y442343D01*
X189163Y442460D01*
X189164Y442579D01*
X189146Y442696D01*
X189110Y442809D01*
X189057Y442915D01*
X188988Y443012D01*
X188905Y443096D01*
X188809Y443167D01*
X188704Y443221D01*
X188592Y443259D01*
X188475Y443278D01*
X188356Y443279D01*
X188239Y443261D01*
X188126Y443223D01*
X187855Y443124D01*
X187575Y443056D01*
X187289Y443014D01*
X187000Y443000D01*
X186711Y443014D01*
X186425Y443056D01*
X186145Y443124D01*
X185872Y443220D01*
X185761Y443258D01*
X185644Y443275D01*
X185526Y443275D01*
X185409Y443255D01*
X185297Y443218D01*
X185193Y443164D01*
X185098Y443094D01*
X185015Y443009D01*
X184946Y442913D01*
X184893Y442808D01*
X184857Y442695D01*
X184840Y442579D01*
X184841Y442461D01*
X184860Y442344D01*
X184897Y442232D01*
X184952Y442127D01*
X185022Y442032D01*
X185106Y441949D01*
X185202Y441881D01*
X185308Y441830D01*
X185716Y441682D01*
X186137Y441578D01*
X186567Y441516D01*
X187000Y441495D01*
X187433Y441516D01*
X187863Y441578D01*
X188284Y441682D01*
X188694Y441825D01*
X188714Y441835D01*
X187364Y440485D01*
X187000Y440514D01*
X186294Y440458D01*
X185605Y440293D01*
X184951Y440022D01*
X184347Y439652D01*
X183808Y439192D01*
X183387Y438698D01*
Y443849D01*
X183460Y443837D01*
X183579Y443836D01*
X183696Y443854D01*
X183809Y443890D01*
X183915Y443943D01*
X184012Y444012D01*
X184096Y444095D01*
X184167Y444191D01*
X184221Y444296D01*
X184259Y444408D01*
X184278Y444525D01*
X184279Y444644D01*
X184261Y444761D01*
X184223Y444874D01*
X184124Y445145D01*
X184056Y445425D01*
X184014Y445711D01*
X184000Y446000D01*
X184014Y446289D01*
X184056Y446575D01*
X184124Y446855D01*
X184220Y447128D01*
X184258Y447239D01*
X184275Y447356D01*
X184275Y447474D01*
X184255Y447591D01*
X184218Y447703D01*
X184164Y447807D01*
X184094Y447902D01*
X184009Y447985D01*
X183913Y448054D01*
X183808Y448107D01*
X183695Y448143D01*
X183579Y448160D01*
X183461Y448159D01*
X183387Y448147D01*
Y449500D01*
X184837D01*
X184836Y449421D01*
X184854Y449304D01*
X184890Y449191D01*
X184943Y449085D01*
X185012Y448988D01*
X185095Y448904D01*
X185191Y448833D01*
X185296Y448779D01*
X185408Y448741D01*
X185525Y448722D01*
X185644Y448721D01*
X185761Y448739D01*
X185874Y448777D01*
X186145Y448876D01*
X186425Y448944D01*
X186711Y448986D01*
X187000Y449000D01*
X187289Y448986D01*
X187575Y448944D01*
X187855Y448876D01*
X188128Y448780D01*
X188239Y448742D01*
X188356Y448725D01*
X188474Y448725D01*
X188591Y448745D01*
X188703Y448782D01*
X188807Y448836D01*
X188902Y448906D01*
X188985Y448991D01*
X189054Y449087D01*
X189107Y449192D01*
X189143Y449305D01*
X189160Y449421D01*
X189160Y449500D01*
X190613D01*
Y448151D01*
X190540Y448163D01*
X190421Y448164D01*
X190304Y448146D01*
X190191Y448110D01*
X190085Y448057D01*
X189988Y447988D01*
X189904Y447905D01*
X189833Y447809D01*
X189779Y447704D01*
X189741Y447592D01*
X189722Y447475D01*
X189721Y447356D01*
X189739Y447239D01*
X189777Y447126D01*
X189876Y446855D01*
X189944Y446575D01*
X189986Y446289D01*
X190000Y446000D01*
X189986Y445711D01*
X189944Y445425D01*
X189876Y445145D01*
X189780Y444872D01*
X189742Y444761D01*
X189725Y444644D01*
X189725Y444526D01*
X189745Y444409D01*
X189782Y444297D01*
X189836Y444193D01*
X189906Y444098D01*
X189991Y444015D01*
X190087Y443946D01*
X190192Y443893D01*
X190305Y443857D01*
X190421Y443840D01*
X190539Y443841D01*
X190613Y443853D01*
Y442500D01*
G37*
G36*
X183387Y438698D02*X183348Y438653D01*
X182978Y438049D01*
X182707Y437395D01*
X182542Y436706D01*
X182486Y436000D01*
X182542Y435294D01*
X182707Y434605D01*
X182978Y433951D01*
X183348Y433347D01*
X183387Y433302D01*
Y427508D01*
X180613Y424734D01*
Y433302D01*
X180652Y433347D01*
X181022Y433951D01*
X181293Y434605D01*
X181458Y435294D01*
X181500Y436000D01*
X181458Y436706D01*
X181293Y437395D01*
X181022Y438049D01*
X180652Y438653D01*
X180613Y438698D01*
Y443853D01*
X180656Y443860D01*
X180768Y443897D01*
X180873Y443952D01*
X180968Y444022D01*
X181051Y444106D01*
X181119Y444202D01*
X181170Y444308D01*
X181318Y444716D01*
X181422Y445137D01*
X181484Y445567D01*
X181505Y446000D01*
X181484Y446433D01*
X181422Y446863D01*
X181318Y447284D01*
X181175Y447694D01*
X181122Y447800D01*
X181053Y447896D01*
X180970Y447981D01*
X180875Y448051D01*
X180769Y448106D01*
X180657Y448143D01*
X180613Y448151D01*
Y449500D01*
X183387D01*
Y448147D01*
X183344Y448140D01*
X183232Y448103D01*
X183127Y448048D01*
X183032Y447978D01*
X182949Y447894D01*
X182881Y447798D01*
X182830Y447692D01*
X182682Y447284D01*
X182578Y446863D01*
X182516Y446433D01*
X182495Y446000D01*
X182516Y445567D01*
X182578Y445137D01*
X182682Y444716D01*
X182825Y444306D01*
X182878Y444200D01*
X182947Y444104D01*
X183030Y444019D01*
X183125Y443949D01*
X183231Y443894D01*
X183343Y443857D01*
X183387Y443849D01*
Y438698D01*
G37*
G36*
X180613D02*X180192Y439192D01*
X179653Y439652D01*
X179049Y440022D01*
X178395Y440293D01*
X177706Y440458D01*
X177002Y440514D01*
Y441495D01*
X177433Y441516D01*
X177863Y441578D01*
X178284Y441682D01*
X178694Y441825D01*
X178800Y441878D01*
X178896Y441947D01*
X178981Y442030D01*
X179051Y442125D01*
X179106Y442231D01*
X179143Y442343D01*
X179163Y442460D01*
X179164Y442579D01*
X179146Y442696D01*
X179110Y442809D01*
X179057Y442915D01*
X178988Y443012D01*
X178905Y443096D01*
X178809Y443167D01*
X178704Y443221D01*
X178592Y443259D01*
X178475Y443278D01*
X178356Y443279D01*
X178239Y443261D01*
X178126Y443223D01*
X177855Y443124D01*
X177575Y443056D01*
X177289Y443014D01*
X177002Y443000D01*
Y449000D01*
X177289Y448986D01*
X177575Y448944D01*
X177855Y448876D01*
X178128Y448780D01*
X178239Y448742D01*
X178356Y448725D01*
X178474Y448725D01*
X178591Y448745D01*
X178703Y448782D01*
X178807Y448836D01*
X178902Y448906D01*
X178985Y448991D01*
X179054Y449087D01*
X179107Y449192D01*
X179143Y449305D01*
X179160Y449421D01*
X179160Y449500D01*
X180613D01*
Y448151D01*
X180540Y448163D01*
X180421Y448164D01*
X180304Y448146D01*
X180191Y448110D01*
X180085Y448057D01*
X179988Y447988D01*
X179904Y447905D01*
X179833Y447809D01*
X179779Y447704D01*
X179741Y447592D01*
X179722Y447475D01*
X179721Y447356D01*
X179739Y447239D01*
X179777Y447126D01*
X179876Y446855D01*
X179944Y446575D01*
X179986Y446289D01*
X180000Y446000D01*
X179986Y445711D01*
X179944Y445425D01*
X179876Y445145D01*
X179780Y444872D01*
X179742Y444761D01*
X179725Y444644D01*
X179725Y444526D01*
X179745Y444409D01*
X179782Y444297D01*
X179836Y444193D01*
X179906Y444098D01*
X179991Y444015D01*
X180087Y443946D01*
X180192Y443893D01*
X180305Y443857D01*
X180421Y443840D01*
X180539Y443841D01*
X180613Y443853D01*
Y438698D01*
G37*
G36*
Y424734D02*X179981Y424102D01*
X179936Y424064D01*
X179783Y423884D01*
X179659Y423683D01*
X179569Y423465D01*
X179514Y423235D01*
X179514Y423235D01*
X179495Y423000D01*
X179500Y422941D01*
Y399621D01*
X178654Y398775D01*
X178741Y398917D01*
X178831Y399135D01*
X178886Y399365D01*
X178900Y399600D01*
X178886Y406635D01*
X178831Y406865D01*
X178741Y407083D01*
X178617Y407284D01*
X178464Y407464D01*
X178284Y407617D01*
X178083Y407741D01*
X177865Y407831D01*
X177635Y407886D01*
X177400Y407900D01*
X177002Y407899D01*
Y409113D01*
X177635Y409114D01*
X177865Y409169D01*
X178083Y409259D01*
X178284Y409383D01*
X178464Y409536D01*
X178617Y409716D01*
X178741Y409917D01*
X178831Y410135D01*
X178886Y410365D01*
X178900Y410600D01*
X178886Y417635D01*
X178831Y417865D01*
X178741Y418083D01*
X178617Y418284D01*
X178464Y418464D01*
X178284Y418617D01*
X178083Y418741D01*
X177865Y418831D01*
X177635Y418886D01*
X177400Y418900D01*
X177002Y418899D01*
Y431486D01*
X177706Y431542D01*
X178395Y431707D01*
X179049Y431978D01*
X179653Y432348D01*
X180192Y432808D01*
X180613Y433302D01*
Y424734D01*
G37*
G36*
X177002Y440514D02*X177000Y440514D01*
X176294Y440458D01*
X175605Y440293D01*
X174951Y440022D01*
X174347Y439652D01*
X173808Y439192D01*
X173500Y438831D01*
Y443837D01*
X173579Y443836D01*
X173696Y443854D01*
X173809Y443890D01*
X173915Y443943D01*
X174012Y444012D01*
X174096Y444095D01*
X174167Y444191D01*
X174221Y444296D01*
X174259Y444408D01*
X174278Y444525D01*
X174279Y444644D01*
X174261Y444761D01*
X174223Y444874D01*
X174124Y445145D01*
X174056Y445425D01*
X174014Y445711D01*
X174000Y446000D01*
X174014Y446289D01*
X174056Y446575D01*
X174124Y446855D01*
X174220Y447128D01*
X174258Y447239D01*
X174275Y447356D01*
X174275Y447474D01*
X174255Y447591D01*
X174218Y447703D01*
X174164Y447807D01*
X174094Y447902D01*
X174009Y447985D01*
X173913Y448054D01*
X173808Y448107D01*
X173695Y448143D01*
X173579Y448160D01*
X173500Y448160D01*
Y448379D01*
X174621Y449500D01*
X174837D01*
X174836Y449421D01*
X174854Y449304D01*
X174890Y449191D01*
X174943Y449085D01*
X175012Y448988D01*
X175095Y448904D01*
X175191Y448833D01*
X175296Y448779D01*
X175408Y448741D01*
X175525Y448722D01*
X175644Y448721D01*
X175761Y448739D01*
X175874Y448777D01*
X176145Y448876D01*
X176425Y448944D01*
X176711Y448986D01*
X177000Y449000D01*
X177002Y449000D01*
Y443000D01*
X177000Y443000D01*
X176711Y443014D01*
X176425Y443056D01*
X176145Y443124D01*
X175872Y443220D01*
X175761Y443258D01*
X175644Y443275D01*
X175526Y443275D01*
X175409Y443255D01*
X175297Y443218D01*
X175193Y443164D01*
X175098Y443094D01*
X175015Y443009D01*
X174946Y442913D01*
X174893Y442808D01*
X174857Y442695D01*
X174840Y442579D01*
X174841Y442461D01*
X174860Y442344D01*
X174897Y442232D01*
X174952Y442127D01*
X175022Y442032D01*
X175106Y441949D01*
X175202Y441881D01*
X175308Y441830D01*
X175716Y441682D01*
X176137Y441578D01*
X176567Y441516D01*
X177000Y441495D01*
X177002Y441495D01*
Y440514D01*
G37*
G36*
Y418899D02*X170365Y418886D01*
X170135Y418831D01*
X169917Y418741D01*
X169716Y418617D01*
X169536Y418464D01*
X169454Y418368D01*
X169431Y418465D01*
X169341Y418683D01*
X169217Y418884D01*
X169064Y419064D01*
X169019Y419102D01*
X168500Y419621D01*
Y419775D01*
X168770Y419796D01*
X169535Y419980D01*
X170262Y420281D01*
X170933Y420692D01*
X171531Y421204D01*
X172043Y421802D01*
X172454Y422473D01*
X172755Y423200D01*
X172939Y423965D01*
X172985Y424750D01*
X172939Y425535D01*
X172755Y426300D01*
X172454Y427027D01*
X172043Y427698D01*
X171531Y428296D01*
X171470Y428349D01*
X173019Y429898D01*
X173064Y429936D01*
X173217Y430115D01*
X173217Y430116D01*
X173341Y430317D01*
X173431Y430535D01*
X173486Y430765D01*
X173505Y431000D01*
X173500Y431059D01*
Y433169D01*
X173808Y432808D01*
X174347Y432348D01*
X174951Y431978D01*
X175605Y431707D01*
X176294Y431542D01*
X177000Y431486D01*
X177002Y431486D01*
Y418899D01*
G37*
G36*
Y407899D02*X170365Y407886D01*
X170135Y407831D01*
X169917Y407741D01*
X169716Y407617D01*
X169536Y407464D01*
X169500Y407422D01*
Y409578D01*
X169536Y409536D01*
X169716Y409383D01*
X169917Y409259D01*
X170135Y409169D01*
X170365Y409114D01*
X170600Y409100D01*
X177002Y409113D01*
Y407899D01*
G37*
G36*
X255362Y413517D02*X259398Y409481D01*
X259436Y409436D01*
X259616Y409283D01*
X259817Y409159D01*
X260035Y409069D01*
X260265Y409014D01*
X260500Y408995D01*
X260559Y409000D01*
X261508D01*
Y408336D01*
X261350Y408407D01*
X260906Y408558D01*
X260449Y408668D01*
X259984Y408733D01*
X259515Y408756D01*
X259046Y408733D01*
X258581Y408668D01*
X258124Y408558D01*
X257680Y408407D01*
X257251Y408214D01*
X256843Y407982D01*
X256779Y407935D01*
X256723Y407878D01*
X256678Y407814D01*
X256643Y407742D01*
X256619Y407667D01*
X256608Y407588D01*
X256609Y407509D01*
X256622Y407430D01*
X256648Y407355D01*
X256685Y407285D01*
X256732Y407221D01*
X256789Y407166D01*
X256854Y407120D01*
X256925Y407085D01*
X257001Y407062D01*
X257080Y407050D01*
X257159Y407051D01*
X257237Y407065D01*
X257312Y407090D01*
X257382Y407129D01*
X257706Y407318D01*
X258048Y407471D01*
X258403Y407592D01*
X258768Y407680D01*
X259140Y407732D01*
X259515Y407750D01*
X259890Y407732D01*
X260261Y407680D01*
X260627Y407592D01*
X260982Y407471D01*
X261324Y407318D01*
X261508Y407213D01*
Y405500D01*
X260000D01*
X259765Y405486D01*
X259535Y405431D01*
X259317Y405341D01*
X259116Y405217D01*
X258936Y405064D01*
X258783Y404884D01*
X258659Y404683D01*
X258569Y404465D01*
X258514Y404235D01*
X258495Y404000D01*
X258514Y403765D01*
X258569Y403535D01*
X258659Y403317D01*
X258783Y403116D01*
X258936Y402936D01*
X259116Y402783D01*
X259317Y402659D01*
X259535Y402569D01*
X259765Y402514D01*
X260000Y402500D01*
X261508D01*
Y400290D01*
X261324Y400182D01*
X260982Y400029D01*
X260627Y399908D01*
X260261Y399820D01*
X259890Y399768D01*
X259515Y399750D01*
X259140Y399768D01*
X258768Y399820D01*
X258403Y399908D01*
X258048Y400029D01*
X257706Y400182D01*
X257380Y400368D01*
X257311Y400406D01*
X257236Y400431D01*
X257159Y400444D01*
X257080Y400445D01*
X257002Y400434D01*
X256927Y400411D01*
X256856Y400376D01*
X256792Y400331D01*
X256736Y400276D01*
X256688Y400213D01*
X256652Y400143D01*
X256626Y400069D01*
X256613Y399991D01*
X256612Y399912D01*
X256623Y399834D01*
X256647Y399759D01*
X256681Y399689D01*
X256727Y399624D01*
X256782Y399568D01*
X256846Y399522D01*
X257251Y399286D01*
X257680Y399093D01*
X258124Y398942D01*
X258581Y398832D01*
X259046Y398767D01*
X259515Y398744D01*
X259984Y398767D01*
X260449Y398832D01*
X260906Y398942D01*
X261350Y399093D01*
X261508Y399164D01*
Y397896D01*
X256365Y397886D01*
X256135Y397831D01*
X255917Y397741D01*
X255716Y397617D01*
X255536Y397464D01*
X255383Y397284D01*
X255362Y397251D01*
Y400982D01*
X255387Y400958D01*
X255451Y400913D01*
X255523Y400878D01*
X255598Y400854D01*
X255677Y400843D01*
X255756Y400844D01*
X255835Y400857D01*
X255910Y400883D01*
X255980Y400920D01*
X256044Y400967D01*
X256099Y401024D01*
X256145Y401089D01*
X256180Y401160D01*
X256203Y401236D01*
X256215Y401315D01*
X256214Y401394D01*
X256200Y401472D01*
X256175Y401547D01*
X256136Y401617D01*
X255947Y401941D01*
X255794Y402283D01*
X255673Y402638D01*
X255585Y403004D01*
X255533Y403375D01*
X255515Y403750D01*
X255533Y404125D01*
X255585Y404496D01*
X255673Y404862D01*
X255794Y405217D01*
X255947Y405559D01*
X256133Y405886D01*
X256171Y405954D01*
X256196Y406029D01*
X256209Y406106D01*
X256210Y406185D01*
X256199Y406263D01*
X256176Y406338D01*
X256141Y406409D01*
X256096Y406473D01*
X256041Y406529D01*
X255978Y406577D01*
X255908Y406613D01*
X255834Y406638D01*
X255756Y406652D01*
X255677Y406653D01*
X255599Y406642D01*
X255524Y406618D01*
X255454Y406584D01*
X255389Y406538D01*
X255362Y406512D01*
Y413517D01*
G37*
G36*
X261508Y384613D02*X260102Y386019D01*
X260064Y386064D01*
X259884Y386217D01*
X259683Y386341D01*
X259465Y386431D01*
X259235Y386486D01*
X259235Y386486D01*
X259000Y386505D01*
X258941Y386500D01*
X255362D01*
Y388749D01*
X255383Y388716D01*
X255536Y388536D01*
X255716Y388383D01*
X255917Y388259D01*
X256135Y388169D01*
X256365Y388114D01*
X256600Y388100D01*
X261508Y388110D01*
Y384613D01*
G37*
G36*
X255362Y386500D02*X253493D01*
Y389145D01*
X253578Y389181D01*
X253679Y389243D01*
X253769Y389319D01*
X253845Y389409D01*
X253905Y389511D01*
X254122Y389980D01*
X254289Y390469D01*
X254409Y390972D01*
X254482Y391484D01*
X254506Y392000D01*
X254482Y392516D01*
X254409Y393028D01*
X254289Y393531D01*
X254122Y394020D01*
X253910Y394492D01*
X253849Y394593D01*
X253772Y394684D01*
X253682Y394761D01*
X253580Y394823D01*
X253493Y394860D01*
Y408805D01*
X253916Y409495D01*
X254247Y410295D01*
X254449Y411137D01*
X254500Y412000D01*
X254449Y412863D01*
X254247Y413705D01*
X253916Y414505D01*
X253493Y415195D01*
Y415386D01*
X255362Y413517D01*
Y406512D01*
X255333Y406483D01*
X255287Y406419D01*
X255051Y406014D01*
X254858Y405585D01*
X254707Y405141D01*
X254597Y404684D01*
X254532Y404219D01*
X254509Y403750D01*
X254532Y403281D01*
X254597Y402816D01*
X254707Y402359D01*
X254858Y401915D01*
X255051Y401486D01*
X255283Y401078D01*
X255330Y401014D01*
X255362Y400982D01*
Y397251D01*
X255259Y397083D01*
X255169Y396865D01*
X255114Y396635D01*
X255100Y396400D01*
X255114Y389365D01*
X255169Y389135D01*
X255259Y388917D01*
X255362Y388749D01*
Y386500D01*
G37*
G36*
X253493Y415195D02*X253463Y415243D01*
X252901Y415901D01*
X252243Y416463D01*
X251505Y416916D01*
X250705Y417247D01*
X249863Y417449D01*
X249000Y417517D01*
X248992Y417516D01*
Y419887D01*
X253493Y415386D01*
Y415195D01*
G37*
G36*
Y386500D02*X249129D01*
X249516Y386518D01*
X250028Y386591D01*
X250531Y386711D01*
X251020Y386878D01*
X251492Y387090D01*
X251593Y387151D01*
X251684Y387228D01*
X251761Y387318D01*
X251823Y387420D01*
X251869Y387529D01*
X251897Y387645D01*
X251906Y387763D01*
X251897Y387881D01*
X251870Y387997D01*
X251824Y388107D01*
X251762Y388208D01*
X251686Y388298D01*
X251595Y388376D01*
X251494Y388438D01*
X251385Y388484D01*
X251269Y388511D01*
X251151Y388521D01*
X251032Y388512D01*
X250917Y388484D01*
X250808Y388437D01*
X250468Y388279D01*
X250112Y388158D01*
X249747Y388070D01*
X249375Y388018D01*
X249000Y388000D01*
X248992Y388000D01*
Y396000D01*
X249000Y396000D01*
X249375Y395982D01*
X249747Y395930D01*
X250112Y395842D01*
X250468Y395721D01*
X250810Y395567D01*
X250918Y395520D01*
X251033Y395493D01*
X251151Y395483D01*
X251268Y395493D01*
X251383Y395521D01*
X251492Y395566D01*
X251593Y395628D01*
X251682Y395705D01*
X251759Y395795D01*
X251820Y395895D01*
X251865Y396004D01*
X251893Y396119D01*
X251902Y396237D01*
X251892Y396355D01*
X251865Y396469D01*
X251819Y396578D01*
X251757Y396679D01*
X251681Y396769D01*
X251591Y396845D01*
X251489Y396905D01*
X251020Y397122D01*
X250531Y397289D01*
X250028Y397409D01*
X249516Y397482D01*
X249000Y397506D01*
X248992Y397506D01*
Y406484D01*
X249000Y406483D01*
X249863Y406551D01*
X250705Y406753D01*
X251505Y407084D01*
X252243Y407537D01*
X252901Y408099D01*
X253463Y408757D01*
X253493Y408805D01*
Y394860D01*
X253471Y394869D01*
X253355Y394897D01*
X253237Y394906D01*
X253119Y394897D01*
X253003Y394870D01*
X252893Y394824D01*
X252792Y394762D01*
X252702Y394686D01*
X252624Y394595D01*
X252562Y394494D01*
X252516Y394385D01*
X252489Y394269D01*
X252479Y394151D01*
X252488Y394032D01*
X252516Y393917D01*
X252563Y393808D01*
X252721Y393468D01*
X252842Y393112D01*
X252930Y392747D01*
X252982Y392375D01*
X253000Y392000D01*
X252982Y391625D01*
X252930Y391253D01*
X252842Y390888D01*
X252721Y390532D01*
X252567Y390190D01*
X252520Y390082D01*
X252493Y389967D01*
X252483Y389849D01*
X252493Y389732D01*
X252521Y389617D01*
X252566Y389508D01*
X252628Y389407D01*
X252705Y389318D01*
X252795Y389241D01*
X252895Y389180D01*
X253004Y389135D01*
X253119Y389107D01*
X253237Y389098D01*
X253355Y389108D01*
X253469Y389135D01*
X253493Y389145D01*
Y386500D01*
G37*
G36*
X244507Y420386D02*X244785Y420664D01*
X245294Y420542D01*
X246000Y420486D01*
X246706Y420542D01*
X247395Y420707D01*
X247944Y420935D01*
X248992Y419887D01*
Y417516D01*
X248137Y417449D01*
X247295Y417247D01*
X246495Y416916D01*
X245757Y416463D01*
X245099Y415901D01*
X244537Y415243D01*
X244507Y415195D01*
Y420386D01*
G37*
G36*
X248992Y388000D02*X248625Y388018D01*
X248253Y388070D01*
X247888Y388158D01*
X247532Y388279D01*
X247190Y388433D01*
X247082Y388480D01*
X246967Y388507D01*
X246849Y388517D01*
X246732Y388507D01*
X246617Y388479D01*
X246508Y388434D01*
X246407Y388372D01*
X246318Y388295D01*
X246241Y388205D01*
X246180Y388105D01*
X246135Y387996D01*
X246107Y387881D01*
X246098Y387763D01*
X246108Y387645D01*
X246135Y387531D01*
X246181Y387422D01*
X246243Y387321D01*
X246319Y387231D01*
X246409Y387155D01*
X246511Y387095D01*
X246980Y386878D01*
X247469Y386711D01*
X247972Y386591D01*
X248484Y386518D01*
X248915Y386498D01*
X248765Y386486D01*
X248535Y386431D01*
X248317Y386341D01*
X248116Y386217D01*
X248115Y386217D01*
X247936Y386064D01*
X247898Y386019D01*
X244507Y382629D01*
Y389140D01*
X244529Y389131D01*
X244645Y389103D01*
X244763Y389094D01*
X244881Y389103D01*
X244997Y389130D01*
X245107Y389176D01*
X245208Y389238D01*
X245298Y389314D01*
X245376Y389405D01*
X245438Y389506D01*
X245484Y389615D01*
X245511Y389731D01*
X245521Y389849D01*
X245512Y389968D01*
X245484Y390083D01*
X245437Y390192D01*
X245279Y390532D01*
X245158Y390888D01*
X245070Y391253D01*
X245018Y391625D01*
X245000Y392000D01*
X245018Y392375D01*
X245070Y392747D01*
X245158Y393112D01*
X245279Y393468D01*
X245433Y393810D01*
X245480Y393918D01*
X245507Y394033D01*
X245517Y394151D01*
X245507Y394268D01*
X245479Y394383D01*
X245434Y394492D01*
X245372Y394593D01*
X245295Y394682D01*
X245205Y394759D01*
X245105Y394820D01*
X244996Y394865D01*
X244881Y394893D01*
X244763Y394902D01*
X244645Y394892D01*
X244531Y394865D01*
X244507Y394855D01*
Y408805D01*
X244537Y408757D01*
X245099Y408099D01*
X245757Y407537D01*
X246495Y407084D01*
X247295Y406753D01*
X248137Y406551D01*
X248992Y406484D01*
Y397506D01*
X248484Y397482D01*
X247972Y397409D01*
X247469Y397289D01*
X246980Y397122D01*
X246508Y396910D01*
X246407Y396849D01*
X246316Y396772D01*
X246239Y396682D01*
X246177Y396580D01*
X246131Y396471D01*
X246103Y396355D01*
X246094Y396237D01*
X246103Y396119D01*
X246130Y396003D01*
X246176Y395893D01*
X246238Y395792D01*
X246314Y395702D01*
X246405Y395624D01*
X246506Y395562D01*
X246615Y395516D01*
X246731Y395489D01*
X246849Y395479D01*
X246968Y395488D01*
X247083Y395516D01*
X247192Y395563D01*
X247532Y395721D01*
X247888Y395842D01*
X248253Y395930D01*
X248625Y395982D01*
X248992Y396000D01*
Y388000D01*
G37*
G36*
X244507Y382629D02*X244379Y382500D01*
X241493D01*
Y385805D01*
X241916Y386495D01*
X242247Y387295D01*
X242449Y388137D01*
X242500Y389000D01*
X242449Y389863D01*
X242247Y390705D01*
X241916Y391505D01*
X241493Y392195D01*
Y406145D01*
X241578Y406181D01*
X241679Y406243D01*
X241769Y406319D01*
X241845Y406409D01*
X241905Y406511D01*
X242122Y406980D01*
X242289Y407469D01*
X242409Y407972D01*
X242482Y408484D01*
X242506Y409000D01*
X242482Y409516D01*
X242409Y410028D01*
X242289Y410531D01*
X242122Y411020D01*
X241910Y411492D01*
X241849Y411593D01*
X241772Y411684D01*
X241682Y411761D01*
X241580Y411823D01*
X241493Y411860D01*
Y417371D01*
X244507Y420386D01*
Y415195D01*
X244084Y414505D01*
X243753Y413705D01*
X243551Y412863D01*
X243483Y412000D01*
X243551Y411137D01*
X243753Y410295D01*
X244084Y409495D01*
X244507Y408805D01*
Y394855D01*
X244422Y394819D01*
X244321Y394757D01*
X244231Y394681D01*
X244155Y394591D01*
X244095Y394489D01*
X243878Y394020D01*
X243711Y393531D01*
X243591Y393028D01*
X243518Y392516D01*
X243494Y392000D01*
X243518Y391484D01*
X243591Y390972D01*
X243711Y390469D01*
X243878Y389980D01*
X244090Y389508D01*
X244151Y389407D01*
X244228Y389316D01*
X244318Y389239D01*
X244420Y389177D01*
X244507Y389140D01*
Y382629D01*
G37*
G36*
X241493Y392195D02*X241463Y392243D01*
X240901Y392901D01*
X240243Y393463D01*
X239505Y393916D01*
X238705Y394247D01*
X237863Y394449D01*
X237000Y394517D01*
X236998Y394517D01*
Y403494D01*
X237000Y403494D01*
X237516Y403518D01*
X238028Y403591D01*
X238531Y403711D01*
X239020Y403878D01*
X239492Y404090D01*
X239593Y404151D01*
X239684Y404228D01*
X239761Y404318D01*
X239823Y404420D01*
X239869Y404529D01*
X239897Y404645D01*
X239906Y404763D01*
X239897Y404881D01*
X239870Y404997D01*
X239824Y405107D01*
X239762Y405208D01*
X239686Y405298D01*
X239595Y405376D01*
X239494Y405438D01*
X239385Y405484D01*
X239269Y405511D01*
X239151Y405521D01*
X239032Y405512D01*
X238917Y405484D01*
X238808Y405437D01*
X238468Y405279D01*
X238112Y405158D01*
X237747Y405070D01*
X237375Y405018D01*
X237000Y405000D01*
X236998Y405000D01*
Y413000D01*
X237000Y413000D01*
X237375Y412982D01*
X237747Y412930D01*
X238112Y412842D01*
X238468Y412721D01*
X238810Y412567D01*
X238918Y412520D01*
X239033Y412493D01*
X239151Y412483D01*
X239268Y412493D01*
X239383Y412521D01*
X239492Y412566D01*
X239593Y412628D01*
X239682Y412705D01*
X239759Y412795D01*
X239820Y412895D01*
X239865Y413004D01*
X239893Y413119D01*
X239902Y413237D01*
X239892Y413355D01*
X239865Y413469D01*
X239819Y413578D01*
X239757Y413679D01*
X239681Y413769D01*
X239591Y413845D01*
X239489Y413905D01*
X239020Y414122D01*
X238531Y414289D01*
X238028Y414409D01*
X237516Y414482D01*
X237000Y414506D01*
X236998Y414506D01*
Y416500D01*
X239941D01*
X240000Y416495D01*
X240235Y416514D01*
X240235Y416514D01*
X240465Y416569D01*
X240683Y416659D01*
X240884Y416783D01*
X241064Y416936D01*
X241102Y416981D01*
X241493Y417371D01*
Y411860D01*
X241471Y411869D01*
X241355Y411897D01*
X241237Y411906D01*
X241119Y411897D01*
X241003Y411870D01*
X240893Y411824D01*
X240792Y411762D01*
X240702Y411686D01*
X240624Y411595D01*
X240562Y411494D01*
X240516Y411385D01*
X240489Y411269D01*
X240479Y411151D01*
X240488Y411032D01*
X240516Y410917D01*
X240563Y410808D01*
X240704Y410505D01*
X240721Y410468D01*
X240842Y410112D01*
X240930Y409747D01*
X240982Y409375D01*
X241000Y409000D01*
X240982Y408625D01*
X240930Y408253D01*
X240842Y407888D01*
X240721Y407532D01*
X240567Y407190D01*
X240520Y407082D01*
X240493Y406967D01*
X240483Y406849D01*
X240493Y406732D01*
X240521Y406617D01*
X240566Y406508D01*
X240628Y406407D01*
X240705Y406318D01*
X240795Y406241D01*
X240895Y406180D01*
X241004Y406135D01*
X241119Y406107D01*
X241237Y406098D01*
X241355Y406108D01*
X241469Y406135D01*
X241493Y406145D01*
Y392195D01*
G37*
G36*
Y382500D02*X236998D01*
Y383483D01*
X237000Y383483D01*
X237863Y383551D01*
X238705Y383753D01*
X239505Y384084D01*
X240243Y384537D01*
X240901Y385099D01*
X241463Y385757D01*
X241493Y385805D01*
Y382500D01*
G37*
G36*
X232507Y416500D02*X236998D01*
Y414506D01*
X236484Y414482D01*
X235972Y414409D01*
X235469Y414289D01*
X234980Y414122D01*
X234508Y413910D01*
X234407Y413849D01*
X234316Y413772D01*
X234239Y413682D01*
X234177Y413580D01*
X234131Y413471D01*
X234103Y413355D01*
X234094Y413237D01*
X234103Y413119D01*
X234130Y413003D01*
X234176Y412893D01*
X234238Y412792D01*
X234314Y412702D01*
X234405Y412624D01*
X234506Y412562D01*
X234615Y412516D01*
X234731Y412489D01*
X234849Y412479D01*
X234968Y412488D01*
X235083Y412516D01*
X235192Y412563D01*
X235532Y412721D01*
X235888Y412842D01*
X236253Y412930D01*
X236625Y412982D01*
X236998Y413000D01*
Y405000D01*
X236625Y405018D01*
X236253Y405070D01*
X235888Y405158D01*
X235532Y405279D01*
X235495Y405296D01*
X235190Y405433D01*
X235082Y405480D01*
X234967Y405507D01*
X234849Y405517D01*
X234732Y405507D01*
X234617Y405479D01*
X234508Y405434D01*
X234407Y405372D01*
X234318Y405295D01*
X234241Y405205D01*
X234180Y405105D01*
X234135Y404996D01*
X234107Y404881D01*
X234098Y404763D01*
X234108Y404645D01*
X234135Y404531D01*
X234181Y404422D01*
X234243Y404321D01*
X234319Y404231D01*
X234409Y404155D01*
X234511Y404095D01*
X234980Y403878D01*
X235469Y403711D01*
X235972Y403591D01*
X236484Y403518D01*
X236998Y403494D01*
Y394517D01*
X236137Y394449D01*
X235295Y394247D01*
X234495Y393916D01*
X233757Y393463D01*
X233099Y392901D01*
X232537Y392243D01*
X232507Y392195D01*
Y406140D01*
X232529Y406131D01*
X232645Y406103D01*
X232763Y406094D01*
X232881Y406103D01*
X232997Y406130D01*
X233107Y406176D01*
X233208Y406238D01*
X233298Y406314D01*
X233376Y406405D01*
X233438Y406506D01*
X233484Y406615D01*
X233511Y406731D01*
X233521Y406849D01*
X233512Y406968D01*
X233484Y407083D01*
X233437Y407192D01*
X233279Y407532D01*
X233158Y407888D01*
X233070Y408253D01*
X233018Y408625D01*
X233000Y409000D01*
X233018Y409375D01*
X233070Y409747D01*
X233158Y410112D01*
X233279Y410468D01*
X233433Y410810D01*
X233480Y410918D01*
X233507Y411033D01*
X233517Y411151D01*
X233507Y411268D01*
X233479Y411383D01*
X233434Y411492D01*
X233372Y411593D01*
X233295Y411682D01*
X233205Y411759D01*
X233105Y411820D01*
X232996Y411865D01*
X232881Y411893D01*
X232763Y411902D01*
X232645Y411892D01*
X232531Y411865D01*
X232507Y411855D01*
Y416500D01*
G37*
G36*
X236998Y382500D02*X233621D01*
X232507Y383614D01*
Y385805D01*
X232537Y385757D01*
X233099Y385099D01*
X233757Y384537D01*
X234495Y384084D01*
X235295Y383753D01*
X236137Y383551D01*
X236998Y383483D01*
Y382500D01*
G37*
G36*
X232507Y383614D02*X230500Y385621D01*
Y392941D01*
X230505Y393000D01*
X230486Y393235D01*
X230431Y393465D01*
X230341Y393683D01*
X230217Y393884D01*
X230064Y394064D01*
X230019Y394102D01*
X222715Y401407D01*
X223231Y401621D01*
X223889Y402024D01*
X224476Y402524D01*
X224976Y403111D01*
X225379Y403769D01*
X225675Y404481D01*
X225855Y405231D01*
X225900Y406000D01*
X225855Y406769D01*
X225675Y407519D01*
X225379Y408231D01*
X224976Y408889D01*
X224476Y409476D01*
X223889Y409976D01*
X223231Y410379D01*
X222519Y410675D01*
X221769Y410855D01*
X221034Y410912D01*
X226621Y416500D01*
X232507D01*
Y411855D01*
X232422Y411819D01*
X232321Y411757D01*
X232231Y411681D01*
X232155Y411591D01*
X232095Y411489D01*
X231878Y411020D01*
X231711Y410531D01*
X231591Y410028D01*
X231518Y409516D01*
X231494Y409000D01*
X231518Y408484D01*
X231591Y407972D01*
X231711Y407469D01*
X231878Y406980D01*
X232090Y406508D01*
X232151Y406407D01*
X232228Y406316D01*
X232318Y406239D01*
X232420Y406177D01*
X232507Y406140D01*
Y392195D01*
X232084Y391505D01*
X231753Y390705D01*
X231551Y389863D01*
X231483Y389000D01*
X231551Y388137D01*
X231753Y387295D01*
X232084Y386495D01*
X232507Y385805D01*
Y383614D01*
G37*
G36*
X261508Y367500D02*X259679D01*
X259675Y367519D01*
X259379Y368231D01*
X258976Y368889D01*
X258476Y369476D01*
X257889Y369976D01*
X257231Y370379D01*
X256519Y370675D01*
X255769Y370855D01*
X255036Y370912D01*
X255064Y370936D01*
X255217Y371115D01*
X255217Y371116D01*
X255341Y371317D01*
X255431Y371535D01*
X255486Y371765D01*
X255505Y372000D01*
X255500Y372059D01*
Y375509D01*
X257735Y375514D01*
X257965Y375569D01*
X258183Y375659D01*
X258384Y375783D01*
X258564Y375936D01*
X258717Y376116D01*
X258841Y376317D01*
X258931Y376535D01*
X258986Y376765D01*
X259000Y377000D01*
X258987Y382892D01*
X260288Y381591D01*
X260207Y381395D01*
X260042Y380706D01*
X259986Y380000D01*
X260042Y379294D01*
X260207Y378605D01*
X260478Y377951D01*
X260848Y377347D01*
X261308Y376808D01*
X261508Y376638D01*
Y367500D01*
G37*
G36*
X229613Y362500D02*X239000D01*
Y360121D01*
X237944Y359065D01*
X237395Y359293D01*
X236706Y359458D01*
X236000Y359514D01*
X235294Y359458D01*
X234605Y359293D01*
X233951Y359022D01*
X233347Y358652D01*
X232808Y358192D01*
X232348Y357653D01*
X231978Y357049D01*
X231707Y356395D01*
X231542Y355706D01*
X231486Y355000D01*
X231542Y354294D01*
X231707Y353605D01*
X231978Y352951D01*
X232348Y352347D01*
X232808Y351808D01*
X233347Y351348D01*
X233951Y350978D01*
X234500Y350751D01*
Y346621D01*
X229613Y341734D01*
Y352853D01*
X229656Y352860D01*
X229768Y352897D01*
X229873Y352952D01*
X229968Y353022D01*
X230051Y353106D01*
X230119Y353202D01*
X230170Y353308D01*
X230318Y353716D01*
X230422Y354137D01*
X230484Y354567D01*
X230505Y355000D01*
X230484Y355433D01*
X230422Y355863D01*
X230318Y356284D01*
X230175Y356694D01*
X230122Y356800D01*
X230053Y356896D01*
X229970Y356981D01*
X229875Y357051D01*
X229769Y357106D01*
X229657Y357143D01*
X229613Y357151D01*
Y362500D01*
G37*
G36*
X226002Y364877D02*X227898Y362981D01*
X227936Y362936D01*
X228116Y362783D01*
X228317Y362659D01*
X228535Y362569D01*
X228765Y362514D01*
X229000Y362495D01*
X229059Y362500D01*
X229613D01*
Y357151D01*
X229540Y357163D01*
X229421Y357164D01*
X229304Y357146D01*
X229191Y357110D01*
X229085Y357057D01*
X228988Y356988D01*
X228904Y356905D01*
X228833Y356809D01*
X228779Y356704D01*
X228741Y356592D01*
X228722Y356475D01*
X228721Y356356D01*
X228739Y356239D01*
X228777Y356126D01*
X228876Y355855D01*
X228944Y355575D01*
X228986Y355289D01*
X229000Y355000D01*
X228986Y354711D01*
X228944Y354425D01*
X228876Y354145D01*
X228780Y353872D01*
X228742Y353761D01*
X228725Y353644D01*
X228725Y353526D01*
X228745Y353409D01*
X228782Y353297D01*
X228836Y353193D01*
X228906Y353098D01*
X228991Y353015D01*
X229087Y352946D01*
X229192Y352893D01*
X229305Y352857D01*
X229421Y352840D01*
X229539Y352841D01*
X229613Y352853D01*
Y341734D01*
X226002Y338123D01*
Y350495D01*
X226433Y350516D01*
X226863Y350578D01*
X227284Y350682D01*
X227694Y350825D01*
X227800Y350878D01*
X227896Y350947D01*
X227981Y351030D01*
X228051Y351125D01*
X228106Y351231D01*
X228143Y351343D01*
X228163Y351460D01*
X228164Y351579D01*
X228146Y351696D01*
X228110Y351809D01*
X228057Y351915D01*
X227988Y352012D01*
X227905Y352096D01*
X227809Y352167D01*
X227704Y352221D01*
X227592Y352259D01*
X227475Y352278D01*
X227356Y352279D01*
X227239Y352261D01*
X227126Y352223D01*
X226855Y352124D01*
X226575Y352056D01*
X226289Y352014D01*
X226002Y352000D01*
Y358000D01*
X226289Y357986D01*
X226575Y357944D01*
X226855Y357876D01*
X227128Y357780D01*
X227239Y357742D01*
X227356Y357725D01*
X227474Y357725D01*
X227591Y357745D01*
X227703Y357782D01*
X227807Y357836D01*
X227902Y357906D01*
X227985Y357991D01*
X228054Y358087D01*
X228107Y358192D01*
X228143Y358305D01*
X228160Y358421D01*
X228159Y358539D01*
X228140Y358656D01*
X228103Y358768D01*
X228048Y358873D01*
X227978Y358968D01*
X227894Y359051D01*
X227798Y359119D01*
X227692Y359170D01*
X227284Y359318D01*
X226863Y359422D01*
X226433Y359484D01*
X226002Y359505D01*
Y364877D01*
G37*
G36*
X261508Y362629D02*X259981Y361102D01*
X259936Y361064D01*
X259783Y360884D01*
X259659Y360683D01*
X259569Y360465D01*
X259514Y360235D01*
X259514Y360235D01*
X259495Y360000D01*
X259500Y359941D01*
Y357831D01*
X259192Y358192D01*
X258653Y358652D01*
X258049Y359022D01*
X257395Y359293D01*
X256706Y359458D01*
X256000Y359514D01*
X255294Y359458D01*
X254605Y359293D01*
X253951Y359022D01*
X253347Y358652D01*
X252808Y358192D01*
X252348Y357653D01*
X251978Y357049D01*
X251707Y356395D01*
X251542Y355706D01*
X251486Y355000D01*
X251542Y354294D01*
X251707Y353605D01*
X251978Y352951D01*
X252348Y352347D01*
X252808Y351808D01*
X253347Y351348D01*
X253951Y350978D01*
X254500Y350751D01*
Y350621D01*
X239981Y336102D01*
X239936Y336064D01*
X239783Y335884D01*
X239659Y335683D01*
X239569Y335465D01*
X239514Y335235D01*
X239514Y335235D01*
X239495Y335000D01*
X239500Y334941D01*
Y327163D01*
X239421Y327164D01*
X239304Y327146D01*
X239191Y327110D01*
X239085Y327057D01*
X238988Y326988D01*
X238904Y326905D01*
X238833Y326809D01*
X238779Y326704D01*
X238741Y326592D01*
X238722Y326475D01*
X238721Y326356D01*
X238739Y326239D01*
X238777Y326126D01*
X238876Y325855D01*
X238944Y325575D01*
X238986Y325289D01*
X239000Y325000D01*
X238986Y324711D01*
X238944Y324425D01*
X238876Y324145D01*
X238780Y323872D01*
X238742Y323761D01*
X238725Y323644D01*
X238725Y323526D01*
X238745Y323409D01*
X238782Y323297D01*
X238836Y323193D01*
X238906Y323098D01*
X238991Y323015D01*
X239087Y322946D01*
X239192Y322893D01*
X239305Y322857D01*
X239421Y322840D01*
X239500Y322840D01*
Y317621D01*
X236002Y314123D01*
Y320495D01*
X236433Y320516D01*
X236863Y320578D01*
X237284Y320682D01*
X237694Y320825D01*
X237800Y320878D01*
X237896Y320947D01*
X237981Y321030D01*
X238051Y321125D01*
X238106Y321231D01*
X238143Y321343D01*
X238163Y321460D01*
X238164Y321579D01*
X238146Y321696D01*
X238110Y321809D01*
X238057Y321915D01*
X237988Y322012D01*
X237905Y322096D01*
X237809Y322167D01*
X237704Y322221D01*
X237592Y322259D01*
X237475Y322278D01*
X237356Y322279D01*
X237239Y322261D01*
X237126Y322223D01*
X236855Y322124D01*
X236575Y322056D01*
X236289Y322014D01*
X236002Y322000D01*
Y328000D01*
X236289Y327986D01*
X236575Y327944D01*
X236855Y327876D01*
X237128Y327780D01*
X237239Y327742D01*
X237356Y327725D01*
X237474Y327725D01*
X237591Y327745D01*
X237703Y327782D01*
X237807Y327836D01*
X237902Y327906D01*
X237985Y327991D01*
X238054Y328087D01*
X238107Y328192D01*
X238143Y328305D01*
X238160Y328421D01*
X238159Y328539D01*
X238140Y328656D01*
X238103Y328768D01*
X238048Y328873D01*
X237978Y328968D01*
X237894Y329051D01*
X237798Y329119D01*
X237692Y329170D01*
X237284Y329318D01*
X236863Y329422D01*
X236433Y329484D01*
X236002Y329505D01*
Y337880D01*
X247019Y348898D01*
X247064Y348936D01*
X247217Y349115D01*
X247217Y349116D01*
X247341Y349317D01*
X247431Y349535D01*
X247486Y349765D01*
X247505Y350000D01*
X247500Y350059D01*
Y350751D01*
X248049Y350978D01*
X248653Y351348D01*
X249192Y351808D01*
X249652Y352347D01*
X250022Y352951D01*
X250293Y353605D01*
X250458Y354294D01*
X250500Y355000D01*
X250458Y355706D01*
X250293Y356395D01*
X250022Y357049D01*
X249652Y357653D01*
X249192Y358192D01*
X248653Y358652D01*
X248049Y359022D01*
X247500Y359249D01*
Y361379D01*
X250407Y364285D01*
X250621Y363769D01*
X251024Y363111D01*
X251524Y362524D01*
X252111Y362024D01*
X252769Y361621D01*
X253481Y361325D01*
X254231Y361145D01*
X255000Y361085D01*
X255769Y361145D01*
X256519Y361325D01*
X257231Y361621D01*
X257889Y362024D01*
X258476Y362524D01*
X258976Y363111D01*
X259379Y363769D01*
X259675Y364481D01*
X259679Y364500D01*
X261508D01*
Y362629D01*
G37*
G36*
X236002Y314123D02*X232944Y311065D01*
X232395Y311293D01*
X232387Y311295D01*
Y314566D01*
X232651Y314728D01*
X232986Y315014D01*
X233272Y315349D01*
X233503Y315725D01*
X233671Y316132D01*
X233774Y316561D01*
X233800Y317000D01*
X233774Y317439D01*
X233671Y317868D01*
X233503Y318275D01*
X233272Y318651D01*
X232986Y318986D01*
X232651Y319272D01*
X232387Y319434D01*
Y322849D01*
X232460Y322837D01*
X232579Y322836D01*
X232696Y322854D01*
X232809Y322890D01*
X232915Y322943D01*
X233012Y323012D01*
X233096Y323095D01*
X233167Y323191D01*
X233221Y323296D01*
X233259Y323408D01*
X233278Y323525D01*
X233279Y323644D01*
X233261Y323761D01*
X233223Y323874D01*
X233124Y324145D01*
X233056Y324425D01*
X233014Y324711D01*
X233000Y325000D01*
X233014Y325289D01*
X233056Y325575D01*
X233124Y325855D01*
X233220Y326128D01*
X233258Y326239D01*
X233275Y326356D01*
X233275Y326474D01*
X233255Y326591D01*
X233218Y326703D01*
X233164Y326807D01*
X233094Y326902D01*
X233009Y326985D01*
X232913Y327054D01*
X232808Y327107D01*
X232695Y327143D01*
X232579Y327160D01*
X232461Y327159D01*
X232387Y327147D01*
Y332566D01*
X232651Y332728D01*
X232986Y333014D01*
X233272Y333349D01*
X233503Y333725D01*
X233671Y334132D01*
X233774Y334561D01*
X233800Y335000D01*
X233774Y335439D01*
X233733Y335611D01*
X236002Y337880D01*
Y329505D01*
X236000Y329505D01*
X235567Y329484D01*
X235137Y329422D01*
X234716Y329318D01*
X234306Y329175D01*
X234200Y329122D01*
X234104Y329053D01*
X234019Y328970D01*
X233949Y328875D01*
X233894Y328769D01*
X233857Y328657D01*
X233837Y328540D01*
X233836Y328421D01*
X233854Y328304D01*
X233890Y328191D01*
X233943Y328085D01*
X234012Y327988D01*
X234095Y327904D01*
X234191Y327833D01*
X234296Y327779D01*
X234408Y327741D01*
X234525Y327722D01*
X234644Y327721D01*
X234761Y327739D01*
X234874Y327777D01*
X235145Y327876D01*
X235425Y327944D01*
X235711Y327986D01*
X236000Y328000D01*
X236002Y328000D01*
Y322000D01*
X236000Y322000D01*
X235711Y322014D01*
X235425Y322056D01*
X235145Y322124D01*
X234872Y322220D01*
X234761Y322258D01*
X234644Y322275D01*
X234526Y322275D01*
X234409Y322255D01*
X234297Y322218D01*
X234193Y322164D01*
X234098Y322094D01*
X234015Y322009D01*
X233946Y321913D01*
X233893Y321808D01*
X233857Y321695D01*
X233840Y321579D01*
X233841Y321461D01*
X233860Y321344D01*
X233897Y321232D01*
X233952Y321127D01*
X234022Y321032D01*
X234106Y320949D01*
X234202Y320881D01*
X234308Y320830D01*
X234716Y320682D01*
X235137Y320578D01*
X235567Y320516D01*
X236000Y320495D01*
X236002Y320495D01*
Y314123D01*
G37*
G36*
X232387Y319434D02*X232275Y319503D01*
X231868Y319671D01*
X231439Y319774D01*
X231000Y319809D01*
X230561Y319774D01*
X230132Y319671D01*
X229725Y319503D01*
X229349Y319272D01*
X229014Y318986D01*
X228728Y318651D01*
X228497Y318275D01*
X228329Y317868D01*
X228226Y317439D01*
X228191Y317000D01*
X228226Y316561D01*
X228267Y316389D01*
X226002Y314123D01*
Y320486D01*
X226706Y320542D01*
X227395Y320707D01*
X228049Y320978D01*
X228653Y321348D01*
X229192Y321808D01*
X229652Y322347D01*
X230022Y322951D01*
X230293Y323605D01*
X230458Y324294D01*
X230500Y325000D01*
X230458Y325706D01*
X230293Y326395D01*
X230022Y327049D01*
X229652Y327653D01*
X229192Y328192D01*
X228653Y328652D01*
X228049Y329022D01*
X227395Y329293D01*
X226706Y329458D01*
X226002Y329514D01*
Y333880D01*
X228657Y336536D01*
X228497Y336275D01*
X228329Y335868D01*
X228226Y335439D01*
X228191Y335000D01*
X228226Y334561D01*
X228329Y334132D01*
X228497Y333725D01*
X228728Y333349D01*
X229014Y333014D01*
X229349Y332728D01*
X229725Y332497D01*
X230132Y332329D01*
X230561Y332226D01*
X231000Y332191D01*
X231439Y332226D01*
X231868Y332329D01*
X232275Y332497D01*
X232387Y332566D01*
Y327147D01*
X232344Y327140D01*
X232232Y327103D01*
X232127Y327048D01*
X232032Y326978D01*
X231949Y326894D01*
X231881Y326798D01*
X231830Y326692D01*
X231682Y326284D01*
X231578Y325863D01*
X231516Y325433D01*
X231495Y325000D01*
X231516Y324567D01*
X231578Y324137D01*
X231682Y323716D01*
X231825Y323306D01*
X231878Y323200D01*
X231947Y323104D01*
X232030Y323019D01*
X232125Y322949D01*
X232231Y322894D01*
X232343Y322857D01*
X232387Y322849D01*
Y319434D01*
G37*
G36*
Y311295D02*X231706Y311458D01*
X231000Y311514D01*
X230294Y311458D01*
X229605Y311293D01*
X228951Y311022D01*
X228347Y310652D01*
X227808Y310192D01*
X227348Y309653D01*
X226978Y309049D01*
X226707Y308395D01*
X226542Y307706D01*
X226486Y307000D01*
X226542Y306294D01*
X226707Y305605D01*
X226978Y304951D01*
X227348Y304347D01*
X227808Y303808D01*
X228347Y303348D01*
X228951Y302978D01*
X229605Y302707D01*
X230294Y302542D01*
X230824Y302500D01*
X226621D01*
X226002Y303120D01*
Y309880D01*
X230389Y314267D01*
X230561Y314226D01*
X231000Y314191D01*
X231439Y314226D01*
X231868Y314329D01*
X232275Y314497D01*
X232387Y314566D01*
Y311295D01*
G37*
G36*
X222387Y330266D02*X226002Y333880D01*
Y329514D01*
X226000Y329514D01*
X225294Y329458D01*
X224605Y329293D01*
X223951Y329022D01*
X223347Y328652D01*
X222808Y328192D01*
X222387Y327698D01*
Y330266D01*
G37*
G36*
Y367429D02*X222431Y367535D01*
X222486Y367765D01*
X222505Y368000D01*
X222500Y368059D01*
Y368751D01*
X223049Y368978D01*
X223653Y369348D01*
X224192Y369808D01*
X224500Y370169D01*
Y367059D01*
X224495Y367000D01*
X224514Y366765D01*
X224569Y366535D01*
X224659Y366317D01*
X224783Y366116D01*
X224936Y365936D01*
X224981Y365898D01*
X226002Y364877D01*
Y359505D01*
X226000Y359505D01*
X225567Y359484D01*
X225137Y359422D01*
X224716Y359318D01*
X224306Y359175D01*
X224200Y359122D01*
X224104Y359053D01*
X224019Y358970D01*
X223949Y358875D01*
X223894Y358769D01*
X223857Y358657D01*
X223837Y358540D01*
X223836Y358421D01*
X223854Y358304D01*
X223890Y358191D01*
X223943Y358085D01*
X224012Y357988D01*
X224095Y357904D01*
X224191Y357833D01*
X224296Y357779D01*
X224408Y357741D01*
X224525Y357722D01*
X224644Y357721D01*
X224761Y357739D01*
X224874Y357777D01*
X225145Y357876D01*
X225425Y357944D01*
X225711Y357986D01*
X226000Y358000D01*
X226002Y358000D01*
Y352000D01*
X226000Y352000D01*
X225711Y352014D01*
X225425Y352056D01*
X225145Y352124D01*
X224872Y352220D01*
X224761Y352258D01*
X224644Y352275D01*
X224526Y352275D01*
X224409Y352255D01*
X224297Y352218D01*
X224193Y352164D01*
X224098Y352094D01*
X224015Y352009D01*
X223946Y351913D01*
X223893Y351808D01*
X223857Y351695D01*
X223840Y351579D01*
X223841Y351461D01*
X223860Y351344D01*
X223897Y351232D01*
X223952Y351127D01*
X224022Y351032D01*
X224106Y350949D01*
X224202Y350881D01*
X224308Y350830D01*
X224716Y350682D01*
X225137Y350578D01*
X225567Y350516D01*
X226000Y350495D01*
X226002Y350495D01*
Y338123D01*
X222387Y334508D01*
Y352849D01*
X222460Y352837D01*
X222579Y352836D01*
X222696Y352854D01*
X222809Y352890D01*
X222915Y352943D01*
X223012Y353012D01*
X223096Y353095D01*
X223167Y353191D01*
X223221Y353296D01*
X223259Y353408D01*
X223278Y353525D01*
X223279Y353644D01*
X223261Y353761D01*
X223223Y353874D01*
X223124Y354145D01*
X223056Y354425D01*
X223014Y354711D01*
X223000Y355000D01*
X223014Y355289D01*
X223056Y355575D01*
X223124Y355855D01*
X223220Y356128D01*
X223258Y356239D01*
X223275Y356356D01*
X223275Y356474D01*
X223255Y356591D01*
X223218Y356703D01*
X223164Y356807D01*
X223094Y356902D01*
X223009Y356985D01*
X222913Y357054D01*
X222808Y357107D01*
X222695Y357143D01*
X222579Y357160D01*
X222461Y357159D01*
X222387Y357147D01*
Y367429D01*
G37*
G36*
X226002Y314123D02*X223377Y311499D01*
X222387Y311496D01*
Y322302D01*
X222808Y321808D01*
X223347Y321348D01*
X223951Y320978D01*
X224605Y320707D01*
X225294Y320542D01*
X226000Y320486D01*
X226002Y320486D01*
Y314123D01*
G37*
G36*
X222387Y311496D02*X217765Y311486D01*
X217535Y311431D01*
X217317Y311341D01*
X217116Y311217D01*
X216936Y311064D01*
X216783Y310884D01*
X216659Y310683D01*
X216569Y310465D01*
X216514Y310235D01*
X216500Y310000D01*
X216514Y303765D01*
X216564Y303558D01*
X215065Y305056D01*
X215293Y305605D01*
X215458Y306294D01*
X215500Y307000D01*
X215458Y307706D01*
X215293Y308395D01*
X215022Y309049D01*
X214652Y309653D01*
X214192Y310192D01*
X213653Y310652D01*
X213049Y311022D01*
X212395Y311293D01*
X211706Y311458D01*
X211000Y311514D01*
X210294Y311458D01*
X209605Y311293D01*
X208951Y311022D01*
X208347Y310652D01*
X207808Y310192D01*
X207348Y309653D01*
X206978Y309049D01*
X206707Y308395D01*
X206542Y307706D01*
X206486Y307000D01*
X206542Y306294D01*
X206707Y305605D01*
X206978Y304951D01*
X207348Y304347D01*
X207808Y303808D01*
X208347Y303348D01*
X208951Y302978D01*
X209605Y302707D01*
X210294Y302542D01*
X211000Y302486D01*
X211706Y302542D01*
X212395Y302707D01*
X212944Y302935D01*
X214898Y300981D01*
X214936Y300936D01*
X215116Y300783D01*
X215317Y300659D01*
X215535Y300569D01*
X215765Y300514D01*
X216000Y300495D01*
X216059Y300500D01*
X220379D01*
X220879Y300000D01*
X205993D01*
Y320487D01*
X206000Y320486D01*
X206706Y320542D01*
X207395Y320707D01*
X208049Y320978D01*
X208653Y321348D01*
X209192Y321808D01*
X209652Y322347D01*
X210022Y322951D01*
X210293Y323605D01*
X210458Y324294D01*
X210500Y325000D01*
X210458Y325706D01*
X210293Y326395D01*
X210022Y327049D01*
X209652Y327653D01*
X209192Y328192D01*
X208653Y328652D01*
X208049Y329022D01*
X207395Y329293D01*
X206706Y329458D01*
X206000Y329514D01*
X205993Y329513D01*
Y350487D01*
X206000Y350486D01*
X206706Y350542D01*
X207395Y350707D01*
X208049Y350978D01*
X208485Y351245D01*
X208329Y350868D01*
X208226Y350439D01*
X208191Y350000D01*
X208226Y349561D01*
X208329Y349132D01*
X208497Y348725D01*
X208728Y348349D01*
X209014Y348014D01*
X209349Y347728D01*
X209725Y347497D01*
X210132Y347329D01*
X210561Y347226D01*
X211000Y347191D01*
X211439Y347226D01*
X211868Y347329D01*
X212275Y347497D01*
X212651Y347728D01*
X212986Y348014D01*
X213272Y348349D01*
X213503Y348725D01*
X213671Y349132D01*
X213774Y349561D01*
X213800Y350000D01*
X213774Y350439D01*
X213671Y350868D01*
X213515Y351245D01*
X213951Y350978D01*
X214605Y350707D01*
X215294Y350542D01*
X216000Y350486D01*
X216706Y350542D01*
X217395Y350707D01*
X218049Y350978D01*
X218653Y351348D01*
X219192Y351808D01*
X219652Y352347D01*
X220022Y352951D01*
X220293Y353605D01*
X220458Y354294D01*
X220500Y355000D01*
X220458Y355706D01*
X220293Y356395D01*
X220022Y357049D01*
X219652Y357653D01*
X219192Y358192D01*
X218653Y358652D01*
X218049Y359022D01*
X217395Y359293D01*
X216706Y359458D01*
X216000Y359514D01*
X215294Y359458D01*
X214605Y359293D01*
X213951Y359022D01*
X213347Y358652D01*
X212808Y358192D01*
X212500Y357831D01*
Y360379D01*
X213621Y361500D01*
X215941D01*
X216000Y361495D01*
X216235Y361514D01*
X216235Y361514D01*
X216465Y361569D01*
X216683Y361659D01*
X216884Y361783D01*
X217064Y361936D01*
X217102Y361981D01*
X222019Y366898D01*
X222064Y366936D01*
X222217Y367115D01*
X222217Y367116D01*
X222341Y367317D01*
X222387Y367429D01*
Y357147D01*
X222344Y357140D01*
X222232Y357103D01*
X222127Y357048D01*
X222032Y356978D01*
X221949Y356894D01*
X221881Y356798D01*
X221830Y356692D01*
X221682Y356284D01*
X221578Y355863D01*
X221516Y355433D01*
X221495Y355000D01*
X221516Y354567D01*
X221578Y354137D01*
X221682Y353716D01*
X221825Y353306D01*
X221878Y353200D01*
X221947Y353104D01*
X222030Y353019D01*
X222125Y352949D01*
X222231Y352894D01*
X222343Y352857D01*
X222387Y352849D01*
Y334508D01*
X217215Y329336D01*
X216706Y329458D01*
X216000Y329514D01*
X215294Y329458D01*
X214605Y329293D01*
X213951Y329022D01*
X213347Y328652D01*
X212808Y328192D01*
X212348Y327653D01*
X211978Y327049D01*
X211707Y326395D01*
X211542Y325706D01*
X211486Y325000D01*
X211542Y324294D01*
X211707Y323605D01*
X211978Y322951D01*
X212348Y322347D01*
X212808Y321808D01*
X213347Y321348D01*
X213951Y320978D01*
X214605Y320707D01*
X215294Y320542D01*
X216000Y320486D01*
X216706Y320542D01*
X217395Y320707D01*
X218049Y320978D01*
X218653Y321348D01*
X219192Y321808D01*
X219652Y322347D01*
X220022Y322951D01*
X220293Y323605D01*
X220458Y324294D01*
X220500Y325000D01*
X220458Y325706D01*
X220293Y326395D01*
X220022Y327049D01*
X219698Y327577D01*
X222387Y330266D01*
Y327698D01*
X222348Y327653D01*
X221978Y327049D01*
X221707Y326395D01*
X221542Y325706D01*
X221486Y325000D01*
X221542Y324294D01*
X221707Y323605D01*
X221978Y322951D01*
X222348Y322347D01*
X222387Y322302D01*
Y311496D01*
G37*
G36*
X226002Y303120D02*X225461Y303660D01*
X225486Y303765D01*
X225500Y304000D01*
X225488Y309367D01*
X226002Y309880D01*
Y303120D01*
G37*
G36*
X205993Y300000D02*X189121D01*
X189621Y300500D01*
X198941D01*
X199000Y300495D01*
X199235Y300514D01*
X199235Y300514D01*
X199465Y300569D01*
X199683Y300659D01*
X199884Y300783D01*
X200064Y300936D01*
X200102Y300981D01*
X201659Y302538D01*
X201706Y302542D01*
X202395Y302707D01*
X203049Y302978D01*
X203653Y303348D01*
X204192Y303808D01*
X204652Y304347D01*
X205022Y304951D01*
X205293Y305605D01*
X205458Y306294D01*
X205500Y307000D01*
X205458Y307706D01*
X205293Y308395D01*
X205022Y309049D01*
X204652Y309653D01*
X204192Y310192D01*
X203653Y310652D01*
X203049Y311022D01*
X202395Y311293D01*
X201706Y311458D01*
X201000Y311514D01*
X200294Y311458D01*
X199605Y311293D01*
X199056Y311065D01*
X193400Y316721D01*
Y321316D01*
X193951Y320978D01*
X194605Y320707D01*
X195294Y320542D01*
X196000Y320486D01*
X196706Y320542D01*
X197395Y320707D01*
X198049Y320978D01*
X198653Y321348D01*
X199192Y321808D01*
X199652Y322347D01*
X200022Y322951D01*
X200293Y323605D01*
X200458Y324294D01*
X200500Y325000D01*
X200458Y325706D01*
X200293Y326395D01*
X200065Y326944D01*
X202019Y328898D01*
X202064Y328936D01*
X202217Y329115D01*
X202217Y329116D01*
X202341Y329317D01*
X202431Y329535D01*
X202486Y329765D01*
X202505Y330000D01*
X202500Y330059D01*
Y352169D01*
X202808Y351808D01*
X203347Y351348D01*
X203951Y350978D01*
X204605Y350707D01*
X205294Y350542D01*
X205993Y350487D01*
Y329513D01*
X205294Y329458D01*
X204605Y329293D01*
X203951Y329022D01*
X203347Y328652D01*
X202808Y328192D01*
X202348Y327653D01*
X201978Y327049D01*
X201707Y326395D01*
X201542Y325706D01*
X201486Y325000D01*
X201542Y324294D01*
X201707Y323605D01*
X201978Y322951D01*
X202348Y322347D01*
X202808Y321808D01*
X203347Y321348D01*
X203951Y320978D01*
X204605Y320707D01*
X205294Y320542D01*
X205993Y320487D01*
Y300000D01*
G37*
G36*
X156477Y392523D02*X157101Y391793D01*
X157859Y391146D01*
X158708Y390625D01*
X159629Y390244D01*
X160598Y390011D01*
X161000Y389979D01*
Y368121D01*
X159102Y370019D01*
X159064Y370064D01*
X158884Y370217D01*
X158683Y370341D01*
X158465Y370431D01*
X158235Y370486D01*
X158000Y370505D01*
X157997Y370504D01*
X157991Y376157D01*
X157954Y376310D01*
X157894Y376455D01*
X157812Y376590D01*
X157709Y376709D01*
X157590Y376812D01*
X157455Y376894D01*
X157310Y376954D01*
X157157Y376991D01*
X157000Y377000D01*
X156477Y377000D01*
Y392523D01*
G37*
G36*
Y420000D02*X159554D01*
X159023Y419794D01*
X158886Y419721D01*
X158762Y419626D01*
X158655Y419513D01*
X158566Y419385D01*
X158499Y419245D01*
X158455Y419096D01*
X158434Y418941D01*
X158438Y418786D01*
X158466Y418633D01*
X158518Y418486D01*
X158592Y418349D01*
X158686Y418225D01*
X158799Y418118D01*
X158927Y418029D01*
X159068Y417962D01*
X159217Y417918D01*
X159371Y417897D01*
X159527Y417901D01*
X159680Y417929D01*
X159825Y417984D01*
X160200Y418134D01*
X160589Y418245D01*
X160986Y418320D01*
X161000Y418321D01*
Y409679D01*
X160986Y409680D01*
X160589Y409755D01*
X160200Y409866D01*
X159824Y410012D01*
X159679Y410066D01*
X159526Y410094D01*
X159371Y410098D01*
X159218Y410078D01*
X159069Y410033D01*
X158930Y409966D01*
X158802Y409879D01*
X158690Y409772D01*
X158596Y409649D01*
X158522Y409512D01*
X158471Y409366D01*
X158443Y409214D01*
X158439Y409059D01*
X158459Y408905D01*
X158504Y408757D01*
X158571Y408617D01*
X158658Y408490D01*
X158765Y408378D01*
X158888Y408283D01*
X159026Y408212D01*
X159571Y407993D01*
X160135Y407832D01*
X160713Y407724D01*
X161000Y407697D01*
Y402587D01*
X160598Y402555D01*
X159629Y402322D01*
X158708Y401941D01*
X157859Y401420D01*
X157101Y400773D01*
X156477Y400043D01*
Y410869D01*
X156495Y410864D01*
X156650Y410843D01*
X156805Y410847D01*
X156958Y410875D01*
X157105Y410927D01*
X157242Y411001D01*
X157366Y411095D01*
X157473Y411208D01*
X157562Y411336D01*
X157629Y411477D01*
X157673Y411626D01*
X157694Y411780D01*
X157690Y411936D01*
X157662Y412089D01*
X157607Y412234D01*
X157457Y412609D01*
X157346Y412998D01*
X157271Y413395D01*
X157234Y413798D01*
Y414202D01*
X157271Y414605D01*
X157346Y415002D01*
X157457Y415391D01*
X157603Y415767D01*
X157657Y415912D01*
X157685Y416065D01*
X157689Y416220D01*
X157669Y416373D01*
X157624Y416522D01*
X157557Y416661D01*
X157470Y416789D01*
X157363Y416901D01*
X157240Y416995D01*
X157103Y417069D01*
X156957Y417120D01*
X156805Y417148D01*
X156650Y417152D01*
X156496Y417132D01*
X156477Y417126D01*
Y420000D01*
G37*
G36*
X141114Y392523D02*X141137Y392551D01*
X141658Y393400D01*
X142039Y394321D01*
X142272Y395290D01*
X142330Y396283D01*
X142272Y397276D01*
X142039Y398245D01*
X141658Y399166D01*
X141137Y400015D01*
X141114Y400043D01*
Y410874D01*
X141243Y410913D01*
X141383Y410980D01*
X141510Y411067D01*
X141622Y411174D01*
X141717Y411297D01*
X141788Y411435D01*
X142007Y411980D01*
X142168Y412544D01*
X142276Y413122D01*
X142330Y413706D01*
Y414294D01*
X142276Y414878D01*
X142168Y415456D01*
X142007Y416020D01*
X141794Y416568D01*
X141721Y416705D01*
X141626Y416829D01*
X141513Y416936D01*
X141385Y417025D01*
X141245Y417092D01*
X141114Y417131D01*
Y420000D01*
X156477D01*
Y417126D01*
X156348Y417087D01*
X156208Y417020D01*
X156081Y416933D01*
X155969Y416826D01*
X155874Y416703D01*
X155803Y416565D01*
X155584Y416020D01*
X155423Y415456D01*
X155315Y414878D01*
X155261Y414294D01*
Y413706D01*
X155315Y413122D01*
X155423Y412544D01*
X155584Y411980D01*
X155797Y411432D01*
X155870Y411295D01*
X155965Y411171D01*
X156078Y411064D01*
X156206Y410975D01*
X156346Y410908D01*
X156477Y410869D01*
Y400043D01*
X156454Y400015D01*
X155933Y399166D01*
X155552Y398245D01*
X155319Y397276D01*
X155241Y396283D01*
X155319Y395290D01*
X155552Y394321D01*
X155933Y393400D01*
X156454Y392551D01*
X156477Y392523D01*
Y377000D01*
X141114Y376994D01*
Y392523D01*
G37*
G36*
Y400043D02*X140490Y400773D01*
X139732Y401420D01*
X138883Y401941D01*
X137962Y402322D01*
X136993Y402555D01*
X136002Y402633D01*
Y407670D01*
X136294D01*
X136878Y407724D01*
X137456Y407832D01*
X138020Y407993D01*
X138568Y408206D01*
X138705Y408279D01*
X138829Y408374D01*
X138936Y408487D01*
X139025Y408615D01*
X139092Y408755D01*
X139136Y408904D01*
X139157Y409059D01*
X139153Y409214D01*
X139125Y409367D01*
X139073Y409514D01*
X138999Y409651D01*
X138905Y409775D01*
X138792Y409882D01*
X138664Y409971D01*
X138523Y410038D01*
X138374Y410082D01*
X138220Y410103D01*
X138064Y410099D01*
X137911Y410071D01*
X137766Y410016D01*
X137391Y409866D01*
X137002Y409755D01*
X136605Y409680D01*
X136202Y409643D01*
X136002D01*
Y418357D01*
X136202D01*
X136605Y418320D01*
X137002Y418245D01*
X137391Y418134D01*
X137767Y417988D01*
X137912Y417934D01*
X138065Y417906D01*
X138220Y417902D01*
X138373Y417922D01*
X138522Y417967D01*
X138661Y418034D01*
X138789Y418121D01*
X138901Y418228D01*
X138995Y418351D01*
X139069Y418488D01*
X139120Y418634D01*
X139148Y418786D01*
X139152Y418941D01*
X139132Y419095D01*
X139087Y419243D01*
X139020Y419383D01*
X138933Y419510D01*
X138826Y419622D01*
X138703Y419717D01*
X138565Y419788D01*
X138037Y420000D01*
X141114D01*
Y417131D01*
X141096Y417136D01*
X140941Y417157D01*
X140786Y417153D01*
X140633Y417125D01*
X140486Y417073D01*
X140349Y416999D01*
X140225Y416905D01*
X140118Y416792D01*
X140029Y416664D01*
X139962Y416523D01*
X139918Y416374D01*
X139897Y416220D01*
X139901Y416064D01*
X139929Y415911D01*
X139984Y415766D01*
X140134Y415391D01*
X140245Y415002D01*
X140320Y414605D01*
X140357Y414202D01*
Y413798D01*
X140320Y413395D01*
X140245Y412998D01*
X140134Y412609D01*
X139988Y412233D01*
X139934Y412088D01*
X139906Y411935D01*
X139902Y411780D01*
X139922Y411627D01*
X139967Y411478D01*
X140034Y411339D01*
X140121Y411211D01*
X140228Y411099D01*
X140351Y411005D01*
X140488Y410931D01*
X140634Y410880D01*
X140786Y410852D01*
X140941Y410848D01*
X141095Y410868D01*
X141114Y410874D01*
Y400043D01*
G37*
G36*
X136002Y389933D02*X136993Y390011D01*
X137962Y390244D01*
X138883Y390625D01*
X139732Y391146D01*
X140490Y391793D01*
X141114Y392523D01*
Y376994D01*
X136002Y376992D01*
Y389933D01*
G37*
G36*
Y331001D02*X157157Y331009D01*
X157310Y331046D01*
X157455Y331106D01*
X157590Y331188D01*
X157709Y331291D01*
X157812Y331410D01*
X157894Y331545D01*
X157954Y331690D01*
X157991Y331843D01*
X158000Y332000D01*
X158000Y332384D01*
X158132Y332329D01*
X158561Y332226D01*
X158661Y332218D01*
X160879Y330000D01*
X136002D01*
Y331001D01*
G37*
G36*
Y402633D02*X136000Y402633D01*
X135007Y402555D01*
X134038Y402322D01*
X133117Y401941D01*
X132268Y401420D01*
X131510Y400773D01*
X130863Y400015D01*
X130342Y399166D01*
X130000Y398340D01*
Y411963D01*
X130206Y411432D01*
X130279Y411295D01*
X130374Y411171D01*
X130487Y411064D01*
X130615Y410975D01*
X130755Y410908D01*
X130904Y410864D01*
X131059Y410843D01*
X131214Y410847D01*
X131367Y410875D01*
X131514Y410927D01*
X131651Y411001D01*
X131775Y411095D01*
X131882Y411208D01*
X131971Y411336D01*
X132038Y411477D01*
X132082Y411626D01*
X132103Y411780D01*
X132099Y411936D01*
X132071Y412089D01*
X132016Y412234D01*
X131866Y412609D01*
X131755Y412998D01*
X131680Y413395D01*
X131643Y413798D01*
Y414202D01*
X131680Y414605D01*
X131755Y415002D01*
X131866Y415391D01*
X132012Y415767D01*
X132066Y415912D01*
X132094Y416065D01*
X132098Y416220D01*
X132078Y416373D01*
X132033Y416522D01*
X131966Y416661D01*
X131879Y416789D01*
X131772Y416901D01*
X131649Y416995D01*
X131512Y417069D01*
X131366Y417120D01*
X131214Y417148D01*
X131059Y417152D01*
X130905Y417132D01*
X130757Y417087D01*
X130617Y417020D01*
X130490Y416933D01*
X130378Y416826D01*
X130283Y416703D01*
X130212Y416565D01*
X130000Y416037D01*
Y420000D01*
X133963D01*
X133432Y419794D01*
X133295Y419721D01*
X133171Y419626D01*
X133064Y419513D01*
X132975Y419385D01*
X132908Y419245D01*
X132864Y419096D01*
X132843Y418941D01*
X132847Y418786D01*
X132875Y418633D01*
X132927Y418486D01*
X133001Y418349D01*
X133095Y418225D01*
X133208Y418118D01*
X133336Y418029D01*
X133477Y417962D01*
X133626Y417918D01*
X133780Y417897D01*
X133936Y417901D01*
X134089Y417929D01*
X134234Y417984D01*
X134609Y418134D01*
X134998Y418245D01*
X135395Y418320D01*
X135798Y418357D01*
X136002D01*
Y409643D01*
X135798D01*
X135395Y409680D01*
X134998Y409755D01*
X134609Y409866D01*
X134233Y410012D01*
X134088Y410066D01*
X133935Y410094D01*
X133780Y410098D01*
X133627Y410078D01*
X133478Y410033D01*
X133339Y409966D01*
X133211Y409879D01*
X133099Y409772D01*
X133005Y409649D01*
X132931Y409512D01*
X132880Y409366D01*
X132852Y409214D01*
X132848Y409059D01*
X132868Y408905D01*
X132913Y408757D01*
X132980Y408617D01*
X133067Y408490D01*
X133174Y408378D01*
X133297Y408283D01*
X133435Y408212D01*
X133980Y407993D01*
X134544Y407832D01*
X135122Y407724D01*
X135706Y407670D01*
X136002D01*
Y402633D01*
G37*
G36*
X131000Y376000D02*X131009Y367843D01*
X131046Y367690D01*
X131106Y367545D01*
X131134Y367500D01*
X131106Y367455D01*
X131046Y367310D01*
X131009Y367157D01*
X131000Y367000D01*
X131009Y358843D01*
X131046Y358690D01*
X131106Y358545D01*
X131134Y358500D01*
X131106Y358455D01*
X131046Y358310D01*
X131009Y358157D01*
X131000Y358000D01*
X131009Y349843D01*
X131046Y349690D01*
X131106Y349545D01*
X131134Y349500D01*
X131106Y349455D01*
X131046Y349310D01*
X131009Y349157D01*
X131000Y349000D01*
X131009Y340843D01*
X131046Y340690D01*
X131106Y340545D01*
X131134Y340500D01*
X131106Y340455D01*
X131046Y340310D01*
X131009Y340157D01*
X131000Y340000D01*
X131009Y331843D01*
X131046Y331690D01*
X131106Y331545D01*
X131188Y331410D01*
X131291Y331291D01*
X131410Y331188D01*
X131545Y331106D01*
X131690Y331046D01*
X131843Y331009D01*
X132000Y331000D01*
X136002Y331001D01*
Y330000D01*
X130000D01*
Y394226D01*
X130342Y393400D01*
X130863Y392551D01*
X131510Y391793D01*
X132268Y391146D01*
X133117Y390625D01*
X134038Y390244D01*
X135007Y390011D01*
X136000Y389933D01*
X136002Y389933D01*
Y376992D01*
X131843Y376991D01*
X131690Y376954D01*
X131545Y376894D01*
X131410Y376812D01*
X131291Y376709D01*
X131188Y376590D01*
X131106Y376455D01*
X131046Y376310D01*
X131009Y376157D01*
X131000Y376000D01*
G37*
G36*
X171000Y398101D02*X177635Y398114D01*
X177865Y398169D01*
X178083Y398259D01*
X178225Y398346D01*
X177379Y397500D01*
X171000D01*
Y398101D01*
G37*
G36*
X180993Y380500D02*X185379D01*
X188892Y376986D01*
X188347Y376652D01*
X187808Y376192D01*
X187348Y375653D01*
X186978Y375049D01*
X186707Y374395D01*
X186542Y373706D01*
X186486Y373000D01*
X186542Y372294D01*
X186707Y371605D01*
X186978Y370951D01*
X187348Y370347D01*
X187808Y369808D01*
X188347Y369348D01*
X188951Y368978D01*
X189605Y368707D01*
X190294Y368542D01*
X191000Y368486D01*
X191706Y368542D01*
X192395Y368707D01*
X193049Y368978D01*
X193653Y369348D01*
X194192Y369808D01*
X194652Y370347D01*
X195022Y370951D01*
X195293Y371605D01*
X195458Y372294D01*
X195500Y373000D01*
X195458Y373706D01*
X195293Y374395D01*
X195022Y375049D01*
X194652Y375653D01*
X194192Y376192D01*
X193831Y376500D01*
X196379D01*
X197302Y375577D01*
X196978Y375049D01*
X196707Y374395D01*
X196542Y373706D01*
X196486Y373000D01*
X196542Y372294D01*
X196707Y371605D01*
X196978Y370951D01*
X197348Y370347D01*
X197808Y369808D01*
X198347Y369348D01*
X198951Y368978D01*
X199605Y368707D01*
X200294Y368542D01*
X201000Y368486D01*
X201706Y368542D01*
X202395Y368707D01*
X203049Y368978D01*
X203653Y369348D01*
X204192Y369808D01*
X204500Y370169D01*
Y369621D01*
X199379Y364500D01*
X180993D01*
Y368487D01*
X181000Y368486D01*
X181706Y368542D01*
X182395Y368707D01*
X183049Y368978D01*
X183653Y369348D01*
X184192Y369808D01*
X184652Y370347D01*
X185022Y370951D01*
X185293Y371605D01*
X185458Y372294D01*
X185500Y373000D01*
X185458Y373706D01*
X185293Y374395D01*
X185022Y375049D01*
X184652Y375653D01*
X184192Y376192D01*
X183653Y376652D01*
X183049Y377022D01*
X182395Y377293D01*
X181706Y377458D01*
X181000Y377514D01*
X180993Y377513D01*
Y380500D01*
G37*
G36*
X171000D02*X180993D01*
Y377513D01*
X180294Y377458D01*
X179605Y377293D01*
X178951Y377022D01*
X178347Y376652D01*
X177808Y376192D01*
X177348Y375653D01*
X176978Y375049D01*
X176707Y374395D01*
X176542Y373706D01*
X176486Y373000D01*
X176542Y372294D01*
X176707Y371605D01*
X176978Y370951D01*
X177348Y370347D01*
X177808Y369808D01*
X178347Y369348D01*
X178951Y368978D01*
X179605Y368707D01*
X180294Y368542D01*
X180993Y368487D01*
Y364500D01*
X171000D01*
Y368507D01*
X174235Y368514D01*
X174465Y368569D01*
X174683Y368659D01*
X174884Y368783D01*
X175064Y368936D01*
X175217Y369116D01*
X175341Y369317D01*
X175431Y369535D01*
X175486Y369765D01*
X175500Y370000D01*
X175486Y376235D01*
X175431Y376465D01*
X175341Y376683D01*
X175217Y376884D01*
X175064Y377064D01*
X174884Y377217D01*
X174683Y377341D01*
X174465Y377431D01*
X174235Y377486D01*
X174000Y377500D01*
X171000Y377493D01*
Y380500D01*
G37*
G36*
Y394500D02*X177941D01*
X178000Y394495D01*
X178235Y394514D01*
X178235Y394514D01*
X178465Y394569D01*
X178683Y394659D01*
X178884Y394783D01*
X179064Y394936D01*
X179102Y394981D01*
X182019Y397898D01*
X182064Y397936D01*
X182217Y398115D01*
X182217Y398116D01*
X182341Y398317D01*
X182431Y398535D01*
X182486Y398765D01*
X182505Y399000D01*
X182500Y399059D01*
Y405000D01*
X189879D01*
X178379Y393500D01*
X171000D01*
Y394500D01*
G37*
G36*
X167673D02*X171000D01*
Y393500D01*
X169059D01*
X169000Y393505D01*
X168765Y393486D01*
X168535Y393431D01*
X168317Y393341D01*
X168116Y393217D01*
X168115Y393217D01*
X167936Y393064D01*
X167898Y393019D01*
X164981Y390102D01*
X164936Y390064D01*
X164783Y389884D01*
X164659Y389683D01*
X164569Y389465D01*
X164514Y389235D01*
X164514Y389235D01*
X164495Y389000D01*
X164500Y388941D01*
Y385059D01*
X164495Y385000D01*
X164514Y384765D01*
X164569Y384535D01*
X164659Y384317D01*
X164783Y384116D01*
X164783Y384115D01*
X164936Y383936D01*
X164981Y383898D01*
X167898Y380981D01*
X167936Y380936D01*
X168115Y380783D01*
X168116Y380783D01*
X168317Y380659D01*
X168535Y380569D01*
X168765Y380514D01*
X169000Y380495D01*
X169059Y380500D01*
X171000D01*
Y377493D01*
X167765Y377486D01*
X167535Y377431D01*
X167317Y377341D01*
X167116Y377217D01*
X166936Y377064D01*
X166783Y376884D01*
X166659Y376683D01*
X166569Y376465D01*
X166514Y376235D01*
X166500Y376000D01*
X166514Y369765D01*
X166569Y369535D01*
X166659Y369317D01*
X166783Y369116D01*
X166936Y368936D01*
X167116Y368783D01*
X167317Y368659D01*
X167535Y368569D01*
X167765Y368514D01*
X168000Y368500D01*
X171000Y368507D01*
Y364500D01*
X162621D01*
X161500Y365621D01*
Y366941D01*
X161505Y367000D01*
X161486Y367235D01*
X161431Y367465D01*
X161341Y367683D01*
X161217Y367884D01*
X161064Y368064D01*
X161019Y368102D01*
X159102Y370019D01*
X159064Y370064D01*
X158884Y370217D01*
X158683Y370341D01*
X158465Y370431D01*
X158235Y370486D01*
X158000Y370505D01*
X157997Y370504D01*
X157991Y376157D01*
X157954Y376310D01*
X157894Y376455D01*
X157812Y376590D01*
X157709Y376709D01*
X157590Y376812D01*
X157455Y376894D01*
X157310Y376954D01*
X157157Y376991D01*
X157000Y377000D01*
X131843Y376991D01*
X131690Y376954D01*
X131545Y376894D01*
X131410Y376812D01*
X131291Y376709D01*
X131188Y376590D01*
X131106Y376455D01*
X131046Y376310D01*
X131009Y376157D01*
X131000Y376000D01*
X131009Y367843D01*
X131046Y367690D01*
X131106Y367545D01*
X131134Y367500D01*
X131106Y367455D01*
X131046Y367310D01*
X131009Y367157D01*
X131000Y367000D01*
X131009Y359000D01*
X130000D01*
Y394226D01*
X130342Y393400D01*
X130863Y392551D01*
X131510Y391793D01*
X132268Y391146D01*
X133117Y390625D01*
X134038Y390244D01*
X135007Y390011D01*
X136000Y389933D01*
X136993Y390011D01*
X137962Y390244D01*
X138883Y390625D01*
X139732Y391146D01*
X140490Y391793D01*
X141137Y392551D01*
X141658Y393400D01*
X142039Y394321D01*
X142272Y395290D01*
X142330Y396283D01*
X142272Y397276D01*
X142039Y398245D01*
X141658Y399166D01*
X141137Y400015D01*
X140490Y400773D01*
X139732Y401420D01*
X138883Y401941D01*
X137962Y402322D01*
X136993Y402555D01*
X136000Y402633D01*
X135007Y402555D01*
X134038Y402322D01*
X133117Y401941D01*
X132268Y401420D01*
X131510Y400773D01*
X130863Y400015D01*
X130342Y399166D01*
X130000Y398340D01*
Y405000D01*
X166500D01*
Y404059D01*
X166495Y404000D01*
X166514Y403765D01*
X166569Y403535D01*
X166659Y403317D01*
X166783Y403116D01*
X166936Y402936D01*
X166981Y402898D01*
X167898Y401981D01*
X167936Y401936D01*
X168116Y401783D01*
X168317Y401659D01*
X168535Y401569D01*
X168765Y401514D01*
X169000Y401495D01*
X169059Y401500D01*
X169110D01*
X169114Y399365D01*
X169169Y399135D01*
X169259Y398917D01*
X169383Y398716D01*
X169536Y398536D01*
X169716Y398383D01*
X169917Y398259D01*
X170135Y398169D01*
X170365Y398114D01*
X170600Y398100D01*
X171000Y398101D01*
Y397500D01*
X167809D01*
X167630Y398245D01*
X167249Y399166D01*
X166728Y400015D01*
X166081Y400773D01*
X165323Y401420D01*
X164474Y401941D01*
X163553Y402322D01*
X162584Y402555D01*
X161591Y402633D01*
X160598Y402555D01*
X159629Y402322D01*
X158708Y401941D01*
X157859Y401420D01*
X157101Y400773D01*
X156454Y400015D01*
X155933Y399166D01*
X155552Y398245D01*
X155319Y397276D01*
X155241Y396283D01*
X155319Y395290D01*
X155552Y394321D01*
X155933Y393400D01*
X156454Y392551D01*
X157101Y391793D01*
X157859Y391146D01*
X158708Y390625D01*
X159629Y390244D01*
X160598Y390011D01*
X161591Y389933D01*
X162584Y390011D01*
X163553Y390244D01*
X164474Y390625D01*
X165323Y391146D01*
X166081Y391793D01*
X166728Y392551D01*
X167249Y393400D01*
X167630Y394321D01*
X167673Y394500D01*
G37*
G36*
X212138Y409468D02*X212481Y409325D01*
X213231Y409145D01*
X214000Y409085D01*
X214769Y409145D01*
X215105Y409226D01*
X213776Y407898D01*
X213231Y407855D01*
X212481Y407675D01*
X212138Y407532D01*
Y409468D01*
G37*
G36*
Y437741D02*X213500Y436379D01*
Y423059D01*
X213495Y423000D01*
X213500Y422941D01*
Y418876D01*
X213231Y418855D01*
X212481Y418675D01*
X212138Y418532D01*
Y421988D01*
X212167Y422017D01*
X212213Y422081D01*
X212449Y422486D01*
X212642Y422915D01*
X212793Y423359D01*
X212903Y423816D01*
X212968Y424281D01*
X212991Y424750D01*
X212968Y425219D01*
X212903Y425684D01*
X212793Y426141D01*
X212642Y426585D01*
X212449Y427014D01*
X212217Y427422D01*
X212170Y427486D01*
X212138Y427518D01*
Y437741D01*
G37*
G36*
X207987Y431609D02*X208395Y431707D01*
X209049Y431978D01*
X209653Y432348D01*
X210192Y432808D01*
X210652Y433347D01*
X211022Y433951D01*
X211293Y434605D01*
X211458Y435294D01*
X211500Y436000D01*
X211458Y436706D01*
X211293Y437395D01*
X211022Y438049D01*
X210652Y438653D01*
X210192Y439192D01*
X209831Y439500D01*
X210379D01*
X212138Y437741D01*
Y427518D01*
X212113Y427542D01*
X212049Y427587D01*
X211977Y427622D01*
X211902Y427646D01*
X211823Y427657D01*
X211744Y427656D01*
X211665Y427643D01*
X211590Y427617D01*
X211520Y427580D01*
X211456Y427533D01*
X211401Y427476D01*
X211355Y427411D01*
X211320Y427340D01*
X211297Y427264D01*
X211285Y427185D01*
X211286Y427106D01*
X211300Y427028D01*
X211325Y426953D01*
X211364Y426883D01*
X211553Y426559D01*
X211706Y426217D01*
X211827Y425862D01*
X211915Y425496D01*
X211967Y425125D01*
X211985Y424750D01*
X211967Y424375D01*
X211915Y424004D01*
X211827Y423638D01*
X211706Y423283D01*
X211553Y422941D01*
X211367Y422615D01*
X211329Y422546D01*
X211304Y422471D01*
X211291Y422394D01*
X211290Y422315D01*
X211301Y422237D01*
X211324Y422162D01*
X211359Y422091D01*
X211404Y422027D01*
X211459Y421971D01*
X211522Y421923D01*
X211592Y421887D01*
X211666Y421862D01*
X211744Y421848D01*
X211823Y421847D01*
X211901Y421858D01*
X211976Y421882D01*
X212046Y421916D01*
X212111Y421962D01*
X212138Y421988D01*
Y418532D01*
X211769Y418379D01*
X211111Y417976D01*
X210524Y417476D01*
X210024Y416889D01*
X209621Y416231D01*
X209325Y415519D01*
X209145Y414769D01*
X209085Y414000D01*
X209145Y413231D01*
X209325Y412481D01*
X209621Y411769D01*
X210024Y411111D01*
X210524Y410524D01*
X211111Y410024D01*
X211769Y409621D01*
X212138Y409468D01*
Y407532D01*
X211769Y407379D01*
X211111Y406976D01*
X210524Y406476D01*
X210024Y405889D01*
X209621Y405231D01*
X209325Y404519D01*
X209145Y403769D01*
X209085Y403000D01*
X207987D01*
Y419745D01*
X208454Y419767D01*
X208919Y419832D01*
X209376Y419942D01*
X209820Y420093D01*
X210249Y420286D01*
X210657Y420518D01*
X210721Y420565D01*
X210777Y420622D01*
X210822Y420686D01*
X210857Y420758D01*
X210881Y420833D01*
X210892Y420912D01*
X210891Y420991D01*
X210878Y421070D01*
X210852Y421145D01*
X210815Y421215D01*
X210768Y421279D01*
X210711Y421334D01*
X210646Y421380D01*
X210575Y421415D01*
X210499Y421438D01*
X210420Y421450D01*
X210341Y421449D01*
X210263Y421435D01*
X210188Y421410D01*
X210118Y421371D01*
X209794Y421182D01*
X209452Y421029D01*
X209097Y420908D01*
X208731Y420820D01*
X208360Y420768D01*
X207987Y420750D01*
Y428750D01*
X208360Y428732D01*
X208731Y428680D01*
X209097Y428592D01*
X209452Y428471D01*
X209794Y428318D01*
X210120Y428132D01*
X210189Y428094D01*
X210264Y428069D01*
X210341Y428056D01*
X210420Y428055D01*
X210498Y428066D01*
X210573Y428089D01*
X210644Y428124D01*
X210708Y428169D01*
X210764Y428224D01*
X210812Y428287D01*
X210848Y428357D01*
X210873Y428431D01*
X210887Y428509D01*
X210888Y428588D01*
X210877Y428666D01*
X210853Y428741D01*
X210819Y428811D01*
X210773Y428876D01*
X210718Y428932D01*
X210654Y428978D01*
X210249Y429214D01*
X209820Y429407D01*
X209376Y429558D01*
X208919Y429668D01*
X208454Y429733D01*
X207987Y429755D01*
Y431609D01*
G37*
G36*
X203832Y432788D02*X204347Y432348D01*
X204951Y431978D01*
X205605Y431707D01*
X206294Y431542D01*
X207000Y431486D01*
X207706Y431542D01*
X207987Y431609D01*
Y429755D01*
X207985Y429756D01*
X207516Y429733D01*
X207051Y429668D01*
X206594Y429558D01*
X206150Y429407D01*
X205721Y429214D01*
X205313Y428982D01*
X205249Y428935D01*
X205193Y428878D01*
X205148Y428814D01*
X205113Y428742D01*
X205089Y428667D01*
X205078Y428588D01*
X205079Y428509D01*
X205092Y428430D01*
X205118Y428355D01*
X205155Y428285D01*
X205202Y428221D01*
X205259Y428166D01*
X205324Y428120D01*
X205395Y428085D01*
X205471Y428062D01*
X205550Y428050D01*
X205629Y428051D01*
X205707Y428065D01*
X205782Y428090D01*
X205852Y428129D01*
X206176Y428318D01*
X206518Y428471D01*
X206873Y428592D01*
X207239Y428680D01*
X207610Y428732D01*
X207985Y428750D01*
X207987Y428750D01*
Y420750D01*
X207985Y420750D01*
X207610Y420768D01*
X207239Y420820D01*
X206873Y420908D01*
X206518Y421029D01*
X206176Y421182D01*
X205850Y421368D01*
X205781Y421406D01*
X205706Y421431D01*
X205629Y421444D01*
X205550Y421445D01*
X205472Y421434D01*
X205397Y421411D01*
X205326Y421376D01*
X205262Y421331D01*
X205206Y421276D01*
X205158Y421213D01*
X205122Y421143D01*
X205096Y421069D01*
X205083Y420991D01*
X205082Y420912D01*
X205093Y420834D01*
X205117Y420759D01*
X205151Y420689D01*
X205197Y420624D01*
X205252Y420568D01*
X205316Y420522D01*
X205721Y420286D01*
X206150Y420093D01*
X206594Y419942D01*
X207051Y419832D01*
X207516Y419767D01*
X207985Y419744D01*
X207987Y419745D01*
Y403000D01*
X203832D01*
Y421982D01*
X203857Y421958D01*
X203921Y421913D01*
X203993Y421878D01*
X204068Y421854D01*
X204147Y421843D01*
X204226Y421844D01*
X204305Y421857D01*
X204380Y421883D01*
X204450Y421920D01*
X204514Y421967D01*
X204569Y422024D01*
X204615Y422089D01*
X204650Y422160D01*
X204673Y422236D01*
X204685Y422315D01*
X204684Y422394D01*
X204670Y422472D01*
X204645Y422547D01*
X204606Y422617D01*
X204417Y422941D01*
X204264Y423283D01*
X204143Y423638D01*
X204055Y424004D01*
X204003Y424375D01*
X203985Y424750D01*
X204003Y425125D01*
X204055Y425496D01*
X204143Y425862D01*
X204264Y426217D01*
X204417Y426559D01*
X204603Y426885D01*
X204641Y426954D01*
X204666Y427029D01*
X204679Y427106D01*
X204680Y427185D01*
X204669Y427263D01*
X204646Y427338D01*
X204611Y427409D01*
X204566Y427473D01*
X204511Y427529D01*
X204448Y427577D01*
X204378Y427613D01*
X204304Y427638D01*
X204226Y427652D01*
X204147Y427653D01*
X204069Y427642D01*
X203994Y427618D01*
X203924Y427584D01*
X203859Y427538D01*
X203832Y427512D01*
Y432788D01*
G37*
G36*
Y439500D02*X204169D01*
X203832Y439212D01*
Y439500D01*
G37*
G36*
X188019Y427898D02*X188064Y427936D01*
X188217Y428115D01*
X188217Y428116D01*
X188341Y428317D01*
X188431Y428535D01*
X188486Y428765D01*
X188505Y429000D01*
X188500Y429059D01*
Y431751D01*
X189049Y431978D01*
X189653Y432348D01*
X190192Y432808D01*
X190652Y433347D01*
X191022Y433951D01*
X191293Y434605D01*
X191458Y435294D01*
X191500Y436000D01*
X191458Y436706D01*
X191293Y437395D01*
X191022Y438049D01*
X190652Y438653D01*
X190248Y439126D01*
X190621Y439500D01*
X194169D01*
X193808Y439192D01*
X193348Y438653D01*
X192978Y438049D01*
X192707Y437395D01*
X192542Y436706D01*
X192486Y436000D01*
X192542Y435294D01*
X192707Y434605D01*
X192978Y433951D01*
X193348Y433347D01*
X193808Y432808D01*
X194347Y432348D01*
X194951Y431978D01*
X195605Y431707D01*
X196294Y431542D01*
X197000Y431486D01*
X197706Y431542D01*
X198395Y431707D01*
X199049Y431978D01*
X199653Y432348D01*
X200192Y432808D01*
X200652Y433347D01*
X201022Y433951D01*
X201293Y434605D01*
X201458Y435294D01*
X201500Y436000D01*
X201458Y436706D01*
X201293Y437395D01*
X201022Y438049D01*
X200652Y438653D01*
X200192Y439192D01*
X199831Y439500D01*
X203832D01*
Y439212D01*
X203808Y439192D01*
X203348Y438653D01*
X202978Y438049D01*
X202707Y437395D01*
X202542Y436706D01*
X202486Y436000D01*
X202542Y435294D01*
X202707Y434605D01*
X202978Y433951D01*
X203348Y433347D01*
X203808Y432808D01*
X203832Y432788D01*
Y427512D01*
X203803Y427483D01*
X203757Y427419D01*
X203521Y427014D01*
X203328Y426585D01*
X203177Y426141D01*
X203067Y425684D01*
X203002Y425219D01*
X202979Y424750D01*
X203002Y424281D01*
X203067Y423816D01*
X203177Y423359D01*
X203328Y422915D01*
X203521Y422486D01*
X203753Y422078D01*
X203800Y422014D01*
X203832Y421982D01*
Y403000D01*
X192121D01*
X200389Y411267D01*
X200561Y411226D01*
X201000Y411191D01*
X201439Y411226D01*
X201868Y411329D01*
X202275Y411497D01*
X202651Y411728D01*
X202986Y412014D01*
X203272Y412349D01*
X203503Y412725D01*
X203671Y413132D01*
X203774Y413561D01*
X203800Y414000D01*
X203774Y414439D01*
X203671Y414868D01*
X203503Y415275D01*
X203272Y415651D01*
X202986Y415986D01*
X202651Y416272D01*
X202275Y416503D01*
X201868Y416671D01*
X201439Y416774D01*
X201000Y416809D01*
X200561Y416774D01*
X200132Y416671D01*
X199725Y416503D01*
X199349Y416272D01*
X199014Y415986D01*
X198728Y415651D01*
X198497Y415275D01*
X198329Y414868D01*
X198226Y414439D01*
X198191Y414000D01*
X198226Y413561D01*
X198267Y413389D01*
X187879Y403000D01*
X182500D01*
Y422379D01*
X188019Y427898D01*
G37*
G54D12*X221000Y306000D02*X226000Y301000D01*
X231000D01*
X216000Y302000D02*X221000D01*
X224000Y299000D01*
Y296000D01*
X225000Y295000D01*
X211000Y307000D02*X216000Y302000D01*
Y325000D02*Y326000D01*
X236000Y346000D01*
Y355000D01*
Y353000D01*
X216000Y363000D02*X221000Y368000D01*
X216000Y363000D02*X213000D01*
X211000Y361000D01*
Y350000D01*
X221000Y368000D02*Y373000D01*
X216000Y378000D02*X221000Y373000D01*
X226000Y391000D02*Y367000D01*
X229000Y364000D01*
X240500Y359500D02*X236000Y355000D01*
X240500Y363000D02*Y359500D01*
X229000Y364000D02*X241500D01*
X245500Y368000D02*X240500Y363000D01*
X214000Y406000D02*X226000Y418000D01*
X215000Y415000D02*X214000Y414000D01*
X215000Y421000D02*Y423000D01*
X226000Y418000D02*X240000D01*
X247000Y425000D01*
X246000D02*X246500D01*
X226000Y391000D02*X214000Y403000D01*
X221000Y407000D02*Y401000D01*
X229000Y393000D01*
Y385000D01*
X233000Y381000D01*
X245000D01*
X286000Y355000D02*Y348000D01*
X296000Y355000D02*X295000D01*
X291000Y347000D02*X299000Y339000D01*
X310000Y347000D02*X314000D01*
X310000Y343000D02*Y342000D01*
X315000Y337000D01*
X291000Y356000D02*Y347000D01*
X286000Y348000D02*X308000Y326000D01*
X292000Y336000D02*X296000Y332000D01*
X289000D02*X291000Y330000D01*
X276000Y355000D02*X305000Y326000D01*
X280300Y336000D02*X292000D01*
X276000Y325000D02*Y330000D01*
X278000Y332000D01*
X289000D01*
X296000D02*Y325000D01*
X302000Y404000D02*Y402000D01*
X300000Y400000D01*
Y393000D01*
X299000Y407000D02*X302000Y404000D01*
X293000Y375000D02*X284000Y366000D01*
X303000Y375000D02*X293000D01*
X291000Y356000D02*X285000Y362000D01*
X279000Y386000D02*X285000Y380000D01*
X310000Y365000D02*X313000D01*
X310000Y351000D02*Y353000D01*
X312000Y355000D01*
X315000D01*
X313000Y365000D02*X315000Y363000D01*
X310000Y372000D02*X316000D01*
X310000Y381000D02*X315000D01*
X310000Y398000D02*X308000Y396000D01*
X334000D01*
X308000Y326000D02*Y297000D01*
X305000Y326000D02*Y315000D01*
X303000Y313000D01*
X298000D01*
X296000Y311000D01*
X308000Y297000D02*X304000Y293000D01*
X296000Y312000D02*Y293000D01*
X291000Y330000D02*Y308000D01*
X286000Y326000D02*Y312000D01*
X284000Y366000D02*X256000D01*
X261000Y360000D02*X263000Y362000D01*
X285000D01*
X266000Y355000D02*Y344000D01*
X268000Y342100D01*
X261000Y345000D02*Y360000D01*
X275000Y373000D02*X273000Y371000D01*
X271000D01*
X275000Y380000D02*Y373000D01*
X268000Y386000D02*X279000D01*
X259000Y385000D02*X265000Y379000D01*
X254000Y381000D02*Y372000D01*
X241000Y335000D02*Y317000D01*
X252000Y339000D02*X247000Y334000D01*
X250000Y316000D02*X263000D01*
X266000Y325000D02*Y340000D01*
X268000Y342200D02*Y329200D01*
X270400Y323100D02*X263000Y316000D01*
X268000Y329400D02*X270300Y327100D01*
X270400Y327000D02*Y323000D01*
X246000Y362000D02*X250000Y366000D01*
Y368000D01*
X254000Y372000D01*
X241000Y317000D02*X231000Y307000D01*
X250000Y316000D02*X241000Y307000D01*
X242000D01*
X231000Y317000D02*X221000Y307000D01*
Y306000D01*
X231000Y307000D02*X237000Y301000D01*
X231000D02*X235000Y297000D01*
Y294000D01*
X237000Y301000D02*X241000D01*
X244000Y298000D01*
Y294000D01*
X242000Y307000D02*X247000Y302000D01*
X283000D01*
X286000Y299000D01*
Y295000D01*
Y312000D02*X281000Y307000D01*
X277000Y317000D02*X273000D01*
X271000Y315000D01*
Y307000D01*
X256000Y350000D02*X241000Y335000D01*
X246000Y350000D02*X231000Y335000D01*
X256000Y339000D02*X252000D01*
X266000Y340000D02*X261000Y345000D01*
X256000Y355000D02*Y350000D01*
X246000Y355000D02*Y350000D01*
X256000Y366000D02*X255000Y367000D01*
X246000Y356000D02*Y362000D01*
X254000Y380000D02*Y379000D01*
X245000Y381000D02*X249000Y385000D01*
X259000D01*
X263000Y404000D02*X260000D01*
Y393000D02*X261000D01*
X268000Y386000D01*
X222000Y430000D02*X263000D01*
X253000Y425500D02*X257000D01*
X258000Y426500D01*
X278000D01*
X279000Y425500D01*
Y423000D01*
X279500Y422500D01*
X260500Y410500D02*X281500D01*
X283000Y412000D01*
Y417000D01*
X282500Y417500D01*
X246000Y425000D02*X260500Y410500D01*
X160000Y335000D02*X156000D01*
X159000Y354000D02*Y350000D01*
Y344000D02*X158000Y345000D01*
X159000Y353000D02*X158000Y354000D01*
X154000D01*
X155000Y345000D02*X160000D01*
X158000Y369000D02*X160000Y367000D01*
Y365000D01*
X162000Y363000D01*
X160000Y396000D02*X161000Y397000D01*
X156000Y369000D02*X158000D01*
X163000Y396000D02*X162000Y395000D01*
X189000Y385000D02*Y391000D01*
X180000Y387000D02*X188000Y395000D01*
X190000Y378000D02*X186000Y382000D01*
X178000Y396000D02*X161000D01*
X171000Y387000D02*X180000D01*
X186000Y382000D02*X169000D01*
X166000Y385000D01*
Y389000D01*
X169000Y392000D01*
X179000D01*
X156000Y361000D02*X203000D01*
X162000Y363000D02*X200000D01*
X201000Y359000D02*X211000Y369000D01*
X200000Y363000D02*X206000Y369000D01*
X211000D02*Y373000D01*
X206000Y369000D02*Y376000D01*
X208000Y378000D01*
X216000D02*X206000D01*
X203000Y381000D01*
X193000D01*
X189000Y385000D01*
X197000Y378000D02*X190000D01*
X198000Y389000D02*X206000D01*
X211000Y394000D01*
X201000Y373000D02*Y374000D01*
X197000Y378000D01*
X174000Y414000D02*X177000D01*
X168000Y425000D02*Y427000D01*
X170000Y423000D02*X168000Y425000D01*
X167000D02*Y419000D01*
X168000Y418000D01*
X187000Y429000D02*X181000Y423000D01*
X187000Y438000D02*X190000Y441000D01*
X168000Y427000D02*X172000Y431000D01*
Y449000D01*
X174000Y451000D01*
X168000Y418000D02*Y404000D01*
X169000Y403000D01*
X174000D01*
X214000D02*Y406000D01*
X215000Y437000D02*Y415000D01*
X190000Y441000D02*X211000D01*
X174000Y451000D02*X216000D01*
X221000Y446000D01*
X211000Y441000D02*X215000Y437000D01*
X187000Y436000D02*Y429000D01*
X181000Y423000D02*Y399000D01*
X178000Y396000D01*
X188000Y395000D02*X206000D01*
X214000Y403000D01*
X215000Y423000D02*X222000Y430000D01*
X179000Y392000D02*X201000Y414000D01*
Y307000D02*Y304000D01*
X199000Y302000D01*
X190000Y307000D02*X182000Y299000D01*
X199000Y302000D02*X189000D01*
X186000Y299000D01*
Y294000D01*
X191000Y307000D02*X190000D01*
Y308000D02*X191000Y307000D01*
X192000Y316000D02*X201000Y307000D01*
X190100Y328900D02*Y307900D01*
X191900Y332900D02*Y316200D01*
X161000Y334000D02*X160000Y335000D01*
X166000Y333000D02*X165000Y334000D01*
X185000Y325000D02*X180000Y330000D01*
X159000Y334000D02*X166000Y327000D01*
X180000Y330000D02*X173000D01*
X170000Y333000D01*
X166000D01*
Y325000D02*Y327000D01*
X167000Y331000D02*X173000Y325000D01*
X176000D02*X173000D01*
X182000Y299000D02*X177000D01*
X175000Y297000D01*
Y295000D01*
X163000Y299000D02*Y296000D01*
X165000Y294000D01*
X164000Y317000D02*X162000Y315000D01*
Y305000D01*
X167000Y300000D01*
X172000D01*
X164000Y317000D02*X174000D01*
X175000Y316000D01*
X186000Y325000D02*X185000D01*
X201000Y330000D02*X196000Y325000D01*
X188000Y331000D02*X190000Y329000D01*
X176000Y338000D02*X183000Y331000D01*
X188000D01*
X165000Y334000D02*Y344000D01*
X160000Y345000D02*X163000Y342000D01*
Y333000D01*
X165000Y331000D01*
X159000Y335000D02*Y334000D01*
X166000Y355000D02*X169000Y352000D01*
Y341000D01*
X165000Y331000D02*X167000D01*
X201000Y359000D02*Y330000D01*
X159000Y350000D02*X165000Y344000D01*
X186000Y355000D02*Y339000D01*
X191800Y333100D01*
X176000Y355000D02*Y338000D01*
G54D13*X186000Y355000D03*
Y325000D03*
X176000Y355000D03*
Y325000D03*
X166000Y355000D03*
Y325000D03*
X196000D03*
X206000D03*
X216000D03*
G54D11*G36*
X168000Y376000D02*Y370000D01*
X174000D01*
Y376000D01*
X168000D01*
G37*
G54D13*X181000Y373000D03*
X191000D03*
X201000D03*
X211000D03*
X221000D03*
X231000D03*
X241000D03*
G54D11*G36*
X195000Y392000D02*Y386000D01*
X201000D01*
Y392000D01*
X195000D01*
G37*
G54D13*X217200Y389000D03*
G54D11*G36*
X251500Y383000D02*Y377000D01*
X257500D01*
Y383000D01*
X251500D01*
G37*
G54D13*X264500Y380000D03*
G54D14*X136000Y414000D03*
G54D13*X187000Y436000D03*
Y446000D03*
G54D14*X161591Y414000D03*
G54D11*G36*
X170600Y417400D02*Y410600D01*
X177400D01*
Y417400D01*
X170600D01*
G37*
G54D15*X167985Y424750D03*
G54D11*G36*
X170600Y406400D02*Y399600D01*
X177400D01*
Y406400D01*
X170600D01*
G37*
G36*
X164000Y439000D02*Y433000D01*
X170000D01*
Y439000D01*
X164000D01*
G37*
G54D13*X167000Y446000D03*
X177000Y436000D03*
Y446000D03*
X197000Y436000D03*
Y446000D03*
X207000D03*
G54D11*G36*
X217600Y449400D02*Y442600D01*
X224400D01*
Y449400D01*
X217600D01*
G37*
G54D13*X207000Y436000D03*
G54D11*G36*
X233000Y428000D02*Y422000D01*
X239000D01*
Y428000D01*
X233000D01*
G37*
G54D13*X246000Y425000D03*
G54D16*X221000Y406000D03*
X214000Y414000D03*
G54D15*X207985Y424750D03*
G54D16*X214000Y403000D03*
G54D17*X261630Y439850D03*
G54D15*X259515Y403750D03*
G54D17*X290370Y439850D03*
G54D15*X237000Y409000D03*
Y389000D03*
X249000Y392000D03*
Y412000D03*
G54D11*G36*
X256600Y396400D02*Y389600D01*
X263400D01*
Y396400D01*
X256600D01*
G37*
G54D14*X161591Y396283D03*
X136000D03*
G54D15*X306000Y357000D03*
Y337000D03*
G54D11*G36*
X293000Y358000D02*Y352000D01*
X299000D01*
Y358000D01*
X293000D01*
G37*
G54D13*X286000Y355000D03*
X285000Y380000D03*
X276000Y355000D03*
G54D11*G36*
X272000Y383000D02*Y377000D01*
X278000D01*
Y383000D01*
X272000D01*
G37*
G54D13*X266000Y355000D03*
G54D11*G36*
X291600Y369400D02*Y362600D01*
X298400D01*
Y369400D01*
X291600D01*
G37*
G54D18*X303000Y374000D03*
G54D16*X255000Y366000D03*
G54D13*X256000Y355000D03*
X246000D03*
X236000D03*
X226000D03*
X216000D03*
X206000D03*
X196000D03*
X226000Y325000D03*
X236000D03*
X246000D03*
X256000D03*
X266000D03*
X276000D03*
X286000D03*
X296000D03*
G54D11*G36*
X298000Y310000D02*Y304000D01*
X304000D01*
Y310000D01*
X298000D01*
G37*
G54D13*X291000Y307000D03*
X281000D03*
X271000D03*
X261000D03*
X251000D03*
X241000D03*
X231000D03*
G54D11*G36*
X218000Y310000D02*Y304000D01*
X224000D01*
Y310000D01*
X218000D01*
G37*
G54D13*X211000Y307000D03*
X201000D03*
X191000D03*
X181000D03*
X171000D03*
G54D16*X300000Y393000D03*
G54D14*X308000Y396283D03*
G54D15*X299515Y403750D03*
G54D11*G36*
X299750Y387250D02*Y380750D01*
X306250D01*
Y387250D01*
X299750D01*
G37*
G54D14*X308000Y414000D03*
X333591D03*
Y396283D03*
G54D19*X282299Y418000D03*
X279150Y422724D03*
X276000Y418000D03*
X272850Y422724D03*
X269701Y418000D03*
G54D20*X261630Y421543D03*
X290370D03*
G54D21*X235000Y293000D02*Y276000D01*
X244000Y293000D02*Y276000D01*
X286000Y293000D02*Y276000D01*
X304000Y293000D02*Y276000D01*
X295000Y293000D02*Y276000D01*
X175000Y293000D02*Y276000D01*
X184000Y293000D02*Y276000D01*
X226000Y293000D02*Y276000D01*
X166000Y293000D02*Y276000D01*
X136000Y372000D02*X153000D01*
X317000Y381000D02*X334000D01*
X317000Y372000D02*X334000D01*
X136000Y363000D02*X153000D01*
X317000D02*X334000D01*
X136000Y354000D02*X153000D01*
X317000D02*X334000D01*
X136000Y345000D02*X153000D01*
X136000Y336000D02*X153000D01*
X317000D02*X334000D01*
X317000Y345000D02*X334000D01*
G54D22*X159000Y354000D03*
Y345000D03*
Y335000D03*
X169000Y341000D03*
X247000Y334000D03*
X231000Y335000D03*
Y317000D03*
X245000Y368000D03*
X163000Y299000D03*
X172000Y300000D03*
X175100Y315900D03*
X211000Y350000D03*
X189000Y391000D03*
X211000Y394000D03*
X201000Y414000D03*
X171000Y387000D03*
X310000Y381000D03*
X311000Y372000D03*
X310000Y365000D03*
X256000Y339000D03*
X281000Y336000D03*
X307000Y300000D03*
X296000Y312000D03*
X277000Y317000D03*
X310000Y351600D03*
X310300Y346700D03*
Y342300D03*
X299000Y340000D03*
G54D23*X235324Y440132D03*
G54D22*X263000Y430000D03*
X253000Y425500D03*
X271000Y371000D03*
G54D24*G54D25*G54D24*G54D26*G54D27*G54D28*G54D27*G54D29*G54D27*G54D29*G54D27*G54D30*G54D27*G54D30*G54D27*G54D31*G54D30*G54D31*G54D30*G54D27*G54D29*G54D30*G54D26*G54D27*G54D26*G54D27*G54D26*G54D27*G54D32*G54D27*G54D26*G54D27*G54D29*G54D30*G54D32*G54D29*G54D33*G54D19*M02*
